<svg xmlns="http://www.w3.org/2000/svg" viewBox="0 0 70.679 80"><defs><style>.cls-1{fill:#ff5050;}.cls-2{fill:#ffb300;}.cls-3{fill:#ff811e;}.cls-4{fill:#ffd91e;}.cls-5{fill:gray;}</style></defs><g id="レイヤー_2" data-name="レイヤー 2"><path class="cls-1" d="M21.247,30.35a1.326,1.326,0,0,1-.627-.158l-11.6-6.237a1.34,1.34,0,0,1,0-2.358L20.62,15.36a1.325,1.325,0,0,1,1.253,0L33.479,21.6a1.34,1.34,0,0,1,0,2.358L21.873,30.192A1.322,1.322,0,0,1,21.247,30.35Zm-8.254-7.288,8,4.3a.54.54,0,0,0,.512,0l8-4.3a.325.325,0,0,0,0-.571l-8-4.3a.54.54,0,0,0-.512,0l-8,4.3A.324.324,0,0,0,12.993,23.062Z"/><path class="cls-2" d="M35.339,54.054a1.333,1.333,0,0,1-1.329-1.336V40.243a1.33,1.33,0,1,1,2.659,0V52.718A1.333,1.333,0,0,1,35.339,54.054Z"/><path class="cls-1" d="M39.76,52.715a1.331,1.331,0,0,1-1.329-1.336V38.9a1.338,1.338,0,0,1,.7-1.179l9.672-5.2a1.32,1.32,0,0,1,1.31.032,1.34,1.34,0,0,1,.645,1.147V46.181a1.339,1.339,0,0,1-.7,1.179l-9.672,5.2A1.328,1.328,0,0,1,39.76,52.715Zm1.329-12.686v8.577a.325.325,0,0,0,.478.286l6.251-3.36a.539.539,0,0,0,.285-.476V36.479a.325.325,0,0,0-.478-.286l-6.251,3.36A.541.541,0,0,0,41.089,40.029Z"/><path class="cls-3" d="M30.292,46.321a1.324,1.324,0,0,0,1.8-.55,1.34,1.34,0,0,0-.546-1.808l-8.742-4.7a.433.433,0,0,1-.227-.381V36.3a.216.216,0,0,1,.318-.19l7.4,3.975a1.325,1.325,0,0,0,1.8-.549,1.341,1.341,0,0,0-.546-1.809l-9.672-5.2a1.32,1.32,0,0,0-1.31.032,1.34,1.34,0,0,0-.645,1.147V46.185a1.335,1.335,0,0,0,.7,1.175l9.672,5.2A1.336,1.336,0,0,0,31.545,50.2L22.8,45.5a.433.433,0,0,1-.227-.381V42.535a.216.216,0,0,1,.318-.19Z"/><path class="cls-3" d="M61.664,21.6,50.059,15.36a1.325,1.325,0,0,0-1.253,0l-5.777,3.1-.055.03L37.2,21.6a1.341,1.341,0,0,0-.547,1.809,1.326,1.326,0,0,0,1.8.549l4.971-2.672a.438.438,0,0,1,.41,0l5.727,3.077a.218.218,0,0,1,.1.267L48.188,28.54a1.339,1.339,0,0,0,.774,1.723,1.325,1.325,0,0,0,1.714-.777l1.329-3.534a.216.216,0,0,1,.3-.114l2.3,1.235a1.321,1.321,0,0,0,1.253,0l5.8-3.118a1.341,1.341,0,0,0,0-2.358Zm-6.633,2.672L46.8,19.848a.217.217,0,0,1,0-.381l2.423-1.3a.432.432,0,0,1,.41,0l8.226,4.421a.216.216,0,0,1,0,.381l-2.423,1.3A.436.436,0,0,1,55.031,24.269Z"/><path class="cls-1" d="M39.242,16.367h0a8.651,8.651,0,0,1-7.8,0h0a8.649,8.649,0,0,1,0-15.437h0a8.651,8.651,0,0,1,7.8,0h0A8.649,8.649,0,0,1,39.242,16.367Z"/><path class="cls-4" d="M26.256,32.026l8.57,4.631a1.081,1.081,0,0,0,1.027,0l8.57-4.631a.757.757,0,0,0,0-1.332l-8.57-4.631a1.083,1.083,0,0,0-1.028,0l-8.569,4.631A.757.757,0,0,0,26.256,32.026Z"/><path class="cls-5" d="M0,74.388V69.419a5.28,5.28,0,0,1,5.405-5.635,5.311,5.311,0,0,1,5.429,5.635v4.969A5.292,5.292,0,0,1,5.405,80,5.261,5.261,0,0,1,0,74.388Zm8.557.091V69.327a3.048,3.048,0,0,0-3.152-3.381A3.059,3.059,0,0,0,2.254,69.3v5.152a3.048,3.048,0,0,0,3.151,3.382A3.06,3.06,0,0,0,8.557,74.479Z"/><path class="cls-5" d="M17.861,78.965V64.819A.934.934,0,0,1,18.9,63.784h3.865c3.289,0,5.405,2.024,5.405,5.658v.46a4.7,4.7,0,0,1-3.348,4.9l2.658,3.933c.46.69.253,1.265-.46,1.265H26.51a1.38,1.38,0,0,1-1.242-.69L22.7,75.331H20.116v3.634A.934.934,0,0,1,19.081,80H18.9A.934.934,0,0,1,17.861,78.965Zm4.647-5.8c1.932,0,3.427-.967,3.427-3.29v-.552c0-2.53-1.472-3.358-3.427-3.358H20.116v7.2Z"/><path class="cls-5" d="M34.869,78.965V64.819A.934.934,0,0,1,35.9,63.784h6.947a.934.934,0,0,1,1.035,1.035v.115a.934.934,0,0,1-1.035,1.035H37.124v4.876h3.887a.911.911,0,0,1,1.035.989.927.927,0,0,1-1.035,1.012H37.124v4.969h5.727a.934.934,0,0,1,1.035,1.035v.115A.934.934,0,0,1,42.851,80H35.9A.934.934,0,0,1,34.869,78.965Z"/><path class="cls-5" d="M50.589,78.965V64.819a.934.934,0,0,1,1.035-1.035h.184a.934.934,0,0,1,1.035,1.035V78.965A.934.934,0,0,1,51.808,80h-.184A.934.934,0,0,1,50.589,78.965Z"/><path class="cls-5" d="M59.845,74.388V69.419a5.421,5.421,0,1,1,10.834,0v4.969a5.42,5.42,0,1,1-10.834,0Zm8.557.091V69.327a3.159,3.159,0,1,0-6.3-.023v5.152a3.159,3.159,0,1,0,6.3.023Z"/></g></svg>