<svg xmlns="http://www.w3.org/2000/svg" width="300" height="100" viewBox="0 0 300 100">
  <defs>
    <style>
      .cls-1 {
        fill: none;
      }

      .cls-2 {
        fill: #c81d1d;
      }

      .cls-3 {
        fill: #d61518;
      }

      .cls-4 {
        fill: #fff;
      }

      .cls-5 {
        fill: #a17a51;
      }

      .cls-6 {
        fill: #e50012;
      }
    </style>
  </defs>
  <g id="グループ_3987" data-name="グループ 3987" transform="translate(-251 -6200)">
    <rect id="img" class="cls-1" width="300" height="100" transform="translate(251 6200)"/>
    <g id="グループ_3938" data-name="グループ 3938" transform="translate(156.904 5554.447)">
      <g id="グループ_3929" data-name="グループ 3929" transform="translate(225.699 680.553)">
        <path id="パス_246" data-name="パス 246" class="cls-2" d="M307.483,689.593" transform="translate(-282.022 -682.94)"/>
        <path id="パス_247" data-name="パス 247" class="cls-3" d="M292.264,706.311a10.45,10.45,0,1,1,6.836-18.3,13.339,13.339,0,1,0,3.63,9.039v-.039A10.562,10.562,0,0,1,292.264,706.311Z" transform="translate(-273.63 -681.356)"/>
        <g id="グループ_3923" data-name="グループ 3923" transform="translate(0 0)">
          <path id="パス_248" data-name="パス 248" class="cls-3" d="M303.234,691.188a2.7,2.7,0,0,0,1.758.718,1.419,1.419,0,0,0,.5-.166,2.271,2.271,0,0,0,.51-.483,2.053,2.053,0,0,0,.344-.947,3.722,3.722,0,0,0-.732-2.017,6.834,6.834,0,0,0-2.434-2.119c-.1-.049-.178-.1-.178-.1a1.552,1.552,0,0,1,.166,0,2.369,2.369,0,0,0,1.2-.2,1.133,1.133,0,0,0,.4-.557.7.7,0,0,0-.156-.693,1.707,1.707,0,0,0-.674-.391,1.029,1.029,0,0,0-.486-.01.6.6,0,0,0-.386.723.587.587,0,0,0,.3.313.413.413,0,0,0,.322.01.242.242,0,0,0,.156-.1.26.26,0,0,0,.071-.244.3.3,0,0,0-.186-.176c-.151-.054-.256.01-.249.146l.007.059h.051c.068-.01.1.024.081.083s-.09.083-.176.059a.308.308,0,0,1-.237-.312.5.5,0,0,1,.54-.4c.471.02.916.435.857.806a.918.918,0,0,1-.5.61,2.587,2.587,0,0,1-1.887-.063,11.478,11.478,0,0,0-1.624-.381l-.637-.122c-.205.112-.027.225.137.249s.208.083.33.078a2.76,2.76,0,0,1,.588.112,6.9,6.9,0,0,1,3.271,1.592,7.009,7.009,0,0,1,.876.9,4.214,4.214,0,0,1,.776,1.611,1.758,1.758,0,0,1-.085.987,1.049,1.049,0,0,1-1.033.762,1.867,1.867,0,0,1-1.091-.352,1.976,1.976,0,0,1-.483-.508,1.052,1.052,0,0,1-.134-.762.635.635,0,0,1,.242-.391.519.519,0,0,1,.232-.151.5.5,0,0,1,.359,0,1.01,1.01,0,0,1,.3.308.146.146,0,0,1-.029.205.122.122,0,0,1-.193-.01.139.139,0,0,1-.051-.1c0-.034,0-.039-.1.015-.168.093-.217.2-.176.342a.307.307,0,0,0,.122.171.527.527,0,0,0,.542.151.331.331,0,0,0,.171-.122.588.588,0,0,0,.154-.411.742.742,0,0,0-.234-.547,1.012,1.012,0,0,0-1.221-.186,1.263,1.263,0,0,0-.4.43,1.237,1.237,0,0,0-.132.7,1.066,1.066,0,0,0,.266.6c.044.054.1.117.11.127a1.272,1.272,0,0,0,.151.146Z" transform="translate(-280.013 -681.514)"/>
          <path id="パス_249" data-name="パス 249" class="cls-3" d="M278.721,686.875a2.5,2.5,0,0,0-.352-1.7,1.2,1.2,0,0,0-.381-.3,1.857,1.857,0,0,0-.625-.142,1.919,1.919,0,0,0-.9.215,3.469,3.469,0,0,0-1.162,1.578,6.346,6.346,0,0,0-.378,2.939,1.363,1.363,0,0,1,.015.181s.071-.171.032-.244a2.156,2.156,0,0,0-.759-.806,1.794,1.794,0,0,0-.852-.024c-.239.078-.4.479-.447.7a1.612,1.612,0,0,0,.046.713.781.781,0,0,0,.3.317.879.879,0,0,0,.969-.073c.073-.1,0-.381-.032-.5a.4.4,0,0,0-.149-.254.534.534,0,0,0-.21-.117c-.1-.02-.171.122-.22.176a.249.249,0,0,0-.044.234c.034.142.137.19.234.117l.049-.039-.032-.034c-.037-.049-.029-.093.024-.107s.11.024.134.1a.278.278,0,0,1-.117.342.447.447,0,0,1-.579-.205.783.783,0,0,1,.173-1.064.859.859,0,0,1,.718.073,2.362,2.362,0,0,1,.911,1.465,5.077,5.077,0,0,0,.483,1.46,2.648,2.648,0,0,0,1.152.84c.193.1.154.01.022-.073-.293-.176-.259-.449-.476-.718a5.255,5.255,0,0,1-.449-.728,6.424,6.424,0,0,1-.337-3.3,3.034,3.034,0,0,1,.129-.781,4.159,4.159,0,0,1,.774-1.465,1.366,1.366,0,0,1,.745-.376.711.711,0,0,1,.93.342,1.359,1.359,0,0,1,.286.9,1.491,1.491,0,0,1-.081.562.994.994,0,0,1-.518.488c-.151.059-.129.059-.308.015a.478.478,0,0,1-.232-.1.514.514,0,0,1-.183-.269.636.636,0,0,1,.027-.337.124.124,0,0,1,.168-.073.109.109,0,0,1,.1.146.148.148,0,0,1-.046.088c-.029.024-.029.024.056.068.159.083.261.073.349-.039a.272.272,0,0,0,.068-.181.474.474,0,0,0-.159-.483.244.244,0,0,0-.178-.073.506.506,0,0,0-.393.093.671.671,0,0,0-.3.454.935.935,0,0,0,.479,1.025,1.2,1.2,0,0,0,.53.083,1.076,1.076,0,0,0,.6-.259.937.937,0,0,0,.322-.5c.017-.068.039-.137.044-.156s.022-.1.034-.186Z" transform="translate(-272.892 -681.655)"/>
          <path id="パス_250" data-name="パス 250" class="cls-3" d="M276.415,707.415a3.486,3.486,0,0,1,.134.376c.032.1.2.42.1.605-.049.093-.171.107-.205.049a1.524,1.524,0,0,1-.146-.391c-.012-.093-.042-.151-.063-.259a3.167,3.167,0,0,0-.808-1.226.878.878,0,0,0-.19-.19,2.117,2.117,0,0,0-.684-.376.527.527,0,0,0-.344.054c-.208.088-.259.137-.256.342a.445.445,0,0,0,.134.342c.049.073.083.161.146.2a.48.48,0,0,0,.325.044c-.056.01.061-.015.081-.044a.2.2,0,0,0,.061-.1.215.215,0,0,0,0-.151c-.015-.029-.015-.093-.061-.117s-.059-.01-.085.02a.049.049,0,0,0,0,.078.068.068,0,0,0,.044.02c.017,0,.017,0,0,.044-.042.073-.081.1-.144.078-.027,0-.039-.02-.076-.049a.226.226,0,0,1-.071-.225.163.163,0,0,1,.049-.083.27.27,0,0,1,.173-.063.3.3,0,0,1,.234.088.428.428,0,0,1,.093.513.532.532,0,0,1-.173.181.5.5,0,0,1-.3.059.406.406,0,0,1-.256-.1.533.533,0,0,0-.054-.044.365.365,0,0,1-.063-.068h0a1.138,1.138,0,0,1-.325-.732.577.577,0,0,1,.063-.21.663.663,0,0,1,.2-.22.823.823,0,0,1,.393-.161,1.539,1.539,0,0,1,.859.283,2.808,2.808,0,0,1,.952.977" transform="translate(-273.1 -687.187)"/>
          <path id="パス_251" data-name="パス 251" class="cls-3" d="M283.544,700.234a4.779,4.779,0,0,0-.054,1.44c.115.493-.3.493-.01.811.137.146.364.464.271.352-.2-.254.071-.513-.032-.815-.061-.19.1-.615.081-.835a6.335,6.335,0,0,1,.92-3.037,3.246,3.246,0,0,1,.374-.649,3.785,3.785,0,0,1,1.165-1.025,1.191,1.191,0,0,1,.776-.093c.457.054.6.19.706.61a1.293,1.293,0,0,1-.042.884,1.375,1.375,0,0,1-.264.469.889.889,0,0,1-.61.259.313.313,0,0,1-.278-.088.422.422,0,0,1-.171-.161.484.484,0,0,1-.068-.3.63.63,0,0,1,.129-.283.12.12,0,0,1,.176-.015.107.107,0,0,1,.037.161.131.131,0,0,1-.071.063c-.037.01-.037.015.027.083.11.122.205.146.32.078.054-.029.068-.049.12-.142a.446.446,0,0,0,.022-.474.238.238,0,0,0-.134-.122.478.478,0,0,0-.376-.049.622.622,0,0,0-.415.3.876.876,0,0,0,.085,1.055,1.156,1.156,0,0,0,.439.254,1.075,1.075,0,0,0,.61-.034.91.91,0,0,0,.447-.332c.039-.049.078-.107.09-.122s.051-.088.093-.156h0a2.354,2.354,0,0,0,.251-1.611,1.215,1.215,0,0,0-.237-.391,1.754,1.754,0,0,0-.5-.327,1.784,1.784,0,0,0-.859-.1,3.156,3.156,0,0,0-1.543,1.006,5.854,5.854,0,0,0-1.3,2.451c-.024.093.059-.024.059-.024s.015.063,0-.01" transform="translate(-275.66 -684.594)"/>
          <path id="パス_252" data-name="パス 252" class="cls-3" d="M283.436,683.62a2.238,2.238,0,0,0-.706,1.841c.383,1.011,1.023.337,1.4-1.47.291-1.372.259-1.392-.7-.371Z" transform="translate(-275.479 -681.175)"/>
          <path id="パス_253" data-name="パス 253" class="cls-3" d="M288.679,681.447a2.231,2.231,0,0,0-1.05,1.67c.181,1.06.935.527,1.663-1.172.549-1.289.522-1.309-.613-.5Z" transform="translate(-276.779 -680.646)"/>
          <path id="パス_254" data-name="パス 254" class="cls-3" d="M293.787,680.912c-.725.317-1.355.962-1.372,1.411-.044,1.079.806.713,1.868-.8.806-1.147.786-1.172-.5-.61Z" transform="translate(-278.045 -680.553)"/>
          <path id="パス_255" data-name="パス 255" class="cls-3" d="M291.072,690.124a1.749,1.749,0,0,0-1.1-1.079c-.464-.137-1.155-.132-1.167,0-.02.2,1.011,1.06,1.6,1.338.767.356.923.3.664-.264Z" transform="translate(-277.093 -682.768)"/>
          <path id="パス_256" data-name="パス 256" class="cls-3" d="M294.043,687.984a1.786,1.786,0,0,0-1.3-.83c-.481-.029-1.152.117-1.14.254a4.283,4.283,0,0,0,1.846.977c.82.2.962.1.591-.4Z" transform="translate(-277.83 -682.292)"/>
          <path id="パス_257" data-name="パス 257" class="cls-3" d="M288.594,692.64c-.371-.693-1.062-1.274-1.514-1.265-1.077.039-.649.854.938,1.807,1.206.723,1.23.7.576-.542Z" transform="translate(-276.478 -683.41)"/>
        </g>
        <g id="グループ_3924" data-name="グループ 3924" transform="translate(2.74 2.628)">
          <path id="パス_258" data-name="パス 258" class="cls-4" d="M283.234,690.23a2.007,2.007,0,0,0-.334-1.353,1.048,1.048,0,0,0-.312-.229,1.55,1.55,0,0,0-.508-.093,1.511,1.511,0,0,0-.71.2,2.726,2.726,0,0,0-.881,1.3,5.1,5.1,0,0,0-.215,2.358.806.806,0,0,1,.02.146s-.032-.049-.068-.1a1.71,1.71,0,0,0-.635-.62.734.734,0,0,0-.5,0,.516.516,0,0,0-.342.391,1.259,1.259,0,0,0,.059.566.71.71,0,0,0,.2.293.441.441,0,0,0,.6-.078.43.43,0,0,0,.056-.312.332.332,0,0,0-.132-.2.179.179,0,0,0-.125-.049.176.176,0,0,0-.176.059.211.211,0,0,0-.024.19c.029.107.115.146.193.083l.034-.029-.024-.029c-.034-.039-.027-.073.015-.088s.085.02.11.083a.218.218,0,0,1-.083.273.373.373,0,0,1-.469-.146.623.623,0,0,1,.107-.854.669.669,0,0,1,.576.029,1.887,1.887,0,0,1,.774,1.147,3.43,3.43,0,0,0,.518,1.055,2.183,2.183,0,0,0,.862.742c.159.073.217.083.107.024a2.449,2.449,0,0,1-.623-.508,3.9,3.9,0,0,1-.383-.566,5.084,5.084,0,0,1-.464-2.627,5.155,5.155,0,0,1,.161-.908,3.089,3.089,0,0,1,.62-1.152,1.329,1.329,0,0,1,.625-.376.764.764,0,0,1,.894.288,1.4,1.4,0,0,1,.264.8,1.37,1.37,0,0,1-.1.5.779.779,0,0,1-.4.41.483.483,0,0,1-.334.024.354.354,0,0,1-.19-.073.367.367,0,0,1-.154-.215.757.757,0,0,1,.054-.308.1.1,0,0,1,.132-.068c.063.01.09.049.083.117a.171.171,0,0,1-.034.073c-.024.015-.024.015.046.054.127.054.21.044.276-.049a.228.228,0,0,0,.054-.146.39.39,0,0,0-.144-.381.206.206,0,0,0-.144-.054.419.419,0,0,0-.31.088.514.514,0,0,0-.227.376.737.737,0,0,0,.415.8.886.886,0,0,0,.425.054.9.9,0,0,0,.474-.225.791.791,0,0,0,.239-.415c.012-.049.024-.1.032-.122s.015-.088.022-.151Z" transform="translate(-277.173 -685.296)"/>
          <path id="パス_259" data-name="パス 259" class="cls-4" d="M288.226,686.736a1.606,1.606,0,0,0,.278-1.084.782.782,0,0,0-.137-.288,1.531,1.531,0,0,0-.325-.264,1.347,1.347,0,0,0-.583-.122,2.178,2.178,0,0,0-1.125.6,3.977,3.977,0,0,0-1.05,1.6c-.022.063-.042.112-.042.112a.636.636,0,0,1-.012-.1,1.384,1.384,0,0,0-.215-.684.631.631,0,0,0-.356-.2.413.413,0,0,0-.393.151,1.031,1.031,0,0,0-.178.425.55.55,0,0,0,.037.288.349.349,0,0,0,.452.166.36.36,0,0,0,.159-.2.248.248,0,0,0-.017-.19.18.18,0,0,0-.068-.088.156.156,0,0,0-.151-.015c-.046.015-.071.054-.085.122-.022.088.024.146.1.132l.037-.01,0-.034c-.012-.034.007-.059.042-.049a.071.071,0,0,1,.046.093.17.17,0,0,1-.161.166.292.292,0,0,1-.278-.283c-.032-.278.181-.571.4-.566a.527.527,0,0,1,.4.244,1.529,1.529,0,0,1,.117,1.113,2.892,2.892,0,0,0-.034.942,1.757,1.757,0,0,0,.337.864c.081.107.122.137.066.054a1.856,1.856,0,0,1-.254-.6,3.054,3.054,0,0,1-.054-.547,4.081,4.081,0,0,1,.669-2.051,4.429,4.429,0,0,1,.457-.586,2.536,2.536,0,0,1,.881-.586,1.025,1.025,0,0,1,.593-.024.616.616,0,0,1,.527.542,1.111,1.111,0,0,1-.122.664,1.1,1.1,0,0,1-.256.332.624.624,0,0,1-.439.132.348.348,0,0,1-.247-.107.315.315,0,0,1-.107-.122.311.311,0,0,1-.029-.21.614.614,0,0,1,.159-.205.084.084,0,0,1,.117,0,.073.073,0,0,1,.017.112.072.072,0,0,1-.056.034c-.024,0-.024,0,.015.063a.167.167,0,0,0,.217.073c.037-.02.049-.034.088-.088a.309.309,0,0,0,.046-.327.19.19,0,0,0-.083-.093.35.35,0,0,0-.251-.063.5.5,0,0,0-.31.186.6.6,0,0,0,0,.732.673.673,0,0,0,.281.2.747.747,0,0,0,.425.02.654.654,0,0,0,.325-.2.943.943,0,0,0,.071-.083.593.593,0,0,0,.073-.1Z" transform="translate(-278.584 -684.349)"/>
          <path id="パス_260" data-name="パス 260" class="cls-4" d="M293.115,685.512a1.119,1.119,0,0,0,.476-.61.584.584,0,0,0,0-.215.97.97,0,0,0-.132-.254.853.853,0,0,0-.332-.239,1.522,1.522,0,0,0-.869.054,2.9,2.9,0,0,0-1.108.718c-.032.034-.059.059-.059.059a.7.7,0,0,1,.022-.068,1.025,1.025,0,0,0,.059-.488.485.485,0,0,0-.176-.22.279.279,0,0,0-.288-.015.657.657,0,0,0-.229.22.434.434,0,0,0-.059.186.245.245,0,0,0,.239.234.23.23,0,0,0,.154-.078.191.191,0,0,0,.044-.132.115.115,0,0,0-.022-.073.106.106,0,0,0-.088-.054.113.113,0,0,0-.088.054c-.042.049-.024.1.029.112l.024,0,0-.02c.007-.024.022-.034.044-.024s.022.044,0,.073a.118.118,0,0,1-.149.063.2.2,0,0,1-.1-.259c.059-.181.271-.308.41-.244a.378.378,0,0,1,.183.264,1.07,1.07,0,0,1-.237.732,2.022,2.022,0,0,0-.286.586,1.167,1.167,0,0,0-.027.63c.024.1.037.127.027.059a1.322,1.322,0,0,1,0-.449,2.319,2.319,0,0,1,.12-.361,2.845,2.845,0,0,1,.991-1.1,3.435,3.435,0,0,1,.449-.244,1.715,1.715,0,0,1,.72-.122.79.79,0,0,1,.378.146.429.429,0,0,1,.181.488.73.73,0,0,1-.513.518.407.407,0,0,1-.315-.029.27.27,0,0,1-.127-.142.22.22,0,0,1-.034-.107.26.26,0,0,1,.042-.142.408.408,0,0,1,.156-.078.052.052,0,0,1,.073.029c.02.039.01.063-.022.078s-.032.015-.042.01-.02,0-.007.039c.017.073.049.107.115.107a.114.114,0,0,0,.078-.024.221.221,0,0,0,.122-.2.13.13,0,0,0-.027-.083.248.248,0,0,0-.144-.107.311.311,0,0,0-.244.029.424.424,0,0,0-.208.459.483.483,0,0,0,.122.2.535.535,0,0,0,.259.137.5.5,0,0,0,.264-.039c.027-.01.054-.024.066-.029l.073-.044Z" transform="translate(-280.255 -684.133)"/>
          <path id="パス_261" data-name="パス 261" class="cls-4" d="M296.732,685.234a.684.684,0,0,0,.371-.3.385.385,0,0,0,.024-.137.547.547,0,0,0-.044-.176.685.685,0,0,0-.171-.2.952.952,0,0,0-.544-.073,1.713,1.713,0,0,0-.774.288l-.044.029s.01-.02.022-.039a.611.611,0,0,0,.1-.293.278.278,0,0,0-.076-.156.179.179,0,0,0-.178-.049.364.364,0,0,0-.166.1.244.244,0,0,0-.066.112.158.158,0,0,0,.12.171.14.14,0,0,0,.1-.034c.027-.024.039-.034.042-.063a.064.064,0,0,0,0-.049.072.072,0,0,0-.046-.049.091.091,0,0,0-.063.024.04.04,0,0,0,0,.073l.012,0,.007-.015c0-.015.017-.015.027,0a.029.029,0,0,1,0,.044.091.091,0,0,1-.1.02.134.134,0,0,1-.02-.171.213.213,0,0,1,.283-.1.234.234,0,0,1,.076.186.646.646,0,0,1-.242.415,1.394,1.394,0,0,0-.256.327.751.751,0,0,0-.1.381c0,.063,0,.083.007.039a.8.8,0,0,1,.063-.273,1.3,1.3,0,0,1,.122-.21,1.809,1.809,0,0,1,.754-.542,3.028,3.028,0,0,1,.31-.088,1.148,1.148,0,0,1,.457.02.467.467,0,0,1,.212.142.268.268,0,0,1,.046.322.511.511,0,0,1-.21.21.758.758,0,0,1-.176.039.229.229,0,0,1-.188-.059.167.167,0,0,1-.059-.1.115.115,0,0,1,0-.068c0-.029.02-.068.042-.078a.243.243,0,0,1,.107-.034c.024,0,.034.01.042.034a.029.029,0,0,1-.024.039H296.5c-.01,0-.01,0-.01.02a.08.08,0,0,0,.056.088.131.131,0,0,0,.054-.01.137.137,0,0,0,.1-.1.072.072,0,0,0-.01-.054.145.145,0,0,0-.073-.088.185.185,0,0,0-.154-.01.26.26,0,0,0-.188.249.273.273,0,0,0,.049.142.3.3,0,0,0,.139.117.249.249,0,0,0,.168.01c.02,0,.037,0,.044,0a.217.217,0,0,1,.051-.02Z" transform="translate(-281.474 -684.123)"/>
          <path id="パス_262" data-name="パス 262" class="cls-4" d="M299.142,685.465a.468.468,0,0,0,.3-.1.188.188,0,0,0,.046-.073.353.353,0,0,0,.012-.112.348.348,0,0,0-.059-.161.557.557,0,0,0-.308-.176,1.1,1.1,0,0,0-.535,0,.106.106,0,0,0-.029,0s.007-.015.02-.02a.377.377,0,0,0,.129-.151.182.182,0,0,0-.01-.117.114.114,0,0,0-.1-.068.378.378,0,0,0-.125.02.2.2,0,0,0-.061.054.1.1,0,0,0,.027.132.117.117,0,0,0,.071.01.092.092,0,0,0,.044-.034c0-.015.007-.015.007-.024s0-.039-.017-.044a.054.054,0,0,0-.039,0c-.029,0-.034.029-.02.044l.01,0,0,0c.007-.01.017-.01.02,0a.023.023,0,0,1-.015.024.056.056,0,0,1-.066-.015.086.086,0,0,1,.029-.107.135.135,0,0,1,.19.01.154.154,0,0,1,0,.132.483.483,0,0,1-.244.2.649.649,0,0,0-.232.132.483.483,0,0,0-.151.21c-.012.034-.015.049,0,.024a.511.511,0,0,1,.1-.156c.029-.024.085-.073.122-.1a1.2,1.2,0,0,1,.586-.146,1.38,1.38,0,0,1,.208.024.72.72,0,0,1,.269.117.331.331,0,0,1,.1.137.171.171,0,0,1-.049.205.28.28,0,0,1-.176.073.447.447,0,0,1-.117-.01.2.2,0,0,1-.1-.088.123.123,0,0,1-.012-.073.093.093,0,0,1,.015-.044.1.1,0,0,1,.046-.039.216.216,0,0,1,.073.01c.012,0,.015.015.015.024s-.012.024-.024.024a.076.076,0,0,1-.017,0s0,0-.01,0a.058.058,0,0,0,.012.068.067.067,0,0,0,.034,0,.084.084,0,0,0,.085-.034.053.053,0,0,0,.01-.039.1.1,0,0,0-.024-.068.12.12,0,0,0-.09-.039.157.157,0,0,0-.173.1.19.19,0,0,0,0,.1.182.182,0,0,0,.061.1.163.163,0,0,0,.1.049h.027a.173.173,0,0,0,.034,0Z" transform="translate(-282.269 -684.219)"/>
          <path id="パス_263" data-name="パス 263" class="cls-4" d="M301.214,685.957a.42.42,0,0,0,.259-.083.192.192,0,0,0,.039-.068.238.238,0,0,0,.012-.1.272.272,0,0,0-.049-.137.544.544,0,0,0-.271-.156.951.951,0,0,0-.469,0,.094.094,0,0,1-.029,0l.02-.015a.361.361,0,0,0,.115-.132.165.165,0,0,0-.007-.1.1.1,0,0,0-.083-.068.274.274,0,0,0-.11.02.126.126,0,0,0-.056.049.087.087,0,0,0,.024.117.13.13,0,0,0,.061,0c.022,0,.029-.02.042-.029a.053.053,0,0,0,0-.024c0-.02,0-.024-.015-.034a.033.033,0,0,0-.037,0,.022.022,0,0,0-.012.039l0,.01,0,0c0-.015.015-.015.017,0a.023.023,0,0,1-.015.024.056.056,0,0,1-.056-.015.081.081,0,0,1,.022-.1.125.125,0,0,1,.171.015.111.111,0,0,1,0,.107.347.347,0,0,1-.212.171.835.835,0,0,0-.2.117.422.422,0,0,0-.134.186c-.012.029-.012.039,0,.024a.684.684,0,0,1,.088-.137.738.738,0,0,1,.11-.078.937.937,0,0,1,.513-.137c.049,0,.142.015.181.02a.782.782,0,0,1,.239.1.276.276,0,0,1,.078.122.15.15,0,0,1-.039.181.274.274,0,0,1-.156.063.662.662,0,0,1-.1-.01.161.161,0,0,1-.085-.073.108.108,0,0,1-.012-.068.056.056,0,0,1,.012-.034.147.147,0,0,1,.039-.039.109.109,0,0,1,.063.015c.012,0,.017,0,.017.024a.021.021,0,0,1-.022.015c-.01,0-.012,0-.015-.01s-.007,0-.01.01c-.012.034-.007.044.012.059a.049.049,0,0,0,.029,0,.066.066,0,0,0,.073-.029.058.058,0,0,0,.007-.034.085.085,0,0,0-.02-.059.11.11,0,0,0-.078-.039.156.156,0,0,0-.154.093.213.213,0,0,0,0,.088.179.179,0,0,0,.051.088.132.132,0,0,0,.083.044h.024a.173.173,0,0,0,.034,0Z" transform="translate(-282.85 -684.383)"/>
          <path id="パス_264" data-name="パス 264" class="cls-4" d="M280.154,696.991a2.6,2.6,0,0,0-1.37-1.245,1.289,1.289,0,0,0-.515-.024A1.851,1.851,0,0,0,277,696.742a3.625,3.625,0,0,0-.012,2.095,6.692,6.692,0,0,0,1.511,2.769,1.713,1.713,0,0,1,.127.146.921.921,0,0,1-.149-.059,2.271,2.271,0,0,0-1.162-.22,1.089,1.089,0,0,0-.554.371.68.68,0,0,0-.093.688,1.682,1.682,0,0,0,.488.581.923.923,0,0,0,.439.176.584.584,0,0,0,.6-.532.546.546,0,0,0-.176-.381.378.378,0,0,0-.288-.122.226.226,0,0,0-.171.034.261.261,0,0,0-.151.2.269.269,0,0,0,.11.22c.12.107.239.088.276-.049l.017-.054-.049-.01c-.063-.02-.081-.063-.044-.107a.123.123,0,0,1,.176,0,.3.3,0,0,1,.117.366.487.487,0,0,1-.632.186.833.833,0,0,1-.515-1.025.9.9,0,0,1,.664-.386,2.535,2.535,0,0,1,1.707.688,4.724,4.724,0,0,0,1.353.791,2.882,2.882,0,0,0,1.5.176c.225-.039.3-.068.137-.054a3.029,3.029,0,0,1-1.067-.1,5.542,5.542,0,0,1-.842-.342,6.828,6.828,0,0,1-2.458-2.563,6.507,6.507,0,0,1-.5-1.123,4.142,4.142,0,0,1-.168-1.733,1.663,1.663,0,0,1,.417-.879,1.015,1.015,0,0,1,1.2-.352,1.84,1.84,0,0,1,1.155,1.318,1.038,1.038,0,0,1-.142.747.621.621,0,0,1-.349.278.546.546,0,0,1-.264.059.519.519,0,0,1-.33-.117,1,1,0,0,1-.173-.391.131.131,0,0,1,.1-.171.114.114,0,0,1,.173.068.136.136,0,0,1,.015.1c-.012.044-.012.044.093.024.186-.029.269-.1.278-.259a.341.341,0,0,0-.056-.2.514.514,0,0,0-.442-.322.313.313,0,0,0-.2.054.53.53,0,0,0-.281.327.7.7,0,0,0,.027.576,1,1,0,0,0,1.06.586,1.142,1.142,0,0,0,.862-.859,1.033,1.033,0,0,0-.039-.635c-.024-.068-.051-.132-.059-.156s-.049-.107-.088-.186Z" transform="translate(-276.614 -687.18)"/>
          <path id="パス_265" data-name="パス 265" class="cls-4" d="M280.72,706.824a2.546,2.546,0,0,0-1.78-.083,1.358,1.358,0,0,0-.4.3,1.982,1.982,0,0,0-.3.591,1.905,1.905,0,0,0-.012.938,3.538,3.538,0,0,0,1.279,1.563,6.322,6.322,0,0,0,2.823,1.118c.1.02.19.029.19.029a.62.62,0,0,1-.151.049,2.222,2.222,0,0,0-1,.557,1.015,1.015,0,0,0-.181.61.65.65,0,0,0,.356.566,1.546,1.546,0,0,0,.718.137,1,1,0,0,0,.437-.142.566.566,0,0,0,.112-.762.55.55,0,0,0-.364-.176.376.376,0,0,0-.293.083.256.256,0,0,0-.1.137.229.229,0,0,0,.015.234.236.236,0,0,0,.22.1c.146.01.222-.083.171-.2l-.024-.054-.046.02c-.054.029-.1,0-.1-.049s.054-.1.134-.107a.284.284,0,0,1,.31.2.471.471,0,0,1-.352.527c-.422.132-.95-.093-1.013-.439a.873.873,0,0,1,.249-.7,2.467,2.467,0,0,1,1.692-.537,4.36,4.36,0,0,0,1.487-.249,2.753,2.753,0,0,0,1.221-.791c.142-.171.183-.239.068-.132a2.784,2.784,0,0,1-.85.586,4.736,4.736,0,0,1-.837.269,6.547,6.547,0,0,1-3.4-.391,6.393,6.393,0,0,1-1.06-.522,3.909,3.909,0,0,1-1.187-1.177,1.669,1.669,0,0,1-.234-.913.975.975,0,0,1,.674-.991,1.733,1.733,0,0,1,1.665.269.979.979,0,0,1,.354.635.612.612,0,0,1-.088.425.482.482,0,0,1-.159.2.511.511,0,0,1-.317.117.93.93,0,0,1-.366-.181.137.137,0,0,1-.037-.19.113.113,0,0,1,.171-.054.108.108,0,0,1,.076.063c.017.039.02.039.085-.034.12-.137.134-.244.046-.361-.037-.054-.059-.068-.161-.117a.5.5,0,0,0-.525.039.368.368,0,0,0-.117.156.579.579,0,0,0-.007.415.7.7,0,0,0,.381.415.961.961,0,0,0,1.14-.22,1.142,1.142,0,0,0,.217-.5,1.173,1.173,0,0,0-.1-.659,1.026,1.026,0,0,0-.422-.449c-.061-.034-.122-.073-.139-.083s-.1-.049-.181-.078Z" transform="translate(-277.026 -690.058)"/>
          <path id="パス_266" data-name="パス 266" class="cls-4" d="M288.7,713.106a2.08,2.08,0,0,0-1.421.288,1.04,1.04,0,0,0-.254.317,1.545,1.545,0,0,0-.122.527,1.571,1.571,0,0,0,.178.742,2.792,2.792,0,0,0,1.318.981,5.116,5.116,0,0,0,2.454.332c.081,0,.151-.015.154-.015a.314.314,0,0,1-.11.068,1.853,1.853,0,0,0-.679.635.862.862,0,0,0-.022.527.549.549,0,0,0,.393.376,1.457,1.457,0,0,0,.6-.034.767.767,0,0,0,.315-.205.457.457,0,0,0-.059-.62.422.422,0,0,0-.325-.068.3.3,0,0,0-.212.122.2.2,0,0,0-.056.127.18.18,0,0,0,.059.186.186.186,0,0,0,.193.034c.12-.024.159-.107.1-.2l-.032-.034-.029.024c-.042.029-.078.024-.085-.024s.02-.088.085-.112a.253.253,0,0,1,.283.1.386.386,0,0,1-.178.488.646.646,0,0,1-.884-.151.686.686,0,0,1,.061-.6,1.924,1.924,0,0,1,1.23-.757,3.877,3.877,0,0,0,1.125-.5,2.217,2.217,0,0,0,.811-.864c.081-.166.1-.22.032-.112a2.458,2.458,0,0,1-.559.63,4.27,4.27,0,0,1-.61.371,5.286,5.286,0,0,1-2.761.366,5.2,5.2,0,0,1-.942-.21,3.229,3.229,0,0,1-1.172-.7,1.371,1.371,0,0,1-.364-.669.8.8,0,0,1,.339-.923,1.454,1.454,0,0,1,.847-.239,1.637,1.637,0,0,1,.522.122.8.8,0,0,1,.405.435.508.508,0,0,1,.012.352.386.386,0,0,1-.083.19.381.381,0,0,1-.232.151.767.767,0,0,1-.322-.063c-.068-.039-.083-.068-.068-.142a.092.092,0,0,1,.127-.078.1.1,0,0,1,.073.034c.017.029.017.029.056-.049a.205.205,0,0,0-.032-.293.248.248,0,0,0-.154-.054.41.41,0,0,0-.405.132.224.224,0,0,0-.059.146.459.459,0,0,0,.073.332.576.576,0,0,0,.386.249.785.785,0,0,0,.857-.4.969.969,0,0,0,.071-.444.935.935,0,0,0-.212-.5.836.836,0,0,0-.42-.269c-.056-.02-.11-.029-.125-.034a1.414,1.414,0,0,0-.164-.034Z" transform="translate(-279.327 -691.765)"/>
          <path id="パス_267" data-name="パス 267" class="cls-4" d="M297.193,715.088a1.441,1.441,0,0,0-.732.684.641.641,0,0,0-.034.273,1.032,1.032,0,0,0,.115.356,1.138,1.138,0,0,0,.376.371,1.994,1.994,0,0,0,1.125.1,3.591,3.591,0,0,0,1.56-.688.359.359,0,0,1,.083-.063.423.423,0,0,1-.037.073,1.217,1.217,0,0,0-.171.62.57.57,0,0,0,.173.317.357.357,0,0,0,.366.078.934.934,0,0,0,.337-.234.532.532,0,0,0,.115-.229.313.313,0,0,0-.261-.342.274.274,0,0,0-.215.073.219.219,0,0,0-.078.146.131.131,0,0,0,.012.1.124.124,0,0,0,.1.083c.046.015.083,0,.125-.049.061-.054.056-.122-.012-.146l-.029-.01-.01.024c-.012.034-.037.044-.059.02s-.022-.059.01-.093a.153.153,0,0,1,.2-.049.261.261,0,0,1,.071.347.454.454,0,0,1-.574.234.506.506,0,0,1-.181-.376,1.371,1.371,0,0,1,.452-.889,2.534,2.534,0,0,0,.483-.688,1.56,1.56,0,0,0,.164-.8c-.012-.127-.024-.166-.024-.078a1.657,1.657,0,0,1-.1.571,2.613,2.613,0,0,1-.222.435,3.642,3.642,0,0,1-1.492,1.206,3.163,3.163,0,0,1-.627.22,2.271,2.271,0,0,1-.94.015,1,1,0,0,1-.454-.269.544.544,0,0,1-.132-.659.99.99,0,0,1,.762-.562.546.546,0,0,1,.4.107.347.347,0,0,1,.134.205.3.3,0,0,1,.02.146.328.328,0,0,1-.081.171.706.706,0,0,1-.217.073c-.049,0-.073-.015-.088-.063a.067.067,0,0,1,.044-.093.107.107,0,0,1,.056,0c.022.01.022.01.02-.049-.01-.1-.046-.146-.125-.156a.164.164,0,0,0-.11.02.274.274,0,0,0-.193.225.144.144,0,0,0,.017.1.337.337,0,0,0,.164.171.386.386,0,0,0,.313,0,.53.53,0,0,0,.364-.537.6.6,0,0,0-.115-.283.62.62,0,0,0-.31-.22.512.512,0,0,0-.342-.01c-.037.015-.078.02-.088.024a.543.543,0,0,0-.1.039Z" transform="translate(-281.842 -692.062)"/>
          <path id="パス_268" data-name="パス 268" class="cls-4" d="M303.083,714.061a.9.9,0,0,0-.212.6.524.524,0,0,0,.066.166.646.646,0,0,0,.491.264,1.214,1.214,0,0,0,.662-.283,2.238,2.238,0,0,0,.674-.845l.029-.059a.53.53,0,0,1,0,.059.834.834,0,0,0,.085.4.41.41,0,0,0,.193.122.223.223,0,0,0,.227-.063.567.567,0,0,0,.122-.234.349.349,0,0,0,0-.161.2.2,0,0,0-.247-.117.193.193,0,0,0-.1.107.162.162,0,0,0,0,.107.143.143,0,0,0,.037.049.082.082,0,0,0,.083.02.08.08,0,0,0,.056-.063c.017-.054-.007-.088-.054-.083l-.02,0,0,.02c0,.02-.007.029-.024.024s-.032-.024-.024-.054a.109.109,0,0,1,.1-.088.166.166,0,0,1,.144.176c0,.156-.129.313-.256.3a.315.315,0,0,1-.21-.161.86.86,0,0,1-.012-.635,1.517,1.517,0,0,0,.066-.532.993.993,0,0,0-.146-.493c-.042-.068-.061-.083-.037-.044a1.027,1.027,0,0,1,.112.356,1.462,1.462,0,0,1,.007.313,2.376,2.376,0,0,1-.479,1.123,2.651,2.651,0,0,1-.288.3,1.373,1.373,0,0,1-.527.288.55.55,0,0,1-.332-.015A.342.342,0,0,1,303,714.6a.664.664,0,0,1,.1-.381.673.673,0,0,1,.161-.161.332.332,0,0,1,.254-.059.218.218,0,0,1,.137.073.213.213,0,0,1,.054.073.234.234,0,0,1,.007.122.4.4,0,0,1-.1.107.048.048,0,0,1-.068-.01c-.022-.015-.022-.039,0-.063s.022-.02.029-.02.017,0,0-.029c-.034-.059-.071-.073-.12-.059a.229.229,0,0,0-.054.049.172.172,0,0,0-.039.181c.007.029.015.034.039.059a.23.23,0,0,0,.139.044.257.257,0,0,0,.183-.088.346.346,0,0,0,.042-.415.418.418,0,0,0-.151-.122.4.4,0,0,0-.234-.034.354.354,0,0,0-.2.1c-.02.02-.037.034-.044.044a.645.645,0,0,0-.044.054Z" transform="translate(-283.544 -691.625)"/>
          <path id="パス_269" data-name="パス 269" class="cls-4" d="M306.483,712.7a.532.532,0,0,0,.049.381.28.28,0,0,0,.078.073.463.463,0,0,0,.139.044.414.414,0,0,0,.2-.034.765.765,0,0,0,.288-.332,1.409,1.409,0,0,0,.134-.645v-.044a.067.067,0,0,1,.015.029.5.5,0,0,0,.156.2.269.269,0,0,0,.139.02.161.161,0,0,0,.107-.1.421.421,0,0,0,0-.166.189.189,0,0,0-.044-.083.119.119,0,0,0-.168,0,.117.117,0,0,0-.027.078.1.1,0,0,0,.029.063c.015.01.02.015.034.015a.046.046,0,0,0,.051-.01.054.054,0,0,0,.012-.049c0-.029-.027-.044-.051-.029l-.01,0,.007.01c.007.01,0,.02-.007.02s-.024,0-.029-.024a.064.064,0,0,1,.032-.073.106.106,0,0,1,.127.054.18.18,0,0,1-.059.239.191.191,0,0,1-.159-.029.554.554,0,0,1-.178-.342.985.985,0,0,0-.11-.312.593.593,0,0,0-.215-.229c-.042-.024-.056-.034-.029-.015a.57.57,0,0,1,.159.166.93.93,0,0,1,.085.171,1.361,1.361,0,0,1,.044.737,1.3,1.3,0,0,1-.073.249.919.919,0,0,1-.21.3.371.371,0,0,1-.183.078.214.214,0,0,1-.239-.1.4.4,0,0,1-.046-.234.365.365,0,0,1,.042-.142.239.239,0,0,1,.122-.1.124.124,0,0,1,.093.01.092.092,0,0,1,.054.024.1.1,0,0,1,.032.063.168.168,0,0,1-.024.083c-.007.015-.017.024-.037.015a.022.022,0,0,1-.017-.034.037.037,0,0,1,.01-.02c.007,0,.007,0-.01-.02-.037-.015-.059-.015-.081.01s-.012.01-.017.034a.109.109,0,0,0,.024.112.181.181,0,0,0,.039.024.111.111,0,0,0,.088-.02.161.161,0,0,0,.078-.1.206.206,0,0,0-.09-.234.3.3,0,0,0-.117-.029.289.289,0,0,0-.139.049.231.231,0,0,0-.078.1c-.007.02-.01.034-.012.039a.416.416,0,0,0-.012.044Z" transform="translate(-284.493 -691.323)"/>
          <path id="パス_270" data-name="パス 270" class="cls-4" d="M308.325,711.016a.427.427,0,0,0,.073.3.417.417,0,0,0,.068.054.7.7,0,0,0,.115.02.339.339,0,0,0,.154-.044.609.609,0,0,0,.2-.288,1.049,1.049,0,0,0,.049-.522l0-.039s.01.015.015.024a.454.454,0,0,0,.142.142.219.219,0,0,0,.112,0,.12.12,0,0,0,.073-.088.289.289,0,0,0-.012-.127.232.232,0,0,0-.042-.068.1.1,0,0,0-.132.02.08.08,0,0,0-.015.068.083.083,0,0,0,.029.049c.01,0,.015,0,.027.01s.032,0,.037-.015a.044.044,0,0,0,.007-.044q-.011-.037-.044-.015l0,.01,0,0c.007,0,0,.01,0,.02a.026.026,0,0,1-.024-.02.048.048,0,0,1,.02-.063c.029-.024.078,0,.1.034.044.059.032.161-.024.186a.131.131,0,0,1-.127,0,.4.4,0,0,1-.171-.254.807.807,0,0,0-.115-.234.467.467,0,0,0-.2-.166c-.032-.015-.044-.015-.02,0a.479.479,0,0,1,.137.117.6.6,0,0,1,.085.122,1.2,1.2,0,0,1,.1.586,1.709,1.709,0,0,1-.037.2.72.72,0,0,1-.139.259.346.346,0,0,1-.137.078.166.166,0,0,1-.2-.063.3.3,0,0,1-.056-.176.248.248,0,0,1,.02-.117.144.144,0,0,1,.09-.083.077.077,0,0,1,.073,0,.079.079,0,0,1,.042.01.1.1,0,0,1,.034.049.176.176,0,0,1-.012.073c-.007.015-.012.015-.032.015s-.017-.015-.015-.024,0-.02.007-.02,0,0-.012-.015-.046-.01-.061.015c-.007,0-.007.01-.01.029a.085.085,0,0,0,.029.088.041.041,0,0,0,.034.01.09.09,0,0,0,.068-.02.132.132,0,0,0,.051-.083.164.164,0,0,0-.093-.176.153.153,0,0,0-.093-.015.191.191,0,0,0-.107.049.176.176,0,0,0-.051.093c0,.01-.007.024-.01.029s0,.02,0,.029Z" transform="translate(-284.983 -690.942)"/>
          <path id="パス_271" data-name="パス 271" class="cls-4" d="M309.419,709.534a.307.307,0,0,0,.061.22.188.188,0,0,0,.051.034.454.454,0,0,0,.083.01.19.19,0,0,0,.112-.034.451.451,0,0,0,.132-.215.872.872,0,0,0,.022-.381.1.1,0,0,1-.007-.024.15.15,0,0,1,.012.02.352.352,0,0,0,.107.093.21.21,0,0,0,.078,0,.1.1,0,0,0,.054-.068.243.243,0,0,0-.012-.093c-.01-.015-.022-.034-.034-.039a.066.066,0,0,0-.1.015.049.049,0,0,0,0,.049.075.075,0,0,0,.017.034.04.04,0,0,0,.022,0c.015,0,.024,0,.027-.015s.01-.015,0-.029-.017-.024-.029-.01l-.007,0,0,0s0,.015,0,.015-.017,0-.02-.015a.036.036,0,0,1,.012-.044.06.06,0,0,1,.076.02.1.1,0,0,1-.012.142.117.117,0,0,1-.09,0,.3.3,0,0,1-.134-.181.568.568,0,0,0-.088-.161.357.357,0,0,0-.144-.117c-.027,0-.034,0-.02,0a.328.328,0,0,1,.1.078.825.825,0,0,1,.066.088.875.875,0,0,1,.093.42.82.82,0,0,1-.022.146.392.392,0,0,1-.09.181.165.165,0,0,1-.1.068.133.133,0,0,1-.146-.034.3.3,0,0,1-.046-.132.245.245,0,0,1,.012-.083.139.139,0,0,1,.061-.068.166.166,0,0,1,.051,0,.205.205,0,0,1,.034.01.055.055,0,0,1,.024.039.1.1,0,0,1-.007.049c0,.01-.007.01-.02.01s-.017,0-.012-.015,0-.015,0-.015,0,0-.007-.01-.037-.01-.044.01,0,.015-.007.024a.075.075,0,0,0,.024.063.04.04,0,0,0,.024,0,.093.093,0,0,0,.083-.078.14.14,0,0,0-.073-.132.161.161,0,0,0-.068,0,.176.176,0,0,0-.073.039.156.156,0,0,0-.037.068.083.083,0,0,0,0,.024l0,.015Z" transform="translate(-285.273 -690.63)"/>
        </g>
        <g id="グループ_3925" data-name="グループ 3925" transform="translate(14.344 17.169)">
          <path id="パス_272" data-name="パス 272" class="cls-3" d="M298.867,703.946a2.023,2.023,0,0,0-.491.239.5.5,0,0,0-.137.088c-.085.078-.154.078-.325,0a2.7,2.7,0,0,0-.7-.146,3.068,3.068,0,0,0-.762-.034,2.655,2.655,0,0,0-.757.171.28.28,0,0,1-.312,0,1.453,1.453,0,0,0-.146-.088.884.884,0,0,1-.144-.107,1.192,1.192,0,0,0-.5-.156.973.973,0,0,0-.491,0c-.149.015-.332.039-.41.049-.146.024-.234.063-.244.132a3.5,3.5,0,0,0,.256.615.684.684,0,0,0,.278.3.438.438,0,0,0,.4,0c.208-.068.234-.073.286-.02.085.083.034.278-.1.366-.049.029-.5.386-.552.415-.12.059-.146.117-.117.225s.4.21.4.283-.127.21-.264.278a1.986,1.986,0,0,0-.417.273c-.171.317,1.064,1.841,1.492,2a13.652,13.652,0,0,0,3.027.8c.088-.049.068.186.474-.449a9.952,9.952,0,0,0,.732-1.392,3.486,3.486,0,0,1,.469-.513.239.239,0,0,0,.068-.337,8.254,8.254,0,0,1-.559-.654c0-.068.027-.093.181-.127s.188-.054.225-.122c.066-.137-.237-.356-.251-.381s-.337-.259-.374-.283c-.134-.083-.242-.308-.171-.366a.418.418,0,0,1,.332,0,2.049,2.049,0,0,0,.232.034.434.434,0,0,0,.317-.156,4.332,4.332,0,0,0,.366-.854,6.477,6.477,0,0,0-.774-.142A3.347,3.347,0,0,0,298.867,703.946Zm-1.06,1.025c.371-.063.525.015.754.391.073.122-.027.435-.059.488a.607.607,0,0,1-.6.313c-.1-.01-.227-.073-.227-.107,0-.015-.042-.049-.085-.083a.482.482,0,0,1-.181-.356.656.656,0,0,1,.122-.435c.029-.024.088-.073.134-.117a.568.568,0,0,1,.139-.093Zm-2.339,0a.83.83,0,0,1,.347,0,.854.854,0,0,1,.344.317.6.6,0,0,1,.007.527,1.041,1.041,0,0,1-.32.313.652.652,0,0,1-.342.024.453.453,0,0,1-.215-.122.5.5,0,0,0-.125-.1.614.614,0,0,1-.1-.229.647.647,0,0,1,.012-.347.493.493,0,0,1,.168-.239c.11-.1.151-.132.22-.146Zm2.517,1.587c.344-.059.413-.054.549.039a1.462,1.462,0,0,1,.281.4,1.3,1.3,0,0,1,.029.508.924.924,0,0,1-.127.366l-.1.21-.2.1a2.971,2.971,0,0,1-.681.171c-.19.02-1.162.1-1.26.073a11.836,11.836,0,0,1-1.182-.2.983.983,0,0,1-.378-.327,2.676,2.676,0,0,1-.125-.6,1.119,1.119,0,0,1,.061-.312.573.573,0,0,1,.159-.3.344.344,0,0,1,.32-.161,4.57,4.57,0,0,1,.8.127,2.184,2.184,0,0,0,.72.044,2.558,2.558,0,0,0,.737-.059,3.759,3.759,0,0,1,.4-.083Zm-5.605,2.783h0" transform="translate(-292.38 -703.879)"/>
          <path id="パス_273" data-name="パス 273" class="cls-3" d="M300.026,705.8a.237.237,0,0,1,.151.264c0,.1,0,.127-.049.171a.427.427,0,0,1-.234.093.644.644,0,0,1-.273-.156.365.365,0,0,1-.017-.132v-.1l.122-.093a.51.51,0,0,1,.164-.093.491.491,0,0,1,.137.049Z" transform="translate(-294.288 -704.375)"/>
          <path id="パス_274" data-name="パス 274" class="cls-3" d="M296.819,705.8a.251.251,0,0,1,.146.264c0,.151-.046.21-.193.244-.107.029-.107.029-.217-.034-.129-.073-.146-.088-.161-.181s.02-.176.132-.264a.232.232,0,0,1,.293-.029Z" transform="translate(-293.439 -704.372)"/>
          <path id="パス_275" data-name="パス 275" class="cls-3" d="M296.487,707.906c.081.083.229.645.273.645.024,0,.208-.5.237-.513.056-.024,1.56-.034,1.6-.01.01,0,.125.42.186.444.154.068.3-.591.337-.615a.352.352,0,0,1,.212,0,.784.784,0,0,1,.178.5,1.589,1.589,0,0,1-.1.464c-.044.093-.083.117-.269.166-.247.068-.378-.19-.491-.312s-.266.43-.305.449a5.242,5.242,0,0,1-1.006.024c-.063-.02-.1-.283-.2-.391-.139-.171-.176.054-.269.181-.073.1-.122.117-.22.093-.037-.015-.291-.063-.322-.078a.575.575,0,0,1-.217-.259,2.022,2.022,0,0,1-.01-.6c.032-.107.2-.278.276-.278a.314.314,0,0,1,.1.083Z" transform="translate(-293.36 -704.917)"/>
        </g>
        <path id="パス_276" data-name="パス 276" class="cls-4" d="M297.222,705.916a.647.647,0,1,1-.647-.645A.647.647,0,0,1,297.222,705.916Z" transform="translate(-278.972 -687.076)"/>
        <path id="パス_277" data-name="パス 277" class="cls-4" d="M300.378,705.916a.647.647,0,1,1-.647-.645A.647.647,0,0,1,300.378,705.916Z" transform="translate(-279.806 -687.076)"/>
        <path id="パス_278" data-name="パス 278" class="cls-3" d="M297.044,706.018a.37.37,0,1,1-.369-.371A.374.374,0,0,1,297.044,706.018Z" transform="translate(-279.071 -687.178)"/>
        <path id="パス_279" data-name="パス 279" class="cls-3" d="M300.2,706.018a.369.369,0,1,1-.369-.371A.372.372,0,0,1,300.2,706.018Z" transform="translate(-279.905 -687.178)"/>
        <g id="グループ_3926" data-name="グループ 3926" transform="translate(20.533 21.499)">
          <path id="パス_280" data-name="パス 280" class="cls-3" d="M301.869,710.705a.621.621,0,0,1-.259.122l-.823-.122v1.074a10.4,10.4,0,0,1,1.116.049c.037.02.09.015.234.054s.759.063.845-.107a1.359,1.359,0,0,0,.125-1.069c-.051-.117-.244-.107-.244-.107s-.229.01-.254-.063a1.125,1.125,0,0,1,.029-.361c.024-.063-.151-.513-.4-.391S301.921,710.656,301.869,710.705Z" transform="translate(-300.788 -709.761)"/>
        </g>
        <g id="グループ_3928" data-name="グループ 3928" transform="translate(14.191 21.718)">
          <g id="グループ_3927" data-name="グループ 3927">
            <path id="パス_281" data-name="パス 281" class="cls-3" d="M294.757,710.059c-.049.01-.33.093-.393.107-.151.029-.713.283-.771.3s-.557.366-.581.381a3.347,3.347,0,0,0-.83,2.173c.022.029,2.82.572,2.927.547s.146-.132.112-.425c-.017-.19-.037-.244-.093-.312a.585.585,0,0,1-.1-.146l-.046-.093.037-.1c.037-.1.088-.156.3-.342a.291.291,0,0,1,.273-.078.378.378,0,0,1,.2.215,1.153,1.153,0,0,0,.059.112c.044.063.056.1.085.317a1.274,1.274,0,0,0,.076.3.891.891,0,0,1,.061.176.4.4,0,0,0,.134.239c.107.113.11.113.444.113a1.983,1.983,0,0,0,.884-.127l.059-.034v-.547a5.124,5.124,0,0,1,0-.571.236.236,0,0,1,.2-.093,5.942,5.942,0,0,0,.72-.3c.066-.039.2-.093.232-.654a5.645,5.645,0,0,1,.083-.977C298.856,710.191,294.867,710.049,294.757,710.059Zm-.1.586a.711.711,0,0,1,.305-.015.787.787,0,0,1,.391.332.9.9,0,0,1,0,.405.558.558,0,0,1-.32.322.386.386,0,0,1-.4,0,.529.529,0,0,1-.21-.142c-.039-.049-.088-.1-.1-.127a.669.669,0,0,0-.212-.186,1.276,1.276,0,0,0-.471,0,.941.941,0,0,0-.208.19.623.623,0,0,1-.051.093.31.31,0,0,0-.063.234.568.568,0,0,0,.417.537.33.33,0,0,0,.288,0,.312.312,0,0,1,.271-.029c.083.049.024.176-.112.244a.442.442,0,0,1-.242.049c-.327.02-.447-.044-.715-.337a.9.9,0,0,1-.146-.381.5.5,0,0,1,.024-.254.668.668,0,0,1,.217-.391.886.886,0,0,1,.254-.151l.149-.044h.154l.154-.024.156.063a.671.671,0,0,1,.293.215c.076.083.149.161.166.186a.087.087,0,0,0,.078.049.283.283,0,0,1,.083.015.4.4,0,0,0,.212-.049c.134-.186.134-.186.134-.259a.266.266,0,0,0-.051-.151c-.061-.1-.078-.117-.181-.142a.344.344,0,0,0-.142,0c-.151.044-.288,0-.256-.1a.288.288,0,0,1,.137-.146Zm-.889.869a.309.309,0,0,1,.19,0,.529.529,0,0,1,.2.225.294.294,0,0,1-.391.229c-.127-.078-.181-.2-.134-.283.012-.034.029-.049.037-.049s.02-.024.037-.049a.178.178,0,0,1,.066-.068Z" transform="translate(-292.172 -710.059)"/>
          </g>
        </g>
        <path id="パス_282" data-name="パス 282" class="cls-3" d="M291.629,705.244a.965.965,0,0,1,.469.825.964.964,0,0,0,.173.469c.5.708.442,1.187-.251,1.9a2.454,2.454,0,0,0-.884,1.978,2.046,2.046,0,0,1-.044.664c-.1.112-.588-.5-.869-1.1a3.88,3.88,0,0,1-.305-.981c-.112-1.191.693-2.319,1.353-1.895.237.161.283.532.078.61a1,1,0,0,1-.383,0c-.227-.039-.266-.01-.393.313a1.52,1.52,0,0,0,0,1.284c.222.464.31.371.244-.254-.085-.757-.022-.933.334-.937a.64.64,0,0,0,.61-.972c-.137-.269-.256-.342-.784-.483-.078-.015-.073-.088.022-.273a.74.74,0,0,0-.093-.923c-.125-.151-.2-.3-.171-.347.093-.146.6-.073.891.122Z" transform="translate(-277.383 -687.021)"/>
      </g>
      <g id="グループ_3930" data-name="グループ 3930" transform="translate(256.02 689.434)">
        <path id="パス_283" data-name="パス 283" class="cls-5" d="M314.087,710.973v-1.616c2.141-.229,2.141-.459,2.141-1.792V696.222c0-1.333,0-1.606-2.141-1.792v-1.812h6.118v1.812c-1.833.186-1.833.459-1.833,1.792v12.92h4.81c1.97,0,2.478-1.045,3.164-2.051l1.467.9-1.7,3.662a8.719,8.719,0,0,0-2.432-.479c-.918-.093-1.88-.205-2.754-.205Z" transform="translate(-314.087 -692.618)"/>
        <path id="パス_284" data-name="パス 284" class="cls-5" d="M336.115,710.973v-1.616c1.836-.229,1.836-.459,1.836-1.792V696.222c0-1.333,0-1.606-1.836-1.792v-1.812h6.118v1.812c-2.139.186-2.139.459-2.139,1.792v11.343c0,1.24,0,1.563,2.139,1.792v1.616Z" transform="translate(-319.901 -692.618)"/>
        <path id="パス_285" data-name="パス 285" class="cls-5" d="M352.868,707.564c0,1.24,0,1.563,1.833,1.792v1.616h-6.118v-1.616c2.144-.229,2.144-.459,2.144-1.792V696.222c0-1.333,0-1.606-2.144-1.792v-1.812h8.482c3.992,0,5.186,1.689,5.186,3.848,0,2.432-1.606,3.8-5.278,3.8h-4.1Zm4.2-9.438c1.836,0,2.751-.376,2.751-1.7,0-1.2-1.238-1.66-2.751-1.66h-4.2v3.364Z" transform="translate(-323.193 -692.618)"/>
      </g>
      <g id="グループ_3933" data-name="グループ 3933" transform="translate(94.096 689.434)">
        <path id="パス_286" data-name="パス 286" class="cls-5" d="M116.669,711.388v-1.636c1.836-.229,1.836-.459,1.836-1.792V696.646c0-1.323,0-1.6-1.836-1.782v-1.831h5.813v1.831c-1.835.181-1.835.459-1.835,1.782v3.438l5.61-4.263c.228-.181.6-.41.6-.591,0-.366-.7-.322-1.007-.366v-1.831h5.2v1.831a6.674,6.674,0,0,0-2.313,1.416l-2.987,2.29a28.688,28.688,0,0,1,2.384,5.371c1.04,4.058,2.3,5.532,4.139,5.811v1.636H128.8a47.835,47.835,0,0,1-3.311-7.544,22.815,22.815,0,0,0-1.8-3.7l-3.047,2.271v5.547c0,1.24,0,1.563,1.835,1.792v1.636Z" transform="translate(-100.055 -692.728)"/>
        <path id="パス_287" data-name="パス 287" class="cls-5" d="M141.19,711.388v-1.636c2.142-.229,2.142-.459,2.142-1.792V696.646c0-1.323,0-1.6-2.142-1.782v-1.831h6.118v1.831c-1.836.181-1.836.459-1.836,1.782V707.96c0,1.24,0,1.563,1.836,1.792v1.636Z" transform="translate(-106.527 -692.728)"/>
        <path id="パス_288" data-name="パス 288" class="cls-5" d="M153.659,709.752c1.836-.229,1.836-.459,1.836-1.792V696.646c0-1.323,0-1.6-1.836-1.782v-1.831h4.283v.547a1.73,1.73,0,0,0,.789,1.538l7.471,6.909v-5.381c0-1.323,0-1.6-1.836-1.782v-1.831h5.812v1.831c-1.835.181-1.835.459-1.835,1.782V707.96c0,1.24,0,1.563,1.835,1.792v1.636h-5.812v-1.636c1.836-.229,1.836-.459,1.836-1.792v-3.594l-8.259-7.72V707.96c0,1.24,0,1.563,1.835,1.792v1.636h-6.118Z" transform="translate(-109.818 -692.728)"/>
        <path id="パス_289" data-name="パス 289" class="cls-5" d="M238.03,711.368v-1.636c1.223-.132,2.1,0,2.332-1.968,0,0,2.783-11.226,2.783-12,0-.688-.525-.825-1.75-.913v-1.88c2.141.088,4.4.137,6.646.137,1.831,0,4.368-.049,6.511-.137v1.88c-1.226.088-1.855.132-1.855.913s2.935,12,2.935,12c.229,1.968,1.06,1.836,1.978,1.968v1.636h-5.813v-1.636c.92-.088,1.719-.1,1.719-1.2-.09-1.138-2.324-8.481-2.324-8.481h-6.56s-1.9,7.344-1.995,8.481c0,1.1.6,1.108,1.821,1.2v1.636Zm7.087-13.457h5.491l-.273-2.754h-4.9Z" transform="translate(-132.087 -692.713)"/>
        <path id="パス_290" data-name="パス 290" class="cls-5" d="M180.675,711.368v-1.636c1.223-.132,2.006,0,2.234-1.968,0,0,2.678-11.226,2.678-12,0-.688-.63-.825-1.852-.913v-1.88c2.14.088,4.4.137,6.644.137,1.831,0,4.368-.049,6.508-.137v1.88c-1.223.088-1.8.132-1.8.913s3.062,12,3.062,12c.228,1.968.878,1.836,2.1,1.968v1.636h-6.118v-1.636c1.224-.088,1.774-.1,1.774-1.2-.092-1.138-2.268-8.481-2.268-8.481h-6.559s-1.959,7.344-2.052,8.481c0,1.1.54,1.108,1.764,1.2v1.636Zm6.895-13.457h5.492l-.275-2.754h-4.9Z" transform="translate(-116.948 -692.713)"/>
        <g id="グループ_3931" data-name="グループ 3931" transform="translate(83.611 0)">
          <path id="パス_291" data-name="パス 291" class="cls-5" d="M211.972,711.275V709.64c.613-.088,1.143-.088,1.143-.591,0-.464-3.391-12.4-3.391-12.4-.413-1.787-.505-2.153-2.034-2.2v-1.831h5.2v1.831c-.305.093-1.162.093-1.162.64,0,.649,3.032,11.909,3.032,11.909h.09l2.976-12.236h2.195L223,707h.09s2.964-11.26,2.964-11.909c0-.547-.925-.547-1.233-.64v-1.831h5.2v1.831c-1.531.093-1.575.366-1.987,2.2,0,0-3.406,11.938-3.406,12.4,0,.5.5.5,1.111.591v1.636h-5.2V709.64c.308-.049,1.047-.049,1.047-.5a38.145,38.145,0,0,0-1.033-4.243l-1.58-6.162h-.093l-1.555,6.162a35.464,35.464,0,0,0-.977,4.272c0,.459.518.42,1.13.469v1.636Z" transform="translate(-207.69 -692.618)"/>
          <path id="パス_292" data-name="パス 292" class="cls-5" d="M220.5,696.295c.288-1.23.247-1.66-1.589-1.846v-1.831h6.118v1.831c-2.141.186-2.012.615-1.772,1.846Z" transform="translate(-210.651 -692.618)"/>
        </g>
        <g id="グループ_3932" data-name="グループ 3932" transform="translate(0 0.168)">
          <path id="パス_293" data-name="パス 293" class="cls-5" d="M96.562,702.436c0-4.976,1.913-7.607,4.972-7.563v-2.026c-4.9,0-7.438,3.516-7.438,9.59,0,5.8,2.543,9.229,7.438,9.229V709.4C98.169,709.4,96.562,706.308,96.562,702.436Z" transform="translate(-94.096 -692.846)"/>
          <path id="パス_294" data-name="パス 294" class="cls-5" d="M104.2,692.846v2.026c2.753-.044,4.974,2.588,4.974,7.563,0,3.872-1.917,6.968-4.974,6.963v2.266c4.59,0,7.439-3.433,7.439-9.229C111.64,696.362,108.791,692.846,104.2,692.846Z" transform="translate(-96.763 -692.846)"/>
        </g>
      </g>
      <g id="グループ_3937" data-name="グループ 3937" transform="translate(304.824 687.389)">
        <path id="パス_295" data-name="パス 295" class="cls-6" d="M491.161,707.9c.029-.894.073-1.621.107-2.246a.852.852,0,0,1,.586-.752,5.364,5.364,0,0,0,3.887-4.521.823.823,0,0,0-.825-.928H483.593a.83.83,0,0,0-.83.933,5.517,5.517,0,0,0,4.189,4.57.848.848,0,0,1,.615.8l.024,2.378a.836.836,0,0,1-.757.845c-1.519.142-2.549.278-3.931.371a.835.835,0,0,0-.776.9l.137,1.777a.832.832,0,0,0,.815.767c2.656.049,10.01.1,12.407.112a.832.832,0,0,0,.835-.767l.19-2.251a.834.834,0,0,0-.781-.9c-1.646-.1-2.988-.181-3.784-.225A.837.837,0,0,1,491.161,707.9Z" transform="translate(-407.244 -692.38)"/>
        <g id="グループ_3934" data-name="グループ 3934" transform="translate(0 3.678)">
          <path id="パス_296" data-name="パス 296" class="cls-6" d="M380.393,695.72l.181,3.628a.835.835,0,0,0,.874.791c2.983-.166,10.869-.972,13.826-1.279a.836.836,0,0,1,.894,1.04,18.6,18.6,0,0,1-2.1,4.849.276.276,0,0,0,.349.4,14.43,14.43,0,0,0,8.293-9.2.83.83,0,0,0-.8-1.084c-4.226.034-17.18,0-20.681-.015A.833.833,0,0,0,380.393,695.72Z" transform="translate(-380.392 -694.841)"/>
          <path id="パス_297" data-name="パス 297" class="cls-6" d="M388.668,709.627l5.493,5.864a.854.854,0,0,0,1.34-.1,5.1,5.1,0,0,0-6.646-7.09A.853.853,0,0,0,388.668,709.627Z" transform="translate(-382.514 -698.248)"/>
        </g>
        <g id="グループ_3935" data-name="グループ 3935" transform="translate(51.167 0)">
          <path id="パス_298" data-name="パス 298" class="cls-6" d="M453.6,710.543l1.582,3.267a.845.845,0,0,0,.986.439c8.736-2.485,13.116-8.076,13.316-14.321a.28.28,0,0,0-.5-.176,23.274,23.274,0,0,1-14.781,9.609A.839.839,0,0,0,453.6,710.543Z" transform="translate(-450.861 -692.427)"/>
          <path id="パス_299" data-name="パス 299" class="cls-6" d="M456.887,700.112H450.8a.8.8,0,0,0-.791,1.069,4.141,4.141,0,0,0,7.671,0A.809.809,0,0,0,456.887,700.112Z" transform="translate(-449.921 -692.556)"/>
          <path id="パス_300" data-name="パス 300" class="cls-6" d="M453.829,693.525a3.854,3.854,0,0,0,3.892-2.656.821.821,0,0,0-.811-1.025h-6.162a.821.821,0,0,0-.811,1.025A3.862,3.862,0,0,0,453.829,693.525Z" transform="translate(-449.907 -689.844)"/>
        </g>
        <g id="グループ_3936" data-name="グループ 3936" transform="translate(24.531 2.061)">
          <path id="パス_301" data-name="パス 301" class="cls-6" d="M433.236,692.644h-4.321a.771.771,0,0,0-.835.767c.059,3.071.313,12.749.391,15.874a.824.824,0,0,0,1,.776c6-1.284,8.765-4.3,10.435-6.919a.282.282,0,0,0-.332-.415,35.028,35.028,0,0,1-6.05,1.621.828.828,0,0,1-.957-.947l1.489-9.873A.771.771,0,0,0,433.236,692.644Z" transform="translate(-417.511 -692.644)"/>
          <path id="パス_302" data-name="パス 302" class="cls-6" d="M417.409,700.295a.833.833,0,0,0-1.2.571c-.215,1.084-.605,2.92-1.089,4.722-.474,1.758-1.016,3.4-1.353,4.385a.835.835,0,0,0,.747,1.108,5.826,5.826,0,0,0,2.9-10.786Z" transform="translate(-413.721 -694.639)"/>
        </g>
      </g>
    </g>
  </g>
</svg>
