<?xml version="1.0" encoding="utf-8"?>
<!-- Generator: Adobe Illustrator 24.2.1, SVG Export Plug-In . SVG Version: 6.00 Build 0)  -->
<svg version="1.1" id="レイヤー_1" xmlns="http://www.w3.org/2000/svg" xmlns:xlink="http://www.w3.org/1999/xlink" x="0px"
	 y="0px" viewBox="0 0 70.7 80" style="enable-background:new 0 0 70.7 80;" xml:space="preserve">
<style type="text/css">
	.st0{fill:#FFFFFF;}
</style>
<g id="レイヤー_2_1_">
	<path class="st0" d="M21.2,30.4c-0.2,0-0.4-0.1-0.6-0.2L9,24c-0.7-0.4-0.9-1.2-0.5-1.8c0.1-0.2,0.3-0.4,0.5-0.5l11.6-6.2
		c0.4-0.2,0.9-0.2,1.3,0l11.6,6.2c0.7,0.4,0.9,1.2,0.5,1.8c-0.1,0.2-0.3,0.4-0.5,0.5l-11.6,6.2C21.7,30.3,21.5,30.3,21.2,30.4z
		 M13,23.1l8,4.3c0.2,0.1,0.4,0.1,0.5,0l8-4.3c0.2-0.1,0.2-0.3,0.1-0.4c0-0.1-0.1-0.1-0.1-0.1l-8-4.3c-0.2-0.1-0.4-0.1-0.5,0l-8,4.3
		c-0.2,0.1-0.2,0.3-0.1,0.4C12.9,23,12.9,23,13,23.1z"/>
	<path class="st0" d="M35.3,54.1c-0.7,0-1.3-0.6-1.3-1.3V40.2c0-0.7,0.6-1.3,1.3-1.4c0.7,0,1.3,0.6,1.4,1.3c0,0,0,0,0,0.1v12.5
		C36.7,53.5,36.1,54.1,35.3,54.1C35.3,54.1,35.3,54.1,35.3,54.1z"/>
	<path class="st0" d="M39.8,52.7c-0.7,0-1.3-0.6-1.3-1.3c0,0,0,0,0,0V38.9c0-0.5,0.3-0.9,0.7-1.2l9.7-5.2c0.4-0.2,0.9-0.2,1.3,0
		c0.4,0.2,0.6,0.7,0.6,1.1v12.5c0,0.5-0.3,0.9-0.7,1.2l-9.7,5.2C40.2,52.7,40,52.7,39.8,52.7z M41.1,40v8.6c0,0.2,0.1,0.3,0.3,0.3
		c0.1,0,0.1,0,0.2,0l6.3-3.4c0.2-0.1,0.3-0.3,0.3-0.5v-8.6c0-0.2-0.1-0.3-0.3-0.3c-0.1,0-0.1,0-0.2,0l-6.3,3.4
		C41.2,39.6,41.1,39.8,41.1,40z"/>
	<path class="st0" d="M30.3,46.3c0.6,0.3,1.4,0.1,1.8-0.5c0,0,0,0,0,0c0.3-0.7,0.1-1.5-0.5-1.8l-8.7-4.7c-0.1-0.1-0.2-0.2-0.2-0.4
		v-2.6c0-0.1,0.1-0.2,0.2-0.2c0,0,0.1,0,0.1,0l7.4,4c0.6,0.3,1.4,0.1,1.8-0.5c0,0,0,0,0,0c0.3-0.7,0.1-1.5-0.5-1.8l-9.7-5.2
		c-0.4-0.2-0.9-0.2-1.3,0c-0.4,0.2-0.6,0.7-0.6,1.1v12.5c0,0.5,0.3,0.9,0.7,1.2l9.7,5.2c0.7,0.3,1.5,0.1,1.8-0.6
		c0.3-0.6,0.1-1.4-0.5-1.8l-8.7-4.7c-0.1-0.1-0.2-0.2-0.2-0.4v-2.6c0-0.1,0.1-0.2,0.2-0.2c0,0,0.1,0,0.1,0L30.3,46.3z"/>
	<path class="st0" d="M61.7,21.6l-11.6-6.2c-0.4-0.2-0.9-0.2-1.3,0L43,18.5l-0.1,0l-5.8,3.1c-0.6,0.4-0.9,1.2-0.5,1.8
		c0.3,0.6,1.1,0.9,1.8,0.6c0,0,0,0,0,0l5-2.7c0.1-0.1,0.3-0.1,0.4,0l5.7,3.1c0.1,0.1,0.1,0.2,0.1,0.3l-1.5,3.9
		c-0.3,0.7,0.1,1.5,0.8,1.7c0.7,0.3,1.4-0.1,1.7-0.8c0,0,0,0,0,0L52,26c0-0.1,0.2-0.2,0.3-0.1c0,0,0,0,0,0l2.3,1.2
		c0.4,0.2,0.9,0.2,1.3,0l5.8-3.1c0.7-0.4,0.9-1.2,0.5-1.8C62.1,21.9,61.9,21.7,61.7,21.6L61.7,21.6z M55,24.3l-8.2-4.4
		c-0.1-0.1-0.1-0.2-0.1-0.3c0,0,0.1-0.1,0.1-0.1l2.4-1.3c0.1-0.1,0.3-0.1,0.4,0l8.2,4.4c0.1,0.1,0.1,0.2,0.1,0.3
		c0,0-0.1,0.1-0.1,0.1l-2.4,1.3C55.3,24.3,55.2,24.3,55,24.3L55,24.3z"/>
	<path class="st0" d="M39.2,16.4L39.2,16.4c-2.5,1.2-5.3,1.2-7.8,0l0,0c-4.3-2.2-6-7.4-3.8-11.6c0.8-1.6,2.2-3,3.8-3.8l0,0
		c2.5-1.2,5.3-1.2,7.8,0l0,0c4.3,2.2,6,7.4,3.8,11.6C42.2,14.2,40.9,15.5,39.2,16.4z"/>
	<path class="st0" d="M26.3,32l8.6,4.6c0.3,0.2,0.7,0.2,1,0l8.6-4.6c0.4-0.2,0.5-0.7,0.3-1c-0.1-0.1-0.2-0.2-0.3-0.3l-8.6-4.6
		c-0.3-0.2-0.7-0.2-1,0l-8.6,4.6c-0.4,0.2-0.5,0.7-0.3,1C26,31.8,26.1,32,26.3,32z"/>
	<path class="st0" d="M0,74.4v-5c-0.2-2.9,2-5.4,4.9-5.6c0.2,0,0.3,0,0.5,0c2.9-0.1,5.4,2.2,5.4,5.2c0,0.2,0,0.3,0,0.5v5
		c0.2,2.9-2,5.4-5,5.6c-0.2,0-0.3,0-0.5,0c-2.9,0.1-5.3-2.2-5.4-5.1C0,74.7,0,74.6,0,74.4z M8.6,74.5v-5.2c0.2-1.7-1-3.2-2.7-3.4
		c-0.2,0-0.3,0-0.5,0c-1.7-0.1-3.1,1.3-3.2,3c0,0.1,0,0.3,0,0.4v5.2c-0.2,1.7,1,3.2,2.7,3.4c0.2,0,0.3,0,0.5,0
		c1.7,0.1,3.1-1.3,3.2-3C8.6,74.7,8.6,74.6,8.6,74.5z"/>
	<path class="st0" d="M17.9,79V64.8c-0.1-0.5,0.3-1,0.8-1c0.1,0,0.1,0,0.2,0h3.9c3.3,0,5.4,2,5.4,5.7v0.5c0.2,2.2-1.2,4.3-3.3,4.9
		l2.7,3.9c0.5,0.7,0.3,1.3-0.5,1.3h-0.5c-0.5,0-1-0.2-1.2-0.7l-2.6-4h-2.6V79c0.1,0.5-0.3,1-0.8,1c-0.1,0-0.1,0-0.2,0h-0.2
		c-0.5,0.1-1-0.3-1-0.8C17.9,79.1,17.9,79,17.9,79z M22.5,73.2c1.9,0,3.4-1,3.4-3.3v-0.6c0-2.5-1.5-3.4-3.4-3.4h-2.4v7.2L22.5,73.2z
		"/>
	<path class="st0" d="M34.9,79V64.8c-0.1-0.5,0.3-1,0.8-1c0.1,0,0.1,0,0.2,0h6.9c0.5-0.1,1,0.3,1,0.8c0,0.1,0,0.1,0,0.2v0.1
		c0.1,0.5-0.3,1-0.8,1c-0.1,0-0.1,0-0.2,0h-5.7v4.9H41c0.5-0.1,1,0.3,1,0.8c0,0.1,0,0.1,0,0.2c0.1,0.5-0.3,1-0.8,1
		c-0.1,0-0.1,0-0.2,0h-3.9v5h5.7c0.5-0.1,1,0.3,1,0.8c0,0.1,0,0.1,0,0.2V79c0.1,0.5-0.3,1-0.8,1c-0.1,0-0.1,0-0.2,0h-7
		c-0.5,0.1-1-0.3-1-0.8C34.9,79.1,34.9,79,34.9,79z"/>
	<path class="st0" d="M50.6,79V64.8c-0.1-0.5,0.3-1,0.8-1c0.1,0,0.1,0,0.2,0h0.2c0.5-0.1,1,0.3,1,0.8c0,0.1,0,0.1,0,0.2V79
		c0.1,0.5-0.3,1-0.8,1c-0.1,0-0.1,0-0.2,0h-0.2c-0.5,0.1-1-0.3-1-0.8C50.6,79.1,50.6,79,50.6,79z"/>
	<path class="st0" d="M59.8,74.4v-5c-0.1-3,2.2-5.5,5.2-5.6c3-0.1,5.5,2.2,5.6,5.2c0,0.1,0,0.3,0,0.4v5c0.1,3-2.2,5.5-5.2,5.6
		c-3,0.1-5.5-2.2-5.6-5.2C59.8,74.6,59.8,74.5,59.8,74.4z M68.4,74.5v-5.2c0.1-1.7-1.2-3.3-2.9-3.4c-1.7-0.1-3.3,1.2-3.4,2.9
		c0,0.2,0,0.3,0,0.5v5.2c-0.1,1.7,1.2,3.3,2.9,3.4c1.7,0.1,3.3-1.2,3.4-2.9C68.4,74.8,68.4,74.6,68.4,74.5z"/>
</g>
</svg>
