<svg xmlns="http://www.w3.org/2000/svg" viewBox="0 0 155 40"><defs><style>.cls-1{fill:#ff5050;}.cls-2{fill:#ffb300;}.cls-3{fill:#ff811e;}.cls-4{fill:#ffd91e;}.cls-5{fill:gray;}</style></defs><g id="レイヤー_2" data-name="レイヤー 2"><path class="cls-1" d="M9.571,22.459a.976.976,0,0,1-.463-.117L.52,17.727a.992.992,0,0,1,0-1.745l8.588-4.616a.982.982,0,0,1,.927,0l8.589,4.616a.992.992,0,0,1,0,1.745l-8.589,4.615A.977.977,0,0,1,9.571,22.459ZM3.464,17.066l5.918,3.18a.4.4,0,0,0,.379,0l5.918-3.18a.24.24,0,0,0,0-.423L9.761,13.462a.4.4,0,0,0-.379,0L3.463,16.643A.24.24,0,0,0,3.464,17.066Z"/><path class="cls-2" d="M20,40a.987.987,0,0,1-.984-.989V29.78a.984.984,0,1,1,1.968,0v9.231A.987.987,0,0,1,20,40Z"/><path class="cls-1" d="M23.271,39.009a.984.984,0,0,1-.983-.989V28.789a.99.99,0,0,1,.52-.872l7.157-3.847a.98.98,0,0,1,.969.024.99.99,0,0,1,.478.849v9.231a.99.99,0,0,1-.52.872l-7.157,3.847A.979.979,0,0,1,23.271,39.009Zm.984-9.388v6.348a.24.24,0,0,0,.354.211l4.625-2.486a.4.4,0,0,0,.211-.352V26.994a.24.24,0,0,0-.354-.211l-4.625,2.486A.4.4,0,0,0,24.255,29.621Z"/><path class="cls-3" d="M16.265,34.277a.98.98,0,0,0,1.331-.406.993.993,0,0,0-.4-1.339l-6.469-3.476a.319.319,0,0,1-.168-.282V26.861a.159.159,0,0,1,.235-.141l5.475,2.942a.981.981,0,0,0,1.331-.407.991.991,0,0,0-.4-1.338L10.035,24.07a.979.979,0,0,0-.969.024.99.99,0,0,0-.478.849v9.234a.987.987,0,0,0,.52.869l7.157,3.847a.982.982,0,0,0,1.331-.407.991.991,0,0,0-.4-1.338l-6.469-3.477a.318.318,0,0,1-.168-.282V31.476a.16.16,0,0,1,.235-.141Z"/><path class="cls-3" d="M39.48,15.982l-8.588-4.616a.982.982,0,0,0-.927,0l-4.275,2.3-.041.022-4.272,2.3a.988.988,0,0,0,.927,1.745l3.679-1.977a.319.319,0,0,1,.3,0l4.238,2.277a.161.161,0,0,1,.074.2l-1.09,2.9a.99.99,0,0,0,.573,1.275.964.964,0,0,0,.348.064.984.984,0,0,0,.92-.639l.983-2.615a.161.161,0,0,1,.226-.085l1.7.914a.977.977,0,0,0,.927,0l4.294-2.307a.992.992,0,0,0,0-1.745Zm-4.908,1.977-6.088-3.272a.16.16,0,0,1,0-.281l1.793-.964a.319.319,0,0,1,.3,0l6.087,3.271a.16.16,0,0,1,0,.282l-1.792.964A.319.319,0,0,1,34.572,17.959Z"/><path class="cls-1" d="M22.888,12.112h0a6.405,6.405,0,0,1-5.775,0h0a6.4,6.4,0,0,1,0-11.424h0a6.405,6.405,0,0,1,5.775,0h0A6.4,6.4,0,0,1,22.888,12.112Z"/><path class="cls-4" d="M13.278,23.7l6.342,3.427a.8.8,0,0,0,.76,0L26.722,23.7a.56.56,0,0,0,0-.985L20.38,19.287a.8.8,0,0,0-.76,0l-6.342,3.427A.56.56,0,0,0,13.278,23.7Z"/><path class="cls-5" d="M46.037,29.035v-7.66c0-5.106,3.4-8.688,8.333-8.688,4.894,0,8.369,3.582,8.369,8.688v7.66c0,5.106-3.475,8.652-8.369,8.652C49.441,37.687,46.037,34.141,46.037,29.035Zm13.191.141V21.233c0-3.44-2.127-5.212-4.858-5.212-2.447,0-4.858,1.56-4.858,5.177v7.943c0,3.44,2.128,5.213,4.858,5.213C56.817,34.354,59.228,32.793,59.228,29.176Z"/><path class="cls-5" d="M73.573,36.092V14.283a1.44,1.44,0,0,1,1.6-1.6h5.957c5.071,0,8.333,3.121,8.333,8.724v.709c0,4.048-2.043,6.593-5.162,7.553l4.1,6.064c.709,1.064.39,1.95-.709,1.95h-.781a2.127,2.127,0,0,1-1.914-1.064l-3.959-6.134H77.048v5.6a1.439,1.439,0,0,1-1.595,1.595h-.284A1.439,1.439,0,0,1,73.573,36.092Zm7.163-8.937c2.979,0,5.284-1.489,5.284-5.071v-.851c0-3.9-2.27-5.177-5.284-5.177H77.048v11.1Z"/><path class="cls-5" d="M99.793,36.092V14.283a1.44,1.44,0,0,1,1.6-1.6H112.1a1.439,1.439,0,0,1,1.595,1.6v.177a1.439,1.439,0,0,1-1.595,1.6h-8.83v7.518h5.993a1.4,1.4,0,0,1,1.595,1.525,1.429,1.429,0,0,1-1.595,1.56h-5.993v7.659h8.83a1.44,1.44,0,0,1,1.595,1.6v.178a1.439,1.439,0,0,1-1.595,1.595h-10.71A1.44,1.44,0,0,1,99.793,36.092Z"/><path class="cls-5" d="M124.028,36.092V14.283a1.44,1.44,0,0,1,1.6-1.6h.284a1.439,1.439,0,0,1,1.595,1.6V36.092a1.439,1.439,0,0,1-1.595,1.595h-.284A1.44,1.44,0,0,1,124.028,36.092Z"/><path class="cls-5" d="M138.3,29.035v-7.66c0-5.106,3.4-8.688,8.333-8.688,4.894,0,8.369,3.582,8.369,8.688v7.66c0,5.106-3.475,8.652-8.369,8.652C141.7,37.687,138.3,34.141,138.3,29.035Zm13.192.141V21.233c0-3.44-2.128-5.212-4.859-5.212-2.446,0-4.858,1.56-4.858,5.177v7.943c0,3.44,2.128,5.213,4.858,5.213C149.078,34.354,151.49,32.793,151.49,29.176Z"/></g></svg>