<?xml version="1.0" encoding="utf-8"?>
<!-- Generator: Adobe Illustrator 24.2.1, SVG Export Plug-In . SVG Version: 6.00 Build 0)  -->
<svg version="1.1" id="レイヤー_1" xmlns="http://www.w3.org/2000/svg" xmlns:xlink="http://www.w3.org/1999/xlink" x="0px"
	 y="0px" viewBox="0 0 444.5 740.4" style="enable-background:new 0 0 444.5 740.4;" xml:space="preserve">
<style type="text/css">
	.st0{fill:#E7F5EF;}
	.st1{fill:#F0F9F5;}
	.st2{fill:#F3EDF5;}
	.st3{fill:#EEE8F5;}
	.st4{fill:#F8F9EC;}
	.st5{fill:#FFFAF8;}
	.st6{fill:#F8EFEC;}
	.st7{fill:#E2F3F3;}
	.st8{fill:#ECF2F7;}
	.st9{fill:#FCF1F7;}
	.st10{fill:#FEF9FB;}
</style>
<g id="グループ_7062" transform="translate(-1335 89.587)">
	<rect id="長方形_22" x="1648.3" y="334.1" class="st0" width="52.8" height="33.3"/>
	<rect id="長方形_23" x="1642.6" y="494.9" class="st0" width="52.8" height="33.3"/>
	<rect id="長方形_24" x="1623.6" y="2.2" class="st1" width="95.1" height="60"/>
	<rect id="長方形_25" x="1525" y="254.6" class="st2" width="41.7" height="26.3"/>
	<rect id="長方形_26" x="1335" y="508" class="st3" width="86.5" height="54.6"/>
	<rect id="長方形_27" x="1490" y="459" class="st4" width="47.1" height="29.7"/>
	<rect id="長方形_28" x="1349" y="-89.6" class="st5" width="86.6" height="54.6"/>
	<rect id="長方形_29" x="1443.1" y="208.3" class="st6" width="30.6" height="19.3"/>
	<rect id="長方形_30" x="1342.9" y="93.4" class="st4" width="70.6" height="44.6"/>
	<rect id="長方形_31" x="1628.1" y="156.3" class="st7" width="65.8" height="41.5"/>
	<rect id="長方形_32" x="1667.1" y="242.8" class="st8" width="52.7" height="33.3"/>
	<rect id="長方形_33" x="1695.2" y="597.8" class="st8" width="84.3" height="53"/>
	<rect id="長方形_34" x="1699.8" y="93.8" class="st9" width="74.6" height="47.1"/>
	<rect id="長方形_35" x="1458.7" y="176.2" class="st10" width="66.6" height="42.1"/>
	<rect id="長方形_36" x="1728.4" y="382.9" class="st9" width="39.4" height="24.8"/>
</g>
</svg>
