<svg id="レイヤー_1" data-name="レイヤー 1" xmlns="http://www.w3.org/2000/svg" xmlns:xlink="http://www.w3.org/1999/xlink" viewBox="0 0 300 230"><defs><style>.cls-1{fill:none;}.cls-2{fill:gray;}.cls-18,.cls-3,.cls-36{fill:#fff;}.cls-4{fill:#b2dfdf;}.cls-5{clip-path:url(#clip-path);}.cls-6{fill:#e4e4e4;}.cls-7{fill:#604945;}.cls-8{fill:#ffd6c1;}.cls-9{fill:#ffe0d0;}.cls-10{fill:#fca2bc;}.cls-11{fill:#ededed;}.cls-12{fill:#fffffc;}.cls-13{fill:url(#アーストーン_2);}.cls-14{fill:#cacaca;}.cls-15{fill:#f7b7b6;}.cls-16{fill:#ebebeb;}.cls-17{fill:#faf9f2;}.cls-18{opacity:0.57;}.cls-19{fill:#733000;}.cls-20,.cls-21{fill:#824923;}.cls-21{opacity:0.65;}.cls-22{fill:#823a0a;}.cls-23{fill:#b1b1b1;}.cls-24{fill:#cbcccc;}.cls-25{fill:#b2b2b2;}.cls-26{fill:#bbb;}.cls-27{fill:#cf7e2c;}.cls-28{fill:#ec8f26;}.cls-29{clip-path:url(#clip-path-2);}.cls-30{fill:#734c23;}.cls-31{fill:#c1996c;}.cls-32{fill:#e45827;}.cls-33{fill:#896138;}.cls-34{fill:#5e3819;}.cls-35{fill:#86bc43;}.cls-36{font-size:8.648px;font-family:RoundedMplus1c-ExtraBold, "Rounded Mplus 1c";font-weight:800;}</style><clipPath id="clip-path"><rect class="cls-1" x="70.93" y="12.727" width="158.142" height="150"/></clipPath><linearGradient id="アーストーン_2" x1="3822.057" y1="744.849" x2="3828.908" y2="744.849" gradientTransform="matrix(0, -1, -1, 0, 919.07, 3897.452)" gradientUnits="userSpaceOnUse"><stop offset="0" stop-color="#f1da84"/><stop offset="0.5" stop-color="#e9c83b"/><stop offset="1" stop-color="#e4bd00"/></linearGradient><clipPath id="clip-path-2"><rect class="cls-1" x="15.703" y="41.998" width="51.684" height="59.021" transform="translate(-19.651 15.881) rotate(-17.573)"/></clipPath></defs><path class="cls-2" d="M68.794,49.732H231.2a9.83,9.83,0,0,1,9.83,9.83V164.752a9.83,9.83,0,0,1-9.83,9.83H68.795a9.83,9.83,0,0,1-9.83-9.83V59.561A9.829,9.829,0,0,1,68.794,49.732Z"/><path class="cls-3" d="M69.833,57.752H230.169a2.994,2.994,0,0,1,2.994,2.994V163.571a2.992,2.992,0,0,1-2.992,2.992H69.832a2.993,2.993,0,0,1-2.993-2.993V60.746A2.994,2.994,0,0,1,69.833,57.752Z"/><rect class="cls-4" x="70.93" y="61.589" width="158.142" height="101.137"/><g class="cls-5"><path class="cls-6" d="M138.634,87.535s7.39-2.415,18.692,0l-5.988,13.859s-5,2.355-5.367,1.69S138.634,87.535,138.634,87.535Z"/><path class="cls-7" d="M139.39,42.063c11.382-8.273,24.616.563,28.589,10.391,3.349,8.281,2.15,33.649-6.186,34.719.8-1.511-.213-3.647-.213-3.647-.406,3.3-.993,3.753-.993,3.753s-19.33,1.706-24.711-.389c-.355-.569-.742-1.405-.928-4.348-.626,2.18-.34,3.686.224,4.581-5.1,2.352-11.538-17.718-7.422-30.36C130.124,49.471,132.687,43.441,139.39,42.063Z"/><path class="cls-8" d="M168.769,99.421l.862,12.023-43-.71L127.4,99.64l9.386-5.788a6.835,6.835,0,0,0,3.2-5.828V75.7h16.253V87.975a6.831,6.831,0,0,0,3.26,5.865Z"/><path class="cls-9" d="M135.33,64.119c-3.267-1.287-7.387,4.376.071,10.125"/><path class="cls-9" d="M161.244,64.119c2.975-1.287,6.728,4.376-.065,10.124"/><path class="cls-9" d="M134.4,59.994V72.576c0,5.754,7.319,13.81,13.825,13.81s13.717-7.979,13.717-13.81V59.994c0-6.905-6.668-12.774-13.717-12.774C142.591,47.22,134.4,51.939,134.4,59.994Z"/><path class="cls-10" d="M148.828,96.845s-12.463-2.8-14-2.715c-3.383,1.281-8.2,1.609-15.871,5.287-3.306,1.584-5.524,4.449-7.878,9.185l-7.228,26.385,2.05.519v14.521c-1.628,19.648,5.854,7.858,13.367,6.271l-.175,12.01,60.519.031s4.185-7.291,5.871-25.017c0,0,.728-32.621-.333-35.25-3.074-7.617-7.983-9.526-10.889-10.777A42.228,42.228,0,0,0,162.1,94.212Z"/><path class="cls-6" d="M148.078,96.316l-14-2.715,2.611,74.171h21.913s4.3-64.177,2.743-74.089A100.458,100.458,0,0,1,148.078,96.316Z"/><path class="cls-11" d="M134.082,93.6l4.552-6.066s6.432,5.574,9.38,7.7c1.373-.86,7.7-5.574,9.312-7.7.821.871,4.023,6.148,4.023,6.148s-5.9,13.444-7.507,14.92c-1.273-1.831-5.9-11.313-5.9-11.313-1.34,1.476-5.74,10.247-6.566,11.313C138.433,105.652,134.082,93.6,134.082,93.6Z"/><path class="cls-3" d="M148.354,109.756a1.209,1.209,0,1,1-1.208-1.229A1.219,1.219,0,0,1,148.354,109.756Z"/><path class="cls-3" d="M148.354,123.993a1.209,1.209,0,1,1-1.208-1.23A1.219,1.219,0,0,1,148.354,123.993Z"/><path class="cls-3" d="M148.354,138.23a1.209,1.209,0,1,1-1.208-1.23A1.219,1.219,0,0,1,148.354,138.23Z"/><circle class="cls-3" cx="147.024" cy="152.467" r="1.23"/><path class="cls-7" d="M136.947,58.523a30.7,30.7,0,0,1,6.365-.828,7.011,7.011,0,0,1,.323-4.627,8.1,8.1,0,0,0,1.238,3.606,47.48,47.48,0,0,1,14.28,1.849,4.821,4.821,0,0,0,.242-1.738,30.432,30.432,0,0,1,2.721,11.76c.979-3.51.864-9.806.748-12.108S158.779,44.7,149.458,44.7s-20.936,7.843-14.788,22.522c-.269-4.132,1.172-9.709,1.883-10.466A3.191,3.191,0,0,0,136.947,58.523Z"/><path class="cls-8" d="M187.836,97.91c.317-1.071,1.473-5.97,1.114-8.7s1.375-3.67,1.375-3.67,4.692,2.842,3.268,7.661-.8,7.625-2.988,8.143S187.836,97.91,187.836,97.91Z"/><ellipse class="cls-12" cx="174.28" cy="71.405" rx="6.193" ry="5.05" transform="translate(6.432 156.841) rotate(-49.256)"/><ellipse class="cls-13" cx="174.051" cy="72.155" rx="4.682" ry="3.425" transform="translate(5.784 156.927) rotate(-49.256)"/><path class="cls-14" d="M181.351,71.35c-3.076-2.731-4.7-2.552-5.9-1.561-1.4,1.156-1.52,3.531,1.36,6.385,1.048,1.039,3.359,4.025,5.777,2.854a4.776,4.776,0,0,1,1.764.97l18.443,19.366a1.915,1.915,0,0,0,2.668.222,1.57,1.57,0,0,0,.409-1.285,2.3,2.3,0,0,0-.692-1.377L185.265,78.91a3.339,3.339,0,0,1-.946-1.525C185.869,75,181.875,71.815,181.351,71.35Z"/><path class="cls-9" d="M201.7,97.53c.5-1.583,2.066-4.982,2.247-6.7.079-.745-3.47-3.026-4.9-4.314-1.148-1.033-6.3-.325-7.711-.454-.665-.061,1.357,3.619,5.416,2.765.121-.025,3.547,2.328,3.36,2.97a13.675,13.675,0,0,1-1.7,3.87s-1.43-8.018-3.746-6.633c-2.1,1.256-1.744,1.142-1.744,1.142s-1.576-2.848-2.662-1.477c-.987,1.245-1.731,2.019-1.731,2.019s-1.765-1.088-2.054-.712a11.08,11.08,0,0,0-2.922,4.542c-1.042,3.316.252,4.927.628,5.216a4,4,0,0,0,2.828.08,10.788,10.788,0,0,0-2.592,3.586c-1.239,2.656,1.589,8.893,1.589,8.893s-7.934,28.062-9.382,40c-.955,7.873,1.633,10.1,3.942,12.673.634.706,4.786,2.425,6.65,1.166a14.476,14.476,0,0,0,5.615-7.722c.78-2.644.266-38.225.686-41.729s5.2-12.792,6.3-14.154S201.7,97.53,201.7,97.53Z"/><path class="cls-8" d="M104.905,155.8c-.04-.232.251-20.827.251-20.827s1.771.988,5.967.761a88.385,88.385,0,0,0,9.691-1.28s1.1,15.738,0,18.635S106.279,163.91,104.905,155.8Z"/><path class="cls-9" d="M133.57,152.742l-6.024-.195s-3.69,8.1-8.314,11.242-9.835,3.973-11.654.9c-2.72-4.6-3.66-14.691-1.421-16.125,3.265-2.092,11.541-.859,14.47-2.409s4.147-1.1,4.147-1.1Z"/><path class="cls-9" d="M122.222,143.465c-1.276-2.92-1.312-1.824-4.327-6.034-1.643-2.293,5.866-3.373,8.222,4.242.1.309-.452,4.371,1.444,1.965,2-2.539,6.715-1.064,5.865.876a4.939,4.939,0,0,1-1.573,2,3.619,3.619,0,0,1,5.243-1.063c1.824,1.223-1.63,3.784-1.63,3.784s-1.118.649,1.21.725c.706.023,2.716.773,3.983-.282a4.139,4.139,0,0,1,4.532-.264c2.4,2-3.954,3.572-3.954,3.572a5.234,5.234,0,0,0,2.451.491,7.9,7.9,0,0,0,3.724-.7c2.692-1.383,6.557.181,5.167,1.265-.844.658-7.01,4.843-13.595.792-.659-.406-7.791-1.061-10.087-1.7-1.023-.284-4.354-2.762-4.813-3.72Z"/><path class="cls-15" d="M133.308,143.921a2.032,2.032,0,0,0-1.532-1.1c-1-.033-2.052,1.743-2.052,1.743s.786,2.137,1.945,1.571A3.972,3.972,0,0,0,133.308,143.921Z"/><path class="cls-15" d="M137.112,146.457a.962.962,0,0,0-.2-1.14,1.61,1.61,0,0,0-1.028-.449c-.594-.019-1.208.592-1.589,1.06-.261.319-1.031.841-.814,1.192.321.522,1.327,1.479,2.018,1.162A4.71,4.71,0,0,0,137.112,146.457Z"/><path class="cls-15" d="M145.668,150.951a.541.541,0,0,0,.171-.8,1.4,1.4,0,0,0-1.063-.608,5.416,5.416,0,0,0-2.02.574,1.086,1.086,0,0,0-.627,1.191c.07.346.913.971,1.435.731C144.281,151.709,145.145,151.242,145.668,150.951Z"/><path class="cls-3" d="M152.872,154.551c-16.95,0-30.739-6.527-30.739-14.55s13.789-14.55,30.739-14.55,30.739,6.527,30.739,14.55S169.821,154.551,152.872,154.551Z"/><path class="cls-16" d="M152.872,125.6c16.867,0,30.59,6.46,30.59,14.4s-13.723,14.4-30.59,14.4-30.591-6.461-30.591-14.4S136,125.6,152.872,125.6m0-.3c-17.059,0-30.888,6.581-30.888,14.7s13.829,14.7,30.888,14.7,30.888-6.58,30.888-14.7-13.829-14.7-30.888-14.7Z"/><path class="cls-17" d="M170.959,139.736c.015-.451-.231-.826-.551-.836H170.4l-.01-.051a.419.419,0,0,0,.11-.086c.211-.237.1-.669-.244-.967a1.172,1.172,0,0,0-.193-.134.73.73,0,0,0-.131-.975,1.032,1.032,0,0,0-.542-.328c-.114-.182.053-.586-.077-.764-.1-.14-.5-.054-.608-.191a.742.742,0,0,0-.251-.941.871.871,0,0,0-.858-.231c-.246-.226-.29-.66-.563-.876-.147-.117-.514-.02-.67-.133.106-.277-.107-.642-.5-.836a.919.919,0,0,0-.827-.039c-.365-.217-.544-.693-.882-.964-.247-.2-.632-.192-.977-.373-.293-.153-.576-.544-.923-.64a3.123,3.123,0,0,0-1.133.156.941.941,0,0,0-.345-.651.752.752,0,0,0-1.007-.12.441.441,0,0,0-.109.294,1.778,1.778,0,0,0-1.828-.48.746.746,0,0,0-.976-.225l-.014.014c-.316-.062-.637-.12-.96-.174a.4.4,0,0,0-.062-.138.736.736,0,0,0-.982-.019c-.261-.035-.463-.279-.727-.308-.23-.027-.522.161-.754.139,0-.015-.01-.031-.016-.047-.124-.29-.568-.382-.992-.209l-.065.03a.876.876,0,0,0-.854-.2,1.04,1.04,0,0,0-.527.283c-.323-.009-.7-.262-1.026-.262-.435,0-.815.257-1.243.271-.025-.026-.05-.053-.077-.079a.863.863,0,0,0-.859-.247,1.039,1.039,0,0,0-.633.064,1.017,1.017,0,0,0-.485.39,1.286,1.286,0,0,0-1.254.135,1.1,1.1,0,0,0-.309-.224.848.848,0,0,0-.917.025,1.076,1.076,0,0,0-.569-.083c-.457.052-.8.348-.76.66a.27.27,0,0,0,.007.041c-.541.111-.743-.182-1.262-.047-.154-.068-.676.318-.88.341a1.05,1.05,0,0,0-.562.23.712.712,0,0,0-.911.179c-.044.086-1.121.35-.632.316-.543-.054-.621.406-1.2.651a.617.617,0,0,0-.711.047.449.449,0,0,0-.12.328c-.126.06-.251.121-.374.182a.891.891,0,0,0-.864-.045c-.415.171-.656.535-.55.823-.42-.174-.638.146-.8.512a.4.4,0,0,0-.122-.1c-.279-.154-.688.041-.912.435a1.177,1.177,0,0,0-.077.166,1.144,1.144,0,0,0-.364.085c-.425.174-.668.551-.545.84a.393.393,0,0,0,.1.138q-.387.378-.721.774a.509.509,0,0,0-.442.128.526.526,0,0,0-.08.545c-.194.274-.537.5-.692.782a7.385,7.385,0,0,0-.324,1.149,1.017,1.017,0,0,0-.471.439.82.82,0,0,0-.028.881.506.506,0,0,0-.09.494.451.451,0,0,0,.209.216c0,.053,0,.107,0,.161,0,.2-.289.456-.269.657s.351.381.394.593a.435.435,0,0,0-.237.123c-.221.227-.13.664.2.975a1.089,1.089,0,0,0,.455.258c.052.124-.06.382,0,.5.069.141.311.144.389.283a1.031,1.031,0,0,0,.774,1.142c.145.184.141.582.3.761.18.2.529.178.731.371a.89.89,0,0,0,.317.733.874.874,0,0,0,.843.253c.094.072.189.143.287.213a1.091,1.091,0,0,0,.263.332c.189.162.349.434.545.442.184.117.434.047.626.159a1.018,1.018,0,0,0,.166.549c.243.384.66.56.931.395a.445.445,0,0,0,.191-.256c.125.062.251.122.378.181a.818.818,0,0,0,.591.692.888.888,0,0,0,.867-.069c.194.075.393.3.593.374s.413-.006.625.064a1.079,1.079,0,0,0,.26.366.751.751,0,0,0,1,.152.405.405,0,0,0,.075-.11c.3.085.608.164.918.241a1.009,1.009,0,0,0,.51.4.862.862,0,0,0,.893-.093c.115.023.215.342.331.363.174.033.365-.232.541-.2a1.117,1.117,0,0,0,.125.271c.242.383.659.56.931.4a.517.517,0,0,0,.219-.474c.442.058.881.5,1.332.543.39.036.792-.325,1.189-.3a.986.986,0,0,0,.6.374.785.785,0,0,0,.925-.313c.252,0,.5.009.76.009h.064a.893.893,0,0,0,.848.159,1.126,1.126,0,0,0,.385-.182c.219-.008.388.212.606.2.2-.011.452-.251.652-.265a.972.972,0,0,0,.61.392c.448.1.869-.063.942-.368a.39.39,0,0,0,0-.163c.177-.02.354-.041.529-.064a.894.894,0,0,0,.843.154,1.007,1.007,0,0,0,.568-.363c.243-.041.485-.085.724-.131a.8.8,0,0,0,.951.121,1,1,0,0,0,.5-.435c.414-.1.932-.043,1.331-.157.379-.108.641-.387,1.006-.508a1.086,1.086,0,0,0,.2.066c.447.1.869-.062.942-.368a.364.364,0,0,0,.01-.109c.269-.1.534-.21.793-.32a1.059,1.059,0,0,0,.573,0,.86.86,0,0,0,.659-.565c.124-.061.363.053.484-.009.151-.079.184-.335.33-.416a.819.819,0,0,0,.943-.078.971.971,0,0,0,.412-.556c.273.157.684-.024.921-.407a1.018,1.018,0,0,0,.16-.58c.148-.119.46-.133.6-.255s.125-.369.264-.5a1,1,0,0,0,.682-.187c.377-.258.535-.676.352-.933l-.008-.01c.126-.16.5-.176.61-.34.127-.184-.007-.516.1-.7a.936.936,0,0,0,.628-.458.772.772,0,0,0,.009-.938c.088-.261.455-.511.509-.778s-.2-.56-.183-.836A.813.813,0,0,0,170.959,139.736Z"/><path class="cls-18" d="M146.9,148.63a3.123,3.123,0,0,0-1.08-.376,1.866,1.866,0,0,0-.235-.015,1.751,1.751,0,0,0-.324.029,1.8,1.8,0,0,0-.528-.178,2,2,0,0,0-.328-.027h-.052a1.934,1.934,0,0,0-.361-.109,1.722,1.722,0,0,0-.349-.035,1.908,1.908,0,0,0-.273.021,1.8,1.8,0,0,0-.567-.25c-.266-.065-.527-.133-.777-.2a1.785,1.785,0,0,0-.483-.066q-.057,0-.114,0a1.81,1.81,0,0,0-.528-.281,2.4,2.4,0,0,0-.533-.109,2.443,2.443,0,0,0-.485-.257,1.793,1.793,0,0,0-.651-.122h-.013a1.789,1.789,0,0,0-.544-.393c-.105-.049-.208-.1-.311-.149a1.485,1.485,0,0,1-1.051-.561,2.245,2.245,0,0,0-.689-.261l0,0a1.8,1.8,0,0,0-.459-.486q-.114-.081-.222-.165a1.782,1.782,0,0,0-.541-.282,1.755,1.755,0,0,0-.358-.48,2.228,2.228,0,0,0-.474-.347,2.182,2.182,0,0,0-.292-.492,1.844,1.844,0,0,0-.364-.348,1.817,1.817,0,0,0-.181-.455,1.115,1.115,0,0,1-.264-.532,1,1,0,0,1-.27-.87,1.986,1.986,0,0,0-.118-.386,2.053,2.053,0,0,0,.039-.4v-.044l0-.06a1.8,1.8,0,0,0-.108-.655v-.031a1.808,1.808,0,0,0,.35-.591,4.756,4.756,0,0,0,.174-.679c0-.02.008-.042.013-.065a3.887,3.887,0,0,0,.5-.567,1.719,1.719,0,0,0,.155-.264,1.845,1.845,0,0,0,.222-.22c.164-.195.345-.388.538-.577a1.809,1.809,0,0,0,.455-.738,1.86,1.86,0,0,0,.225-.172l.041-.006a13.093,13.093,0,0,0,1.728-.95,1.979,1.979,0,0,0,.184-.206,1.809,1.809,0,0,0,.654-.185c.1-.05.2-.1.3-.147a1.52,1.52,0,0,1,.69-.311,3.233,3.233,0,0,0,.866-.552,1.761,1.761,0,0,0,.243-.108l.027-.009a4.19,4.19,0,0,0,.572-.224h.061a1.8,1.8,0,0,0,.921-.254,2.789,2.789,0,0,0,.682-.264,2.957,2.957,0,0,0,.622.068,2.883,2.883,0,0,0,.582-.06,1.807,1.807,0,0,0,.945-.526,1.605,1.605,0,0,0,.17-.018,1.8,1.8,0,0,0,1.577.038,1.785,1.785,0,0,0,.384.042,1.81,1.81,0,0,0,1.026-.32,1.8,1.8,0,0,0,.832.2h.062a3.522,3.522,0,0,0,1.012-.2,2.9,2.9,0,0,0,.932.193h.047a1.8,1.8,0,0,1,1.249-.074c.043,0,.086,0,.128,0a1.813,1.813,0,0,0,.676.2c.066,0,.134.009.2.009a1.486,1.486,0,0,1,1.065.134,1.745,1.745,0,0,0,.239.016,1.7,1.7,0,0,0,.214-.013,1.78,1.78,0,0,0,.435.131c.276.046.55.1.817.148a1.767,1.767,0,0,0,.347.034l.086,0a1.8,1.8,0,0,0,1.231.142l.06.049a1.79,1.79,0,0,0,1.172.435c.049,0,.1,0,.146,0l.008.007a1.785,1.785,0,0,0,1.409.414c.115-.015.222-.037.319-.059a2.862,2.862,0,0,0,.465.308,3.3,3.3,0,0,0,.652.254,3.174,3.174,0,0,0,.941.906,1.438,1.438,0,0,1,1.06.7,1.986,1.986,0,0,0,.541.28,2.514,2.514,0,0,0,.417.5,1.283,1.283,0,0,1,.828.873,1.9,1.9,0,0,0,.3.3,1.985,1.985,0,0,0,.185.381,1.809,1.809,0,0,0,.345.4.4.4,0,0,0,.006.05,2.187,2.187,0,0,1,.312,1.179l.01.052v0a1.794,1.794,0,0,0,.166.485,1.818,1.818,0,0,0-.114.51,2.279,2.279,0,0,0,.025.533,2.391,2.391,0,0,0-.232.489,1.829,1.829,0,0,0-.092.513,1.757,1.757,0,0,0-.333.417,1.264,1.264,0,0,1-.5.735,1.268,1.268,0,0,1-.761.837,1.5,1.5,0,0,1-.664.583,1.769,1.769,0,0,0-.487.61c-.029.011-.058.022-.085.035a2.282,2.282,0,0,1-1.374.647,1.579,1.579,0,0,1-.663.347,1.519,1.519,0,0,1-1.018.466c-.216.091-.438.181-.659.265a1.555,1.555,0,0,1-.966.344,3.737,3.737,0,0,0-.814.4l-.057.035c-.057,0-.133.009-.195.013a4.769,4.769,0,0,0-.9.112.961.961,0,0,1-.892.233,1.788,1.788,0,0,0-.34.033c-.209.04-.416.078-.615.111a1.788,1.788,0,0,0-.584.208,1.816,1.816,0,0,0-.618-.029c-.15.019-.3.037-.452.054a1.769,1.769,0,0,0-.651.2,1.822,1.822,0,0,0-.556-.088c-.041,0-.082,0-.123,0a2.176,2.176,0,0,0-.533.107,2.128,2.128,0,0,0-.472-.053h-.071a1.614,1.614,0,0,1-1.054.019h-.059c-.192,0-.4,0-.65-.008h-.037a1.541,1.541,0,0,1-1.267-.052c-.048,0-.1,0-.145,0A2.727,2.727,0,0,0,146.9,148.63Z"/><path class="cls-19" d="M156.478,127.917c6.673.243,14.108,2.082,18.278,5.257,6.655,5.065,5.736,13.147-6.479,17.021-6.725,2.132-13.642,1.836-17.757,1.79-3.573-.04-3.761-3.691-.417-6.259,2.5-1.925,5.848-5.459,2.6-8.182-2.483-2.086-4.249-4.3-3.178-6.655C150.928,127.815,154.564,127.848,156.478,127.917Z"/><path class="cls-20" d="M152.807,128.109c-3.178,1.29-5.363,5.561.4,8.144C148.636,132.677,152.807,128.109,152.807,128.109Z"/><path class="cls-21" d="M153.7,132.677c-1.39,2.98-1.291,5.363.994,7.549A37.692,37.692,0,0,1,153.7,132.677Z"/><path class="cls-21" d="M155.588,139.729c.6,1.589.6,6.257-3.178,6.456,2.185.595,3.873-.3,4.271-3.079C157.046,140.547,155.588,139.729,155.588,139.729Z"/><path class="cls-21" d="M153.5,143.9c-2.583.894-4.867,2.98-2.781,6.257C149.729,146.681,153.5,143.9,153.5,143.9Z"/><path class="cls-20" d="M155.489,128.406a5.786,5.786,0,0,0,.993,6.158c1.49,1.49.993,2.682.993,2.682s1.391-.7-.2-2.881S155.489,128.406,155.489,128.406Z"/><path class="cls-20" d="M152.608,137.743c-2.085,1.688-2.979,4.965-.3,6.554C150.026,141.219,152.608,137.743,152.608,137.743Z"/><path class="cls-20" d="M154.793,145.489c1.391,3.179,0,5.463-2.482,5.76C158.567,151.249,154.793,145.489,154.793,145.489Z"/><path class="cls-22" d="M158.2,139.182c1.321-.519,1.5.239,2.61.286s1.362.723,1.1,1.69-1.834.361-2.716.726-1.1-.736-1.993-.636-1.935-.533-1.771-1.442.313-2.082,1.134-1.6S157.424,139.488,158.2,139.182Z"/><path class="cls-22" d="M157.781,142.448c1.376,1.179,1.192,1.489,2.682,1.639s1.936,1.787.447,1.936-1.788-.447-2.98-.447-2.086-.149-2.383-1.788A1.327,1.327,0,0,1,157.781,142.448Z"/><path class="cls-22" d="M150.151,141.337c1.1.9.855,1.816,1.276,2.668s1.308.764.954,1.694-1.438,1.264-1.627.5-.876-.918-1.187-1.782.087-1.352-.3-1.871-.277-.532-.145-1.441S150.151,141.337,150.151,141.337Z"/><path class="cls-22" d="M151.31,149.189a1.709,1.709,0,0,1,.955,1.594c.037.73-.645,1.123-1.592.742s-1.02-1.6-1.293-1.8c-.928-.7-.628-1.281-1.034-1.626-.821-.7-.674-1.335-.39-1.588a1.6,1.6,0,0,1,1.259-.3c.441.047.516.611.871.753.71.287.687.418.562,1.138S150.761,148.913,151.31,149.189Z"/><path class="cls-22" d="M152.041,137.7c0-.942,1.132-.478,1.451.276s.914.556,1.014,1.35-.157,1.112.5,1.986-.257.814-.674.755-.835-.615-1.67-1.229-1.73-.812-2.108-1.646-.737-1.31.217-1.033S152.042,138.2,152.041,137.7Z"/><path class="cls-20" d="M154.213,136.451c2.805,1.14,4.734,4.908-.35,7.188C157.9,140.483,154.213,136.451,154.213,136.451Z"/><path class="cls-21" d="M161.123,139.093c1.227,2.629,1.139,4.732-.877,6.66A33.249,33.249,0,0,0,161.123,139.093Z"/><path class="cls-21" d="M158.613,144.521c-.526,1.4-.526,5.522,2.8,5.7-1.928.526-3.418-.263-3.769-2.717C157.326,145.243,158.613,144.521,158.613,144.521Z"/><path class="cls-21" d="M156.282,139.015c2.279.789,4.295,2.629,2.454,5.522C159.612,141.469,156.282,139.015,156.282,139.015Z"/><path class="cls-20" d="M154.083,136.664a5.106,5.106,0,0,1-.877,5.434c-1.314,1.315-.876,2.367-.876,2.367s-1.227-.614.175-2.542A11.716,11.716,0,0,0,154.083,136.664Z"/><path class="cls-20" d="M160.447,132.439c1.841,1.49,2.63,4.382.263,5.785C162.726,135.507,160.447,132.439,160.447,132.439Z"/><path class="cls-20" d="M148.488,145.731c-1.227,2.805,0,4.821,2.191,5.084C145.158,150.815,148.488,145.731,148.488,145.731Z"/><path class="cls-22" d="M163.7,139.245c.358-1.162.376-1.022-.334-1.952s-.178-1.336-1.185-1.829-.03-1.554-1.1-1.578-1.024,1.412-1.508,1.467-.993,1.178.365,1.717.858.712,1.084,1.7S163.272,140.619,163.7,139.245Z"/><path class="cls-22" d="M161.814,147.927c-1.3-.249-1.328.475-2.34.708s-1.123.893-.714,1.733,1.74.018,2.608.2.879-.862,1.715-.923,1.68-.817,1.375-1.622-.642-1.851-1.31-1.266S162.578,148.075,161.814,147.927Z"/><path class="cls-22" d="M152.964,147.4c.039,1.6.354,1.646-.375,2.749s.143,2.321,1.076,1.385.691-1.472,1.355-2.287,1.061-1.51.107-2.627A1.171,1.171,0,0,0,152.964,147.4Z"/><path class="cls-22" d="M157.9,135.785c-1.352-.987-2.331-.435-3.43-.663s-1.262-1.267-2.22-.586-1.015,2.021-.086,2.01,1.31.727,2.39.825,1.518-.5,2.229-.214.689.158,1.688-.264S157.9,135.785,157.9,135.785Z"/><path class="cls-22" d="M157.194,133.031c-1.325-1.388-.747.09-1.81.065s-1.456.072-1.223.751,1.063.025,1.688.607.941.7,1.7.252,1.012-.828,1.569-.389,1.236.206.7-.941-.866-.907-1.334-.6S157.713,133.575,157.194,133.031Z"/><path class="cls-22" d="M149.764,132.359a1.654,1.654,0,0,0-1.763.33c-.551.441-.4,1.185.483,1.626s1.806-.285,2.13-.22c1.1.22,1.328-.367,1.837-.295,1.028.147,1.4-.367,1.4-.734a1.543,1.543,0,0,0-.587-1.1c-.317-.289-.771.018-1.1-.147-.661-.33-.741-.229-1.182.321S150.314,132.579,149.764,132.359Z"/><path class="cls-22" d="M158.217,146.8c0-.832-1-.422-1.28.244s-.806.49-.9,1.19.138.982-.441,1.753.227.719.595.667.737-.542,1.474-1.085,1.526-.717,1.861-1.452.649-1.157-.193-.912S158.217,147.241,158.217,146.8Z"/><path class="cls-21" d="M151.877,131.474c.725-2.708,6.006-4.637,6.436,1.112C155.382,127.784,151.877,131.474,151.877,131.474Z"/><path class="cls-22" d="M158.311,128.076c1.165-.194,1.032-.229,1.835.574s1.262.344,1.606,1.376,1.49.229,1.376,1.261-1.491.8-1.6,1.262-1.262.8-1.606-.574-.574-.917-1.491-1.261S156.936,128.305,158.311,128.076Z"/><path class="cls-22" d="M153.442,129.65c2.282-1.14.895.447,2.235.894s1.788.745,1.192,1.49-1.341-.447-2.384,0-1.489.447-2.234-.447-.894-1.49-1.788-1.192-1.638-.3-.447-1.489,1.49-.745,1.937-.15S152.549,130.1,153.442,129.65Z"/><path class="cls-21" d="M157.075,129.962c-.64-2.39-5.3-4.093-5.68.981C153.982,126.705,157.075,129.962,157.075,129.962Z"/></g><path class="cls-23" d="M266.888,211.562c0,2.251-2.582,3.668-9.744,3.668H42.855c-7.163,0-9.747-1.417-9.743-3.668l-.357-4.292c6.348-.005,226.375-.426,234.442-.191Z"/><path class="cls-6" d="M266.888,206.357c1.76,2-2.582,3.668-9.744,3.668H42.855c-7.163,0-11.5-1.666-9.743-3.668l26.093-29.666c1.035-1.175,6.156-2.109,11.459-2.109H229.335c5.3,0,10.425.934,11.459,2.109Z"/><path class="cls-2" d="M236.345,192.059c.382.522-1,.948-3.079.948H66.733c-2.083,0-3.46-.426-3.078-.948L72.609,179.8c.3-.415,2.039-.75,3.878-.75H223.513c1.839,0,3.574.335,3.878.75Z"/><path class="cls-14" d="M180.922,204.692c.149.629-1.58,1.143-3.867,1.143h-54.11c-2.286,0-4.017-.514-3.867-1.143l1.584-6.637c.133-.56,1.97-1.009,4.1-1.009h50.473c2.132,0,3.967.449,4.1,1.009Z"/><path class="cls-24" d="M93.685,72.938a2.525,2.525,0,0,1-2.818,2.18L46.151,69.446a2.526,2.526,0,0,1-2.183-2.817l6.837-53.882a2.526,2.526,0,0,1,2.817-2.182l44.717,5.674a2.526,2.526,0,0,1,2.182,2.817Z"/><path class="cls-25" d="M98.5,21.621c-.059.46-1.231.69-2.607.516L54.791,16.923c-1.375-.176-2.452-.694-2.393-1.153s1.231-.69,2.606-.516l41.105,5.217C97.484,20.647,98.561,21.162,98.5,21.621Z"/><path class="cls-26" d="M90.867,75.118a2.525,2.525,0,0,0,2.818-2.18l3.678-28.987a1.717,1.717,0,0,0-2.156-2.02l-18.2,3.542a3.641,3.641,0,0,0-2.745,2.986l-1.118,10.3A3.223,3.223,0,0,1,70.361,61.5l-2.692.25A6.724,6.724,0,0,0,63.6,63.962l-1.93,2.454c-.857,1.088-2.022,2.556-2.59,3.259s.094,1.424,1.469,1.6Z"/><polygon class="cls-27" points="78.001 93.349 28.728 108.954 25.819 107.444 10.197 52.318 57.272 35.573 60.182 37.082 78.001 93.349"/><rect class="cls-28" x="15.703" y="41.998" width="51.684" height="59.021" transform="translate(-19.651 15.881) rotate(-17.573)"/><g class="cls-29"><path class="cls-3" d="M69.042,93.64a2.19,2.19,0,0,0-2.748-1.426,1.542,1.542,0,0,0-.157.067l0-.016a1.954,1.954,0,0,0-.3-.578,2.1,2.1,0,1,0-3.581-2.177,2.346,2.346,0,0,0-2.594-1.516,2.261,2.261,0,0,0-3.964-.621,3.731,3.731,0,0,0-1.4-.11,4.284,4.284,0,0,0-6.8.395,2.019,2.019,0,1,0-3.017,2.575,3.472,3.472,0,0,0-1.062,5.013,2.592,2.592,0,0,0,2.713,3.845,2.838,2.838,0,0,0,2.54,3.8,2.013,2.013,0,0,0,3.07-.061,1.468,1.468,0,0,0,.063.5,1.518,1.518,0,0,0,1.9.989.272.272,0,0,1,.035-.016,2.4,2.4,0,0,0,2.513-.959,2.937,2.937,0,0,0,.527.1,2.016,2.016,0,0,0,1.884.362,2.071,2.071,0,0,0,.559-.289,2.675,2.675,0,0,0,4.88-1.03,1.705,1.705,0,0,0,.346-.072,1.724,1.724,0,0,0,1.029-.9,3.489,3.489,0,0,0,.383-.082A3.192,3.192,0,0,0,67.7,96.85a1.317,1.317,0,0,0,.313-.058,1.426,1.426,0,0,0,.96-1.663A2.163,2.163,0,0,0,69.042,93.64Zm-19.083.626a.43.43,0,0,0,.009-.047l.06.013Zm10,5.269a2.5,2.5,0,0,0,.285.115,2.334,2.334,0,0,0-.233.137C59.992,99.7,59.985,99.619,59.959,99.535Z"/><path class="cls-30" d="M71.226,76.679a12.232,12.232,0,0,0-4.612-4.259,18.885,18.885,0,0,0-16.545-.613c-5.062,2.161-11.248,10.222-7.143,15.618,2.3,3.025,7.882,1.3,11.1,1.606a17.664,17.664,0,0,1,7.914,2.806c1.583,1.047,2.849,2.714,4.843,3.046a7.432,7.432,0,0,0,6.223-2.538c1.44-1.7,1.132-3.829.95-5.908C73.642,82.842,72.981,79.444,71.226,76.679Z"/><path class="cls-31" d="M64.379,82.932c.395-1.251-.805-3.873-2.451-3.357-1.756.549-.769,3.274.02,4.216C62.716,84.708,63.757,84.893,64.379,82.932Z"/><path class="cls-32" d="M68.693,79.262c1.275,1.413-2.509,4.815-2.824,1.679C65.685,79.1,67.259,77.676,68.693,79.262Z"/><path class="cls-28" d="M69.025,88c2.279,1.612-1.346,4.417-2.444,2.137A1.645,1.645,0,0,1,69.025,88Z"/><path class="cls-33" d="M63.037,75.9c1.283-1.833-3.652-2.47-3.64-.747C59.406,76.539,62.37,76.849,63.037,75.9Z"/><path class="cls-33" d="M52.779,76.857c1.467-1.889-4.2-2.071-3.456.223C49.758,78.428,52.233,77.559,52.779,76.857Z"/><path class="cls-34" d="M52.674,84.586c2.2-.943-2.677-3.841-3.134-1.473C49.27,84.5,51.856,84.938,52.674,84.586Z"/><polygon class="cls-35" points="57.469 86.091 54.763 83.682 57.052 83.662 57.469 86.091"/><polygon class="cls-35" points="61.397 85.358 57.469 86.091 59.227 84.192 61.397 85.358"/><polygon class="cls-35" points="58.088 87.333 55.665 89.131 56.229 87.261 58.088 87.333"/></g><text class="cls-36" transform="matrix(0.955, -0.298, 0.298, 0.955, 17.094, 64.84)">OKINAWA<tspan x="6.244" y="9">CARRY</tspan></text></svg>