<svg xmlns="http://www.w3.org/2000/svg" viewBox="0 0 150 120"><defs><style>.cls-1{isolation:isolate;}.cls-2{fill:#f7f7f7;}.cls-3{fill:#b1bcc3;}.cls-4{fill:#8a9ba4;}.cls-5{fill:#e3e3e3;}.cls-6{fill:#e0e5e7;}.cls-7{fill:#3c5868;}.cls-8{fill:#0a8fd5;}.cls-9{fill:#fff;}.cls-10{fill:#404040;opacity:0.2;mix-blend-mode:multiply;}.cls-11{fill:#eb5055;}.cls-12{fill:#d0d7db;}</style></defs><g class="cls-1"><g id="レイヤー_1" data-name="レイヤー 1"><path class="cls-2" d="M139.286,112.066a2.014,2.014,0,0,1-2.041,1.984h-125a2.014,2.014,0,0,1-2.041-1.984v-83.8a2.013,2.013,0,0,1,2.041-1.983h125a2.013,2.013,0,0,1,2.041,1.983Z"/><rect class="cls-3" x="15.306" y="31.736" width="118.878" height="76.859"/><rect class="cls-4" x="15.306" y="31.736" width="118.878" height="6.942"/><polygon class="cls-3" points="36.735 38.678 15.306 38.678 15.306 31.736 34.184 31.736 36.735 38.678"/><rect class="cls-5" x="15.306" y="38.182" width="118.878" height="9.917"/><path class="cls-6" d="M150,115.537a2.013,2.013,0,0,0-2.041-1.983H2.041A2.013,2.013,0,0,0,0,115.537v1.488H150Z"/><path class="cls-7" d="M0,117.025v.992A2.013,2.013,0,0,0,2.041,120H147.959A2.013,2.013,0,0,0,150,118.017v-.992Z"/><rect class="cls-7" x="67.857" y="114.545" width="13.265" height="1.488"/><ellipse class="cls-4" cx="28.912" cy="35.041" rx="1.36" ry="1.322"/><ellipse class="cls-4" cx="24.83" cy="35.041" rx="1.36" ry="1.322"/><ellipse class="cls-4" cx="20.748" cy="35.041" rx="1.36" ry="1.322"/><rect class="cls-2" x="32.143" y="5.95" width="86.224" height="102.645"/><rect class="cls-8" x="32.143" width="86.224" height="6.446"/><ellipse class="cls-9" cx="47.704" cy="3.223" rx="1.531" ry="1.488"/><ellipse class="cls-9" cx="43.112" cy="3.223" rx="1.531" ry="1.488"/><ellipse class="cls-9" cx="38.52" cy="3.223" rx="1.531" ry="1.488"/><rect class="cls-10" x="118.367" y="31.736" width="2.551" height="75.372"/><rect class="cls-11" x="39.286" y="12.893" width="71.939" height="46.116"/><rect class="cls-7" x="39.286" y="59.008" width="71.939" height="5.95"/><path class="cls-9" d="M75.51,52.591A16.906,16.906,0,0,1,58.388,35.95a17.129,17.129,0,0,1,34.244,0A16.906,16.906,0,0,1,75.51,52.591Zm0-32.727A16.342,16.342,0,0,0,58.959,35.95a16.558,16.558,0,0,0,33.1,0A16.341,16.341,0,0,0,75.51,19.864Z"/><polygon class="cls-9" points="71.939 41.152 71.939 30.846 81.122 35.999 71.939 41.152"/><rect class="cls-12" x="39.796" y="101.157" width="37.245" height="1.983"/><rect class="cls-12" x="39.796" y="95.702" width="37.245" height="1.983"/><rect class="cls-12" x="39.796" y="90.248" width="37.245" height="1.983"/><rect class="cls-12" x="39.796" y="84.793" width="37.245" height="1.983"/><rect class="cls-12" x="39.796" y="79.339" width="37.245" height="1.983"/><rect class="cls-12" x="39.796" y="73.884" width="71.939" height="1.983"/><rect class="cls-12" x="39.796" y="68.43" width="71.939" height="1.983"/><rect class="cls-12" x="80.102" y="78.347" width="31.633" height="25.289"/><polygon class="cls-7" points="98.464 103.636 83.872 103.636 89.286 88.264 98.464 103.636"/><polygon class="cls-7" points="106.954 103.636 93.954 103.636 101.02 94.215 106.954 103.636"/><ellipse class="cls-7" cx="100" cy="85.041" rx="1.786" ry="1.736"/><rect class="cls-9" x="54.592" y="61.488" width="47.959" height="0.496"/><ellipse class="cls-9" cx="63.095" cy="61.488" rx="1.361" ry="1.322"/><rect class="cls-9" x="43.367" y="60.496" width="0.51" height="2.479"/><rect class="cls-9" x="44.388" y="60.496" width="0.51" height="2.479"/></g></g></svg>