<svg id="レイヤー_1" data-name="レイヤー 1" xmlns="http://www.w3.org/2000/svg" viewBox="0 0 300 300"><defs><style>.cls-1{fill:#fff;}.cls-2{fill:#ff5050;}.cls-3{fill:gray;}.cls-4{fill:#b2dfdf;}.cls-5{fill:#b1b1b1;}.cls-6{fill:#e4e4e4;}.cls-7{fill:#cacaca;}.cls-8{fill:#333;}</style></defs><circle class="cls-1" cx="150" cy="150" r="147.5"/><path class="cls-2" d="M150,5A145,145,0,0,1,252.531,252.531,145,145,0,1,1,47.47,47.469,144.051,144.051,0,0,1,150,5m0-5A150,150,0,1,0,300,150,150,150,0,0,0,150,0Z"/><circle class="cls-2" cx="35" cy="35" r="35"/><path class="cls-1" d="M12.877,39.588V30.454c0-6.048,4.053-10.269,9.912-10.269,5.795,0,9.911,4.221,9.911,10.269v9.134c0,6.027-4.116,10.227-9.911,10.227C16.93,49.815,12.877,45.615,12.877,39.588Zm14.028-.252v-8.63c0-3.78-1.891-4.956-4.116-4.956-2.268,0-4.116,1.176-4.116,4.977v8.588c0,3.759,1.911,4.935,4.116,4.935C24.972,44.25,26.905,43.074,26.905,39.336Z"/><path class="cls-1" d="M54.86,38.118a2.186,2.186,0,0,1,2.263,2.5v.252c0,1.6-.8,2.541-2.252,2.541H53.805v3.78a2.361,2.361,0,0,1-2.625,2.625h-.336c-1.7,0-2.625-.84-2.625-2.373V43.389H38.392a2.361,2.361,0,0,1-2.625-2.625v-.882a5.34,5.34,0,0,1,1.008-3.255L47.149,21.865a3.455,3.455,0,0,1,3.15-1.68h.881a2.361,2.361,0,0,1,2.625,2.625V38.118ZM48.219,38.1V28.039L41.122,38.1Z"/><path class="cls-3" d="M84.22,52H215.778a7.963,7.963,0,0,1,7.963,7.963V145.17a7.962,7.962,0,0,1-7.962,7.962H84.221a7.962,7.962,0,0,1-7.962-7.962V59.962A7.962,7.962,0,0,1,84.22,52Z"/><path class="cls-4" d="M85.062,58.5H214.94a2.424,2.424,0,0,1,2.424,2.424v83.292a2.424,2.424,0,0,1-2.424,2.424H85.062a2.425,2.425,0,0,1-2.425-2.425V60.922A2.425,2.425,0,0,1,85.062,58.5Z"/><path class="cls-5" d="M244.683,183.088c0,1.823-2.091,2.971-7.893,2.971H63.209c-5.8,0-7.9-1.148-7.892-2.971l-.29-3.477c5.142,0,183.372-.345,189.906-.155Z"/><path class="cls-6" d="M244.683,178.872c1.426,1.621-2.091,2.971-7.893,2.971H63.209c-5.8,0-9.318-1.35-7.892-2.971l21.136-24.031c.838-.952,4.986-1.708,9.282-1.708H214.264c4.3,0,8.444.756,9.282,1.708Z"/><path class="cls-3" d="M219.943,167.29c.309.423-.807.768-2.494.768H82.551c-1.687,0-2.8-.345-2.494-.768l7.254-9.929c.245-.336,1.651-.607,3.141-.607h119.1c1.49,0,2.9.271,3.142.607Z"/><path class="cls-7" d="M175.048,177.523c.121.51-1.28.926-3.132.926H128.085c-1.852,0-3.254-.416-3.132-.926l1.282-5.377c.108-.453,1.6-.817,3.323-.817h40.885c1.726,0,3.213.364,3.322.817Z"/><path class="cls-8" d="M77.054,213.737l-.126-.684a.922.922,0,0,1,.179-.747,1.1,1.1,0,0,1,.666-.423,26.1,26.1,0,0,0,6.309-2.007,22.961,22.961,0,0,0,5.355-3.393,1.05,1.05,0,0,1,.738-.252.907.907,0,0,1,.684.342l.451.5a.967.967,0,0,1,.252.747,1.044,1.044,0,0,1-.361.711,24.319,24.319,0,0,1-4.212,2.9.267.267,0,0,0-.143.234v7.74a.957.957,0,0,1-.307.711,1,1,0,0,1-.72.3h-1.1a1.016,1.016,0,0,1-1.009-1.008v-6.264a.111.111,0,0,0-.045-.09.1.1,0,0,0-.1-.018,28.17,28.17,0,0,1-5.328,1.53.993.993,0,0,1-.764-.171A.971.971,0,0,1,77.054,213.737Z"/><path class="cls-8" d="M93.165,216.365a.989.989,0,0,1-.233-1.4q2.158-3.024,2.213-3.1.774-1.116,1.117-1.6t.792-1.053a6.279,6.279,0,0,1,.638-.729,2.9,2.9,0,0,1,.532-.342,1.55,1.55,0,0,1,.585-.2c.162-.012.392-.018.692-.018a3.361,3.361,0,0,1,1.323.216,3.774,3.774,0,0,1,1.035.72q.541.5,2,2.088,3.494,3.762,5.13,5.436a1.043,1.043,0,0,1,0,1.476l-.719.738a.979.979,0,0,1-.711.306,1,1,0,0,1-.711-.288q-2.556-2.628-5.166-5.544-1.116-1.242-1.513-1.629a1.085,1.085,0,0,0-.666-.387q-.216,0-.549.432t-1.2,1.71q-1.1,1.656-2.411,3.438a1.025,1.025,0,0,1-.676.414.967.967,0,0,1-.765-.18Zm10.674-10.278a1.028,1.028,0,0,1,1.387.432q.341.594.719,1.368a.942.942,0,0,1,.063.774.956.956,0,0,1-.513.576l-.18.09a.965.965,0,0,1-.783.063,1.023,1.023,0,0,1-.6-.513q-.11-.234-.361-.684t-.36-.666a.97.97,0,0,1-.081-.765.891.891,0,0,1,.5-.584Zm4.536-.288q.5.936.756,1.422a.984.984,0,0,1-.449,1.35l-.235.126a1.058,1.058,0,0,1-1.385-.468l-.756-1.4a.922.922,0,0,1-.073-.756.988.988,0,0,1,.5-.593l.252-.108a1.022,1.022,0,0,1,1.386.431Z"/><path class="cls-8" d="M113.778,208.841a.962.962,0,0,1-.431-1.332l.414-.81a1.018,1.018,0,0,1,.6-.512,1.068,1.068,0,0,1,.8.044q1.853.882,3.8,1.89a.9.9,0,0,1,.5.594.994.994,0,0,1-.081.774l-.469.81a1.038,1.038,0,0,1-1.386.414Q115.65,209.741,113.778,208.841Zm12.781-.882a1.009,1.009,0,0,1,.648.441.967.967,0,0,1,.144.765,13.033,13.033,0,0,1-4.167,7.362,15.845,15.845,0,0,1-8.469,3.294,1.024,1.024,0,0,1-.775-.207,1.064,1.064,0,0,1-.414-.693l-.126-.828a.9.9,0,0,1,.181-.729.96.96,0,0,1,.666-.387,13.68,13.68,0,0,0,6.849-2.61,10.77,10.77,0,0,0,3.465-5.814,1.041,1.041,0,0,1,.459-.639.978.978,0,0,1,.764-.135Z"/><path class="cls-8" d="M133.231,220.505a1.045,1.045,0,0,1-1.026-1.026v-12.96a1.044,1.044,0,0,1,1.026-1.025h1.026a.959.959,0,0,1,.711.305,1,1,0,0,1,.3.72v3.78a.185.185,0,0,0,.162.2q4.23,1.044,8.55,2.556a1.03,1.03,0,0,1,.648,1.314l-.288.81a1,1,0,0,1-.5.576.972.972,0,0,1-.756.054q-3.69-1.314-7.668-2.34c-.1-.024-.144.018-.144.126v5.886a1,1,0,0,1-.3.72.956.956,0,0,1-.711.306Z"/><path class="cls-8" d="M148.312,217.517l-.109-.252a.863.863,0,0,1,.01-.738.962.962,0,0,1,.566-.5,18.077,18.077,0,0,0,2.016-.882.058.058,0,0,0-.035-.054h-1.513a.918.918,0,0,1,0-1.836h3.889a.378.378,0,0,0,.269-.126.659.659,0,0,0,.054-.063.634.634,0,0,1,.055-.063c.059-.084.042-.126-.055-.126h-2.646a1.014,1.014,0,0,1-1.007-1.008v-2.916a1,1,0,0,1,.3-.72.954.954,0,0,1,.71-.306h.991c.107,0,.162-.048.162-.144v-.144a.144.144,0,0,0-.162-.162h-2.467a.987.987,0,0,1-.711-.288.944.944,0,0,1-.3-.7,1.012,1.012,0,0,1,1.008-1.007h2.484a.128.128,0,0,0,.145-.144.83.83,0,0,1,.846-.847h1.08a.836.836,0,0,1,.611.252.816.816,0,0,1,.252.595q0,.144.126.144h3.276q.126,0,.126-.144a.816.816,0,0,1,.252-.595.837.837,0,0,1,.612-.252h1.081a.832.832,0,0,1,.845.847q0,.144.126.144h2.5a1.012,1.012,0,0,1,1.008,1.007.941.941,0,0,1-.3.7.984.984,0,0,1-.711.288h-2.466a.143.143,0,0,0-.162.162v.144q0,.144.162.144h.991a.959.959,0,0,1,.711.306,1,1,0,0,1,.3.72v2.916a1.012,1.012,0,0,1-1.007,1.008h-5.491a.313.313,0,0,0-.252.144.406.406,0,0,0-.045.063.417.417,0,0,1-.044.063c-.048.072-.025.108.071.108h7.326a.918.918,0,0,1,0,1.836h-1.529c-.013,0-.019.009-.019.027a.058.058,0,0,0,.019.045,14.461,14.461,0,0,0,2.015.864.966.966,0,0,1,.549.5.859.859,0,0,1,.009.738l-.107.252a1.02,1.02,0,0,1-.559.567.984.984,0,0,1-.792.009q-.054-.018-.162-.063c-.071-.03-.126-.051-.161-.063-.1-.048-.145-.018-.145.09a4.465,4.465,0,0,1-.711,2.52,2.8,2.8,0,0,1-2.043.576q-.81,0-2-.054a1.089,1.089,0,0,1-.747-.333,1.158,1.158,0,0,1-.35-.747l-.019-.27a.894.894,0,0,1,.271-.7A.818.818,0,0,1,158,218.8c.384.024.853.036,1.4.036a.6.6,0,0,0,.406-.09,1.22,1.22,0,0,0,.134-.522q.036-.162-.126-.162h-2.7a.363.363,0,0,0-.252.126q-1.656,2.07-5.994,3.042a1.343,1.343,0,0,1-.854-.1,1.306,1.306,0,0,1-.621-.6l-.163-.306a.661.661,0,0,1,0-.666.764.764,0,0,1,.541-.4,12.363,12.363,0,0,0,3.635-1.026.062.062,0,0,0,.019-.045c0-.018-.013-.027-.036-.027h-1.135a.928.928,0,0,1-.9-.54c-.048-.1-.115-.12-.2-.072q-.432.216-1.511.648a.964.964,0,0,1-.784-.009A1.017,1.017,0,0,1,148.312,217.517Zm4.355-8.082v.2c0,.108.048.162.145.162h7.416c.095,0,.143-.054.143-.162v-.2c0-.108-.048-.162-.143-.162h-7.416C152.715,209.273,152.667,209.327,152.667,209.435Zm.145,2.034h7.416c.095,0,.143-.054.143-.162v-.2a.127.127,0,0,0-.143-.144h-7.416a.128.128,0,0,0-.145.144v.2C152.667,211.415,152.715,211.469,152.812,211.469Zm1.746,3.726c-.409.36-.714.612-.918.756-.025.024-.034.045-.028.063a.042.042,0,0,0,.045.027h1.386q.091,0,.108-.072a.777.777,0,0,1,.244-.423.611.611,0,0,1,.422-.171h1.567a.486.486,0,0,1,.386.18.5.5,0,0,1,.118.414.063.063,0,0,0,.071.072h1.44a.042.042,0,0,0,.045-.027q.009-.027-.027-.063c-.432-.336-.737-.588-.918-.756a.365.365,0,0,0-.27-.108h-3.4A.364.364,0,0,0,154.558,215.2Zm.2-7.56v.144a.127.127,0,0,0,.144.144h3.241a.127.127,0,0,0,.143-.144v-.144c0-.108-.048-.162-.143-.162H154.9Q154.755,207.473,154.755,207.635Z"/><path class="cls-8" d="M168.215,210.461a.938.938,0,0,1-.469-.612,1.018,1.018,0,0,1,.091-.774,26,26,0,0,0,1.565-3.528,1.215,1.215,0,0,1,.523-.648,1.14,1.14,0,0,1,.809-.162l.828.126a.7.7,0,0,1,.5.325.682.682,0,0,1,.081.576c-.025.071.006.108.09.108h3a.2.2,0,0,0,.2-.144l.053-.163a1.334,1.334,0,0,1,.5-.666,1.2,1.2,0,0,1,.811-.215l.827.071a.694.694,0,0,1,.567.325.749.749,0,0,1,.1.666c-.024.084.007.126.091.126h4a.942.942,0,0,1,.7.3.985.985,0,0,1,.288.711.983.983,0,0,1-.99.99h-4.212c-.107,0-.161.048-.161.144v.288c0,.1.054.144.161.144h3.906a.716.716,0,0,1,.54.225.806.806,0,0,1,0,1.1.716.716,0,0,1-.54.225h-3.906a.143.143,0,0,0-.161.162v.27a.143.143,0,0,0,.161.162h3.906a.716.716,0,0,1,.54.225.806.806,0,0,1,0,1.1.716.716,0,0,1-.54.225h-3.906c-.107,0-.161.048-.161.144v.288c0,.1.054.144.161.144h4.356a.8.8,0,0,1,.6.252.847.847,0,0,1,0,1.188.8.8,0,0,1-.6.252h-4.86q-.144,0-.144.162v.27q0,.162.144.162h5.328a.984.984,0,0,1,.711.288.941.941,0,0,1,.3.7A1.014,1.014,0,0,1,182.992,217H178.78q-.016.018,0,.054a38.561,38.561,0,0,0,4.771,1.224.911.911,0,0,1,.6.432.826.826,0,0,1,.081.72l-.143.432a1.093,1.093,0,0,1-.531.621,1.013,1.013,0,0,1-.8.081,34.07,34.07,0,0,1-5.095-1.8q-.144-.072-.144.072V220.2a1.044,1.044,0,0,1-1.026,1.026h-.9a1.045,1.045,0,0,1-1.027-1.026v-1.368q0-.144-.126-.09a31.8,31.8,0,0,1-5.093,1.818,1.039,1.039,0,0,1-.811-.081,1.083,1.083,0,0,1-.54-.621l-.144-.432a.864.864,0,0,1,.064-.72.85.85,0,0,1,.585-.432,36.924,36.924,0,0,0,4.823-1.242c.048-.024.042-.036-.017-.036h-4.393a1.014,1.014,0,0,1-1.008-1.008.944.944,0,0,1,.3-.7.987.987,0,0,1,.711-.288h5.509c.095,0,.143-.054.143-.162v-.27c0-.108-.048-.162-.143-.162h-4.357a1.012,1.012,0,0,1-1.007-1.008v-2.34a.21.21,0,0,0-.145-.216Zm3.636-2.43v.27c0,.108.047.162.143.162h2.916a.143.143,0,0,0,.162-.162v-.27a.143.143,0,0,0-.162-.162h-2.916C171.9,207.869,171.851,207.923,171.851,208.031Zm0,2.124v.27c0,.108.047.162.143.162h2.916a.143.143,0,0,0,.162-.162v-.27a.143.143,0,0,0-.162-.162h-2.916C171.9,209.993,171.851,210.047,171.851,210.155Zm0,2.124v.288a.127.127,0,0,0,.143.144h2.916c.109,0,.162-.048.162-.144v-.288c0-.1-.053-.144-.162-.144h-2.916A.127.127,0,0,0,171.851,212.279Z"/><path class="cls-8" d="M188.663,220.2a1.468,1.468,0,0,1-.711-.5,1.212,1.212,0,0,1-.262-.81q.126-4.86,1.486-7.218a4.082,4.082,0,0,1,3.627-2.358,7.318,7.318,0,0,1,3.168.774q.161.072.234-.036,2.1-2.25,4.283-4.319a1.114,1.114,0,0,1,1.494-.019l.577.5a.9.9,0,0,1,0,1.35q-1.89,1.728-4.069,4.014c-.059.06-.053.126.019.2a19.55,19.55,0,0,1,2.771,2.952,1.019,1.019,0,0,1,.226.765,1.144,1.144,0,0,1-.369.729l-.666.612a.845.845,0,0,1-.7.216.9.9,0,0,1-.63-.378,20.136,20.136,0,0,0-2.43-2.952.162.162,0,0,0-.117-.036.129.129,0,0,0-.117.054q-3.024,3.294-5.292,6.228a1.522,1.522,0,0,1-.729.5,1.447,1.447,0,0,1-.873.018Zm4.3-8.478q-2.162,0-2.592,4.842c0,.072.023.084.071.036q1.856-2.268,3.817-4.446c.059-.06.048-.114-.036-.162A3.456,3.456,0,0,0,192.965,211.721Z"/><path class="cls-8" d="M205.379,211.433l-.036-.4a1.135,1.135,0,0,1,.216-.783,1.016,1.016,0,0,1,.684-.423l.323-.054a.17.17,0,0,0,.145-.18v-3.473a.951.951,0,0,1,.306-.711,1,1,0,0,1,.719-.3h.666a1,1,0,0,1,.721.3.955.955,0,0,1,.306.711v2.951q0,.162.144.126l2.573-.486a.942.942,0,0,1,.739.171.869.869,0,0,1,.378.657l.036.378a1.121,1.121,0,0,1-.225.783,1.05,1.05,0,0,1-.693.423l-2.808.54a.17.17,0,0,0-.144.18v3.4a1.532,1.532,0,0,0,.072.648q.072.09.54.09a1.185,1.185,0,0,0,.585-.1.769.769,0,0,0,.225-.513,13.135,13.135,0,0,0,.108-1.512.918.918,0,0,1,.333-.684.868.868,0,0,1,.711-.216l.2.036a1.121,1.121,0,0,1,.72.378,1.037,1.037,0,0,1,.269.756q-.07,1.494-.126,1.872c0,.024.006.036.019.036a.054.054,0,0,0,.036-.018,19.026,19.026,0,0,0,1.71-7.866c0-.108-.049-.162-.144-.162h-2.016a1,1,0,0,1-.72-.3.952.952,0,0,1-.306-.711v-.378a1.047,1.047,0,0,1,1.026-1.026h8.477a1.049,1.049,0,0,1,1.027,1.026V209.6q0,2.646-.054,4.437a29.231,29.231,0,0,1-.234,3.087,12.456,12.456,0,0,1-.406,2,2.5,2.5,0,0,1-.666,1.107,2.027,2.027,0,0,1-.9.513,5.508,5.508,0,0,1-1.216.108q-.395,0-1.781-.144a1.2,1.2,0,0,1-1.044-1.134l-.019-.522a.859.859,0,0,1,.973-.882,11.4,11.4,0,0,0,1.277.108.8.8,0,0,0,.73-.387,5.393,5.393,0,0,0,.4-1.872q.153-1.485.154-4.473v-3.384c0-.108-.048-.162-.145-.162h-1.6a.143.143,0,0,0-.162.162,24.985,24.985,0,0,1-1.3,7.461,12.841,12.841,0,0,1-3.367,4.905,1.227,1.227,0,0,1-.792.324,1.284,1.284,0,0,1-.809-.234l-.54-.378a.719.719,0,0,1-.316-.6.737.737,0,0,1,.28-.621q.432-.378.809-.756c.025-.024.031-.045.019-.063a.061.061,0,0,0-.054-.027,10.175,10.175,0,0,1-1.584.09q-.792,0-1.233-.018a3.56,3.56,0,0,1-.846-.135,1.338,1.338,0,0,1-.567-.279,1.391,1.391,0,0,1-.288-.531,3.04,3.04,0,0,1-.153-.792q-.027-.423-.027-1.179v-2.952c0-.108-.048-.15-.145-.126l-.089.018a.913.913,0,0,1-.729-.171A.865.865,0,0,1,205.379,211.433Z"/><path class="cls-8" d="M82.92,240.781l-.108-.4a1.042,1.042,0,0,1,.108-.8,1.116,1.116,0,0,1,.63-.531,13.7,13.7,0,0,0,2.232-1.08.045.045,0,0,0,.027-.054.043.043,0,0,0-.045-.036H83.945a1,1,0,0,1-.719-.3.952.952,0,0,1-.306-.711v-.2a1.045,1.045,0,0,1,1.025-1.026h4.429a.294.294,0,0,0,.252-.126q.144-.18.395-.54c.048-.072.025-.108-.071-.108q-1.3.072-3.852.144a1.034,1.034,0,0,1-.756-.27.982.982,0,0,1-.342-.72v-.2a1,1,0,0,1,.954-1.044c.132-.012.329-.018.594-.018s.462-.006.594-.018a.254.254,0,0,0,.215-.144q.308-.54.7-1.314a1.312,1.312,0,0,1,.6-.621,1.361,1.361,0,0,1,.855-.135l.684.126a.737.737,0,0,1,.549.414.716.716,0,0,1-.009.684c-.036.072-.1.192-.18.36a3.65,3.65,0,0,1-.2.36c-.059.084-.042.126.055.126q1.294-.072,4.266-.252c.024,0,.042-.015.053-.045a.1.1,0,0,0,0-.081.352.352,0,0,0-.071-.09.361.361,0,0,1-.072-.09.649.649,0,0,1-.126-.639.7.7,0,0,1,.45-.477l.521-.18a1.5,1.5,0,0,1,.892-.018,1.453,1.453,0,0,1,.747.468q1.134,1.332,2.232,2.862a.673.673,0,0,1,.108.666.81.81,0,0,1-.486.5l-1.008.36q-.02.036,0,.054h1.53a1.044,1.044,0,0,1,1.025,1.026v.2a.955.955,0,0,1-.3.711,1,1,0,0,1-.72.3H96.6a.032.032,0,0,0-.037.036.07.07,0,0,0,.019.054,14.532,14.532,0,0,0,2.25,1.1,1.263,1.263,0,0,1,.639.54,1.008,1.008,0,0,1,.117.792l-.109.4a.838.838,0,0,1-.45.585.859.859,0,0,1-.737.045,17.74,17.74,0,0,1-5.58-3.438.345.345,0,0,0-.252-.108H90.084a.342.342,0,0,0-.252.108,12.33,12.33,0,0,1-1.135.918.045.045,0,0,0-.009.045.042.042,0,0,0,.045.027,33.3,33.3,0,0,0,3.511-.648,1.182,1.182,0,0,1,.81.072,1.128,1.128,0,0,1,.576.576l.017.036a.879.879,0,0,1,.019.756.867.867,0,0,1-.559.5,29.723,29.723,0,0,1-6.047,1.134,1.156,1.156,0,0,1-1.206-.594.148.148,0,0,0-.216-.054c-.325.156-.834.378-1.531.666a.84.84,0,0,1-.737-.054A.868.868,0,0,1,82.92,240.781Zm4.086,3.672a1.281,1.281,0,0,1-1.332-.882l-.109-.342a.787.787,0,0,1,.685-1.044,31.793,31.793,0,0,0,8.262-1.692,1.125,1.125,0,0,1,.792,0,.991.991,0,0,1,.576.522l.09.2a.955.955,0,0,1-.487,1.332A29.594,29.594,0,0,1,87.006,244.453Zm-1.441,1.818a.774.774,0,0,1,.081-.693.754.754,0,0,1,.6-.369,35.682,35.682,0,0,0,10.493-2.34,1.144,1.144,0,0,1,.811-.027.957.957,0,0,1,.593.513l.09.2a.965.965,0,0,1,.064.783.952.952,0,0,1-.531.585,33.469,33.469,0,0,1-10.764,2.556,1.281,1.281,0,0,1-1.332-.882Zm6.265-10.746a.076.076,0,0,0,.009.081.087.087,0,0,0,.081.045h4.193c.1,0,.115-.048.055-.144q-.054-.09-.685-.954a.241.241,0,0,0-.215-.108q-1.944.144-2.88.216c-.084,0-.151.054-.2.162Q92.083,235.057,91.83,235.525Z"/><path class="cls-8" d="M103.123,246.379l-.612-.792a1.392,1.392,0,0,1-.073-1.674,11.253,11.253,0,0,0,1.153-3.1,30.285,30.285,0,0,0,.557-4.788.127.127,0,0,0-.143-.144h-.594a1.044,1.044,0,0,1-1.026-1.026v-.45a1.044,1.044,0,0,1,1.026-1.026h.666c.108,0,.161-.048.161-.144q0-.252.01-.774t.009-.792a1.044,1.044,0,0,1,1.025-1.026h.685a1,1,0,0,1,.72.3.955.955,0,0,1,.305.711q0,.576-.035,1.584c0,.1.054.144.161.144h2.647a1.047,1.047,0,0,1,1.026,1.026v1.4q0,3.888-.1,6.075a16.714,16.714,0,0,1-.395,3.3,2.654,2.654,0,0,1-.666,1.386,1.836,1.836,0,0,1-1.089.27q-.524,0-2.034-.108a.982.982,0,0,1-.72-.342,1.262,1.262,0,0,1-.324-.756l-.036-.54a.836.836,0,0,1,.26-.666.822.822,0,0,1,.675-.234,8.51,8.51,0,0,0,.973.054c.18,0,.32-.132.423-.4A8.416,8.416,0,0,0,108.01,242q.1-1.467.1-4.239v-1.728a.127.127,0,0,0-.143-.144h-.937c-.107,0-.162.048-.162.144a33.033,33.033,0,0,1-.792,6.228,13.55,13.55,0,0,1-1.727,4.086.7.7,0,0,1-.594.333A.758.758,0,0,1,103.123,246.379Zm9.413.378a1.044,1.044,0,0,1-1.025-1.026v-12.8a.955.955,0,0,1,.305-.711,1,1,0,0,1,.72-.3h4.986a1,1,0,0,1,.72.3.957.957,0,0,1,.307.711v12.8a1.047,1.047,0,0,1-1.027,1.026H116.6a.827.827,0,0,1-.593-.243.8.8,0,0,1-.252-.6q0-.108-.126-.108h-1.4q-.126,0-.126.108a.82.82,0,0,1-.244.6.8.8,0,0,1-.585.243Zm1.567-12.276v8.82a.143.143,0,0,0,.162.162h1.349c.1,0,.145-.054.145-.162v-8.82a.128.128,0,0,0-.145-.144h-1.349C114.156,234.337,114.1,234.385,114.1,234.481Z"/><path class="cls-8" d="M122.515,237.685a1.047,1.047,0,0,1-1.027-1.026v-.216a1.047,1.047,0,0,1,1.027-1.026h4.914a.144.144,0,0,0,.162-.162v-1.044c0-.1-.055-.144-.162-.144h-3.42a.953.953,0,0,1-.711-.306,1,1,0,0,1-.3-.72V232.9a1,1,0,0,1,.3-.72.953.953,0,0,1,.711-.306h3.42c.107,0,.162-.048.162-.144v-.2a1,1,0,0,1,.3-.72.955.955,0,0,1,.711-.306h.9a1.044,1.044,0,0,1,1.026,1.026v.2c0,.1.054.144.163.144h2.087A1.047,1.047,0,0,1,133.8,232.9v.126c0,.024.014.042.045.054s.05.012.062,0a17.124,17.124,0,0,0,1.206-1.35,1.079,1.079,0,0,1,.694-.387,1.035,1.035,0,0,1,.764.171l.487.36a.952.952,0,0,1,.4.666.921.921,0,0,1-.216.738,23.669,23.669,0,0,1-1.944,2.034c-.024.012-.029.033-.018.063a.06.06,0,0,0,.054.045h1.944a1.047,1.047,0,0,1,1.027,1.026v.216a1.047,1.047,0,0,1-1.027,1.026h-4.788a.542.542,0,0,0-.288.09q-.612.432-1.3.864a.042.042,0,0,0-.008.045c0,.018.02.027.044.027h4.842a1.047,1.047,0,0,1,1.027,1.026v6.426a1.047,1.047,0,0,1-1.027,1.026h-1.313a.524.524,0,0,1-.523-.522.064.064,0,0,0-.072-.072h-6.426a.064.064,0,0,0-.072.072.521.521,0,0,1-.521.522h-1.315a1.044,1.044,0,0,1-1.025-1.026v-4.158a.087.087,0,0,0-.055-.081.134.134,0,0,0-.107-.009c-.325.132-.678.264-1.063.4a1.02,1.02,0,0,1-1.313-.63l-.216-.612a.917.917,0,0,1,.045-.765.957.957,0,0,1,.585-.5,31.613,31.613,0,0,0,5.04-2.07.055.055,0,0,0,.017-.036c0-.012-.011-.018-.036-.018Zm11.267,3.15h-6.263a.128.128,0,0,0-.145.144v.558a.128.128,0,0,0,.145.144h6.263c.109,0,.162-.048.162-.144v-.558C133.944,240.883,133.891,240.835,133.782,240.835Zm.162,3.564v-.576c0-.1-.053-.144-.162-.144h-6.263a.128.128,0,0,0-.145.144v.576a.128.128,0,0,0,.145.144h6.263C133.891,244.543,133.944,244.5,133.944,244.4Zm-3.42-10.188v1.044a.144.144,0,0,0,.163.162h.36a.453.453,0,0,0,.269-.09q.974-.756,1.422-1.152a.058.058,0,0,0,.019-.072.059.059,0,0,0-.055-.036h-2.015C130.578,234.067,130.524,234.115,130.524,234.211Z"/><path class="cls-8" d="M141.258,246.307l-.433-.594a.925.925,0,0,1-.152-.738.9.9,0,0,1,.44-.612,12.83,12.83,0,0,0,4.645-4.788,14.144,14.144,0,0,0,1.529-6.786v-.99a1.047,1.047,0,0,1,1.026-1.026h.9a1.044,1.044,0,0,1,1.026,1.026v.99a14.121,14.121,0,0,0,1.531,6.786,12.809,12.809,0,0,0,4.643,4.788.9.9,0,0,1,.441.612.929.929,0,0,1-.153.738l-.431.594a1.112,1.112,0,0,1-.675.459,1.026,1.026,0,0,1-.8-.135,13.659,13.659,0,0,1-3.375-3.024,16.728,16.728,0,0,1-2.475-4.176.056.056,0,0,0-.053-.036.058.058,0,0,0-.055.036,17.08,17.08,0,0,1-2.583,4.176,13.91,13.91,0,0,1-3.5,3.024,1.042,1.042,0,0,1-.81.135A1.108,1.108,0,0,1,141.258,246.307Z"/><path class="cls-8" d="M160.853,242.185a.941.941,0,0,1-.7-.3.985.985,0,0,1-.288-.711.837.837,0,0,1,.036-.288.959.959,0,0,1,.351-.5.971.971,0,0,1,.6-.2h1.115q.144,0,.162-.108a1.085,1.085,0,0,1,.45-.549,1.047,1.047,0,0,1,.684-.171l1.3.126a.484.484,0,0,1,.35.216.438.438,0,0,1,.045.4q-.036.09.054.09h3.078a.985.985,0,0,1,.711.288.941.941,0,0,1,.3.7v.072a.922.922,0,0,1-.936.936h-.018a.155.155,0,0,0-.162.126q-.018.054-.063.153t-.063.135l-.054.162a6.713,6.713,0,0,1-.738,1.242q-.072.108.054.18l.594.27a.894.894,0,0,1,.378,1.3l-.126.216a1.07,1.07,0,0,1-.648.468,1.123,1.123,0,0,1-.81-.09q-.81-.414-1.17-.594a.281.281,0,0,0-.27.036q-.036.018-.1.054t-.1.054a.193.193,0,0,1-.063.036.206.206,0,0,1-.063.018q-.126.072-.414.216h-.018v.018l-.486.216a.088.088,0,0,1-.063.018.088.088,0,0,0-.063.018,3.39,3.39,0,0,1-.36.144.7.7,0,0,1-.09.036.3.3,0,0,1-.09.018q-.108.036-.36.108-.108.036-.18.054t-.2.045q-.126.027-.18.045a.541.541,0,0,0-.09.018.559.559,0,0,1-.089.018q-.361.072-.559.108l-.018.018a1.132,1.132,0,0,1-.8-.162,1.288,1.288,0,0,1-.549-.648v-.018l-.036-.108a.733.733,0,0,1,.009-.6.8.8,0,0,1,.441-.423c.072-.024.132-.042.181-.054a14.482,14.482,0,0,0,1.727-.378q.072-.036.036-.09-.63-.216-1.3-.432a.755.755,0,0,1-.5-.468.728.728,0,0,1,.054-.684q.072-.108.2-.333t.18-.333a.081.081,0,0,0-.009-.081.088.088,0,0,0-.081-.045Zm15.047-6.606a18.208,18.208,0,0,1-1.746,7.146.185.185,0,0,0,.018.234,9.324,9.324,0,0,0,1.746,1.386,1.148,1.148,0,0,1,.486.639,1.041,1.041,0,0,1-.054.783l-.2.4a.987.987,0,0,1-.594.5.886.886,0,0,1-.756-.09,10.6,10.6,0,0,1-2.142-1.638c-.072-.072-.139-.078-.2-.018a11.124,11.124,0,0,1-2.358,1.692.967.967,0,0,1-.792.09,1.128,1.128,0,0,1-.648-.5l-.288-.468a.892.892,0,0,1-.1-.747.961.961,0,0,1,.477-.585,9.278,9.278,0,0,0,2.16-1.566.229.229,0,0,0,.036-.252,16.284,16.284,0,0,1-1.188-3.348.082.082,0,0,0-.045-.045q-.027-.009-.045.027l-.018.018-.018.018a.8.8,0,0,1-.6.405.862.862,0,0,1-.711-.189l-.432-.378a1.091,1.091,0,0,1-.216-.252.144.144,0,0,0-.216-.054.832.832,0,0,1-.99-.234l-.7-.756a.036.036,0,0,0-.054-.018.056.056,0,0,0-.036.054v.306a1.045,1.045,0,0,1-1.026,1.026h-.486a.956.956,0,0,1-.711-.306,1,1,0,0,1-.3-.72v-.468a.058.058,0,0,0-.036-.054.036.036,0,0,0-.054.018,12.014,12.014,0,0,1-1.421,1.494.872.872,0,0,1-.721.207.972.972,0,0,1-.648-.405l-.126-.2a1.015,1.015,0,0,1,.252-1.4,16.962,16.962,0,0,0,1.6-1.314.059.059,0,0,0,.018-.072.058.058,0,0,0-.054-.036H160.96a1.014,1.014,0,0,1-1.008-1.008.941.941,0,0,1,.3-.7.985.985,0,0,1,.711-.288h2.034a.143.143,0,0,0,.162-.162v-2.034a1,1,0,0,1,.3-.72.956.956,0,0,1,.711-.306h.486a1.045,1.045,0,0,1,1.026,1.026v2.034q0,.162.144.162h1.656a.985.985,0,0,1,.711.288.941.941,0,0,1,.3.7,1.014,1.014,0,0,1-1.008,1.008h-.846q-.108,0-.036.072.432.306,1.242.99a.123.123,0,0,0,.108.027.1.1,0,0,0,.09-.063,26.008,26.008,0,0,0,2.088-5.49,1.144,1.144,0,0,1,.468-.666,1.1,1.1,0,0,1,.792-.2l.468.054a.9.9,0,0,1,.648.387.878.878,0,0,1,.144.729q-.2.864-.288,1.152-.036.144.108.144h3.258a1.045,1.045,0,0,1,1.026,1.026v.666a.691.691,0,0,1-.216.5.711.711,0,0,1-.522.216Q175.9,235.453,175.9,235.579Zm-15.318-2.448q-.054-.108-.144-.306a3.123,3.123,0,0,0-.144-.288.925.925,0,0,1-.045-.747.836.836,0,0,1,.513-.531l.126-.054a1.1,1.1,0,0,1,.819-.009,1.084,1.084,0,0,1,.6.549q.179.342.305.63a.879.879,0,0,1,.018.756.924.924,0,0,1-.558.522l-.126.054a1.04,1.04,0,0,1-.783-.018A1.127,1.127,0,0,1,160.582,233.131Zm4.86,9.054h-1.314a.257.257,0,0,0-.216.144q-.072.144-.252.432-.072.126.054.162.216.054.954.306a.221.221,0,0,0,.252-.054l.018-.018a.052.052,0,0,0,.018-.036l.09-.09a.348.348,0,0,0,.045-.063.348.348,0,0,1,.045-.063c0-.012.011-.03.036-.054s.036-.042.036-.054a.536.536,0,0,0,.054-.072.536.536,0,0,1,.054-.072.087.087,0,0,1,.018-.045.3.3,0,0,1,.036-.045.507.507,0,0,0,.081-.126c.029-.06.051-.1.063-.126a.06.06,0,0,0,.009-.081A.087.087,0,0,0,165.442,242.185Zm1.422-8.532-.108-.018a.835.835,0,0,1-.531-.513.879.879,0,0,1,.027-.747q.072-.126.288-.666a1.086,1.086,0,0,1,.558-.585,1.044,1.044,0,0,1,.792-.063l.144.054a.932.932,0,0,1,.576.486.842.842,0,0,1,.018.738q-.162.378-.342.738a1.045,1.045,0,0,1-.594.558A1.159,1.159,0,0,1,166.864,233.653Zm5.724,6.39a17.8,17.8,0,0,0,.81-4.446.127.127,0,0,0-.144-.144h-1.62a.232.232,0,0,0-.216.162q-.216.558-.45,1.062-.036.072.072.072a.635.635,0,0,1,.5.1.666.666,0,0,1,.27.441,16.94,16.94,0,0,0,.666,2.736.081.081,0,0,0,.054.045A.044.044,0,0,0,172.588,240.043Z"/><path class="cls-8" d="M179.312,241.285l-.2-1.4a2.646,2.646,0,0,1,.449-1.836,12.02,12.02,0,0,0,1.71-4.356q.038-.144-.126-.144h-.593a1.045,1.045,0,0,1-1.026-1.026v-.306a.956.956,0,0,1,.306-.711,1,1,0,0,1,.72-.3h4.427a.948.948,0,0,1,.829.414.26.26,0,0,0,.215.126h2.935a.182.182,0,0,0,.2-.144.355.355,0,0,1,.035-.117.318.318,0,0,0,.036-.117,1.232,1.232,0,0,1,.487-.666,1.172,1.172,0,0,1,.792-.216l.7.072a.819.819,0,0,1,.621.351.777.777,0,0,1,.117.693q-.036.144.126.144h2.9a1,1,0,0,1,.719.3.957.957,0,0,1,.307.711v1.584a.957.957,0,0,1-.307.711,1,1,0,0,1-.719.3h-.613a.17.17,0,0,0-.179.144,1.021,1.021,0,0,0-.036.162,1.121,1.121,0,0,1-.037.162c-.023.1.012.144.109.144h.486a1.014,1.014,0,0,1,1.008,1.008v.09a1,1,0,0,1-.3.72.956.956,0,0,1-.711.306h-.973a.144.144,0,0,0-.162.162v.414c0,.1.055.144.162.144h.739a.932.932,0,0,1,.683.288.99.99,0,0,1,.01,1.386.926.926,0,0,1-.693.288h-.739a.144.144,0,0,0-.162.162v.432c0,.1.055.144.162.144h.739a.932.932,0,0,1,.683.288.99.99,0,0,1,.01,1.386.926.926,0,0,1-.693.288h-.739a.144.144,0,0,0-.162.162v.45c0,.1.055.144.162.144h1.153a1.045,1.045,0,0,1,1.026,1.026v.18a.956.956,0,0,1-.306.711,1,1,0,0,1-.72.3h-5.527a.1.1,0,0,0-.107.108.645.645,0,0,1-.648.648h-1.062a1.044,1.044,0,0,1-1.026-1.026v-5.382a.371.371,0,0,0-.09-.27l-.4-.432a.06.06,0,0,0-.107.036v4.374a1,1,0,0,1-.3.72.956.956,0,0,1-.711.306h-1.872q-.162,0-.162.144v.144a1.045,1.045,0,0,1-1.026,1.026h-.414a.956.956,0,0,1-.711-.306,1,1,0,0,1-.3-.72v-4.662a.058.058,0,0,0-.036-.054.036.036,0,0,0-.054.018l-.126.18a1.407,1.407,0,0,0-.126.2.387.387,0,0,1-.45.162A.4.4,0,0,1,179.312,241.285Zm3.565-2.106v3.906a.143.143,0,0,0,.162.162h.485c.1,0,.145-.054.145-.162v-3.906a.128.128,0,0,0-.145-.144h-.485Q182.877,239.035,182.877,239.179Zm.234-2.628q-.036.144.108.144h1.692a1.014,1.014,0,0,1,1.008,1.008v.108a.058.058,0,0,0,.036.054.036.036,0,0,0,.054-.018,19.383,19.383,0,0,0,2.2-3.69q.054-.126-.108-.126h-.774a.143.143,0,0,0-.162.162v.738a1,1,0,0,1-.3.72.957.957,0,0,1-.712.306h-.359a.956.956,0,0,1-.711-.306,1,1,0,0,1-.3-.72v-1.242c0-.1-.055-.144-.162-.144h-.559a.17.17,0,0,0-.179.144A18.228,18.228,0,0,1,183.111,236.551Zm6.138,1.692v.414q0,.144.162.144h1.35q.162,0,.162-.144v-.414a.143.143,0,0,0-.162-.162h-1.35A.143.143,0,0,0,189.249,238.243Zm0,2.682v.432q0,.144.162.144h1.35q.162,0,.162-.144v-.432a.143.143,0,0,0-.162-.162h-1.35A.143.143,0,0,0,189.249,240.925Zm0,2.7v.45q0,.144.162.144h1.35q.162,0,.162-.144v-.45a.143.143,0,0,0-.162-.162h-1.35A.143.143,0,0,0,189.249,243.625Zm1.151-7.812c-.047.1-.023.144.073.144h.864a.182.182,0,0,0,.2-.144l.108-.432a1.2,1.2,0,0,1,.459-.675,1.117,1.117,0,0,1,.783-.225l.45.036q.144,0,.144-.126v-.2q0-.162-.144-.162h-2.017a.209.209,0,0,0-.215.144C190.862,234.8,190.629,235.345,190.4,235.813Z"/><path class="cls-8" d="M199.676,246.7a.925.925,0,0,1-.523-.558,1.021,1.021,0,0,1,.018-.774,34.727,34.727,0,0,0,1.818-5.436,1.074,1.074,0,0,1,.468-.648.985.985,0,0,1,.774-.144l.613.126a1.009,1.009,0,0,1,.647.441.964.964,0,0,1,.145.765c-.013.06-.033.147-.064.261s-.051.2-.062.261a.386.386,0,0,0,.035.288,5.661,5.661,0,0,0,2.431,2.3q.126.054.126-.09v-5.472a.128.128,0,0,0-.145-.144H202.5a1.035,1.035,0,0,1-1.025-.936c0-.1-.048-.132-.145-.108a1.058,1.058,0,0,1-.252.036h-.611a.953.953,0,0,1-.711-.306,1,1,0,0,1-.3-.72V233.2a1.016,1.016,0,0,1,1.009-1.008h5.165q.144,0,.144-.162v-.45a.956.956,0,0,1,.306-.711,1,1,0,0,1,.721-.3h.9a1,1,0,0,1,.72.3.956.956,0,0,1,.306.711v.45q0,.162.144.162h5.166a1.014,1.014,0,0,1,1.008,1.008v2.646a1,1,0,0,1-.3.72.956.956,0,0,1-.711.306h-.612a1.058,1.058,0,0,1-.252-.036q-.144-.036-.144.108a1.035,1.035,0,0,1-1.026.936H209.2c-.095,0-.143.054-.143.162v1.53a.127.127,0,0,0,.143.144h3.762a.955.955,0,0,1,.711.306,1,1,0,0,1,.3.72v.216a1,1,0,0,1-.3.72.955.955,0,0,1-.711.306H209.2a.127.127,0,0,0-.143.144v2.106a.17.17,0,0,0,.143.18,44.479,44.479,0,0,0,5.022.216h.27a.928.928,0,0,1,.7.306.952.952,0,0,1,.27.72l-.036.378a1.112,1.112,0,0,1-.342.729,1.021,1.021,0,0,1-.738.3h-.161a30.129,30.129,0,0,1-7.318-.675,8.129,8.129,0,0,1-4.1-2.439q-.018-.036-.081-.036a.076.076,0,0,0-.081.054q-.432,1.242-.971,2.43a1.016,1.016,0,0,1-.585.549,1.06,1.06,0,0,1-.8-.009Zm2.825-11.088h9.5a1.058,1.058,0,0,1,.252.036c.1.024.144-.012.144-.108v-.936c0-.1-.053-.144-.162-.144h-9.971c-.109,0-.163.048-.163.144v.936q0,.144.144.108A1.071,1.071,0,0,1,202.5,235.615Z"/><path class="cls-1" d="M95.28,78.03A5.232,5.232,0,1,0,90.049,72.8,5.231,5.231,0,0,0,95.28,78.03Z"/><path class="cls-1" d="M101.979,83.07a10.053,10.053,0,0,0-2.269-4.238.667.667,0,0,0-.77-.056,6.956,6.956,0,0,1-7.321,0,.665.665,0,0,0-.769.056,10.066,10.066,0,0,0-2.27,4.238c-.573,3.445,3.106,4.689,6.7,4.689S102.553,86.515,101.979,83.07Z"/><path class="cls-1" d="M113.52,78.03a5.232,5.232,0,1,0-5.231-5.231A5.231,5.231,0,0,0,113.52,78.03Z"/><path class="cls-1" d="M120.219,83.07a10.053,10.053,0,0,0-2.269-4.238.665.665,0,0,0-.769-.056,6.958,6.958,0,0,1-7.322,0,.665.665,0,0,0-.769.056,10.066,10.066,0,0,0-2.27,4.238c-.573,3.445,3.106,4.689,6.7,4.689S120.793,86.515,120.219,83.07Z"/><path class="cls-1" d="M131.76,78.03a5.232,5.232,0,1,0-5.231-5.231A5.231,5.231,0,0,0,131.76,78.03Z"/><path class="cls-1" d="M138.459,83.07a10.053,10.053,0,0,0-2.269-4.238.665.665,0,0,0-.769-.056,6.958,6.958,0,0,1-7.322,0,.665.665,0,0,0-.769.056,10.053,10.053,0,0,0-2.269,4.238c-.574,3.445,3.1,4.689,6.7,4.689S139.033,86.515,138.459,83.07Z"/><path class="cls-1" d="M150,78.03a5.232,5.232,0,1,0-5.231-5.231A5.231,5.231,0,0,0,150,78.03Z"/><path class="cls-1" d="M156.7,83.07a10.066,10.066,0,0,0-2.27-4.238.665.665,0,0,0-.769-.056,6.958,6.958,0,0,1-7.322,0,.665.665,0,0,0-.769.056A10.053,10.053,0,0,0,143.3,83.07c-.574,3.445,3.105,4.689,6.7,4.689S157.273,86.515,156.7,83.07Z"/><path class="cls-1" d="M168.24,78.03a5.232,5.232,0,1,0-5.231-5.231A5.231,5.231,0,0,0,168.24,78.03Z"/><path class="cls-1" d="M174.94,83.07a10.066,10.066,0,0,0-2.27-4.238.665.665,0,0,0-.769-.056,6.956,6.956,0,0,1-7.321,0,.667.667,0,0,0-.77.056,10.053,10.053,0,0,0-2.269,4.238c-.574,3.445,3.1,4.689,6.7,4.689S175.513,86.515,174.94,83.07Z"/><path class="cls-1" d="M186.48,78.03a5.232,5.232,0,1,0-5.231-5.231A5.231,5.231,0,0,0,186.48,78.03Z"/><path class="cls-1" d="M193.18,83.07a10.066,10.066,0,0,0-2.27-4.238.665.665,0,0,0-.769-.056,6.956,6.956,0,0,1-7.321,0,.667.667,0,0,0-.77.056,10.053,10.053,0,0,0-2.269,4.238c-.574,3.445,3.1,4.689,6.7,4.689S193.754,86.515,193.18,83.07Z"/><path class="cls-1" d="M204.72,78.03a5.232,5.232,0,1,0-5.231-5.231A5.231,5.231,0,0,0,204.72,78.03Z"/><path class="cls-1" d="M211.42,83.07a10.066,10.066,0,0,0-2.27-4.238.665.665,0,0,0-.769-.056,6.956,6.956,0,0,1-7.321,0,.667.667,0,0,0-.77.056,10.053,10.053,0,0,0-2.269,4.238c-.574,3.445,3.105,4.689,6.7,4.689S211.994,86.515,211.42,83.07Z"/><path class="cls-1" d="M95.28,102.934A5.232,5.232,0,1,0,90.049,97.7,5.231,5.231,0,0,0,95.28,102.934Z"/><path class="cls-1" d="M101.979,107.974a10.053,10.053,0,0,0-2.269-4.238.667.667,0,0,0-.77-.056,6.956,6.956,0,0,1-7.321,0,.665.665,0,0,0-.769.056,10.066,10.066,0,0,0-2.27,4.238c-.573,3.445,3.106,4.689,6.7,4.689S102.553,111.419,101.979,107.974Z"/><path class="cls-1" d="M113.52,102.934a5.232,5.232,0,1,0-5.231-5.232A5.231,5.231,0,0,0,113.52,102.934Z"/><path class="cls-1" d="M120.219,107.974a10.053,10.053,0,0,0-2.269-4.238.665.665,0,0,0-.769-.056,6.958,6.958,0,0,1-7.322,0,.665.665,0,0,0-.769.056,10.066,10.066,0,0,0-2.27,4.238c-.573,3.445,3.106,4.689,6.7,4.689S120.793,111.419,120.219,107.974Z"/><path class="cls-1" d="M131.76,102.934a5.232,5.232,0,1,0-5.231-5.232A5.231,5.231,0,0,0,131.76,102.934Z"/><path class="cls-1" d="M138.459,107.974a10.053,10.053,0,0,0-2.269-4.238.665.665,0,0,0-.769-.056,6.958,6.958,0,0,1-7.322,0,.665.665,0,0,0-.769.056,10.053,10.053,0,0,0-2.269,4.238c-.574,3.445,3.1,4.689,6.7,4.689S139.033,111.419,138.459,107.974Z"/><path class="cls-1" d="M150,102.934a5.232,5.232,0,1,0-5.231-5.232A5.231,5.231,0,0,0,150,102.934Z"/><path class="cls-1" d="M156.7,107.974a10.066,10.066,0,0,0-2.27-4.238.665.665,0,0,0-.769-.056,6.958,6.958,0,0,1-7.322,0,.665.665,0,0,0-.769.056,10.053,10.053,0,0,0-2.269,4.238c-.574,3.445,3.105,4.689,6.7,4.689S157.273,111.419,156.7,107.974Z"/><path class="cls-1" d="M168.24,102.934a5.232,5.232,0,1,0-5.231-5.232A5.231,5.231,0,0,0,168.24,102.934Z"/><path class="cls-1" d="M174.94,107.974a10.066,10.066,0,0,0-2.27-4.238.665.665,0,0,0-.769-.056,6.956,6.956,0,0,1-7.321,0,.667.667,0,0,0-.77.056,10.053,10.053,0,0,0-2.269,4.238c-.574,3.445,3.1,4.689,6.7,4.689S175.513,111.419,174.94,107.974Z"/><path class="cls-1" d="M186.48,102.934a5.232,5.232,0,1,0-5.231-5.232A5.231,5.231,0,0,0,186.48,102.934Z"/><path class="cls-1" d="M193.18,107.974a10.066,10.066,0,0,0-2.27-4.238.665.665,0,0,0-.769-.056,6.956,6.956,0,0,1-7.321,0,.667.667,0,0,0-.77.056,10.053,10.053,0,0,0-2.269,4.238c-.574,3.445,3.1,4.689,6.7,4.689S193.754,111.419,193.18,107.974Z"/><path class="cls-1" d="M204.72,102.934a5.232,5.232,0,1,0-5.231-5.232A5.231,5.231,0,0,0,204.72,102.934Z"/><path class="cls-1" d="M211.42,107.974a10.066,10.066,0,0,0-2.27-4.238.665.665,0,0,0-.769-.056,6.956,6.956,0,0,1-7.321,0,.667.667,0,0,0-.77.056,10.053,10.053,0,0,0-2.269,4.238c-.574,3.445,3.105,4.689,6.7,4.689S211.994,111.419,211.42,107.974Z"/><path class="cls-1" d="M95.28,127.838a5.232,5.232,0,1,0-5.231-5.232A5.231,5.231,0,0,0,95.28,127.838Z"/><path class="cls-1" d="M101.979,132.878a10.053,10.053,0,0,0-2.269-4.238.669.669,0,0,0-.77-.057,6.951,6.951,0,0,1-7.321,0,.667.667,0,0,0-.769.057,10.066,10.066,0,0,0-2.27,4.238c-.573,3.444,3.106,4.689,6.7,4.689S102.553,136.322,101.979,132.878Z"/><path class="cls-1" d="M113.52,127.838a5.232,5.232,0,1,0-5.231-5.232A5.231,5.231,0,0,0,113.52,127.838Z"/><path class="cls-1" d="M120.219,132.878a10.053,10.053,0,0,0-2.269-4.238.667.667,0,0,0-.769-.057,6.952,6.952,0,0,1-7.322,0,.667.667,0,0,0-.769.057,10.066,10.066,0,0,0-2.27,4.238c-.573,3.444,3.106,4.689,6.7,4.689S120.793,136.322,120.219,132.878Z"/><path class="cls-1" d="M131.76,127.838a5.232,5.232,0,1,0-5.231-5.232A5.231,5.231,0,0,0,131.76,127.838Z"/><path class="cls-1" d="M138.459,132.878a10.053,10.053,0,0,0-2.269-4.238.667.667,0,0,0-.769-.057,6.952,6.952,0,0,1-7.322,0,.667.667,0,0,0-.769.057,10.053,10.053,0,0,0-2.269,4.238c-.574,3.444,3.1,4.689,6.7,4.689S139.033,136.322,138.459,132.878Z"/><path class="cls-1" d="M150,127.838a5.232,5.232,0,1,0-5.231-5.232A5.231,5.231,0,0,0,150,127.838Z"/><path class="cls-1" d="M156.7,132.878a10.066,10.066,0,0,0-2.27-4.238.667.667,0,0,0-.769-.057,6.952,6.952,0,0,1-7.322,0,.667.667,0,0,0-.769.057,10.053,10.053,0,0,0-2.269,4.238c-.574,3.444,3.105,4.689,6.7,4.689S157.273,136.322,156.7,132.878Z"/><path class="cls-1" d="M168.24,127.838a5.232,5.232,0,1,0-5.231-5.232A5.231,5.231,0,0,0,168.24,127.838Z"/><path class="cls-1" d="M174.94,132.878a10.066,10.066,0,0,0-2.27-4.238.667.667,0,0,0-.769-.057,6.951,6.951,0,0,1-7.321,0,.669.669,0,0,0-.77.057,10.053,10.053,0,0,0-2.269,4.238c-.574,3.444,3.1,4.689,6.7,4.689S175.513,136.322,174.94,132.878Z"/><path class="cls-1" d="M186.48,127.838a5.232,5.232,0,1,0-5.231-5.232A5.231,5.231,0,0,0,186.48,127.838Z"/><path class="cls-1" d="M193.18,132.878a10.066,10.066,0,0,0-2.27-4.238.667.667,0,0,0-.769-.057,6.951,6.951,0,0,1-7.321,0,.669.669,0,0,0-.77.057,10.053,10.053,0,0,0-2.269,4.238c-.574,3.444,3.1,4.689,6.7,4.689S193.754,136.322,193.18,132.878Z"/><path class="cls-1" d="M204.72,127.838a5.232,5.232,0,1,0-5.231-5.232A5.231,5.231,0,0,0,204.72,127.838Z"/><path class="cls-1" d="M211.42,132.878a10.066,10.066,0,0,0-2.27-4.238.667.667,0,0,0-.769-.057,6.951,6.951,0,0,1-7.321,0,.669.669,0,0,0-.77.057,10.053,10.053,0,0,0-2.269,4.238c-.574,3.444,3.105,4.689,6.7,4.689S211.994,136.322,211.42,132.878Z"/></svg>