<svg id="レイヤー_1" data-name="レイヤー 1" xmlns="http://www.w3.org/2000/svg" viewBox="0 0 300 300"><defs><style>.cls-1{fill:#fff;}.cls-2{fill:#ff5050;}.cls-3{fill:#333;}.cls-22,.cls-4{fill:#ffc83b;}.cls-5{fill:#fcd9c2;}.cls-6{fill:#e4e4e4;}.cls-7{fill:#e8b778;}.cls-8{fill:#f8ce90;}.cls-9{fill:#c59d62;}.cls-10{fill:#aa68a4;}.cls-11{fill:#fac83b;}.cls-12{fill:#fad469;}.cls-13{fill:#f4c980;}.cls-14{fill:#f7d9a6;}.cls-15{fill:#925075;}.cls-16{fill:#a06584;}.cls-17{fill:#008445;}.cls-18{fill:#009045;}.cls-19{fill:#d23e36;}.cls-20{fill:#f8bf00;}.cls-21{fill:#f29e00;}.cls-22{font-size:18.505px;font-family:KorolevRounded-Bold, Korolev Rounded;font-weight:700;}</style></defs><circle class="cls-1" cx="150" cy="150" r="147.5"/><path class="cls-2" d="M150,5A145,145,0,0,1,252.53,252.531,145,145,0,0,1,47.47,47.469,144.051,144.051,0,0,1,150,5m0-5A150,150,0,1,0,300,150,150,150,0,0,0,150,0Z"/><circle class="cls-2" cx="35" cy="35" r="35"/><path class="cls-1" d="M13.818,39.588V30.454c0-6.048,4.053-10.269,9.911-10.269,5.8,0,9.912,4.221,9.912,10.269v9.134c0,6.027-4.116,10.227-9.912,10.227C17.871,49.815,13.818,45.615,13.818,39.588Zm14.027-.252v-8.63c0-3.78-1.89-4.956-4.116-4.956-2.267,0-4.115,1.176-4.115,4.977v8.588c0,3.759,1.91,4.935,4.115,4.935C25.913,44.25,27.845,43.074,27.845,39.336Z"/><path class="cls-1" d="M36.8,47.589V45.363c0-5.726,4.169-7.873,7.91-9.749,3.058-1.525,5.739-2.856,5.739-6.042A3.764,3.764,0,0,0,46.4,25.666a3.987,3.987,0,0,0-4.035,2.822,2.538,2.538,0,0,1-2.531,1.671h-.343c-1.869,0-2.835-1.071-2.436-2.877.861-4.284,4.557-7.1,9.345-7.1,5.774,0,9.785,3.822,9.785,9.324,0,5.9-4.47,8.079-8.3,9.91-2.774,1.314-5.2,2.469-5.264,4.831H53.263a2.361,2.361,0,0,1,2.625,2.625v.315a2.361,2.361,0,0,1-2.625,2.625H39.425C37.724,49.815,36.8,49.017,36.8,47.589Z"/><path class="cls-3" d="M48.074,213.737l-.126-.684a.922.922,0,0,1,.18-.747,1.1,1.1,0,0,1,.666-.423,26.088,26.088,0,0,0,6.308-2.007,22.947,22.947,0,0,0,5.356-3.393,1.049,1.049,0,0,1,.737-.252.909.909,0,0,1,.685.342l.45.5a.967.967,0,0,1,.252.747,1.043,1.043,0,0,1-.36.711,24.4,24.4,0,0,1-4.212,2.9.266.266,0,0,0-.144.234v7.74a.956.956,0,0,1-.306.711,1,1,0,0,1-.72.3h-1.1a1.016,1.016,0,0,1-1.009-1.008v-6.264a.108.108,0,0,0-.045-.09.1.1,0,0,0-.1-.018,28.191,28.191,0,0,1-5.328,1.53,1,1,0,0,1-.765-.171A.974.974,0,0,1,48.074,213.737Z"/><path class="cls-3" d="M64.186,216.365a.988.988,0,0,1-.234-1.4q2.16-3.024,2.214-3.1.774-1.116,1.116-1.6t.792-1.053a6.256,6.256,0,0,1,.639-.729,2.919,2.919,0,0,1,.531-.342,1.561,1.561,0,0,1,.585-.2q.243-.018.692-.018a3.366,3.366,0,0,1,1.324.216,3.789,3.789,0,0,1,1.035.72q.54.5,2,2.088,3.492,3.762,5.13,5.436a1.045,1.045,0,0,1,0,1.476l-.72.738a.975.975,0,0,1-.711.306,1,1,0,0,1-.711-.288q-2.556-2.628-5.166-5.544-1.116-1.242-1.513-1.629a1.083,1.083,0,0,0-.666-.387c-.143,0-.327.144-.548.432s-.621.858-1.2,1.71q-1.1,1.656-2.411,3.438a1.023,1.023,0,0,1-.676.414.964.964,0,0,1-.764-.18Zm10.673-10.278a1.027,1.027,0,0,1,1.387.432q.342.594.72,1.368a.942.942,0,0,1,.062.774.954.954,0,0,1-.512.576l-.18.09a.965.965,0,0,1-.783.063,1.022,1.022,0,0,1-.6-.513q-.108-.234-.36-.684t-.361-.666a.974.974,0,0,1-.081-.765.9.9,0,0,1,.5-.584ZM79.4,205.8q.5.936.756,1.422a.982.982,0,0,1-.449,1.35l-.234.126a1.059,1.059,0,0,1-1.386-.468l-.756-1.4a.922.922,0,0,1-.072-.756.988.988,0,0,1,.5-.593l.252-.108a1.021,1.021,0,0,1,1.385.431Z"/><path class="cls-3" d="M84.8,208.841a.963.963,0,0,1-.432-1.332l.414-.81a1.017,1.017,0,0,1,.6-.512,1.068,1.068,0,0,1,.8.044q1.852.882,3.8,1.89a.9.9,0,0,1,.495.594.989.989,0,0,1-.081.774l-.468.81a1.039,1.039,0,0,1-1.386.414Q86.671,209.741,84.8,208.841Zm12.78-.882a1.009,1.009,0,0,1,.648.441.959.959,0,0,1,.144.765,13.033,13.033,0,0,1-4.167,7.362,15.838,15.838,0,0,1-8.469,3.294,1.021,1.021,0,0,1-.774-.207,1.06,1.06,0,0,1-.414-.693l-.126-.828a.893.893,0,0,1,.181-.729.956.956,0,0,1,.666-.387,13.68,13.68,0,0,0,6.848-2.61,10.764,10.764,0,0,0,3.465-5.814,1.045,1.045,0,0,1,.459-.639.98.98,0,0,1,.765-.135Z"/><path class="cls-3" d="M104.252,220.505a1.044,1.044,0,0,1-1.026-1.026v-12.96a1.042,1.042,0,0,1,1.026-1.025h1.025a.956.956,0,0,1,.711.305,1,1,0,0,1,.3.72v3.78a.186.186,0,0,0,.162.2q4.231,1.044,8.55,2.556a1.028,1.028,0,0,1,.648,1.314l-.288.81a.992.992,0,0,1-.5.576.969.969,0,0,1-.755.054q-3.69-1.314-7.668-2.34c-.1-.024-.145.018-.145.126v5.886a1,1,0,0,1-.3.72.953.953,0,0,1-.711.306Z"/><path class="cls-3" d="M123.483,219.875a3.581,3.581,0,0,1-2.817-1.728,6.858,6.858,0,0,1-1.286-4.212,7.515,7.515,0,0,1,2.393-5.769,8.89,8.89,0,0,1,6.3-2.223,7.169,7.169,0,0,1,5.2,1.989A6.749,6.749,0,0,1,135.327,213,7.916,7.916,0,0,1,134,217.733a5.934,5.934,0,0,1-3.636,2.376,1,1,0,0,1-.8-.162,1.056,1.056,0,0,1-.459-.684l-.145-.612a.923.923,0,0,1,.145-.747,1.155,1.155,0,0,1,.629-.477q2.844-.918,2.844-4.428a4.368,4.368,0,0,0-.918-2.8,4.258,4.258,0,0,0-2.429-1.521c-.084-.012-.139.036-.163.144a49.7,49.7,0,0,1-1.052,5.535,13.124,13.124,0,0,1-1.306,3.4,4.869,4.869,0,0,1-1.476,1.647A3.244,3.244,0,0,1,123.483,219.875Zm2.556-11.07a5.124,5.124,0,0,0-2.87,1.845,5.257,5.257,0,0,0-1.035,3.285,4.935,4.935,0,0,0,.476,2.187q.479.981.873.981a.641.641,0,0,0,.432-.243,3.374,3.374,0,0,0,.522-.846,12.078,12.078,0,0,0,.577-1.512q.287-.909.593-2.349t.558-3.24a.075.075,0,0,0-.026-.09A.1.1,0,0,0,126.039,208.805Z"/><path class="cls-3" d="M139.567,213.737a1.045,1.045,0,0,1-1.025-1.026v-.288a1.045,1.045,0,0,1,1.025-1.026h2.376a.955.955,0,0,1,.711.306,1,1,0,0,1,.3.72v2.358a.043.043,0,0,0,.027.045.04.04,0,0,0,.045-.009,7.785,7.785,0,0,0,.621-2.232,28.633,28.633,0,0,0,.171-3.618v-2.754a.959.959,0,0,1,.306-.711,1,1,0,0,1,.721-.3h8.622a1.006,1.006,0,0,1,.72.3.958.958,0,0,1,.305.711v.162a1.044,1.044,0,0,1-1.025,1.026h-6.822a.144.144,0,0,0-.163.162v1.152q0,.126.144.09a1.558,1.558,0,0,1,.288-.036h5.994a.955.955,0,0,1,.711.306,1,1,0,0,1,.3.72v.144a5.35,5.35,0,0,1-.342,1.98,12.2,12.2,0,0,1-1.656,3.042c-.06.084-.054.15.019.2a12.639,12.639,0,0,0,2,1.08.938.938,0,0,1,.5.54.886.886,0,0,1-.037.738l-.215.378a1.2,1.2,0,0,1-.63.558,1.046,1.046,0,0,1-.828-.018,13.338,13.338,0,0,1-2.7-1.476.191.191,0,0,0-.234.018,15.982,15.982,0,0,1-2.52,1.422,1.143,1.143,0,0,1-.819.054,1.207,1.207,0,0,1-.656-.5l-.307-.468a.791.791,0,0,1-.081-.72.838.838,0,0,1,.5-.522,12.518,12.518,0,0,0,1.945-1.044.113.113,0,0,0,.017-.2,10.035,10.035,0,0,1-1.332-2,.989.989,0,0,1-.054-.8,1.129,1.129,0,0,1,.523-.621l.432-.234a.871.871,0,0,1,.738-.063,1.108,1.108,0,0,1,.575.513,9.468,9.468,0,0,0,1.009,1.458.113.113,0,0,0,.2-.018,9.251,9.251,0,0,0,1.189-2.124q.07-.144-.09-.144h-4.141a1.558,1.558,0,0,1-.288-.036q-.144-.036-.144.09a11.964,11.964,0,0,1-1.421,5.922.829.829,0,0,1-1.3.162l-.576-.558-.144-.144a.076.076,0,0,0-.055-.018.032.032,0,0,0-.036.036v.594a.533.533,0,0,0,.091.288,2.328,2.328,0,0,0,1.025.891,7.087,7.087,0,0,0,2.071.405q1.44.126,4.319.126H154a.939.939,0,0,1,.7.3.928.928,0,0,1,.271.711l-.037.306a1.111,1.111,0,0,1-.341.729,1.024,1.024,0,0,1-.739.3h-3.366a35.473,35.473,0,0,1-5.5-.324,6.205,6.205,0,0,1-2.906-1.116.193.193,0,0,0-.235-.018q-.72.612-1.494,1.152a.883.883,0,0,1-.728.144.93.93,0,0,1-.6-.45l-.269-.45a.99.99,0,0,1-.117-.774,1.1,1.1,0,0,1,.459-.666c.311-.2.654-.45,1.026-.738a.294.294,0,0,0,.126-.252v-3.69c0-.1-.055-.144-.162-.144Zm.2-7.956a.978.978,0,0,1,.738-.269,1.006,1.006,0,0,1,.72.323q.575.612,1.727,1.872a.947.947,0,0,1,.262.738,1.051,1.051,0,0,1-.333.72l-.307.288a.95.95,0,0,1-.72.27.992.992,0,0,1-.7-.324q-.575-.612-1.782-1.872a.982.982,0,0,1-.278-.72.957.957,0,0,1,.314-.7Z"/><path class="cls-3" d="M157.883,216.257l-.18-.864a1.3,1.3,0,0,1,.1-.837,1.433,1.433,0,0,1,.585-.639,11,11,0,0,0,4.176-3.942q.072-.108-.09-.108h-3.438a1.045,1.045,0,0,1-1.026-1.026v-.45a1.045,1.045,0,0,1,1.026-1.026h1.44q.162,0,.162-.144V205.8a1,1,0,0,1,.3-.719.95.95,0,0,1,.71-.307h.612a1.047,1.047,0,0,1,1.026,1.026v1.422q0,.144.162.144H164.6a1.045,1.045,0,0,1,1.026,1.026v.45a4.01,4.01,0,0,1-.45,1.944,15.809,15.809,0,0,1-.864,1.35.144.144,0,0,0,.018.216q1.476,1.512,2.106,2.2a.76.76,0,0,1,.144.2.052.052,0,0,0,.036.018q.018,0,.018-.036v-8.658a1.047,1.047,0,0,1,1.026-1.026h.737a1.047,1.047,0,0,1,1.027,1.026v11.754a2.181,2.181,0,0,0,.045.6q.045.1.315.135a4.523,4.523,0,0,0,.738.054,4.624,4.624,0,0,0,.72-.054c.252-.024.407-.195.468-.513s.114-1.317.162-3a.883.883,0,0,1,.324-.657.939.939,0,0,1,.72-.225l.612.072a1.1,1.1,0,0,1,.711.369,1.021,1.021,0,0,1,.261.747,26.094,26.094,0,0,1-.315,3.717,2.649,2.649,0,0,1-.639,1.476,2.615,2.615,0,0,1-1.386.459,13.051,13.051,0,0,1-1.638.09q-.882,0-1.638-.054a6.49,6.49,0,0,1-1.188-.135,1.2,1.2,0,0,1-.657-.423,1.678,1.678,0,0,1-.333-.837,11.477,11.477,0,0,1-.072-1.485v-2.484q0-.018-.027-.018a.061.061,0,0,0-.045.018,1.278,1.278,0,0,1-.234.288l-.36.324a.993.993,0,0,1-.747.234,1.069,1.069,0,0,1-.711-.342l-.558-.621q-.4-.441-.63-.693-.018-.036-.063-.018t-.045.054V220.2a1.045,1.045,0,0,1-1.025,1.026h-.739a1.045,1.045,0,0,1-1.026-1.026v-4.32q0-.144-.126-.054-.63.486-1.3.918a.694.694,0,0,1-.675.045A.734.734,0,0,1,157.883,216.257Z"/><path class="cls-3" d="M178.489,221.117a1.044,1.044,0,0,1-1.025-1.026v-5.94a.955.955,0,0,1,.305-.711,1,1,0,0,1,.72-.3h5.544a1,1,0,0,1,.721.3.96.96,0,0,1,.306.711v5.94a1.045,1.045,0,0,1-1.027,1.026h-1.061a.522.522,0,0,1-.523-.522.063.063,0,0,0-.071-.072h-1.962a.063.063,0,0,0-.072.072.524.524,0,0,1-.523.522Zm12.96-9.954a1.044,1.044,0,0,1-1.025,1.026h-9.649a1.045,1.045,0,0,1-1.025-1.026v-5.039a1.044,1.044,0,0,1,1.025-1.026h9.649a1.042,1.042,0,0,1,1.025,1.026Zm-11.105,4.32v2.772a.127.127,0,0,0,.143.144h1.8q.162,0,.162-.144v-2.772a.143.143,0,0,0-.162-.162h-1.8C180.392,215.321,180.344,215.375,180.344,215.483Zm8.172-5.562v-2.412c0-.1-.054-.144-.163-.144h-5.507c-.109,0-.162.048-.162.144v2.412a.143.143,0,0,0,.162.162h5.507A.144.144,0,0,0,188.516,209.921Zm5.219,10.17a1.044,1.044,0,0,1-1.026,1.026h-1.331a.524.524,0,0,1-.523-.522.064.064,0,0,0-.072-.072h-1.962a.064.064,0,0,0-.072.072.521.521,0,0,1-.522.522h-1.062a1.044,1.044,0,0,1-1.025-1.026v-5.94a.955.955,0,0,1,.305-.711,1,1,0,0,1,.72-.3h5.544a1,1,0,0,1,.721.3.955.955,0,0,1,.305.711Zm-2.88-1.836v-2.772c0-.108-.047-.162-.143-.162h-1.8a.144.144,0,0,0-.162.162v2.772c0,.1.055.144.162.144h1.8A.127.127,0,0,0,190.855,218.255Z"/><path class="cls-3" d="M198.127,208.985a.958.958,0,0,1-.711-.306,1,1,0,0,1-.3-.72v-.27a1,1,0,0,1,.3-.72.958.958,0,0,1,.711-.306h2.61a.209.209,0,0,0,.216-.144c.024-.06.069-.18.135-.359s.117-.318.153-.414a1.183,1.183,0,0,1,.513-.658,1.135,1.135,0,0,1,.8-.152l.863.162a.834.834,0,0,1,.595.4.826.826,0,0,1,.071.711q-.018.054-.063.162t-.063.162c-.023.084.012.126.108.126h6.12a1.045,1.045,0,0,1,1.026,1.026v.27a1.045,1.045,0,0,1-1.026,1.026H203.1a.212.212,0,0,0-.217.126c-.287.612-.438.93-.449.954v.036h.035a4.534,4.534,0,0,1,1.512-.288,3.469,3.469,0,0,1,3.42,1.962.166.166,0,0,0,.216.108q1.1-.234,2.485-.4a.95.95,0,0,1,.747.216.959.959,0,0,1,.368.684l.036.342a1.027,1.027,0,0,1-.225.747.989.989,0,0,1-.674.387q-.974.144-2.161.36a.147.147,0,0,0-.126.2c.073.708.108,1.122.108,1.242a.924.924,0,0,1-.288.72.985.985,0,0,1-.72.306H206.3a1,1,0,0,1-.72-.3,1.026,1.026,0,0,1-.324-.711,4.8,4.8,0,0,0-.018-.486.1.1,0,0,0-.053-.09.121.121,0,0,0-.109-.018q-2.268.882-2.267,1.728a1.024,1.024,0,0,0,.719.963,8.092,8.092,0,0,0,2.79.315,28.964,28.964,0,0,0,3.529-.306.963.963,0,0,1,.746.207.928.928,0,0,1,.369.675l.036.432a1.057,1.057,0,0,1-.225.756.978.978,0,0,1-.674.4,32.981,32.981,0,0,1-3.781.216,10.735,10.735,0,0,1-4.914-.828,2.717,2.717,0,0,1-1.494-2.538,3.4,3.4,0,0,1,1.152-2.448,9.28,9.28,0,0,1,3.457-1.944c.095-.048.113-.108.053-.18a1.607,1.607,0,0,0-1.314-.522,2.71,2.71,0,0,0-1.584.567,10.492,10.492,0,0,0-1.944,2.061,1.138,1.138,0,0,1-.693.45,1.1,1.1,0,0,1-.8-.126l-.522-.288a.87.87,0,0,1-.449-.594.9.9,0,0,1,.143-.738,32.98,32.98,0,0,0,2.466-4.23c.048-.084.019-.126-.09-.126Z"/><path class="cls-3" d="M216.167,213.737a.956.956,0,0,1-.711-.306,1,1,0,0,1-.3-.72v-.288a1,1,0,0,1,.3-.72.956.956,0,0,1,.711-.306h2.2a.956.956,0,0,1,.711.306,1,1,0,0,1,.3.72v4.644a.531.531,0,0,0,.09.288,2.2,2.2,0,0,0,.918.846.059.059,0,0,0,.072-.018.122.122,0,0,0,.036-.09.848.848,0,0,1,.162-.558.888.888,0,0,1,.468-.342q.81-.288,1.512-.576a.05.05,0,0,0,.017-.036c0-.012-.011-.018-.035-.018h-1.62a1.044,1.044,0,0,1-1.026-1.026v-.108a1.044,1.044,0,0,1,1.026-1.026h.972a.127.127,0,0,0,.144-.144v-.306q0-.162-.144-.162h-.576a.984.984,0,0,1-.711-.288.937.937,0,0,1-.3-.7,1.014,1.014,0,0,1,1.008-1.008h.576a.127.127,0,0,0,.144-.144.546.546,0,0,1,.018-.162c.023-.108-.012-.162-.108-.162q-.468,0-.684-.018a2,2,0,0,1-1.189-.288,1.46,1.46,0,0,1-.269-1.044v-1.422a.956.956,0,0,1,.306-.711,1,1,0,0,1,.72-.3h1.8a.143.143,0,0,0,.162-.162v-.252q0-.144-.162-.144h-2.016A.933.933,0,0,1,220,206.7a.955.955,0,0,1-.288-.7.955.955,0,0,1,.972-.973h3.474a1,1,0,0,1,.72.3.96.96,0,0,1,.306.712v1.943A1.045,1.045,0,0,1,224.159,209h-.234v.018l.612.126a1.085,1.085,0,0,1,.684.441.957.957,0,0,1,.162.783.984.984,0,0,1-.558.774.136.136,0,0,0-.09.18,1.048,1.048,0,0,1,.054.324q0,.144.162.144h1.692a.127.127,0,0,0,.144-.144,1.058,1.058,0,0,1,.036-.252.116.116,0,0,0-.091-.162.966.966,0,0,1-.674-.351,1.744,1.744,0,0,1-.171-.909v-1.422a.952.952,0,0,1,.306-.711,1,1,0,0,1,.72-.3h1.817c.1,0,.145-.054.145-.162v-.252a.128.128,0,0,0-.145-.144h-1.925a.983.983,0,0,1-.991-.989.941.941,0,0,1,.288-.685.961.961,0,0,1,.7-.288h3.383a1.016,1.016,0,0,1,1.009,1.009v1.943a1,1,0,0,1-.3.72.953.953,0,0,1-.711.306h-.252v.018l.613.126a1.082,1.082,0,0,1,.683.441.95.95,0,0,1,.162.783,1.01,1.01,0,0,1-.44.738,3.321,3.321,0,0,1-1.215.2h-.162q-.162,0-.126.144a.854.854,0,0,1,.018.2c0,.1.053.144.162.144h.576a.942.942,0,0,1,.7.3.985.985,0,0,1,.288.711.983.983,0,0,1-.99.99h-.576a.143.143,0,0,0-.162.162v.306c0,.1.053.144.162.144h.935a1.045,1.045,0,0,1,1.027,1.026v.108a1.045,1.045,0,0,1-1.027,1.026h-.792c-.023,0-.035.006-.035.018a.052.052,0,0,0,.018.036q.5.216.882.4a1.025,1.025,0,0,1,.513.612.985.985,0,0,1-.063.792l-.126.234q-.072.108.054.144a.982.982,0,0,1,.548.36.922.922,0,0,1,.19.63v.252a1.011,1.011,0,0,1-.342.729,1.084,1.084,0,0,1-.756.3h-3.69a34.642,34.642,0,0,1-5.427-.324,6.612,6.612,0,0,1-2.907-1.08.174.174,0,0,0-.234,0q-.685.576-1.422,1.1a.9.9,0,0,1-.738.144.931.931,0,0,1-.612-.45l-.27-.45a1.011,1.011,0,0,1-.126-.765,1.06,1.06,0,0,1,.45-.657q.18-.126.846-.612a.311.311,0,0,0,.144-.252v-3.834q0-.144-.162-.144Zm.072-7.956a.978.978,0,0,1,.738-.269,1,1,0,0,1,.72.323q1.206,1.278,1.746,1.872a.946.946,0,0,1,.261.738,1.042,1.042,0,0,1-.333.72l-.324.288a.953.953,0,0,1-.72.27.988.988,0,0,1-.7-.324q-.576-.612-1.782-1.872a.983.983,0,0,1-.279-.72.958.958,0,0,1,.315-.7Zm5.652,3.564a.431.431,0,0,0,.054.261.31.31,0,0,0,.234.063h.738c.168,0,.272-.024.315-.072a.915.915,0,0,0,.08-.432c0-.108-.047-.162-.143-.162h-1.134a.127.127,0,0,0-.144.144ZM224.753,218q-.469.27-1.26.648a.057.057,0,0,0-.018.045c0,.018.011.027.036.027q1.331.054,3.366.054h2.052q.036,0,.036-.027a.061.061,0,0,0-.018-.045q-.774-.4-1.8-.81a.947.947,0,0,1-.5-.5.916.916,0,0,1-.037-.711c.025-.084,0-.126-.089-.126h-1.3q-.162,0-.09.126a1.014,1.014,0,0,1,.054.729A.96.96,0,0,1,224.753,218Zm.036-4.05v.306q0,.144.162.144h1.692a.127.127,0,0,0,.144-.144v-.306q0-.162-.144-.162h-1.692A.143.143,0,0,0,224.789,213.953Zm3.114-4.806v.2a.431.431,0,0,0,.054.261q.054.063.252.063h.72q.252,0,.315-.072a.924.924,0,0,0,.081-.432c0-.108-.049-.162-.144-.162h-1.134A.127.127,0,0,0,227.9,209.147Z"/><path class="cls-3" d="M235.512,220.7a.925.925,0,0,1-.523-.558,1.021,1.021,0,0,1,.018-.774,34.727,34.727,0,0,0,1.818-5.436,1.07,1.07,0,0,1,.468-.648.985.985,0,0,1,.774-.144l.613.126a1.009,1.009,0,0,1,.647.441.964.964,0,0,1,.145.765c-.013.06-.034.147-.064.261s-.051.2-.062.261a.386.386,0,0,0,.035.288,5.664,5.664,0,0,0,2.43,2.3q.126.054.126-.09v-5.472a.127.127,0,0,0-.144-.144h-3.456a1.035,1.035,0,0,1-1.026-.936c0-.1-.047-.132-.144-.108a1.058,1.058,0,0,1-.252.036H236.3a.953.953,0,0,1-.711-.306,1,1,0,0,1-.3-.72V207.2A1.016,1.016,0,0,1,236.3,206.2h5.165c.1,0,.144-.053.144-.161v-.451a.954.954,0,0,1,.306-.71,1,1,0,0,1,.721-.3h.9a1,1,0,0,1,.72.3.954.954,0,0,1,.306.71v.451c0,.108.048.161.144.161h5.166a1.014,1.014,0,0,1,1.008,1.008v2.646a1,1,0,0,1-.3.72.956.956,0,0,1-.711.306h-.612a1.058,1.058,0,0,1-.252-.036q-.144-.036-.144.108a1.035,1.035,0,0,1-1.026.936h-2.808c-.1,0-.143.054-.143.162v1.53a.127.127,0,0,0,.143.144H248.8a.955.955,0,0,1,.711.306,1,1,0,0,1,.3.72v.216a1,1,0,0,1-.3.72.955.955,0,0,1-.711.306h-3.762a.127.127,0,0,0-.143.144v2.106a.169.169,0,0,0,.143.18,44.467,44.467,0,0,0,5.022.216h.27a.928.928,0,0,1,.7.306.952.952,0,0,1,.27.72l-.036.378a1.112,1.112,0,0,1-.342.729,1.021,1.021,0,0,1-.738.3h-.162a30.125,30.125,0,0,1-7.317-.675,8.129,8.129,0,0,1-4.095-2.439q-.018-.036-.081-.036a.076.076,0,0,0-.081.054q-.432,1.242-.971,2.43a1.019,1.019,0,0,1-.585.549,1.06,1.06,0,0,1-.8-.009Zm2.825-11.088h9.5a1.058,1.058,0,0,1,.252.036q.144.036.144-.108v-.936c0-.1-.053-.144-.162-.144H238.1q-.162,0-.162.144v.936q0,.144.144.108A1.071,1.071,0,0,1,238.337,209.615Z"/><path class="cls-3" d="M57.3,240.313a1,1,0,0,1-.721-.3.956.956,0,0,1-.306-.711v-.576A1.045,1.045,0,0,1,57.3,237.7h5.759c.108,0,.163-.048.163-.144v-2.2c0-.1-.055-.144-.163-.144q-1.132.072-3.8.108a1.041,1.041,0,0,1-.739-.288.947.947,0,0,1-.305-.72v-.576a.976.976,0,0,1,.305-.729,1.024,1.024,0,0,1,.739-.3,47.222,47.222,0,0,0,5.435-.288,23.215,23.215,0,0,0,4.014-.846.971.971,0,0,1,.765.063,1.025,1.025,0,0,1,.513.585l.2.594a.982.982,0,0,1-.045.792.956.956,0,0,1-.584.5,19.425,19.425,0,0,1-3.205.774.17.17,0,0,0-.144.18v2.484a.127.127,0,0,0,.144.144H70.91a1.045,1.045,0,0,1,1.026,1.026v.576a.956.956,0,0,1-.306.711,1,1,0,0,1-.72.3H66.23c-.1,0-.156.06-.179.18a7.1,7.1,0,0,1-1.648,3.942,7.35,7.35,0,0,1-3.806,1.98,1.037,1.037,0,0,1-.811-.117,1.162,1.162,0,0,1-.521-.657l-.2-.594a.851.851,0,0,1,.081-.729.971.971,0,0,1,.6-.459,5.01,5.01,0,0,0,2.3-1.179,4.061,4.061,0,0,0,1.007-2.223.087.087,0,0,0-.036-.1.169.169,0,0,0-.108-.045Z"/><path class="cls-3" d="M89.826,233.563a1.044,1.044,0,0,1,1.026,1.026v.576a.959.959,0,0,1-.305.711,1,1,0,0,1-.721.3H87.162c-.107,0-.162.048-.162.144a11.675,11.675,0,0,1-1.61,6.579,8.134,8.134,0,0,1-5,3.177,1.029,1.029,0,0,1-.8-.108,1.144,1.144,0,0,1-.514-.648l-.2-.594a.88.88,0,0,1,.071-.738.947.947,0,0,1,.6-.45,5.456,5.456,0,0,0,3.42-2.268,9.61,9.61,0,0,0,1.044-4.95.128.128,0,0,0-.145-.144H80.017a.209.209,0,0,0-.216.144,14.212,14.212,0,0,1-1.782,3.1,1.064,1.064,0,0,1-.711.405,1.128,1.128,0,0,1-.8-.171l-.576-.36a.88.88,0,0,1-.414-.621.97.97,0,0,1,.162-.747,14.274,14.274,0,0,0,2.357-5.778,1.21,1.21,0,0,1,.414-.7,1.074,1.074,0,0,1,.756-.252l.792.054a1.012,1.012,0,0,1,.693.351.807.807,0,0,1,.207.711c-.036.288-.1.66-.2,1.116-.023.1.012.144.109.144Z"/><path class="cls-3" d="M96.033,239.665q-.432-1.8-.72-2.844a.957.957,0,0,1,.1-.756.907.907,0,0,1,.621-.45l.361-.09a1.094,1.094,0,0,1,1.277.756q.486,1.764.774,2.844a.913.913,0,0,1-.117.756.968.968,0,0,1-.639.45l-.432.108a1.006,1.006,0,0,1-.774-.135A.968.968,0,0,1,96.033,239.665Zm11.106-3.564q-.18,4.878-2.124,7.164t-6.246,2.9a1.016,1.016,0,0,1-.792-.189,1.108,1.108,0,0,1-.45-.693l-.072-.342a.952.952,0,0,1,.153-.729.93.93,0,0,1,.639-.405q3.4-.54,4.8-2.241t1.558-5.589a1,1,0,0,1,.314-.7.924.924,0,0,1,.711-.27l.5.036a1.138,1.138,0,0,1,.721.342A.927.927,0,0,1,107.139,236.1Zm-5.958,3.978a1.028,1.028,0,0,1-.774-.126,1,1,0,0,1-.468-.612q-.018-.108-.774-2.934a1,1,0,0,1,.108-.783.925.925,0,0,1,.612-.459l.414-.09a1.083,1.083,0,0,1,.792.126.988.988,0,0,1,.486.63q.5,1.854.775,2.934a.944.944,0,0,1-.118.765.961.961,0,0,1-.639.459Z"/><path class="cls-3" d="M113.848,246.505a1.045,1.045,0,0,1-1.027-1.026v-12.96a1.045,1.045,0,0,1,1.027-1.026h1.025a.955.955,0,0,1,.711.306,1,1,0,0,1,.3.72v3.78a.186.186,0,0,0,.162.2q4.23,1.044,8.55,2.556a1.03,1.03,0,0,1,.648,1.314l-.288.81a1,1,0,0,1-.5.576.972.972,0,0,1-.756.054q-3.69-1.314-7.668-2.34-.144-.036-.144.126v5.886a1,1,0,0,1-.3.72.955.955,0,0,1-.711.306Z"/><path class="cls-3" d="M133.079,245.875a3.581,3.581,0,0,1-2.817-1.728,6.852,6.852,0,0,1-1.286-4.212,7.511,7.511,0,0,1,2.393-5.769,8.889,8.889,0,0,1,6.3-2.223,7.169,7.169,0,0,1,5.2,1.989A6.753,6.753,0,0,1,144.923,239a7.923,7.923,0,0,1-1.332,4.734,5.934,5.934,0,0,1-3.636,2.376,1,1,0,0,1-.8-.162,1.063,1.063,0,0,1-.459-.684l-.144-.612a.927.927,0,0,1,.144-.747,1.161,1.161,0,0,1,.63-.477q2.844-.918,2.844-4.428a4.374,4.374,0,0,0-.918-2.8,4.257,4.257,0,0,0-2.43-1.521q-.126-.018-.162.144a49.45,49.45,0,0,1-1.053,5.535,13.128,13.128,0,0,1-1.305,3.4,4.879,4.879,0,0,1-1.476,1.647A3.249,3.249,0,0,1,133.079,245.875Zm2.556-11.07a5.124,5.124,0,0,0-2.87,1.845,5.258,5.258,0,0,0-1.036,3.285,4.935,4.935,0,0,0,.477,2.187q.477.981.873.981a.643.643,0,0,0,.432-.243,3.374,3.374,0,0,0,.522-.846,11.936,11.936,0,0,0,.576-1.512q.288-.909.594-2.349t.558-3.24a.076.076,0,0,0-.027-.09A.1.1,0,0,0,135.635,234.805Z"/><path class="cls-3" d="M148.266,240.529,148,239.053a2.543,2.543,0,0,1,.4-1.836,17.779,17.779,0,0,0,2.177-5.526,1.115,1.115,0,0,1,1.224-.864l.684.09a.922.922,0,0,1,.658.4.974.974,0,0,1,.171.756,19.747,19.747,0,0,1-1.044,3.564.836.836,0,0,0-.073.306V246.2a1,1,0,0,1-.3.72.959.959,0,0,1-.711.306h-.613a1.047,1.047,0,0,1-1.026-1.026v-6.012a.043.043,0,0,0-.035-.045.044.044,0,0,0-.055.027q-.126.2-.378.558a.432.432,0,0,1-.468.171A.417.417,0,0,1,148.266,240.529Zm6.425-5.166a1.047,1.047,0,0,1,1.027,1.026v7.848a.142.142,0,0,0,.161.162h8.389a1.045,1.045,0,0,1,1.025,1.026v.162a.956.956,0,0,1-.306.711,1,1,0,0,1-.719.3h-8.46a.079.079,0,0,0-.09.09.554.554,0,0,1-.54.54h-.991a1.047,1.047,0,0,1-1.026-1.026v-9.81a1.047,1.047,0,0,1,1.026-1.026Zm10.6-2.52v.162a.956.956,0,0,1-.306.711,1,1,0,0,1-.719.3H161.55a.177.177,0,0,0-.181.162q-.018.09-.054.261c-.024.114-.042.2-.053.261q-.038.162.126.162h2.159a1.044,1.044,0,0,1,1.026,1.026v6.876a1.044,1.044,0,0,1-1.026,1.026H157.68a1.045,1.045,0,0,1-1.027-1.026v-6.876a1.045,1.045,0,0,1,1.027-1.026h.7a.176.176,0,0,0,.179-.162q.018-.09.045-.261c.018-.114.034-.2.045-.261.024-.108-.017-.162-.126-.162H154.26a1.016,1.016,0,0,1-1.009-1.008v-.162a1,1,0,0,1,.3-.72.953.953,0,0,1,.711-.306h4.626a.17.17,0,0,0,.179-.144.552.552,0,0,1,.009-.072.552.552,0,0,0,.009-.072,1.067,1.067,0,0,1,.388-.711,1.079,1.079,0,0,1,.764-.261l.63.018a.9.9,0,0,1,.675.324.859.859,0,0,1,.207.7v.072q-.035.144.126.144h2.4a1.045,1.045,0,0,1,1.025,1.026Zm-3.491,3.978h-2.467a.127.127,0,0,0-.144.144v.4a.127.127,0,0,0,.144.144H161.8c.107,0,.161-.048.161-.144v-.4C161.963,236.869,161.909,236.821,161.8,236.821Zm.161,2.79v-.432c0-.1-.054-.144-.161-.144h-2.467a.127.127,0,0,0-.144.144v.432a.127.127,0,0,0,.144.144H161.8C161.909,239.755,161.963,239.707,161.963,239.611Zm0,2.232v-.414c0-.1-.054-.144-.161-.144h-2.467a.127.127,0,0,0-.144.144v.414q0,.162.144.162H161.8A.143.143,0,0,0,161.963,241.843Z"/><path class="cls-3" d="M168.539,244.741a.74.74,0,0,1-.792-.666l-.036-.648a.914.914,0,0,1,.216-.648.846.846,0,0,1,.593-.324q.126,0,.126-.144V233.2a1.155,1.155,0,0,1,.289-.783,1.18,1.18,0,0,1,.719-.405q1.926-.324,4.231-.954a1.019,1.019,0,0,1,.783.1,1.035,1.035,0,0,1,.5.6l.126.378a1,1,0,0,1-.7,1.26,29.467,29.467,0,0,1-2.988.7.176.176,0,0,0-.163.18v.54a.144.144,0,0,0,.163.162h2.5a1,1,0,0,1,.719.3.957.957,0,0,1,.307.711v.234c0,.024.006.03.017.018a.512.512,0,0,1,.09-.108,3.49,3.49,0,0,0,.73-1.494,11.37,11.37,0,0,0,.207-2.466.952.952,0,0,1,.306-.711,1,1,0,0,1,.719-.3h4.069a1.047,1.047,0,0,1,1.026,1.026v2.988a.4.4,0,0,0,.045.243q.043.045.261.045.287,0,.369-.162a4.143,4.143,0,0,0,.152-.99.865.865,0,0,1,.343-.657.856.856,0,0,1,.72-.189,1.06,1.06,0,0,1,.674.4,1.132,1.132,0,0,1,.244.765c-.025.4-.048.72-.073.972a3.719,3.719,0,0,1-.143.729c-.072.234-.133.414-.181.54a.773.773,0,0,1-.314.351,2.212,2.212,0,0,1-.406.225,2.7,2.7,0,0,1-.612.108q-.45.045-.773.045H181.57a2.983,2.983,0,0,1-1.422-.216c-.215-.144-.324-.462-.324-.954v-2.88q0-.144-.162-.144h-.953a.128.128,0,0,0-.145.144,5.665,5.665,0,0,1-1.853,4.554.036.036,0,0,0-.019.054.059.059,0,0,0,.055.036h6.281a1,1,0,0,1,.721.3.96.96,0,0,1,.306.711v.234a3.537,3.537,0,0,1-.5,1.908,10.586,10.586,0,0,1-1.62,2.034c-.073.072-.067.126.017.162a18.892,18.892,0,0,0,2.214.936.961.961,0,0,1,.567.5.945.945,0,0,1,.028.756l-.162.45a1.021,1.021,0,0,1-.532.6,1.058,1.058,0,0,1-.8.063,16.747,16.747,0,0,1-3.546-1.638.2.2,0,0,0-.271,0,20,20,0,0,1-3.725,1.62,1.146,1.146,0,0,1-.811-.045,1.163,1.163,0,0,1-.594-.567l-.215-.468a.853.853,0,0,1,0-.729.809.809,0,0,1,.54-.477,18.115,18.115,0,0,0,2.591-.99c.1-.048.109-.108.037-.18a10.86,10.86,0,0,1-1.027-1.062.881.881,0,0,1-.207-.729.961.961,0,0,1,.424-.657l.558-.4c.011-.024,0-.048-.037-.072h-.45a1.045,1.045,0,0,1-1.025-1.026V238.8a.616.616,0,0,1,.594-.594.031.031,0,0,0,.027-.018.029.029,0,0,0-.01-.036l-.827-.684a.835.835,0,0,1-.307-.792v-.036c0-.012,0-.012-.017,0a.985.985,0,0,1-.864.45h-2.5a.144.144,0,0,0-.163.162V238.3c0,.1.054.144.163.144h2.5a1.047,1.047,0,0,1,1.026,1.026v.072a1.047,1.047,0,0,1-1.026,1.026h-2.5c-.109,0-.163.048-.163.144V241.9a.16.16,0,0,0,.054.108.1.1,0,0,0,.109.036q.394-.072,2.681-.468a.874.874,0,0,1,.721.18.84.84,0,0,1,.342.648l.017.234a1.111,1.111,0,0,1-.224.783,1.05,1.05,0,0,1-.694.423q-1.331.27-2.843.5a.176.176,0,0,0-.163.18V246.2a1.044,1.044,0,0,1-1.025,1.026h-.738a1.047,1.047,0,0,1-1.027-1.026v-1.35A.1.1,0,0,0,168.539,244.741Zm9.522-4.266a.075.075,0,0,0-.063.045c-.019.03-.021.051-.01.063a11.816,11.816,0,0,0,1.494,1.4.193.193,0,0,0,.235-.018,8.925,8.925,0,0,0,1.277-1.368c.061-.084.042-.126-.054-.126Z"/><path class="cls-3" d="M189.258,234.985a.956.956,0,0,1-.711-.306,1,1,0,0,1-.3-.72v-.27a1,1,0,0,1,.3-.72.956.956,0,0,1,.711-.306h2.61a.209.209,0,0,0,.216-.144q.036-.09.135-.36t.153-.414a1.178,1.178,0,0,1,.513-.657,1.133,1.133,0,0,1,.8-.153l.864.162a.831.831,0,0,1,.594.405.822.822,0,0,1,.072.711q-.018.054-.063.162t-.063.162q-.036.126.108.126h6.12a1.045,1.045,0,0,1,1.026,1.026v.27a1.045,1.045,0,0,1-1.026,1.026h-7.091a.212.212,0,0,0-.217.126c-.287.612-.438.93-.449.954v.036h.035a4.534,4.534,0,0,1,1.512-.288,3.469,3.469,0,0,1,3.42,1.962.165.165,0,0,0,.216.108q1.1-.234,2.484-.4a1,1,0,0,1,1.116.9l.036.342a1.027,1.027,0,0,1-.225.747.991.991,0,0,1-.675.387q-.972.144-2.16.36a.147.147,0,0,0-.126.2c.073.708.108,1.122.108,1.242a.928.928,0,0,1-.288.72.985.985,0,0,1-.72.306h-.864a1,1,0,0,1-.72-.3,1.022,1.022,0,0,1-.324-.711,4.8,4.8,0,0,0-.018-.486.1.1,0,0,0-.054-.09.119.119,0,0,0-.108-.018q-2.268.882-2.268,1.728a1.025,1.025,0,0,0,.72.963,8.092,8.092,0,0,0,2.79.315,28.98,28.98,0,0,0,3.529-.306.963.963,0,0,1,.746.207.928.928,0,0,1,.369.675l.036.432a1.057,1.057,0,0,1-.225.756.98.98,0,0,1-.675.4,32.963,32.963,0,0,1-3.78.216,10.735,10.735,0,0,1-4.914-.828,2.717,2.717,0,0,1-1.494-2.538,3.4,3.4,0,0,1,1.152-2.448,9.283,9.283,0,0,1,3.456-1.944q.144-.072.054-.18a1.607,1.607,0,0,0-1.314-.522,2.71,2.71,0,0,0-1.584.567,10.492,10.492,0,0,0-1.944,2.061,1.138,1.138,0,0,1-.693.45,1.1,1.1,0,0,1-.8-.126l-.522-.288a.871.871,0,0,1-.45-.594.9.9,0,0,1,.144-.738,32.98,32.98,0,0,0,2.466-4.23q.072-.126-.09-.126Z"/><path class="cls-3" d="M207.226,236.1a.955.955,0,0,1-.711-.306,1,1,0,0,1-.3-.72v-.2a1,1,0,0,1,.3-.72.955.955,0,0,1,.711-.306h5.04a1.047,1.047,0,0,1,1.026,1.026v.2a1.047,1.047,0,0,1-1.026,1.026Zm4.572-4.842a1.026,1.026,0,1,1,0,2.052h-4.1a1.026,1.026,0,0,1,0-2.052Zm1.1,11.484V245.7a1.012,1.012,0,0,1-1.007,1.008h-2.664a.079.079,0,0,0-.09.09.524.524,0,0,1-.523.522h-.918a1.045,1.045,0,0,1-1.025-1.026v-3.546a.952.952,0,0,1,.306-.711,1,1,0,0,1,.719-.3h4.195a1.012,1.012,0,0,1,1.007,1.008Zm-5.057-4.1a.99.99,0,1,1,0-1.98h3.977a.967.967,0,0,1,.694.288.978.978,0,0,1,0,1.4.967.967,0,0,1-.694.288Zm0,2.538a.938.938,0,0,1-.7-.3.978.978,0,0,1,0-1.386.938.938,0,0,1,.7-.3h3.977a.99.99,0,0,1,0,1.98Zm2.88,3.456v-.828a.143.143,0,0,0-.162-.162H209.3a.143.143,0,0,0-.162.162v.828a.143.143,0,0,0,.162.162h1.26A.143.143,0,0,0,210.718,244.633Zm4.878-.9c.084-.036.09-.09.017-.162a13.012,13.012,0,0,1-1.223-1.242.881.881,0,0,1-.207-.729.958.958,0,0,1,.422-.657l.559-.4q.018-.036-.036-.072h-.612a.955.955,0,0,1-.711-.306,1,1,0,0,1-.3-.72v-.216a1,1,0,0,1,.3-.72.955.955,0,0,1,.711-.306h6.66a1.045,1.045,0,0,1,1.025,1.026v1.224c0,.012-.006.018-.017.018h-.018a10.931,10.931,0,0,1-1.98,2.97q-.109.108.036.18a14.983,14.983,0,0,0,2.07.864,1,1,0,0,1,.575.5.921.921,0,0,1,.036.756l-.162.45a1.058,1.058,0,0,1-1.313.666,17.1,17.1,0,0,1-3.367-1.512.186.186,0,0,0-.251.018,17.616,17.616,0,0,1-3.042,1.44,1.088,1.088,0,0,1-.8-.018,1.118,1.118,0,0,1-.6-.558l-.233-.468a.834.834,0,0,1,0-.72.929.929,0,0,1,.54-.5A14.526,14.526,0,0,0,215.6,243.733Zm6.731-10.26a1.067,1.067,0,0,1,.676.4,1.12,1.12,0,0,1,.242.765c-.023.4-.048.72-.071.972a3.649,3.649,0,0,1-.145.729c-.071.234-.132.414-.179.54a.779.779,0,0,1-.316.351,2.24,2.24,0,0,1-.4.225,2.737,2.737,0,0,1-.612.108q-.45.045-.775.045h-1.025a2.977,2.977,0,0,1-1.422-.216q-.324-.216-.324-.954v-2.862a.143.143,0,0,0-.162-.162h-.991a.144.144,0,0,0-.162.162,5.9,5.9,0,0,1-1.4,4.1.988.988,0,0,1-.747.324,1.249,1.249,0,0,1-.8-.288l-.324-.252a.753.753,0,0,1-.307-.63,1.031,1.031,0,0,1,.271-.7,3.5,3.5,0,0,0,.728-1.494,11.306,11.306,0,0,0,.207-2.466.957.957,0,0,1,.307-.711,1,1,0,0,1,.72-.3h4.1a1.044,1.044,0,0,1,1.026,1.026v2.988a.4.4,0,0,0,.045.243.449.449,0,0,0,.261.045q.29,0,.369-.162a3.991,3.991,0,0,0,.154-.99.915.915,0,0,1,1.061-.846Zm-6.119,7c-.084,0-.1.036-.055.108a11.56,11.56,0,0,0,1.6,1.512.152.152,0,0,0,.216,0,8.532,8.532,0,0,0,1.3-1.512c.047-.072.024-.108-.073-.108Z"/><path class="cls-3" d="M226.661,246.7a.921.921,0,0,1-.522-.558,1.021,1.021,0,0,1,.017-.774,34.731,34.731,0,0,0,1.819-5.436,1.069,1.069,0,0,1,.467-.648.987.987,0,0,1,.775-.144l.612.126a1.014,1.014,0,0,1,.648.441.959.959,0,0,1,.144.765c-.013.06-.033.147-.063.261s-.051.2-.063.261a.391.391,0,0,0,.035.288,5.666,5.666,0,0,0,2.431,2.3q.126.054.126-.09v-5.472a.128.128,0,0,0-.145-.144h-3.456a1.035,1.035,0,0,1-1.025-.936c0-.1-.048-.132-.145-.108a1.044,1.044,0,0,1-.252.036h-.611a.955.955,0,0,1-.711-.306,1,1,0,0,1-.3-.72V233.2a1.016,1.016,0,0,1,1.009-1.008h5.165c.1,0,.145-.054.145-.162v-.45a.955.955,0,0,1,.305-.711,1,1,0,0,1,.721-.3h.9a1,1,0,0,1,.72.3.957.957,0,0,1,.307.711v.45c0,.108.048.162.143.162h5.166a1.014,1.014,0,0,1,1.008,1.008v2.646a1,1,0,0,1-.3.72.955.955,0,0,1-.711.306h-.612a1.071,1.071,0,0,1-.252-.036c-.1-.024-.143.012-.143.108a1.035,1.035,0,0,1-1.027.936h-2.807q-.144,0-.144.162v1.53a.127.127,0,0,0,.144.144h3.761a.953.953,0,0,1,.711.306,1,1,0,0,1,.3.72v.216a1,1,0,0,1-.3.72.953.953,0,0,1-.711.306h-3.761a.127.127,0,0,0-.144.144v2.106a.17.17,0,0,0,.144.18,44.447,44.447,0,0,0,5.021.216h.271a.931.931,0,0,1,.7.306.955.955,0,0,1,.269.72l-.036.378a1.107,1.107,0,0,1-.342.729,1.021,1.021,0,0,1-.738.3h-.161a30.12,30.12,0,0,1-7.317-.675,8.125,8.125,0,0,1-4.095-2.439.083.083,0,0,0-.081-.036.076.076,0,0,0-.081.054q-.432,1.242-.972,2.43a1.013,1.013,0,0,1-.585.549,1.06,1.06,0,0,1-.8-.009Zm2.825-11.088h9.5a1.058,1.058,0,0,1,.252.036c.1.024.145-.012.145-.108v-.936q0-.144-.162-.144h-9.972c-.109,0-.162.048-.162.144v.936c0,.1.048.132.143.108A1.071,1.071,0,0,1,229.486,235.615Z"/><path class="cls-1" d="M114.867,89.04h70.266a2.6,2.6,0,0,1,2.6,2.6v70.266a2.6,2.6,0,0,1-2.6,2.6H114.867a2.6,2.6,0,0,1-2.6-2.6V91.643A2.6,2.6,0,0,1,114.867,89.04Z"/><path class="cls-4" d="M185.133,90.341a1.3,1.3,0,0,1,1.3,1.3v70.266a1.3,1.3,0,0,1-1.3,1.3H114.867a1.3,1.3,0,0,1-1.3-1.3V91.642a1.3,1.3,0,0,1,1.3-1.3h70.266m0-2.6H114.867a3.9,3.9,0,0,0-3.9,3.9v70.266a3.9,3.9,0,0,0,3.9,3.9h70.266a3.9,3.9,0,0,0,3.9-3.9V91.642a3.9,3.9,0,0,0-3.9-3.9Z"/><path class="cls-5" d="M165.8,177.927l-.368-.324c-3.335-2.932-6.622-6.19-8.422-8.088a4.587,4.587,0,0,1-1.724-3.247,2.962,2.962,0,0,1,1.084-2.192,3.257,3.257,0,0,1,.962-.582,6.073,6.073,0,0,1,2.316-.441,6.6,6.6,0,0,1,3.835,1.229c1.067.756,1.927,1.418,2.589,1.953l-2.9-7-5.7-13.707a4.168,4.168,0,0,1,2.313-5.412,4.278,4.278,0,0,1,1.652-.331,4.1,4.1,0,0,1,3.818,2.5l4.041,9.71a4.238,4.238,0,0,1,1.793-1.4,4.282,4.282,0,0,1,1.652-.331,4.1,4.1,0,0,1,3.819,2.5l.034.083a4.235,4.235,0,0,1,1.791-1.4,4.293,4.293,0,0,1,1.652-.331,4.1,4.1,0,0,1,3.818,2.5l.035.083a4.235,4.235,0,0,1,1.793-1.4,4.287,4.287,0,0,1,1.65-.331,4.1,4.1,0,0,1,3.817,2.5l5.169,12.429c.07.181.126.336.178.483a10.878,10.878,0,0,1,.557,3.12,11.4,11.4,0,0,1-.1,1.912,12.611,12.611,0,0,1-1.093,3.619,13.621,13.621,0,0,1-.683,1.238l-.379.632Z"/><path class="cls-1" d="M161.432,141.089a2.81,2.81,0,0,1,2.617,1.7l5.195,12.484.3-.747.415-1.068a2.926,2.926,0,0,1,1.622-1.655,2.986,2.986,0,0,1,1.153-.232,2.811,2.811,0,0,1,2.617,1.7l1.188,2.857.3-.747.414-1.066a2.928,2.928,0,0,1,1.62-1.655,3,3,0,0,1,1.153-.232,2.811,2.811,0,0,1,2.617,1.7l1.188,2.857.3-.747.415-1.067a2.932,2.932,0,0,1,1.623-1.656,2.985,2.985,0,0,1,1.15-.231,2.809,2.809,0,0,1,2.616,1.7l5.169,12.429c.053.137.1.278.151.414a9.549,9.549,0,0,1,.484,2.727,9.973,9.973,0,0,1-.092,1.695,11.316,11.316,0,0,1-.981,3.243,12.646,12.646,0,0,1-.622,1.124H166.292c-3.41-3-6.655-6.233-8.337-8.007a3.743,3.743,0,0,1-1.367-2.333,1.632,1.632,0,0,1,.658-1.246,1.972,1.972,0,0,1,.589-.345,4.78,4.78,0,0,1,1.814-.341,5.3,5.3,0,0,1,3.083.99,36.985,36.985,0,0,1,4.11,3.276l2.753,2.708-5.223-12.588-5.7-13.709a2.866,2.866,0,0,1,1.612-3.711,3,3,0,0,1,1.152-.231m0-2.6h0a5.551,5.551,0,0,0-2.151.43,5.472,5.472,0,0,0-3.016,7.114l5.705,13.708,1.173,2.828a7.871,7.871,0,0,0-3.494-.815,7.373,7.373,0,0,0-2.814.54,4.561,4.561,0,0,0-1.358.839,4.292,4.292,0,0,0-1.491,3.13,5.878,5.878,0,0,0,2.119,4.19c1.827,1.923,5.124,5.188,8.469,8.129l.737.648h30.215l.758-1.262a14.8,14.8,0,0,0,.747-1.359,13.88,13.88,0,0,0,1.2-3.985,12.582,12.582,0,0,0,.116-2.141,11.927,11.927,0,0,0-.257-2.142,12.2,12.2,0,0,0-.361-1.332c-.064-.185-.126-.355-.189-.519l-.013-.033-.013-.032L192.347,154a5.4,5.4,0,0,0-5.019-3.306,5.569,5.569,0,0,0-2.15.431,5.682,5.682,0,0,0-1.031.559,5.448,5.448,0,0,0-4.115-1.848,5.579,5.579,0,0,0-2.152.431,5.694,5.694,0,0,0-1.029.558,5.444,5.444,0,0,0-4.114-1.848,5.584,5.584,0,0,0-2.153.431,5.675,5.675,0,0,0-.8.407l-3.336-8.018a5.4,5.4,0,0,0-5.02-3.305Z"/><rect class="cls-1" x="46.553" y="98.148" width="57.254" height="57.254" rx="3.253"/><path class="cls-6" d="M100.553,98.8a2.606,2.606,0,0,1,2.6,2.6v50.747a2.606,2.606,0,0,1-2.6,2.6H49.806a2.606,2.606,0,0,1-2.6-2.6V101.4a2.606,2.606,0,0,1,2.6-2.6h50.747m0-1.3H49.806a3.9,3.9,0,0,0-3.9,3.9v50.747a3.9,3.9,0,0,0,3.9,3.9h50.747a3.9,3.9,0,0,0,3.9-3.9V101.4a3.9,3.9,0,0,0-3.9-3.9Z"/><rect class="cls-1" x="196.193" y="98.148" width="57.254" height="57.254" rx="3.253"/><path class="cls-6" d="M250.194,98.8a2.606,2.606,0,0,1,2.6,2.6v50.747a2.606,2.606,0,0,1-2.6,2.6H199.447a2.606,2.606,0,0,1-2.6-2.6V101.4a2.606,2.606,0,0,1,2.6-2.6h50.747m0-1.3H199.447a3.9,3.9,0,0,0-3.9,3.9v50.747a3.9,3.9,0,0,0,3.9,3.9h50.747a3.9,3.9,0,0,0,3.9-3.9V101.4a3.9,3.9,0,0,0-3.9-3.9Z"/><path class="cls-7" d="M236.667,123.986s-1.811,5.121-12.569,6.335c-1.854.21-10.894-2.53-12.433-3.7-7.507-5.7-7.122-11.9-7.122-11.9.761-2.639,8.57-2.7,17.44-.146S237.428,121.347,236.667,123.986Z"/><path class="cls-8" d="M236.667,123.986c-.762,2.639-8.569,2.7-17.44.147s-15.446-6.772-14.684-9.411,8.57-2.7,17.44-.146S237.428,121.347,236.667,123.986Z"/><path class="cls-9" d="M235.269,123.383c-.643,2.23-7.705,2.152-15.775-.175s-14.09-6.022-13.447-8.253,7.707-2.151,15.776.176S235.912,121.153,235.269,123.383Z"/><path class="cls-10" d="M206.385,116.321s1-3.35,2.994-3.777a2.65,2.65,0,0,1,2.863.959,4.551,4.551,0,0,1,3.862-.89c2.1.605,1.971,1.5,1.971,1.5a4.777,4.777,0,0,1,3.985-.387c2.466.711,2.225,2.244,2.225,2.244a4.845,4.845,0,0,1,3.341-.238c1.991.507,2.5,2.923,2.5,2.923s1.263-1.372,3.428-.079a3.985,3.985,0,0,1,1.64,4.846s-.851,4-15.9-.342C206.409,119.367,206.385,116.321,206.385,116.321Z"/><path class="cls-7" d="M245.15,132.519s-.889,5.358-11.27,8.433c-1.788.53-11.169-.588-12.887-1.47-8.388-4.3-9.092-10.474-9.092-10.474.289-2.731,7.966-4.159,17.146-3.19S245.437,129.787,245.15,132.519Z"/><path class="cls-8" d="M245.15,132.519c-.29,2.731-7.966,4.16-17.147,3.19s-16.39-3.969-16.1-6.7,7.966-4.159,17.146-3.19S245.437,129.787,245.15,132.519Z"/><path class="cls-9" d="M243.668,132.169c-.245,2.308-7.211,3.465-15.564,2.583s-14.924-3.468-14.681-5.776,7.212-3.466,15.564-2.584S243.913,129.861,243.668,132.169Z"/><path class="cls-10" d="M213.994,130.261s.4-3.474,2.289-4.242a2.648,2.648,0,0,1,2.986.444,4.553,4.553,0,0,1,3.647-1.551c2.17.23,2.2,1.136,2.2,1.136a4.776,4.776,0,0,1,3.855-1.077c2.553.27,2.583,1.822,2.583,1.822a4.848,4.848,0,0,1,3.249-.819c2.048.152,2.968,2.443,2.968,2.443s1-1.572,3.362-.678a3.985,3.985,0,0,1,2.461,4.485s-.139,4.084-15.711,2.441C214.55,133.257,213.994,130.261,213.994,130.261Z"/><path class="cls-11" d="M55.169,128.428s-1.173-3.3-.477-4.555a6.307,6.307,0,0,1,2.926-1.369,2.077,2.077,0,0,1,2.237-1.179s.32-1.45,2.133-1.05c.443-.282.271-1.917,2.318-1.541a2.323,2.323,0,0,1,2.576-1.333s-.289-1.622,2.016-1.038c0,0,.6-2.187,2.342-1.307,0,0-.006-1.18,1.746-1.364s4.66-2,6.367-.077c1.339,1.512,1.811,4.887.4,6.1,0,0-1.384,1.444-2.1,1.4a1,1,0,0,1-1.316.965,1.362,1.362,0,0,1-1.55.988,5.026,5.026,0,0,1-2.353,1.192s-1.243,1.665-2.447,1.436c0,0-1.138,1.536-2.459,1.321,0,0-1.464,1.806-2.7,1.228,0,0-1.15,1.419-2.237,1.179a2.881,2.881,0,0,1-2.693,1.344C57.89,130.74,55.347,129,55.169,128.428Z"/><path class="cls-12" d="M54.941,126.654s-1.059-2.136-.356-3.123a3.115,3.115,0,0,1,2.039-1.546A3.229,3.229,0,0,1,59.03,120.6s.336-1.148,2.084-1.145c.435-.267.544-1.361,2.519-1.411a2.459,2.459,0,0,1,2.311-1.2s.195-1.361,2.415-1.3a1.692,1.692,0,0,1,2.084-1.145s.249-.88,1.952-1.279,4.067-1.116,5.915-.232,2.067,2.806.674,3.872a6.4,6.4,0,0,1-2.066,1.305s-.022.828-1.3.879a1.651,1.651,0,0,1-1.526.933,7,7,0,0,1-2.31,1.2,4.371,4.371,0,0,1-2.407,1.385,4.162,4.162,0,0,1-2.415,1.3s-1.461,1.493-2.651,1.278a3.957,3.957,0,0,1-2.2,1.171,3.807,3.807,0,0,1-2.642,1.358C57.525,127.859,55.1,127.028,54.941,126.654Z"/><path class="cls-13" d="M68.508,119.084s1.539-3.146,2.921-3.525a6.3,6.3,0,0,1,3.025,1.134,2.078,2.078,0,0,1,2.408.775,1.6,1.6,0,0,1,2.242.791c.512.119,1.56-1.147,2.723.579a2.321,2.321,0,0,1,2.753.909s.959-1.341,2.152.716c0,0,1.981-1.1,2.573.759,0,0,.84-.828,2.195.3s4.693,1.93,4.508,4.5c-.145,2.015-2.227,4.712-4.077,4.551,0,0-2,.021-2.467-.519a1,1,0,0,1-1.609-.266,1.362,1.362,0,0,1-1.79-.416,5.024,5.024,0,0,1-2.5-.851s-2.059.277-2.739-.744c0,0-1.893.261-2.663-.834,0,0-2.314.216-2.769-1.075,0,0-1.818.17-2.407-.775a2.882,2.882,0,0,1-2.845-.985C68.758,122.647,68.223,119.612,68.508,119.084Z"/><path class="cls-14" d="M69.616,117.681s.788-2.251,1.985-2.438a3.115,3.115,0,0,1,2.53.376,3.234,3.234,0,0,1,2.673.752s1.054-.563,2.275.688c.5.126,1.353-.562,2.771.815a2.461,2.461,0,0,1,2.473.814s1.109-.813,2.621.814a1.692,1.692,0,0,1,2.276.688s.8-.437,2.279.5,3.641,2.128,4.3,4.067-.561,3.44-2.3,3.189a6.411,6.411,0,0,1-2.377-.564s-.608.563-1.537-.313a1.651,1.651,0,0,1-1.733-.438,6.994,6.994,0,0,1-2.472-.815,4.377,4.377,0,0,1-2.673-.751,4.163,4.163,0,0,1-2.621-.814s-2.089,0-2.768-1a3.963,3.963,0,0,1-2.374-.752,3.806,3.806,0,0,1-2.818-.939C70.561,120.371,69.459,118.057,69.616,117.681Z"/><path class="cls-15" d="M56.314,137.876s-.569-3.456.338-4.567a6.3,6.3,0,0,1,3.122-.828,2.079,2.079,0,0,1,2.412-.764,1.6,1.6,0,0,1,2.285-.656c.486-.2.607-1.838,2.554-1.106A2.324,2.324,0,0,1,69.8,129.1s0-1.648,2.168-.664c0,0,.975-2.047,2.537-.872,0,0,.2-1.163,1.959-1.033s4.942-1.147,6.281,1.053c1.049,1.726.916,5.13-.684,6.071,0,0-1.618,1.176-2.312,1.007a1,1,0,0,1-1.465.716,1.362,1.362,0,0,1-1.7.7,5.02,5.02,0,0,1-2.528.756s-1.517,1.418-2.663.98c0,0-1.391,1.31-2.653.864,0,0-1.761,1.518-2.88.729,0,0-1.383,1.193-2.411.764a2.881,2.881,0,0,1-2.888.847C58.583,140.634,56.389,138.471,56.314,137.876Z"/><path class="cls-16" d="M56.4,136.091s-.663-2.291.2-3.138a3.115,3.115,0,0,1,2.28-1.16,3.233,3.233,0,0,1,2.614-.936s.533-1.07,2.253-.758c.476-.185.777-1.243,2.73-.943a2.46,2.46,0,0,1,2.486-.77s.433-1.3,2.609-.856a1.692,1.692,0,0,1,2.254-.758s.4-.822,2.147-.912,4.2-.378,5.864.819,1.537,3.128-.024,3.93a6.42,6.42,0,0,1-2.264.919s-.169.81-1.434.635a1.65,1.65,0,0,1-1.666.648,7.012,7.012,0,0,1-2.486.769,4.379,4.379,0,0,1-2.613.937,4.17,4.17,0,0,1-2.609.856s-1.7,1.211-2.835.788a3.966,3.966,0,0,1-2.371.764,3.806,3.806,0,0,1-2.841.868C58.733,137.734,56.5,136.487,56.4,136.091Z"/><path class="cls-17" d="M160.159,119.106c.63-.293,10.093-4.745,13.614-8.912a.405.405,0,0,1,.707.351c-.948,4.093-3.365,12.435-8.086,16.909-6.415,6.08-12.893-1.4-11.7-3.352,1.134-1.851,5-4.674,5.4-4.957A.361.361,0,0,1,160.159,119.106Z"/><path class="cls-18" d="M152.759,115.055c.524-.455,8.4-7.341,10.632-12.318a.405.405,0,0,1,.776.143c.217,4.2.191,12.882-3.115,18.483-4.492,7.611-12.78,2.2-12.168,0,.58-2.092,3.523-5.872,3.822-6.253A.393.393,0,0,1,152.759,115.055Z"/><path class="cls-19" d="M126.846,119.767c-4.773,10.769.9,20.042,12.252,18.3,9.192-1.412,16.8-10.563,16.081-19.761a10.328,10.328,0,0,0-3.653-7.734c-3.007-2.843-8.37-4.169-14.452-1.7C132.661,110.666,129.23,114.387,126.846,119.767Z"/><path class="cls-20" d="M160.194,122.468c1.477.15,3.237,1.185,5.219,2.615.474.26-.147,1.073.646,1.565-.528.019,2.578-.126,2.578-.126,1.065.507,3.9,3.207,4.155,5.827l.151,1.382h.971c1.464,1.981,1.267,7.369-.971,9.969-5.17,5.756-21.46,9.722-30.724,5.756-5.127-2.194-9.563-5.756-7.283-14.032.364,0,1.587.379,1.637.1a4.069,4.069,0,0,0,.034-2.675c.943-2.11,2.632-4.642,5.612-5.441a18.43,18.43,0,0,1,3.739.713c-.028-.908-1.192-2.47-.633-2.852,3.167-2.168,7.533-2.005,10.674-.749,0-.38-.381-.834-.381-1.594a14.682,14.682,0,0,1,4.576-.458Z"/><path class="cls-21" d="M141.94,137.144c-1.014,1.117-3.015,4.985-4.533,8.269-.054-3.382,2.375-7.241,3.737-8.81Z"/><path class="cls-21" d="M142.735,137.684l-1.591-1.081c3.665-5.392,12.253-9.26,18.723-10.59a19.432,19.432,0,0,1,5.546-.93l.646,1.565a16.557,16.557,0,0,0-5.539,1.177.968.968,0,0,1-.181.055C154.035,129.156,145.964,132.934,142.735,137.684Z"/><path class="cls-21" d="M144,148.227a33.036,33.036,0,0,1,15.86-13.216c4-1.548,9.163-2.94,12.937-2.662.011,1.382.151,1.382.151,1.382-1.095,0-4.769.749-6.884,1.067-5.084.724-8.964,3.22-13.12,6.2-1.695,1.215-2.273,2.017-3.9,3.325C147.45,145.607,145.705,146.9,144,148.227Z"/><path class="cls-21" d="M155.618,122.926c1.724,1.485,3.349,2.285,4.249,3.087h0c.987.029,1.557.838,2.4,1.221a26.216,26.216,0,0,1,3.312,3.738,22.175,22.175,0,0,1,2.124,3.544s-1.922-.027-2.205-.565c-.011-.021-.022-.046-.032-.067-.294-.59-1.444-2.115-2.35-3.377a12.566,12.566,0,0,0-2.6-2.682s-2.907-.374-1.066-.29a23.945,23.945,0,0,0-3.3-2.266c-.587-.374-1.428-1.011-1.575-1.036C154.414,124.211,155.618,122.926,155.618,122.926Z"/><path class="cls-21" d="M136.573,135.524l.034-2.675a36.177,36.177,0,0,1,4.974,3.174c.846.72.638.816.638,1.64C138.925,136.365,136.573,135.524,136.573,135.524Z"/><path class="cls-21" d="M151.777,148.747c-1.869-2.3-6.578-7.986-10.222-11.056.159-.561.448-2.194,1.869-.806C146.043,139.444,150.984,145.717,151.777,148.747Z"/><path class="cls-21" d="M151.586,130.048l-1.678.924a13.449,13.449,0,0,0-4.951-2.98c.351-.128.368-2.723.368-2.723C146.305,126.036,151.586,130.048,151.586,130.048Z"/><path class="cls-21" d="M149.908,130.972c.99-.812,3.245-1.612,2.916-.915a56.905,56.905,0,0,1,5.272,7.224s-1.26,1.633-2,.58A54.332,54.332,0,0,0,149.908,130.972Z"/><path class="cls-21" d="M158.1,137.281s3.717,5.71,3.571,10.355a48.964,48.964,0,0,0-5.512-9.305C156.216,137.676,158.1,137.281,158.1,137.281Z"/><path class="cls-21" d="M166.059,134.8c1.52,2.33,1.646,4.188,3.084,8.9.551-4,0-7.6-1.564-9.963C167.066,133.637,166.059,134.8,166.059,134.8Z"/><path class="cls-5" d="M186.177,153.523a2.933,2.933,0,0,0-1.623,1.655l-.414,1.067-.3.747-1.188-2.857a2.866,2.866,0,0,0-3.77-1.47,2.929,2.929,0,0,0-1.62,1.654l-.414,1.068-.3.746-1.189-2.857a2.864,2.864,0,0,0-3.769-1.47,2.926,2.926,0,0,0-1.622,1.655l-.415,1.068-.3.747-5.195-12.484a2.916,2.916,0,0,0-5.381,2.239l5.7,13.708,5.222,12.589-2.752-2.708a36.985,36.985,0,0,0-4.11-3.276,5.205,5.205,0,0,0-4.9-.649,2.05,2.05,0,0,0-.59.344,1.637,1.637,0,0,0-.657,1.247,3.738,3.738,0,0,0,1.367,2.333c3.428,3.614,13.333,13.295,17.927,14.672a17.646,17.646,0,0,0,2.032.523,16.279,16.279,0,0,0,15.625-6.5l.131-.189.128-.053.068-.108a12.378,12.378,0,0,0,.809-1.461,11.313,11.313,0,0,0,.981-3.244,9.962,9.962,0,0,0,.092-1.694,9.549,9.549,0,0,0-.484-2.727c-.047-.136-.1-.277-.151-.414l-5.169-12.429A2.864,2.864,0,0,0,186.177,153.523Z"/><path class="cls-4" d="M84.992,86.493a.97.97,0,0,1-.075-1.683l.056-.049a1.141,1.141,0,0,1,1.432-.2,1.957,1.957,0,0,0,2.453-.275A1.545,1.545,0,0,0,89.2,82c-.715-.814-1.723-.3-2.88.285-1.562.78-3.415,1.693-5.17-.3-1.564-1.778-1.306-3.952.64-5.663a3.945,3.945,0,0,1,5.175-.349.962.962,0,0,1,.083,1.678l-.056.048a1.131,1.131,0,0,1-1.342.178,1.936,1.936,0,0,0-2.312.263,1.453,1.453,0,0,0-.29,2.177c.735.838,1.743.307,2.892-.3,1.547-.807,3.372-1.757,5.136.25,1.612,1.834,1.315,4.117-.686,5.876A4.127,4.127,0,0,1,84.992,86.493Z"/><path class="cls-4" d="M94.2,81.54l-5.57-9.184a1.039,1.039,0,0,1,.389-1.588l4.263-2.586a1.041,1.041,0,0,1,1.589.389l.077.126a1.041,1.041,0,0,1-.39,1.589l-3.076,1.866,1.535,2.531,2.025-1.228A1.116,1.116,0,1,1,96.2,75.362L94.173,76.59l1.53,2.523,3.078-1.866a1.039,1.039,0,0,1,1.588.39l.072.118a1.04,1.04,0,0,1-.389,1.588l-4.264,2.586A1.039,1.039,0,0,1,94.2,81.54Z"/><path class="cls-4" d="M101.825,77.148l-4.032-9.956a1.039,1.039,0,0,1,.638-1.5l.223-.091a1.04,1.04,0,0,1,1.506.638l3.545,8.755,2.924-1.184a1.04,1.04,0,0,1,1.506.638l.052.128a1.042,1.042,0,0,1-.638,1.507l-4.219,1.708A1.039,1.039,0,0,1,101.825,77.148Z"/><path class="cls-4" d="M109.489,74.206l-2.39-10.47a1.04,1.04,0,0,1,.87-1.385l4.861-1.109a1.04,1.04,0,0,1,1.385.87l.033.145a1.04,1.04,0,0,1-.87,1.385l-3.509.8.659,2.886,2.309-.527a1.115,1.115,0,1,1,.5,2.173l-2.309.527.657,2.877,3.508-.8a1.039,1.039,0,0,1,1.384.869l.031.136a1.039,1.039,0,0,1-.87,1.384l-4.861,1.11A1.039,1.039,0,0,1,109.489,74.206Z"/><path class="cls-4" d="M117.423,69.053l-.2-4.019a4.24,4.24,0,0,1,4.134-4.721,4.046,4.046,0,0,1,4.45,3.554.958.958,0,0,1-1,1.227l-.25.013a.99.99,0,0,1-1.2-.853,1.688,1.688,0,0,0-1.875-1.492,1.734,1.734,0,0,0-1.711,2.059l.211,4.186c.074,1.46.942,1.944,1.912,1.894a1.715,1.715,0,0,0,1.73-1.767A.986.986,0,0,1,124.7,68.11l.241-.012c.794-.041,1.162.45,1.136,1.211a4.048,4.048,0,0,1-4.066,4.041A4.249,4.249,0,0,1,117.423,69.053Z"/><path class="cls-4" d="M129.755,72.382l1.178-9.361-1.523-.192a1.04,1.04,0,0,1-1-1.292l.019-.146a1.04,1.04,0,0,1,1.291-1l5.6.706a1.039,1.039,0,0,1,1,1.291l-.018.147c-.094.743-.484,1.1-1.108,1.026l-1.716-.217L132.3,72.7a1.039,1.039,0,0,1-1.291,1l-.248-.03A1.041,1.041,0,0,1,129.755,72.382Z"/><path class="cls-4" d="M136.221,73.125a1.48,1.48,0,1,1,1.061,1.783A1.483,1.483,0,0,1,136.221,73.125ZM138,70.058l.527-4.909a15.231,15.231,0,0,1,.269-1.976,1.455,1.455,0,0,1,2.815.725,15.772,15.772,0,0,1-.727,1.9L139,70.314c-.29.642-.485.659-.682.608S137.948,70.76,138,70.058Z"/><text class="cls-22" transform="translate(-41.261 336.067) rotate(-50.169)">S</text><text class="cls-22" transform="translate(-35.176 328.742) rotate(-40.098)">E</text><text class="cls-22" transform="matrix(0.858, -0.514, 0.514, 0.858, -28.588, 323.171)">L</text><text class="cls-22" transform="translate(-21.724 318.984) rotate(-21.697)">E</text><text class="cls-22" transform="matrix(0.979, -0.204, 0.204, 0.979, -13.875, 315.737)">C</text><text class="cls-22" transform="translate(-4.312 313.765) rotate(-1.678)">T</text><text class="cls-22" transform="matrix(0.995, 0.097, -0.097, 0.995, 4.367, 313.638)">!</text></svg>