<svg id="レイヤー_1" data-name="レイヤー 1" xmlns="http://www.w3.org/2000/svg" viewBox="0 0 300 300"><defs><style>.cls-1{fill:#fff;}.cls-2{fill:#ff5050;}.cls-3{fill:gray;}.cls-4{fill:#b1b1b1;}.cls-5{fill:#e4e4e4;}.cls-6{fill:#cacaca;}.cls-7{fill:#b2dfdf;}.cls-8{fill:#333;}.cls-9{fill:#6c726a;}.cls-10{fill:#6c736a;}.cls-11{fill:#e6ecf5;}.cls-12{fill:#2b2f37;}.cls-13{fill:#100e18;}.cls-14{fill:#ccd7ea;}.cls-15{fill:#ffc83b;stroke:#ffc83b;stroke-linecap:round;stroke-linejoin:round;stroke-width:0.942px;}.cls-16{fill:#787e76;}</style></defs><circle class="cls-1" cx="150" cy="150" r="147.5"/><path class="cls-2" d="M150,5A145,145,0,0,1,252.531,252.531,145,145,0,1,1,47.47,47.469,144.051,144.051,0,0,1,150,5m0-5A150,150,0,1,0,300,150,150,150,0,0,0,150,0Z"/><circle class="cls-2" cx="35" cy="35" r="35"/><path class="cls-1" d="M13.491,39.588V30.454c0-6.048,4.053-10.269,9.912-10.269,5.8,0,9.912,4.221,9.912,10.269v9.134c0,6.027-4.116,10.227-9.912,10.227C17.544,49.815,13.491,45.615,13.491,39.588Zm14.028-.252v-8.63c0-3.78-1.89-4.956-4.116-4.956-2.268,0-4.116,1.176-4.116,4.977v8.588c0,3.759,1.911,4.935,4.116,4.935C25.587,44.25,27.519,43.074,27.519,39.336Z"/><path class="cls-1" d="M36.665,42.36a2.3,2.3,0,0,1,2.393-3h.405A2.618,2.618,0,0,1,42.1,41.119a4.375,4.375,0,0,0,4.474,3.173c2.289,0,4.137-.966,4.137-3.4s-1.505-3.507-4.284-3.507H45.253a2.189,2.189,0,0,1-2.352-2.5,2.218,2.218,0,0,1,2.352-2.5h1.113c2.328,0,3.906-1.421,3.906-3.528,0-2.436-1.785-3.36-4.074-3.36a4.087,4.087,0,0,0-4.106,3.035,2.476,2.476,0,0,1-2.325,1.732h-.435a2.293,2.293,0,0,1-2.394-2.982c.735-4.368,4.346-7.1,9.323-7.1,5.649,0,9.744,3.024,9.744,7.854,0,3.192-1.491,5.564-4.011,6.552a6.274,6.274,0,0,1,4.515,6.257c0,5.712-4.158,8.967-10.122,8.967C41.348,49.815,37.441,47,36.665,42.36Z"/><path class="cls-3" d="M84.22,52H215.778a7.963,7.963,0,0,1,7.963,7.963V145.17a7.963,7.963,0,0,1-7.963,7.963H84.221a7.962,7.962,0,0,1-7.962-7.962V59.962A7.962,7.962,0,0,1,84.22,52Z"/><path class="cls-1" d="M85.062,58.5H214.94a2.424,2.424,0,0,1,2.424,2.424v83.292a2.424,2.424,0,0,1-2.424,2.424H85.062a2.425,2.425,0,0,1-2.425-2.425V60.922A2.425,2.425,0,0,1,85.062,58.5Z"/><path class="cls-4" d="M244.683,183.088c0,1.823-2.091,2.971-7.893,2.971H63.209c-5.8,0-7.9-1.148-7.892-2.971l-.29-3.477c5.142,0,183.372-.345,189.906-.155Z"/><path class="cls-5" d="M244.683,178.872c1.426,1.621-2.091,2.971-7.893,2.971H63.209c-5.8,0-9.318-1.35-7.892-2.971l21.136-24.031c.838-.952,4.986-1.708,9.282-1.708H214.264c4.3,0,8.444.756,9.282,1.708Z"/><path class="cls-3" d="M219.943,167.29c.309.423-.807.768-2.494.768H82.551c-1.687,0-2.8-.345-2.494-.768l7.254-9.929c.245-.336,1.651-.607,3.141-.607h119.1c1.49,0,2.9.271,3.142.607Z"/><path class="cls-6" d="M175.048,177.523c.121.51-1.28.926-3.132.926H128.085c-1.852,0-3.254-.416-3.132-.926l1.282-5.377c.108-.453,1.6-.817,3.323-.817h40.885c1.726,0,3.213.364,3.322.817Z"/><rect class="cls-7" x="95.168" y="68.685" width="109.666" height="31.04" rx="2.439" transform="translate(300.002 168.41) rotate(180)"/><path class="cls-1" d="M130.017,88.585a.635.635,0,0,1-.473-.2.663.663,0,0,1-.2-.48V80.509a.663.663,0,0,1,.2-.48.635.635,0,0,1,.473-.2h4.249a.637.637,0,0,1,.473.2.667.667,0,0,1,.2.48v.276a.667.667,0,0,1-.2.48.637.637,0,0,1-.473.2h-2.785a.084.084,0,0,0-.095.1v1.584c0,.072.031.108.095.108h2.544a.64.64,0,0,1,.475.2.666.666,0,0,1,.2.48v.18a.666.666,0,0,1-.2.48.64.64,0,0,1-.475.2h-2.544a.084.084,0,0,0-.095.1v1.944a.084.084,0,0,0,.095.1h2.785a.637.637,0,0,1,.473.2.667.667,0,0,1,.2.48V87.9a.667.667,0,0,1-.2.48.637.637,0,0,1-.473.2Z"/><path class="cls-1" d="M139.529,87.937,137.1,80.473a.455.455,0,0,1,.066-.444.474.474,0,0,1,.4-.2h.8a.859.859,0,0,1,.54.186.844.844,0,0,1,.312.474l1.572,6.132a.012.012,0,1,0,.024,0l1.62-6.132a.844.844,0,0,1,.312-.474.859.859,0,0,1,.54-.186h.756a.475.475,0,0,1,.4.2.455.455,0,0,1,.066.444L142.1,87.937a.863.863,0,0,1-.331.468.918.918,0,0,1-.557.18h-.792a.9.9,0,0,1-.546-.18A.932.932,0,0,1,139.529,87.937Z"/><path class="cls-1" d="M147.33,88.585a.636.636,0,0,1-.474-.2.667.667,0,0,1-.2-.48V80.509a.667.667,0,0,1,.2-.48.636.636,0,0,1,.474-.2h4.248a.637.637,0,0,1,.474.2.671.671,0,0,1,.2.48v.276a.671.671,0,0,1-.2.48.637.637,0,0,1-.474.2h-2.784a.084.084,0,0,0-.1.1v1.584c0,.072.031.108.1.108h2.544a.637.637,0,0,1,.474.2.667.667,0,0,1,.2.48v.18a.667.667,0,0,1-.2.48.637.637,0,0,1-.474.2h-2.544a.084.084,0,0,0-.1.1v1.944a.084.084,0,0,0,.1.1h2.784a.637.637,0,0,1,.474.2.671.671,0,0,1,.2.48V87.9a.671.671,0,0,1-.2.48.637.637,0,0,1-.474.2Z"/><path class="cls-1" d="M155.516,88.585a.7.7,0,0,1-.683-.684V80.509a.7.7,0,0,1,.683-.684h.588a1.046,1.046,0,0,1,1,.6l2.521,4.764a.011.011,0,0,0,.012.012c.007,0,.011,0,.011-.012v-4.68a.7.7,0,0,1,.685-.684h.588a.7.7,0,0,1,.683.684V87.9a.7.7,0,0,1-.683.684h-.588a1.046,1.046,0,0,1-1-.6l-2.521-4.764c0-.008,0-.012-.011-.012a.011.011,0,0,0-.012.012V87.9a.7.7,0,0,1-.685.684Z"/><path class="cls-1" d="M164.62,81.517a.7.7,0,0,1-.684-.684v-.324a.7.7,0,0,1,.684-.684h5.352a.7.7,0,0,1,.684.684v.324a.7.7,0,0,1-.684.684h-1.536a.085.085,0,0,0-.1.1V87.9a.7.7,0,0,1-.684.684h-.72a.7.7,0,0,1-.684-.684V81.613a.085.085,0,0,0-.1-.1Z"/><path class="cls-8" d="M86.985,213.737l-.126-.684a.926.926,0,0,1,.18-.747,1.1,1.1,0,0,1,.666-.423,26.11,26.11,0,0,0,6.309-2.007,22.961,22.961,0,0,0,5.355-3.393,1.049,1.049,0,0,1,.737-.252.909.909,0,0,1,.685.342l.45.5a.96.96,0,0,1,.252.747,1.039,1.039,0,0,1-.36.711,24.4,24.4,0,0,1-4.212,2.9.266.266,0,0,0-.144.234v7.74a.956.956,0,0,1-.306.711,1,1,0,0,1-.72.3h-1.1a1.016,1.016,0,0,1-1.009-1.008v-6.264a.11.11,0,0,0-.044-.09.1.1,0,0,0-.1-.018,28.191,28.191,0,0,1-5.328,1.53,1,1,0,0,1-.765-.171A.974.974,0,0,1,86.985,213.737Z"/><path class="cls-8" d="M103.1,216.365a.99.99,0,0,1-.234-1.4q2.16-3.024,2.214-3.1.774-1.116,1.116-1.6t.792-1.053a6.256,6.256,0,0,1,.639-.729,2.919,2.919,0,0,1,.531-.342,1.561,1.561,0,0,1,.585-.2q.243-.018.693-.018a3.364,3.364,0,0,1,1.323.216,3.774,3.774,0,0,1,1.035.72q.54.5,2,2.088,3.492,3.762,5.13,5.436a1.043,1.043,0,0,1,0,1.476l-.72.738a.975.975,0,0,1-.711.306,1,1,0,0,1-.711-.288q-2.556-2.628-5.166-5.544-1.116-1.242-1.512-1.629a1.088,1.088,0,0,0-.666-.387c-.144,0-.328.144-.549.432s-.621.858-1.2,1.71q-1.1,1.656-2.411,3.438a1.023,1.023,0,0,1-.675.414.966.966,0,0,1-.765-.18Zm10.673-10.278a1.027,1.027,0,0,1,1.387.432q.342.594.72,1.368a.986.986,0,0,1-.45,1.35l-.18.09a.965.965,0,0,1-.783.063,1.022,1.022,0,0,1-.6-.513q-.108-.234-.36-.684t-.36-.666a.966.966,0,0,1-.081-.765.891.891,0,0,1,.5-.584Zm4.537-.288q.5.936.755,1.422a.982.982,0,0,1-.449,1.35l-.234.126a1.059,1.059,0,0,1-1.386-.468l-.756-1.4a.922.922,0,0,1-.072-.756.988.988,0,0,1,.5-.593l.252-.108a1.022,1.022,0,0,1,1.386.431Z"/><path class="cls-8" d="M123.71,208.841a.963.963,0,0,1-.432-1.332l.414-.81a1.017,1.017,0,0,1,.6-.512,1.068,1.068,0,0,1,.8.044q1.853.882,3.8,1.89a.9.9,0,0,1,.5.594,1,1,0,0,1-.081.774l-.469.81a1.039,1.039,0,0,1-1.386.414Q125.582,209.741,123.71,208.841Zm12.78-.882a1.011,1.011,0,0,1,.649.441.963.963,0,0,1,.143.765,13.027,13.027,0,0,1-4.167,7.362,15.838,15.838,0,0,1-8.469,3.294,1.022,1.022,0,0,1-.774-.207,1.06,1.06,0,0,1-.414-.693l-.126-.828a.893.893,0,0,1,.181-.729.958.958,0,0,1,.666-.387,13.676,13.676,0,0,0,6.848-2.61,10.764,10.764,0,0,0,3.465-5.814,1.045,1.045,0,0,1,.459-.639.98.98,0,0,1,.765-.135Z"/><path class="cls-8" d="M143.163,220.505a1.044,1.044,0,0,1-1.026-1.026v-12.96a1.042,1.042,0,0,1,1.026-1.025h1.025a.956.956,0,0,1,.711.305,1,1,0,0,1,.3.72v3.78a.186.186,0,0,0,.162.2q4.231,1.044,8.55,2.556a1.03,1.03,0,0,1,.649,1.314l-.288.81a1,1,0,0,1-.5.576.972.972,0,0,1-.756.054q-3.69-1.314-7.668-2.34c-.1-.024-.145.018-.145.126v5.886a1,1,0,0,1-.3.72.953.953,0,0,1-.711.306Z"/><path class="cls-8" d="M159.422,208.985a.956.956,0,0,1-.711-.306,1,1,0,0,1-.3-.72v-.27a1,1,0,0,1,.3-.72.956.956,0,0,1,.711-.306h2.61a.209.209,0,0,0,.216-.144c.024-.06.069-.18.135-.359s.117-.318.153-.414a1.183,1.183,0,0,1,.513-.658,1.135,1.135,0,0,1,.8-.152l.863.162a.836.836,0,0,1,.595.4.826.826,0,0,1,.071.711q-.018.054-.063.162t-.063.162q-.036.126.108.126h6.12a1.045,1.045,0,0,1,1.026,1.026v.27a1.045,1.045,0,0,1-1.026,1.026h-7.091a.212.212,0,0,0-.217.126c-.287.612-.438.93-.449.954v.036h.035a4.534,4.534,0,0,1,1.512-.288,3.469,3.469,0,0,1,3.42,1.962.165.165,0,0,0,.216.108q1.1-.234,2.485-.4a.95.95,0,0,1,.747.216.959.959,0,0,1,.368.684l.036.342a1.027,1.027,0,0,1-.225.747.991.991,0,0,1-.675.387q-.972.144-2.16.36a.147.147,0,0,0-.126.2c.073.708.108,1.122.108,1.242a.928.928,0,0,1-.288.72.985.985,0,0,1-.72.306h-.864a1,1,0,0,1-.72-.3,1.022,1.022,0,0,1-.324-.711,4.8,4.8,0,0,0-.018-.486.1.1,0,0,0-.054-.09.119.119,0,0,0-.108-.018q-2.268.882-2.268,1.728a1.025,1.025,0,0,0,.72.963,8.092,8.092,0,0,0,2.79.315,28.98,28.98,0,0,0,3.529-.306.963.963,0,0,1,.746.207.928.928,0,0,1,.369.675l.036.432a1.057,1.057,0,0,1-.225.756.978.978,0,0,1-.674.4,32.981,32.981,0,0,1-3.781.216,10.735,10.735,0,0,1-4.914-.828A2.717,2.717,0,0,1,161.2,217.1a3.4,3.4,0,0,1,1.152-2.448,9.283,9.283,0,0,1,3.456-1.944q.144-.072.054-.18a1.607,1.607,0,0,0-1.314-.522,2.71,2.71,0,0,0-1.584.567,10.492,10.492,0,0,0-1.944,2.061,1.138,1.138,0,0,1-.693.45,1.1,1.1,0,0,1-.8-.126l-.522-.288a.87.87,0,0,1-.449-.594.9.9,0,0,1,.143-.738,32.98,32.98,0,0,0,2.466-4.23q.072-.126-.09-.126Z"/><path class="cls-8" d="M177.372,213.161l-.559-.576a1.019,1.019,0,0,1-.287-.72.958.958,0,0,1,.287-.7,22.1,22.1,0,0,0,3.655-4.95,1.224,1.224,0,0,1,1.44-.593l.684.215a.866.866,0,0,1,.557.5.817.817,0,0,1-.017.729,23.193,23.193,0,0,1-4.321,6.12,1.014,1.014,0,0,1-.719.288A.984.984,0,0,1,177.372,213.161Zm4.77-1.944a1.027,1.027,0,0,1,.5-.6.964.964,0,0,1,.783-.081l.828.252a1.021,1.021,0,0,1,.6.5.992.992,0,0,1,.081.792q-.846,2.772-2.035,5.706c-.047.1-.017.144.091.144q2.268-.144,5.184-.414a.087.087,0,0,0,.081-.054.1.1,0,0,0-.009-.108q-.145-.288-1.135-2.106a.819.819,0,0,1-.053-.729.862.862,0,0,1,.522-.531l.648-.27a1.156,1.156,0,0,1,1.44.5q1.368,2.484,2.718,5.166a.921.921,0,0,1,.036.756.868.868,0,0,1-.523.54l-.647.252a1.087,1.087,0,0,1-.8.018,1.043,1.043,0,0,1-.6-.54,2.445,2.445,0,0,0-.144-.27,2.138,2.138,0,0,1-.144-.27.187.187,0,0,0-.2-.108q-5.614.612-11.249.846a.975.975,0,0,1-.738-.27,1.077,1.077,0,0,1-.342-.72l-.018-.378a.9.9,0,0,1,.243-.72.958.958,0,0,1,.693-.324c.155,0,.4-.009.738-.027s.587-.033.756-.045a.21.21,0,0,0,.216-.144A67.94,67.94,0,0,0,182.142,211.217Zm10.278-.072a.985.985,0,0,1,.306.72,1.013,1.013,0,0,1-.289.72l-.557.576a.985.985,0,0,1-.72.306,1.02,1.02,0,0,1-.721-.288,23.817,23.817,0,0,1-4.319-6.1.82.82,0,0,1-.018-.729.93.93,0,0,1,.558-.513l.684-.215a1.23,1.23,0,0,1,.828.035,1.138,1.138,0,0,1,.612.54A22.072,22.072,0,0,0,192.42,211.145Z"/><path class="cls-8" d="M196.994,221.171a1.045,1.045,0,0,1-1.026-1.026V206.034a.96.96,0,0,1,.306-.712,1,1,0,0,1,.72-.3h5.526a1.014,1.014,0,0,1,1.008,1.009v5.309a1,1,0,0,1-.3.72.956.956,0,0,1-.711.306h-3.654a.143.143,0,0,0-.162.162v7.614a1.045,1.045,0,0,1-1.026,1.026Zm1.71-13.9v.486a.143.143,0,0,0,.162.162h2.34a.143.143,0,0,0,.162-.162v-.486a.143.143,0,0,0-.162-.162h-2.34A.143.143,0,0,0,198.7,207.275Zm0,2.592v.486a.143.143,0,0,0,.162.162h2.34a.143.143,0,0,0,.162-.162v-.486q0-.144-.162-.144h-2.34Q198.7,209.723,198.7,209.867Zm7.038,10.836a1,1,0,0,1-.72-.3.956.956,0,0,1-.306-.711v-1.872q0-.144-.162-.144h-1.206a.17.17,0,0,0-.18.144,5.624,5.624,0,0,1-1.35,2.466,1.167,1.167,0,0,1-.756.369,1.23,1.23,0,0,1-.828-.207l-.234-.144a.705.705,0,0,1-.351-.585.806.806,0,0,1,.244-.657,4.385,4.385,0,0,0,.9-1.26.082.082,0,0,0-.018-.09.121.121,0,0,0-.089-.036h-.4a.814.814,0,0,1-.594-.252.833.833,0,0,1-.252-.612.832.832,0,0,1,.846-.846h.666a.143.143,0,0,0,.162-.162v-.738q0-.144-.162-.144h-.432a.819.819,0,0,1-.612-.261.863.863,0,0,1-.252-.621.86.86,0,0,1,.864-.864h6.966a.86.86,0,0,1,.864.864.863.863,0,0,1-.252.621.82.82,0,0,1-.612.261H207.2a.127.127,0,0,0-.144.144v.738c0,.108.047.162.144.162h.522a.829.829,0,0,1,.594.243.8.8,0,0,1,.252.6.833.833,0,0,1-.252.612.814.814,0,0,1-.594.252H207.2a.127.127,0,0,0-.144.144V219.1a.043.043,0,0,0,.036.045.044.044,0,0,0,.054-.027.861.861,0,0,1,.774-.342q.306.018.63.018a1.5,1.5,0,0,0,.7-.09q.108-.09.108-.63v-5.544a.143.143,0,0,0-.162-.162h-3.834a.958.958,0,0,1-.711-.306,1,1,0,0,1-.3-.72v-5.309a1.014,1.014,0,0,1,1.008-1.009h5.706a1,1,0,0,1,.72.3.96.96,0,0,1,.306.712v11.843q0,.828-.027,1.3a3.764,3.764,0,0,1-.153.882,1.51,1.51,0,0,1-.3.594,1.347,1.347,0,0,1-.567.306,3.425,3.425,0,0,1-.828.153q-.432.027-1.2.027-.524,0-.955-.018a1.149,1.149,0,0,1-1.062-.882.079.079,0,0,0-.045-.045q-.027-.009-.045.027a.982.982,0,0,1-.882.486Zm-1.188-4.734a.143.143,0,0,0,.162-.162v-.738q0-.144-.162-.144h-1.026a.127.127,0,0,0-.144.144v.756a.127.127,0,0,0,.144.144Zm1.962-8.694v.486a.143.143,0,0,0,.162.162h2.52a.143.143,0,0,0,.162-.162v-.486a.143.143,0,0,0-.162-.162h-2.52A.143.143,0,0,0,206.516,207.275Zm2.682,3.24a.143.143,0,0,0,.162-.162v-.486q0-.144-.162-.144h-2.52q-.162,0-.162.144v.486a.143.143,0,0,0,.162.162Z"/><path class="cls-8" d="M82.542,240.781l-.108-.4a1.042,1.042,0,0,1,.108-.8,1.119,1.119,0,0,1,.63-.531,13.7,13.7,0,0,0,2.232-1.08.045.045,0,0,0,.027-.054.043.043,0,0,0-.045-.036H83.567a1,1,0,0,1-.719-.3.956.956,0,0,1-.306-.711v-.2a1.045,1.045,0,0,1,1.025-1.026H88a.294.294,0,0,0,.252-.126q.144-.18.4-.54c.047-.072.024-.108-.072-.108q-1.3.072-3.852.144a1.034,1.034,0,0,1-.756-.27.982.982,0,0,1-.342-.72v-.2a1,1,0,0,1,.954-1.044c.132-.012.329-.018.594-.018s.462-.006.594-.018a.254.254,0,0,0,.215-.144q.307-.54.7-1.314a1.312,1.312,0,0,1,.6-.621,1.361,1.361,0,0,1,.855-.135l.684.126a.737.737,0,0,1,.549.414.716.716,0,0,1-.009.684l-.18.36a3.65,3.65,0,0,1-.2.36c-.059.084-.042.126.055.126q1.294-.072,4.266-.252c.024,0,.042-.015.053-.045a.1.1,0,0,0,0-.081.352.352,0,0,0-.071-.09.361.361,0,0,1-.072-.09.653.653,0,0,1-.126-.639.7.7,0,0,1,.45-.477l.521-.18a1.5,1.5,0,0,1,.892-.018,1.453,1.453,0,0,1,.747.468q1.134,1.332,2.232,2.862a.673.673,0,0,1,.108.666.81.81,0,0,1-.486.5l-1.008.36q-.02.036,0,.054h1.53a1.045,1.045,0,0,1,1.026,1.026v.2a.956.956,0,0,1-.306.711,1,1,0,0,1-.72.3H96.222a.031.031,0,0,0-.036.036.069.069,0,0,0,.018.054,14.532,14.532,0,0,0,2.25,1.1,1.263,1.263,0,0,1,.639.54,1.008,1.008,0,0,1,.117.792l-.108.4a.842.842,0,0,1-.451.585.859.859,0,0,1-.737.045,17.74,17.74,0,0,1-5.58-3.438.345.345,0,0,0-.252-.108H89.706a.342.342,0,0,0-.252.108,12.33,12.33,0,0,1-1.135.918.042.042,0,0,0-.008.045.04.04,0,0,0,.044.027,33.3,33.3,0,0,0,3.511-.648,1.182,1.182,0,0,1,.81.072,1.128,1.128,0,0,1,.576.576l.017.036a.879.879,0,0,1,.019.756.867.867,0,0,1-.559.5,29.723,29.723,0,0,1-6.047,1.134,1.156,1.156,0,0,1-1.206-.594.148.148,0,0,0-.216-.054q-.486.234-1.531.666a.84.84,0,0,1-.737-.054A.871.871,0,0,1,82.542,240.781Zm4.086,3.672a1.281,1.281,0,0,1-1.332-.882l-.109-.342a.789.789,0,0,1,.685-1.044,31.793,31.793,0,0,0,8.262-1.692,1.125,1.125,0,0,1,.792,0,.991.991,0,0,1,.576.522l.09.2a.955.955,0,0,1-.487,1.332A29.594,29.594,0,0,1,86.628,244.453Zm-1.441,1.818a.771.771,0,0,1,.082-.693.751.751,0,0,1,.6-.369,35.682,35.682,0,0,0,10.493-2.34,1.144,1.144,0,0,1,.811-.027.957.957,0,0,1,.593.513l.09.2a.965.965,0,0,1,.064.783.952.952,0,0,1-.531.585,33.462,33.462,0,0,1-10.764,2.556A1.281,1.281,0,0,1,85.3,246.6Zm6.265-10.746a.076.076,0,0,0,.009.081.087.087,0,0,0,.081.045h4.193c.1,0,.115-.048.055-.144q-.054-.09-.685-.954a.241.241,0,0,0-.215-.108q-1.944.144-2.88.216c-.084,0-.151.054-.2.162Q91.7,235.057,91.452,235.525Z"/><path class="cls-8" d="M102.745,246.379l-.612-.792a1.391,1.391,0,0,1-.072-1.674,11.285,11.285,0,0,0,1.152-3.1,30.167,30.167,0,0,0,.557-4.788.127.127,0,0,0-.143-.144h-.594a1.044,1.044,0,0,1-1.026-1.026v-.45a1.044,1.044,0,0,1,1.026-1.026h.666c.108,0,.161-.048.161-.144q0-.252.01-.774t.009-.792a1.045,1.045,0,0,1,1.025-1.026h.685a1,1,0,0,1,.72.3.955.955,0,0,1,.305.711q0,.576-.035,1.584c0,.1.054.144.161.144h2.647a1.047,1.047,0,0,1,1.026,1.026v1.4q0,3.888-.1,6.075a16.714,16.714,0,0,1-.395,3.3,2.654,2.654,0,0,1-.666,1.386,1.834,1.834,0,0,1-1.089.27q-.523,0-2.034-.108a.982.982,0,0,1-.72-.342,1.262,1.262,0,0,1-.324-.756l-.036-.54a.834.834,0,0,1,.261-.666.819.819,0,0,1,.674-.234,8.51,8.51,0,0,0,.973.054c.18,0,.32-.132.423-.4a8.416,8.416,0,0,0,.252-1.863q.1-1.467.1-4.239v-1.728a.127.127,0,0,0-.143-.144h-.937c-.107,0-.162.048-.162.144a33.033,33.033,0,0,1-.792,6.228,13.55,13.55,0,0,1-1.727,4.086.7.7,0,0,1-.594.333A.758.758,0,0,1,102.745,246.379Zm9.413.378a1.044,1.044,0,0,1-1.025-1.026v-12.8a.955.955,0,0,1,.305-.711,1,1,0,0,1,.72-.3h4.986a1,1,0,0,1,.72.3.957.957,0,0,1,.307.711v12.8a1.047,1.047,0,0,1-1.027,1.026h-.917a.828.828,0,0,1-.594-.243.8.8,0,0,1-.252-.6q0-.108-.126-.108h-1.4q-.126,0-.126.108a.816.816,0,0,1-.244.6.8.8,0,0,1-.585.243Zm1.567-12.276v8.82a.143.143,0,0,0,.162.162h1.349c.1,0,.145-.054.145-.162v-8.82a.128.128,0,0,0-.145-.144h-1.349C113.778,234.337,113.725,234.385,113.725,234.481Z"/><path class="cls-8" d="M122.137,237.685a1.047,1.047,0,0,1-1.027-1.026v-.216a1.047,1.047,0,0,1,1.027-1.026h4.914a.144.144,0,0,0,.162-.162v-1.044c0-.1-.055-.144-.162-.144h-3.42a.953.953,0,0,1-.711-.306,1,1,0,0,1-.3-.72V232.9a1,1,0,0,1,.3-.72.953.953,0,0,1,.711-.306h3.42c.107,0,.162-.048.162-.144v-.2a1,1,0,0,1,.3-.72.955.955,0,0,1,.711-.306h.9a1.044,1.044,0,0,1,1.026,1.026v.2c0,.1.054.144.163.144H132.4a1.047,1.047,0,0,1,1.027,1.026v.126c0,.024.014.042.045.054s.051.012.062,0a17.124,17.124,0,0,0,1.206-1.35,1.079,1.079,0,0,1,.694-.387,1.035,1.035,0,0,1,.764.171l.487.36a.952.952,0,0,1,.395.666.921.921,0,0,1-.216.738,23.669,23.669,0,0,1-1.944,2.034q-.034.018-.018.063a.06.06,0,0,0,.054.045H136.9a1.047,1.047,0,0,1,1.027,1.026v.216a1.047,1.047,0,0,1-1.027,1.026h-4.788a.542.542,0,0,0-.288.09q-.612.432-1.3.864a.042.042,0,0,0-.008.045q.007.027.045.027H135.4a1.047,1.047,0,0,1,1.027,1.026v6.426a1.047,1.047,0,0,1-1.027,1.026h-1.313a.524.524,0,0,1-.523-.522.064.064,0,0,0-.072-.072h-6.426a.064.064,0,0,0-.072.072.521.521,0,0,1-.521.522H125.16a1.044,1.044,0,0,1-1.025-1.026v-4.158a.087.087,0,0,0-.055-.081.134.134,0,0,0-.107-.009c-.325.132-.678.264-1.063.4a1.02,1.02,0,0,1-1.313-.63l-.216-.612a.917.917,0,0,1,.045-.765.957.957,0,0,1,.585-.5,31.613,31.613,0,0,0,5.04-2.07.055.055,0,0,0,.017-.036c0-.012-.011-.018-.036-.018Zm11.267,3.15h-6.263a.128.128,0,0,0-.145.144v.558a.128.128,0,0,0,.145.144H133.4c.109,0,.162-.048.162-.144v-.558C133.566,240.883,133.513,240.835,133.4,240.835Zm.162,3.564v-.576c0-.1-.053-.144-.162-.144h-6.263a.128.128,0,0,0-.145.144v.576a.128.128,0,0,0,.145.144H133.4C133.513,244.543,133.566,244.5,133.566,244.4Zm-3.42-10.188v1.044a.144.144,0,0,0,.163.162h.36a.453.453,0,0,0,.269-.09q.974-.756,1.422-1.152a.058.058,0,0,0,.019-.072.059.059,0,0,0-.055-.036h-2.015C130.2,234.067,130.146,234.115,130.146,234.211Z"/><path class="cls-8" d="M140.585,243.517l-.108-.252a.859.859,0,0,1,.009-.738.964.964,0,0,1,.567-.5,17.984,17.984,0,0,0,2.015-.882.057.057,0,0,0-.035-.054H141.52a.918.918,0,0,1,0-1.836h3.889a.378.378,0,0,0,.27-.126c.011-.012.03-.033.053-.063a.8.8,0,0,1,.055-.063c.06-.084.042-.126-.055-.126h-2.645a1.014,1.014,0,0,1-1.008-1.008v-2.916a1,1,0,0,1,.3-.72.956.956,0,0,1,.711-.306h.99q.162,0,.162-.144v-.144a.143.143,0,0,0-.162-.162H141.61a.989.989,0,0,1-.711-.288.944.944,0,0,1-.3-.7,1.014,1.014,0,0,1,1.008-1.008H144.1a.128.128,0,0,0,.144-.144.829.829,0,0,1,.846-.846h1.08a.833.833,0,0,1,.611.252.813.813,0,0,1,.252.594q0,.144.126.144h3.277q.126,0,.126-.144a.813.813,0,0,1,.252-.594.833.833,0,0,1,.612-.252h1.08a.832.832,0,0,1,.846.846q0,.144.126.144h2.5a1.012,1.012,0,0,1,1.007,1.008.94.94,0,0,1-.3.7.987.987,0,0,1-.711.288h-2.466a.143.143,0,0,0-.162.162v.144c0,.1.053.144.162.144h.99a.958.958,0,0,1,.711.306,1,1,0,0,1,.3.72v2.916a1.014,1.014,0,0,1-1.008,1.008h-5.49a.31.31,0,0,0-.252.144.3.3,0,0,0-.045.063.406.406,0,0,1-.045.063c-.048.072-.024.108.071.108h7.326a.918.918,0,0,1,0,1.836h-1.529c-.013,0-.018.009-.018.027a.057.057,0,0,0,.018.045,14.476,14.476,0,0,0,2.016.864.969.969,0,0,1,.549.5.856.856,0,0,1,.008.738l-.107.252a1.017,1.017,0,0,1-.559.567.984.984,0,0,1-.792.009c-.036-.012-.089-.033-.162-.063s-.126-.051-.161-.063c-.1-.048-.144-.018-.144.09a4.473,4.473,0,0,1-.711,2.52,2.8,2.8,0,0,1-2.043.576q-.81,0-2-.054a1.089,1.089,0,0,1-.747-.333,1.16,1.16,0,0,1-.351-.747l-.019-.27a.9.9,0,0,1,.271-.7.82.82,0,0,1,.684-.252c.383.024.852.036,1.4.036.216,0,.35-.03.405-.09a1.2,1.2,0,0,0,.135-.522q.035-.162-.126-.162h-2.7a.363.363,0,0,0-.252.126q-1.657,2.07-5.994,3.042a1.347,1.347,0,0,1-.855-.1,1.315,1.315,0,0,1-.621-.6l-.162-.306a.661.661,0,0,1,0-.666.763.763,0,0,1,.54-.4,12.361,12.361,0,0,0,3.636-1.026.065.065,0,0,0,.018-.045q0-.027-.036-.027h-1.135a.929.929,0,0,1-.9-.54q-.072-.144-.2-.072-.432.216-1.512.648a.962.962,0,0,1-.783-.009A1.015,1.015,0,0,1,140.585,243.517Zm4.355-8.082v.2c0,.108.048.162.145.162H152.5c.1,0,.143-.054.143-.162v-.2c0-.108-.047-.162-.143-.162h-7.416C144.988,235.273,144.94,235.327,144.94,235.435Zm.145,2.034H152.5c.1,0,.143-.054.143-.162v-.2a.127.127,0,0,0-.143-.144h-7.416a.128.128,0,0,0-.145.144v.2C144.94,237.415,144.988,237.469,145.085,237.469Zm1.746,3.726q-.612.54-.918.756-.036.036-.027.063c.006.018.02.027.045.027h1.385c.061,0,.1-.024.109-.072a.776.776,0,0,1,.243-.423.615.615,0,0,1,.423-.171h1.566a.489.489,0,0,1,.387.18.5.5,0,0,1,.117.414.063.063,0,0,0,.071.072h1.441a.042.042,0,0,0,.045-.027c.006-.018,0-.039-.028-.063q-.647-.5-.918-.756a.364.364,0,0,0-.269-.108h-3.4A.365.365,0,0,0,146.831,241.2Zm.2-7.56v.144a.128.128,0,0,0,.145.144h3.24a.127.127,0,0,0,.144-.144v-.144q0-.162-.144-.162h-3.24C147.076,233.473,147.028,233.527,147.028,233.635Z"/><path class="cls-8" d="M160.487,236.461a.937.937,0,0,1-.468-.612,1.017,1.017,0,0,1,.09-.774,26.124,26.124,0,0,0,1.566-3.528,1.205,1.205,0,0,1,.522-.648,1.137,1.137,0,0,1,.81-.162l.828.126a.7.7,0,0,1,.5.324.678.678,0,0,1,.081.576q-.036.108.09.108h3.006a.2.2,0,0,0,.2-.144l.054-.162a1.315,1.315,0,0,1,.5-.666,1.2,1.2,0,0,1,.81-.216l.827.072a.7.7,0,0,1,.568.324.749.749,0,0,1,.1.666c-.023.084.007.126.091.126h3.995a.938.938,0,0,1,.7.3.982.982,0,0,1,.289.711.985.985,0,0,1-.991.99H170.44c-.107,0-.161.048-.161.144v.288c0,.1.054.144.161.144h3.907a.719.719,0,0,1,.54.225.808.808,0,0,1,0,1.1.719.719,0,0,1-.54.225H170.44a.143.143,0,0,0-.161.162v.27a.143.143,0,0,0,.161.162h3.907a.719.719,0,0,1,.54.225.808.808,0,0,1,0,1.1.719.719,0,0,1-.54.225H170.44c-.107,0-.161.048-.161.144v.288c0,.1.054.144.161.144H174.8a.8.8,0,0,1,.6.252.845.845,0,0,1,0,1.188.8.8,0,0,1-.6.252h-4.861c-.095,0-.143.054-.143.162v.27c0,.108.048.162.143.162h5.329a.987.987,0,0,1,.711.288.94.94,0,0,1,.3.7A1.012,1.012,0,0,1,175.265,243h-4.212q-.018.018,0,.054a38.5,38.5,0,0,0,4.77,1.224.913.913,0,0,1,.6.432.829.829,0,0,1,.081.72l-.144.432a1.086,1.086,0,0,1-.531.621,1.012,1.012,0,0,1-.8.081,34.11,34.11,0,0,1-5.095-1.8c-.095-.048-.143-.024-.143.072V246.2a1.045,1.045,0,0,1-1.026,1.026h-.9a1.044,1.044,0,0,1-1.026-1.026v-1.368q0-.144-.126-.09a31.811,31.811,0,0,1-5.094,1.818,1.036,1.036,0,0,1-.81-.081,1.085,1.085,0,0,1-.541-.621l-.143-.432a.864.864,0,0,1,.063-.72.853.853,0,0,1,.585-.432,36.941,36.941,0,0,0,4.824-1.242c.047-.024.042-.036-.018-.036h-4.393a1.012,1.012,0,0,1-1.007-1.008.944.944,0,0,1,.3-.7.989.989,0,0,1,.711-.288H166.7q.144,0,.144-.162v-.27q0-.162-.144-.162h-4.356a1.014,1.014,0,0,1-1.008-1.008v-2.34a.21.21,0,0,0-.145-.216Zm3.636-2.43v.27q0,.162.144.162h2.916a.143.143,0,0,0,.162-.162v-.27a.143.143,0,0,0-.162-.162h-2.916Q164.123,233.869,164.123,234.031Zm0,2.124v.27q0,.162.144.162h2.916a.143.143,0,0,0,.162-.162v-.27a.143.143,0,0,0-.162-.162h-2.916Q164.123,235.993,164.123,236.155Zm0,2.124v.288a.127.127,0,0,0,.144.144h2.916q.162,0,.162-.144v-.288q0-.144-.162-.144h-2.916A.127.127,0,0,0,164.123,238.279Z"/><path class="cls-8" d="M180.7,247.171a1.047,1.047,0,0,1-1.026-1.026V232.033a.953.953,0,0,1,.307-.711,1,1,0,0,1,.719-.3h5.527a1.012,1.012,0,0,1,1.007,1.008v5.31a1,1,0,0,1-.3.72.959.959,0,0,1-.711.306h-3.655a.143.143,0,0,0-.162.162v7.614a1.044,1.044,0,0,1-1.026,1.026Zm1.71-13.9v.486a.143.143,0,0,0,.162.162h2.34a.143.143,0,0,0,.162-.162v-.486a.143.143,0,0,0-.162-.162h-2.34A.143.143,0,0,0,182.405,233.275Zm0,2.592v.486a.143.143,0,0,0,.162.162h2.34a.143.143,0,0,0,.162-.162v-.486c0-.1-.053-.144-.162-.144h-2.34Q182.405,235.723,182.405,235.867Zm7.038,10.836a1,1,0,0,1-.719-.3.953.953,0,0,1-.307-.711v-1.872q0-.144-.162-.144h-1.206a.171.171,0,0,0-.18.144,5.614,5.614,0,0,1-1.35,2.466,1.166,1.166,0,0,1-.755.369,1.227,1.227,0,0,1-.828-.207l-.235-.144a.7.7,0,0,1-.35-.585.8.8,0,0,1,.243-.657,4.385,4.385,0,0,0,.9-1.26.083.083,0,0,0-.017-.09.125.125,0,0,0-.09-.036h-.4a.814.814,0,0,1-.594-.252.832.832,0,0,1-.251-.612.83.83,0,0,1,.845-.846h.666a.143.143,0,0,0,.162-.162v-.738c0-.1-.053-.144-.162-.144h-.431a.82.82,0,0,1-.613-.261.863.863,0,0,1-.252-.621.86.86,0,0,1,.865-.864h6.965a.862.862,0,0,1,.865.864.864.864,0,0,1-.253.621.819.819,0,0,1-.612.261H190.9a.127.127,0,0,0-.144.144v.738q0,.162.144.162h.522a.831.831,0,0,1,.595.243.8.8,0,0,1,.251.6.832.832,0,0,1-.251.612.816.816,0,0,1-.595.252H190.9a.127.127,0,0,0-.144.144V245.1a.043.043,0,0,0,.036.045.045.045,0,0,0,.055-.027.86.86,0,0,1,.773-.342q.306.018.63.018a1.5,1.5,0,0,0,.7-.09q.108-.09.108-.63v-5.544a.143.143,0,0,0-.162-.162h-3.834a.958.958,0,0,1-.711-.306,1,1,0,0,1-.3-.72v-5.31a1.012,1.012,0,0,1,1.007-1.008h5.706a1,1,0,0,1,.72.3.956.956,0,0,1,.306.711v11.844q0,.828-.027,1.3a3.764,3.764,0,0,1-.153.882,1.5,1.5,0,0,1-.3.594,1.34,1.34,0,0,1-.567.306,3.425,3.425,0,0,1-.828.153c-.287.018-.69.027-1.205.027-.349,0-.666-.006-.954-.018a1.149,1.149,0,0,1-1.063-.882.079.079,0,0,0-.045-.045c-.017-.006-.033,0-.045.027a.982.982,0,0,1-.882.486Zm-1.188-4.734a.143.143,0,0,0,.162-.162v-.738q0-.144-.162-.144h-1.026a.127.127,0,0,0-.144.144v.756a.127.127,0,0,0,.144.144Zm1.962-8.694v.486a.143.143,0,0,0,.162.162h2.52a.143.143,0,0,0,.162-.162v-.486a.143.143,0,0,0-.162-.162h-2.52A.143.143,0,0,0,190.217,233.275Zm2.682,3.24a.143.143,0,0,0,.162-.162v-.486q0-.144-.162-.144h-2.52q-.162,0-.162.144v.486a.143.143,0,0,0,.162.162Z"/><path class="cls-8" d="M199.943,235.723a.954.954,0,0,1-.954-.954v-.36a1.045,1.045,0,0,1,1.027-1.026h.233q.162,0,.162-.144.108-.882.145-1.494a1.026,1.026,0,0,1,.359-.7,1.01,1.01,0,0,1,.738-.27l.432.018a.935.935,0,0,1,.693.342.963.963,0,0,1,.243.738q-.071.882-.126,1.368,0,.144.126.144H204.7a1.047,1.047,0,0,1,1.027,1.026v.126c0,.36-.013.852-.036,1.476,0,.072.047.1.143.072a.815.815,0,0,1,.288-.054q.108,0,.18-.144,1.008-2.412,1.746-4.5a1.054,1.054,0,0,1,.531-.612,1.1,1.1,0,0,1,.8-.09l.576.144a.871.871,0,0,1,.594.45.882.882,0,0,1,.055.756q-.649,1.8-1.423,3.618c-.024.084.007.126.091.126q1.4-.126,2.879-.324.162,0,.09-.126l-.576-1.152a.879.879,0,0,1-.054-.756.924.924,0,0,1,.522-.558l.522-.234a1.027,1.027,0,0,1,.81-.027,1.093,1.093,0,0,1,.612.531q.9,1.764,1.854,3.87a.964.964,0,0,1,.027.783.952.952,0,0,1-.549.549l-.54.234a1.031,1.031,0,0,1-1.349-.54c-.013-.024-.031-.063-.055-.117s-.042-.093-.054-.117a.186.186,0,0,0-.2-.108q-3.582.558-6.93.756a.988.988,0,0,1-.666-.216c-.072-.048-.12-.03-.143.054a15.591,15.591,0,0,1-.883,3.456.348.348,0,0,0,.018.288q.488.81.792,1.422a1.321,1.321,0,0,1,.108.855,1.339,1.339,0,0,1-.432.747l-.36.342a.7.7,0,0,1-.648.171.73.73,0,0,1-.522-.423,3.123,3.123,0,0,1-.144-.288q-.09-.2-.144-.306a.076.076,0,0,0-.081-.054c-.042,0-.069.012-.08.036a13.1,13.1,0,0,1-2.107,2.358.82.82,0,0,1-.7.207.79.79,0,0,1-.594-.423l-.27-.45a1.192,1.192,0,0,1-.144-.81,1.281,1.281,0,0,1,.4-.738,11.289,11.289,0,0,0,2.034-2.556.233.233,0,0,0-.018-.234,1.625,1.625,0,0,1-.179-.234,1.682,1.682,0,0,0-.181-.234q-.018-.036-.081-.036a.076.076,0,0,0-.081.054l-.054.162a.587.587,0,0,1-.468.387.58.58,0,0,1-.576-.207l-.45-.522a1.676,1.676,0,0,1-.359-1.728,30.671,30.671,0,0,0,.809-3.672C200.093,235.765,200.052,235.723,199.943,235.723Zm2.088,2.754a.29.29,0,0,0,.072.234q.18.18.577.612a.08.08,0,0,0,.143-.018,18.912,18.912,0,0,0,.5-3.42c0-.108-.048-.162-.143-.162h-.469a.171.171,0,0,0-.18.144Q202.3,237.4,202.031,238.477Zm4.644.81h7.633a1.045,1.045,0,0,1,1.025,1.026V246.2a1.045,1.045,0,0,1-1.025,1.026h-1.153a.675.675,0,0,1-.683-.684.1.1,0,0,0-.109-.108h-3.834q-.09,0-.09.108a.676.676,0,0,1-.684.684h-1.08a1.045,1.045,0,0,1-1.026-1.026v-5.886a1.045,1.045,0,0,1,1.026-1.026Zm5.8,4.734v-2.25c0-.1-.055-.144-.162-.144h-3.727a.127.127,0,0,0-.144.144v2.25q0,.162.144.162h3.727A.144.144,0,0,0,212.472,244.021Z"/><ellipse class="cls-9" cx="116.624" cy="122.38" rx="3.521" ry="7.092" transform="translate(-19.005 21.47) rotate(-9.73)"/><path class="cls-10" d="M132.915,128.511c-2.259.387-4.755-3.18-5.576-7.968s.344-8.983,2.6-9.371l-12.26,2.1c-2.377.407-3.638,4.619-2.817,9.407s3.413,8.339,5.79,7.931Z"/><path class="cls-11" d="M160.835,138.265c-7.694-7.558-22.073-10.756-27.92-9.754-2.259.387-4.755-3.18-5.576-7.968s.344-8.983,2.6-9.371c5.847-1,18.34-8.808,23.076-18.5Z"/><ellipse class="cls-12" cx="161.062" cy="114.761" rx="9.575" ry="25.725" transform="translate(-17.078 28.87) rotate(-9.73)"/><ellipse class="cls-13" cx="161.535" cy="114.679" rx="9.014" ry="24.219" transform="translate(-17.057 28.949) rotate(-9.73)"/><ellipse class="cls-14" cx="161.535" cy="114.679" rx="8.523" ry="22.899" transform="matrix(0.986, -0.169, 0.169, 0.986, -17.057, 28.949)"/><path class="cls-11" d="M164.179,118.569a101.864,101.864,0,0,0-10.046,2.253c-.383-1.506-.72-3.078-1-4.7s-.485-3.219-.625-4.767a101.988,101.988,0,0,0,10.222-1.221Z"/><ellipse class="cls-1" cx="163.456" cy="114.35" rx="1.593" ry="4.28" transform="matrix(0.986, -0.169, 0.169, 0.986, -16.974, 29.269)"/><ellipse class="cls-12" cx="163.885" cy="114.276" rx="1.157" ry="3.109" transform="translate(-16.955 29.34) rotate(-9.73)"/><path class="cls-15" d="M189.52,141.856,179.4,129.431c.143-.116.285-.235.425-.355l10.457,12.139Q189.908,141.54,189.52,141.856Zm9.822-12.157-14.273-7.278q.129-.254.251-.51l14.459,6.9Q199.566,129.26,199.342,129.7Zm4.093-15.051-15.992-.967c.011-.188.02-.375.026-.562l16.013.543Q203.466,114.154,203.435,114.648Zm-17.326-9.883c-.066-.176-.133-.351-.2-.526l14.87-5.964q.184.457.355.92ZM181.3,97.113q-.2-.207-.405-.408L192.137,85.29c.232.23.462.461.688.7Zm-7.462-5.063c-.174-.07-.347-.139-.523-.2l5.66-14.989c.309.117.617.238.921.362Z"/><path class="cls-16" d="M121.421,130.482l-.766.131c-2.377.408-4.969-3.143-5.79-7.931s.44-9,2.817-9.407l.766-.132c-2.377.408-3.638,4.62-2.817,9.408S119.044,130.89,121.421,130.482Z"/></svg>