<svg id="レイヤー_1" data-name="レイヤー 1" xmlns="http://www.w3.org/2000/svg" viewBox="0 0 300 300"><defs><style>.cls-1{fill:#fff;}.cls-2{fill:#ff5050;}.cls-3{fill:gray;}.cls-4{fill:#b1b1b1;}.cls-5{fill:#e4e4e4;}.cls-6{fill:#cacaca;}.cls-7{fill:#b2dfdf;}.cls-8{fill:#999;}.cls-9{fill:#666;}.cls-10{fill:#498d57;}.cls-11{fill:#48963e;}.cls-12{fill:#deb893;}.cls-13{fill:#333;}.cls-14{font-size:18.505px;fill:#ffc83b;font-family:KorolevRounded-Bold, Korolev Rounded;font-weight:700;}</style></defs><circle class="cls-1" cx="150" cy="150" r="147.5"/><path class="cls-2" d="M150,5A145,145,0,0,1,252.531,252.531,145,145,0,1,1,47.47,47.469,144.051,144.051,0,0,1,150,5m0-5A150,150,0,1,0,300,150,150,150,0,0,0,150,0Z"/><circle class="cls-2" cx="35" cy="35" r="35"/><path class="cls-1" d="M19,39.588V30.454c0-6.048,4.053-10.269,9.912-10.269,5.8,0,9.912,4.221,9.912,10.269v9.134c0,6.027-4.116,10.227-9.912,10.227C23.053,49.815,19,45.615,19,39.588Zm14.028-.252v-8.63c0-3.78-1.89-4.956-4.116-4.956-2.268,0-4.116,1.176-4.116,4.977v8.588c0,3.759,1.911,4.935,4.116,4.935C31.1,44.25,33.028,43.074,33.028,39.336Z"/><path class="cls-1" d="M44.286,28.505a2.13,2.13,0,0,1-2.526-2.377V25.9a2.624,2.624,0,0,1,1.871-2.566,4.912,4.912,0,0,0,2.023-1.551c.685-.944,1.178-1.6,2.532-1.6h.189A2.361,2.361,0,0,1,51,22.81V47.19a2.361,2.361,0,0,1-2.625,2.625h-.546A2.361,2.361,0,0,1,45.2,47.19V28.169A1.943,1.943,0,0,1,44.286,28.505Z"/><path class="cls-3" d="M84.22,52H215.778a7.963,7.963,0,0,1,7.963,7.963V145.17a7.963,7.963,0,0,1-7.963,7.963H84.221a7.962,7.962,0,0,1-7.962-7.962V59.962A7.962,7.962,0,0,1,84.22,52Z"/><path class="cls-1" d="M85.062,58.5H214.94a2.424,2.424,0,0,1,2.424,2.424v83.292a2.424,2.424,0,0,1-2.424,2.424H85.062a2.425,2.425,0,0,1-2.425-2.425V60.922A2.425,2.425,0,0,1,85.062,58.5Z"/><path class="cls-4" d="M244.683,183.088c0,1.823-2.091,2.971-7.893,2.971H63.209c-5.8,0-7.9-1.148-7.892-2.971l-.29-3.477c5.142,0,183.372-.345,189.906-.155Z"/><path class="cls-5" d="M244.683,178.872c1.426,1.621-2.091,2.971-7.893,2.971H63.209c-5.8,0-9.318-1.35-7.892-2.971l21.136-24.031c.838-.952,4.986-1.708,9.282-1.708H214.264c4.3,0,8.444.756,9.282,1.708Z"/><path class="cls-3" d="M219.943,167.29c.309.423-.807.768-2.494.768H82.551c-1.687,0-2.8-.345-2.494-.768l7.254-9.929c.245-.336,1.651-.607,3.141-.607h119.1c1.49,0,2.9.271,3.142.607Z"/><path class="cls-6" d="M175.048,177.523c.121.51-1.28.926-3.132.926H128.085c-1.852,0-3.254-.416-3.132-.926l1.282-5.377c.108-.453,1.6-.817,3.323-.817h40.885c1.726,0,3.213.364,3.322.817Z"/><rect class="cls-7" x="95.232" y="70.524" width="109.666" height="31.04" rx="2.439" transform="translate(300.13 172.087) rotate(180)"/><path class="cls-1" d="M130.081,90.424a.635.635,0,0,1-.473-.2.663.663,0,0,1-.2-.48V82.347a.666.666,0,0,1,.2-.48.638.638,0,0,1,.473-.2h4.248a.64.64,0,0,1,.474.2.67.67,0,0,1,.2.48v.277a.667.667,0,0,1-.2.48.636.636,0,0,1-.474.2h-2.784a.085.085,0,0,0-.095.1v1.584c0,.072.031.107.095.107h2.544a.641.641,0,0,1,.475.2.664.664,0,0,1,.2.48v.18a.667.667,0,0,1-.2.48.64.64,0,0,1-.475.2h-2.544a.084.084,0,0,0-.095.1v1.943a.084.084,0,0,0,.095.1h2.784a.634.634,0,0,1,.474.2.667.667,0,0,1,.2.48v.276a.667.667,0,0,1-.2.48.637.637,0,0,1-.474.2Z"/><path class="cls-1" d="M139.593,89.776l-2.424-7.464a.457.457,0,0,1,.066-.445.476.476,0,0,1,.4-.2h.8a.864.864,0,0,1,.54.185.851.851,0,0,1,.312.474l1.572,6.133a.012.012,0,1,0,.024,0l1.62-6.133a.851.851,0,0,1,.312-.474.864.864,0,0,1,.54-.185h.756a.477.477,0,0,1,.4.2.457.457,0,0,1,.066.445l-2.424,7.464a.857.857,0,0,1-.331.467.913.913,0,0,1-.557.181h-.792a.9.9,0,0,1-.546-.181A.925.925,0,0,1,139.593,89.776Z"/><path class="cls-1" d="M147.394,90.424a.636.636,0,0,1-.474-.2.667.667,0,0,1-.2-.48V82.347a.67.67,0,0,1,.2-.48.639.639,0,0,1,.474-.2h4.248a.64.64,0,0,1,.474.2.674.674,0,0,1,.2.48v.277a.671.671,0,0,1-.2.48.636.636,0,0,1-.474.2h-2.784a.085.085,0,0,0-.1.1v1.584c0,.072.031.107.1.107H151.4a.638.638,0,0,1,.474.2.665.665,0,0,1,.2.48v.18a.668.668,0,0,1-.2.48.637.637,0,0,1-.474.2h-2.544a.084.084,0,0,0-.1.1v1.943a.085.085,0,0,0,.1.1h2.784a.634.634,0,0,1,.474.2.671.671,0,0,1,.2.48v.276a.671.671,0,0,1-.2.48.637.637,0,0,1-.474.2Z"/><path class="cls-1" d="M155.58,90.424a.7.7,0,0,1-.683-.684V82.347a.7.7,0,0,1,.683-.683h.588a1.047,1.047,0,0,1,1,.6l2.521,4.765a.011.011,0,0,0,.012.012c.007,0,.011,0,.011-.012V82.347a.7.7,0,0,1,.685-.683h.588a.7.7,0,0,1,.683.683V89.74a.7.7,0,0,1-.683.684h-.588a1.046,1.046,0,0,1-1-.6l-2.521-4.764c0-.008,0-.012-.011-.012a.011.011,0,0,0-.012.012v4.68a.7.7,0,0,1-.685.684Z"/><path class="cls-1" d="M164.684,83.356a.7.7,0,0,1-.684-.684v-.325a.7.7,0,0,1,.684-.683h5.352a.7.7,0,0,1,.684.683v.325a.7.7,0,0,1-.684.684H168.5a.084.084,0,0,0-.1.095V89.74a.7.7,0,0,1-.684.684H167a.7.7,0,0,1-.684-.684V83.451a.084.084,0,0,0-.1-.095Z"/><path class="cls-8" d="M95.9,119.168a.632.632,0,0,1-.474-.2.661.661,0,0,1-.2-.48v-7.392a.664.664,0,0,1,.2-.48.635.635,0,0,1,.474-.2h4.248a.636.636,0,0,1,.474.2.672.672,0,0,1,.2.48v.277a.672.672,0,0,1-.2.48.64.64,0,0,1-.474.2H97.368a.084.084,0,0,0-.1.1v1.584c0,.073.031.108.1.108h2.544a.643.643,0,0,1,.474.2.668.668,0,0,1,.2.48v.181a.664.664,0,0,1-.2.479.636.636,0,0,1-.474.2H97.368a.084.084,0,0,0-.1.095v1.944a.084.084,0,0,0,.1.1h2.784a.637.637,0,0,1,.474.2.672.672,0,0,1,.2.48v.276a.669.669,0,0,1-.2.48.634.634,0,0,1-.474.2Z"/><path class="cls-8" d="M105.416,118.52l-2.424-7.463a.456.456,0,0,1,.065-.445.476.476,0,0,1,.4-.2h.8a.864.864,0,0,1,.54.185.854.854,0,0,1,.313.474l1.571,6.133c0,.007,0,.011.013.011a.01.01,0,0,0,.011-.011l1.621-6.133a.841.841,0,0,1,.311-.474.864.864,0,0,1,.54-.185h.756a.473.473,0,0,1,.4.2.459.459,0,0,1,.067.445l-2.425,7.463a.863.863,0,0,1-.33.468.921.921,0,0,1-.558.18H106.3a.9.9,0,0,1-.546-.18A.92.92,0,0,1,105.416,118.52Z"/><path class="cls-8" d="M113.216,119.168a.632.632,0,0,1-.473-.2.662.662,0,0,1-.2-.48v-7.392a.665.665,0,0,1,.2-.48.634.634,0,0,1,.473-.2h4.248a.636.636,0,0,1,.474.2.668.668,0,0,1,.2.48v.277a.668.668,0,0,1-.2.48.64.64,0,0,1-.474.2H114.68a.084.084,0,0,0-.1.1v1.584c0,.073.031.108.1.108h2.544a.643.643,0,0,1,.475.2.667.667,0,0,1,.2.48v.181a.663.663,0,0,1-.2.479.637.637,0,0,1-.475.2H114.68a.083.083,0,0,0-.1.095v1.944a.084.084,0,0,0,.1.1h2.784a.637.637,0,0,1,.474.2.668.668,0,0,1,.2.48v.276a.665.665,0,0,1-.2.48.634.634,0,0,1-.474.2Z"/><path class="cls-8" d="M121.4,119.168a.7.7,0,0,1-.684-.684v-7.392a.7.7,0,0,1,.684-.683h.588a1.045,1.045,0,0,1,1,.6l2.52,4.764c0,.009,0,.013.012.013s.012,0,.012-.013v-4.68a.7.7,0,0,1,.684-.683h.588a.7.7,0,0,1,.684.683v7.392a.7.7,0,0,1-.684.684h-.588a1.044,1.044,0,0,1-1-.6l-2.52-4.763c0-.009,0-.013-.012-.013s-.012,0-.012.013v4.679a.7.7,0,0,1-.684.684Z"/><path class="cls-8" d="M130.506,112.1a.7.7,0,0,1-.683-.684v-.324a.7.7,0,0,1,.683-.683h5.352a.653.653,0,0,1,.48.2.659.659,0,0,1,.205.48v.324a.7.7,0,0,1-.685.684h-1.535a.085.085,0,0,0-.1.1v6.288a.7.7,0,0,1-.683.684h-.72a.7.7,0,0,1-.685-.684V112.2a.085.085,0,0,0-.095-.1Z"/><path class="cls-8" d="M139.9,119.168a.632.632,0,0,1-.474-.2.665.665,0,0,1-.2-.48v-7.392a.668.668,0,0,1,.2-.48.635.635,0,0,1,.474-.2h4.248a.636.636,0,0,1,.474.2.672.672,0,0,1,.2.48v.277a.672.672,0,0,1-.2.48.64.64,0,0,1-.474.2H141.36a.084.084,0,0,0-.1.1v1.584c0,.073.031.108.1.108H143.9a.641.641,0,0,1,.474.2.668.668,0,0,1,.2.48v.181a.664.664,0,0,1-.2.479.635.635,0,0,1-.474.2H141.36a.084.084,0,0,0-.1.095v1.944a.084.084,0,0,0,.1.1h2.784a.637.637,0,0,1,.474.2.672.672,0,0,1,.2.48v.276a.669.669,0,0,1-.2.48.634.634,0,0,1-.474.2Z"/><path class="cls-8" d="M149.408,118.52l-2.424-7.463a.456.456,0,0,1,.065-.445.476.476,0,0,1,.4-.2h.8a.862.862,0,0,1,.54.185.849.849,0,0,1,.313.474l1.571,6.133c0,.007,0,.011.013.011s.012,0,.012-.011l1.62-6.133a.846.846,0,0,1,.311-.474.864.864,0,0,1,.54-.185h.756a.473.473,0,0,1,.4.2.457.457,0,0,1,.067.445l-2.425,7.463a.863.863,0,0,1-.33.468.921.921,0,0,1-.558.18h-.792a.905.905,0,0,1-.546-.18A.92.92,0,0,1,149.408,118.52Z"/><path class="cls-8" d="M157.208,119.168a.632.632,0,0,1-.473-.2.661.661,0,0,1-.2-.48v-7.392a.664.664,0,0,1,.2-.48.634.634,0,0,1,.473-.2h4.248a.636.636,0,0,1,.474.2.668.668,0,0,1,.2.48v.277a.668.668,0,0,1-.2.48.64.64,0,0,1-.474.2h-2.784a.084.084,0,0,0-.095.1v1.584c0,.073.031.108.095.108h2.544a.643.643,0,0,1,.475.2.667.667,0,0,1,.2.48v.181a.663.663,0,0,1-.2.479.637.637,0,0,1-.475.2h-2.544a.083.083,0,0,0-.095.095v1.944a.084.084,0,0,0,.095.1h2.784a.637.637,0,0,1,.474.2.668.668,0,0,1,.2.48v.276a.665.665,0,0,1-.2.48.634.634,0,0,1-.474.2Z"/><path class="cls-8" d="M165.4,119.168a.7.7,0,0,1-.684-.684v-7.392a.7.7,0,0,1,.684-.683h.588a1.045,1.045,0,0,1,1,.6l2.52,4.764c0,.009,0,.013.012.013s.012,0,.012-.013v-4.68a.7.7,0,0,1,.684-.683h.588a.7.7,0,0,1,.684.683v7.392a.7.7,0,0,1-.684.684h-.588a1.044,1.044,0,0,1-1-.6l-2.52-4.763c0-.009,0-.013-.012-.013s-.012,0-.012.013v4.679a.7.7,0,0,1-.684.684Z"/><path class="cls-8" d="M174.5,112.1a.7.7,0,0,1-.683-.684v-.324a.7.7,0,0,1,.683-.683h5.352a.7.7,0,0,1,.685.683v.324a.7.7,0,0,1-.685.684h-1.535a.085.085,0,0,0-.1.1v6.288a.7.7,0,0,1-.683.684h-.72a.7.7,0,0,1-.685-.684V112.2a.085.085,0,0,0-.095-.1Z"/><path class="cls-8" d="M95.9,134.609a.636.636,0,0,1-.474-.2.663.663,0,0,1-.2-.48v-7.392a.663.663,0,0,1,.2-.48.636.636,0,0,1,.474-.2h4.248a.637.637,0,0,1,.474.2.671.671,0,0,1,.2.48v.276a.671.671,0,0,1-.2.48.637.637,0,0,1-.474.2H97.368a.084.084,0,0,0-.1.1v1.584c0,.072.031.108.1.108h2.544a.639.639,0,0,1,.474.2.667.667,0,0,1,.2.48v.18a.667.667,0,0,1-.2.48.639.639,0,0,1-.474.2H97.368a.084.084,0,0,0-.1.1v1.944a.084.084,0,0,0,.1.1h2.784a.637.637,0,0,1,.474.2.671.671,0,0,1,.2.48v.276a.671.671,0,0,1-.2.48.637.637,0,0,1-.474.2Z"/><path class="cls-8" d="M105.416,133.961l-2.424-7.464a.455.455,0,0,1,.065-.444.477.477,0,0,1,.4-.2h.8a.885.885,0,0,1,.853.66l1.571,6.132c0,.008,0,.012.013.012s.011,0,.011-.012l1.621-6.132a.838.838,0,0,1,.311-.474.859.859,0,0,1,.54-.186h.756a.474.474,0,0,1,.4.2.458.458,0,0,1,.067.444l-2.425,7.464a.867.867,0,0,1-.33.468.921.921,0,0,1-.558.18H106.3a.9.9,0,0,1-.546-.18A.924.924,0,0,1,105.416,133.961Z"/><path class="cls-8" d="M113.216,134.609a.635.635,0,0,1-.473-.2.664.664,0,0,1-.2-.48v-7.392a.664.664,0,0,1,.2-.48.635.635,0,0,1,.473-.2h4.248a.637.637,0,0,1,.474.2.667.667,0,0,1,.2.48v.276a.667.667,0,0,1-.2.48.637.637,0,0,1-.474.2H114.68a.084.084,0,0,0-.1.1v1.584c0,.072.031.108.1.108h2.544a.64.64,0,0,1,.475.2.666.666,0,0,1,.2.48v.18a.666.666,0,0,1-.2.48.64.64,0,0,1-.475.2H114.68a.084.084,0,0,0-.1.1v1.944a.084.084,0,0,0,.1.1h2.784a.637.637,0,0,1,.474.2.667.667,0,0,1,.2.48v.276a.667.667,0,0,1-.2.48.637.637,0,0,1-.474.2Z"/><path class="cls-8" d="M121.4,134.609a.7.7,0,0,1-.684-.684v-7.392a.7.7,0,0,1,.684-.684h.588a1.046,1.046,0,0,1,1,.6l2.52,4.764a.012.012,0,0,0,.024,0v-4.68a.7.7,0,0,1,.684-.684h.588a.7.7,0,0,1,.684.684v7.392a.7.7,0,0,1-.684.684h-.588a1.046,1.046,0,0,1-1-.6l-2.52-4.764a.012.012,0,0,0-.024,0v4.68a.7.7,0,0,1-.684.684Z"/><path class="cls-8" d="M130.506,127.541a.7.7,0,0,1-.683-.684v-.324a.7.7,0,0,1,.683-.684h5.352a.7.7,0,0,1,.685.684v.324a.7.7,0,0,1-.685.684h-1.535a.085.085,0,0,0-.1.1v6.288a.7.7,0,0,1-.683.684h-.72a.7.7,0,0,1-.685-.684v-6.288a.085.085,0,0,0-.095-.1Z"/><path class="cls-8" d="M139.9,134.609a.636.636,0,0,1-.474-.2.667.667,0,0,1-.2-.48v-7.392a.667.667,0,0,1,.2-.48.636.636,0,0,1,.474-.2h4.248a.637.637,0,0,1,.474.2.671.671,0,0,1,.2.48v.276a.671.671,0,0,1-.2.48.637.637,0,0,1-.474.2H141.36a.084.084,0,0,0-.1.1v1.584c0,.072.031.108.1.108H143.9a.637.637,0,0,1,.474.2.667.667,0,0,1,.2.48v.18a.667.667,0,0,1-.2.48.637.637,0,0,1-.474.2H141.36a.084.084,0,0,0-.1.1v1.944a.084.084,0,0,0,.1.1h2.784a.637.637,0,0,1,.474.2.671.671,0,0,1,.2.48v.276a.671.671,0,0,1-.2.48.637.637,0,0,1-.474.2Z"/><path class="cls-8" d="M149.408,133.961l-2.424-7.464a.455.455,0,0,1,.065-.444.477.477,0,0,1,.4-.2h.8a.857.857,0,0,1,.54.186.846.846,0,0,1,.313.474l1.571,6.132c0,.008,0,.012.013.012a.011.011,0,0,0,.012-.012l1.62-6.132a.843.843,0,0,1,.311-.474.859.859,0,0,1,.54-.186h.756a.474.474,0,0,1,.4.2.455.455,0,0,1,.067.444l-2.425,7.464a.867.867,0,0,1-.33.468.921.921,0,0,1-.558.18h-.792a.905.905,0,0,1-.546-.18A.924.924,0,0,1,149.408,133.961Z"/><path class="cls-8" d="M157.208,134.609a.635.635,0,0,1-.473-.2.663.663,0,0,1-.2-.48v-7.392a.663.663,0,0,1,.2-.48.635.635,0,0,1,.473-.2h4.248a.637.637,0,0,1,.474.2.667.667,0,0,1,.2.48v.276a.667.667,0,0,1-.2.48.637.637,0,0,1-.474.2h-2.784a.084.084,0,0,0-.095.1v1.584c0,.072.031.108.095.108h2.544a.64.64,0,0,1,.475.2.666.666,0,0,1,.2.48v.18a.666.666,0,0,1-.2.48.64.64,0,0,1-.475.2h-2.544a.084.084,0,0,0-.095.1v1.944a.084.084,0,0,0,.095.1h2.784a.637.637,0,0,1,.474.2.667.667,0,0,1,.2.48v.276a.667.667,0,0,1-.2.48.637.637,0,0,1-.474.2Z"/><path class="cls-8" d="M165.4,134.609a.7.7,0,0,1-.684-.684v-7.392a.7.7,0,0,1,.684-.684h.588a1.046,1.046,0,0,1,1,.6l2.52,4.764a.012.012,0,0,0,.024,0v-4.68a.7.7,0,0,1,.684-.684h.588a.7.7,0,0,1,.684.684v7.392a.7.7,0,0,1-.684.684h-.588a1.046,1.046,0,0,1-1-.6l-2.52-4.764a.012.012,0,0,0-.024,0v4.68a.7.7,0,0,1-.684.684Z"/><path class="cls-8" d="M174.5,127.541a.7.7,0,0,1-.683-.684v-.324a.7.7,0,0,1,.683-.684h5.352a.7.7,0,0,1,.685.684v.324a.7.7,0,0,1-.685.684h-1.535a.085.085,0,0,0-.1.1v6.288a.7.7,0,0,1-.683.684h-.72a.7.7,0,0,1-.685-.684v-6.288a.085.085,0,0,0-.095-.1Z"/><path class="cls-8" d="M183.1,134.609a.636.636,0,0,1-.474-.2.667.667,0,0,1-.2-.48v-7.392a.667.667,0,0,1,.2-.48.636.636,0,0,1,.474-.2h4.248a.637.637,0,0,1,.474.2.667.667,0,0,1,.2.48v.276a.667.667,0,0,1-.2.48.637.637,0,0,1-.474.2h-2.784a.084.084,0,0,0-.1.1v1.584c0,.072.031.108.1.108h2.544a.637.637,0,0,1,.474.2.667.667,0,0,1,.2.48v.18a.667.667,0,0,1-.2.48.637.637,0,0,1-.474.2h-2.544a.084.084,0,0,0-.1.1v1.944a.084.084,0,0,0,.1.1h2.784a.637.637,0,0,1,.474.2.667.667,0,0,1,.2.48v.276a.667.667,0,0,1-.2.48.637.637,0,0,1-.474.2Z"/><path class="cls-8" d="M192.614,133.961,190.19,126.5a.455.455,0,0,1,.065-.444.477.477,0,0,1,.4-.2h.8a.857.857,0,0,1,.54.186.846.846,0,0,1,.313.474l1.571,6.132c0,.008,0,.012.013.012a.011.011,0,0,0,.012-.012l1.62-6.132a.843.843,0,0,1,.311-.474.859.859,0,0,1,.54-.186h.756a.477.477,0,0,1,.4.2.458.458,0,0,1,.066.444l-2.425,7.464a.867.867,0,0,1-.33.468.921.921,0,0,1-.558.18H193.5a.9.9,0,0,1-.545-.18A.926.926,0,0,1,192.614,133.961Z"/><path class="cls-8" d="M200.415,134.609a.636.636,0,0,1-.474-.2.663.663,0,0,1-.2-.48v-7.392a.663.663,0,0,1,.2-.48.636.636,0,0,1,.474-.2h4.248a.637.637,0,0,1,.473.2.667.667,0,0,1,.2.48v.276a.667.667,0,0,1-.2.48.637.637,0,0,1-.473.2h-2.785a.084.084,0,0,0-.095.1v1.584c0,.072.031.108.095.108h2.544a.64.64,0,0,1,.475.2.666.666,0,0,1,.2.48v.18a.666.666,0,0,1-.2.48.64.64,0,0,1-.475.2h-2.544a.084.084,0,0,0-.095.1v1.944a.084.084,0,0,0,.095.1h2.785a.637.637,0,0,1,.473.2.667.667,0,0,1,.2.48v.276a.667.667,0,0,1-.2.48.637.637,0,0,1-.473.2Z"/><path class="cls-9" d="M186.985,118.711l3.858-.528-2.271-3.515-2.077,3.28A.5.5,0,0,0,186.985,118.711Z"/><path class="cls-10" d="M238.916,76.681,194.57,105.343a1,1,0,0,0-.3.307l-1.192,1.893a.916.916,0,0,0,.118.74c.413.641,1.185.355,1.767.562l46.508-30.059L240.3,76.978A1,1,0,0,0,238.916,76.681Z"/><path class="cls-10" d="M245.316,84.741l-47.335,30.593c.581.2,1.348-.079,1.76.558a1.109,1.109,0,0,1,.016,1.075l1.676-.226a.989.989,0,0,0,.409-.151l44.344-28.66a1,1,0,0,0,.3-1.383Z"/><path class="cls-11" d="M241.467,78.786l-46.508,30.059a.886.886,0,0,1,.464.365c.539.836-.612,1.579-.072,2.415s1.691.091,2.231.926-.611,1.58-.071,2.415a.882.882,0,0,0,.47.368l47.335-30.593Z"/><path class="cls-12" d="M199.751,115.886c-.54-.836-1.674-.1-2.214-.938s.594-1.569.054-2.4-1.674-.1-2.214-.937.594-1.569.054-2.405-1.675-.1-2.214-.937a.928.928,0,0,1-.122-.739l-4.519,7.14,2.272,3.515,8.926-1.224A1.11,1.11,0,0,0,199.751,115.886Z"/><path class="cls-13" d="M61.1,210.173a1,1,0,0,1-.721-.3.955.955,0,0,1-.3-.711v-.5a1.044,1.044,0,0,1,1.026-1.026h7.542c.107,0,.162-.048.162-.144v-1.44a1.014,1.014,0,0,1,1.008-1.008h.792a1.006,1.006,0,0,1,.72.3.957.957,0,0,1,.3.711v1.44c0,.1.055.144.162.144h2.269a1.044,1.044,0,0,1,1.025,1.026v.5a.955.955,0,0,1-.3.711,1,1,0,0,1-.72.3H71.792a.144.144,0,0,0-.162.162v6.552q0,.81-.026,1.287a3.3,3.3,0,0,1-.171.891,1.6,1.6,0,0,1-.324.594,1.511,1.511,0,0,1-.594.315,3.48,3.48,0,0,1-.883.162q-.467.027-1.277.027-.378,0-1.962-.108a.953.953,0,0,1-.711-.342.989.989,0,0,1-.243-.756l.036-.522a.99.99,0,0,1,.342-.684.923.923,0,0,1,.72-.234c.8.06,1.314.09,1.53.09a.56.56,0,0,0,.738-.738v-3.888q0-.036-.045-.054a.07.07,0,0,0-.081.018,47.1,47.1,0,0,1-6.48,4.806.928.928,0,0,1-.765.1.964.964,0,0,1-.6-.477l-.306-.522a1.017,1.017,0,0,1-.09-.774,1,1,0,0,1,.468-.63,42.177,42.177,0,0,0,6.912-5.166c.023-.048.006-.084-.054-.108Z"/><path class="cls-13" d="M79.911,208.841a.963.963,0,0,1-.432-1.332l.414-.81a1.017,1.017,0,0,1,.6-.512,1.065,1.065,0,0,1,.8.044q1.854.882,3.8,1.89a.9.9,0,0,1,.5.594.994.994,0,0,1-.081.774l-.469.81a1.037,1.037,0,0,1-1.385.414Q81.783,209.741,79.911,208.841Zm12.78-.882a1.009,1.009,0,0,1,.648.441.963.963,0,0,1,.144.765,13.033,13.033,0,0,1-4.167,7.362,15.841,15.841,0,0,1-8.469,3.294,1.021,1.021,0,0,1-.774-.207,1.056,1.056,0,0,1-.414-.693l-.126-.828a.893.893,0,0,1,.18-.729.96.96,0,0,1,.666-.387,13.68,13.68,0,0,0,6.849-2.61,10.764,10.764,0,0,0,3.465-5.814,1.041,1.041,0,0,1,.459-.639.978.978,0,0,1,.764-.135Z"/><path class="cls-13" d="M98.012,213.287a1.044,1.044,0,0,1-1.026-1.026V211.7a1.044,1.044,0,0,1,1.026-1.026h12.294a.994.994,0,0,1,.729.3.932.932,0,0,1,.279.729,8.049,8.049,0,0,1-2.7,6.129q-2.54,2.151-7.668,2.565a1.069,1.069,0,0,1-.775-.234,1.17,1.17,0,0,1-.431-.7l-.109-.594a.872.872,0,0,1,.181-.72.909.909,0,0,1,.666-.36,12.591,12.591,0,0,0,5.1-1.323,5.05,5.05,0,0,0,2.457-3.051q.036-.126-.108-.126Zm1.278-7.344h9.972a.956.956,0,0,1,.711.306,1,1,0,0,1,.3.72v.576a1.014,1.014,0,0,1-1.008,1.008H99.29a1.014,1.014,0,0,1-1.008-1.008v-.576a1,1,0,0,1,.3-.72A.955.955,0,0,1,99.29,205.943Z"/><path class="cls-13" d="M115.564,213.737l-.126-.684a.922.922,0,0,1,.18-.747,1.1,1.1,0,0,1,.666-.423,26.088,26.088,0,0,0,6.308-2.007,22.968,22.968,0,0,0,5.356-3.393,1.049,1.049,0,0,1,.737-.252.911.911,0,0,1,.685.342l.45.5a.967.967,0,0,1,.252.747,1.044,1.044,0,0,1-.361.711,24.319,24.319,0,0,1-4.212,2.9.267.267,0,0,0-.143.234v7.74a.957.957,0,0,1-.307.711,1,1,0,0,1-.719.3h-1.1a1.016,1.016,0,0,1-1.009-1.008v-6.264a.111.111,0,0,0-.045-.09.1.1,0,0,0-.1-.018,28.18,28.18,0,0,1-5.329,1.53.993.993,0,0,1-.764-.171A.971.971,0,0,1,115.564,213.737Z"/><path class="cls-13" d="M135.091,208.841a.962.962,0,0,1-.431-1.332l.414-.81a1.018,1.018,0,0,1,.6-.512,1.068,1.068,0,0,1,.8.044q1.852.882,3.8,1.89a.9.9,0,0,1,.495.594.994.994,0,0,1-.081.774l-.469.81a1.038,1.038,0,0,1-1.386.414Q136.963,209.741,135.091,208.841Zm12.781-.882a1.009,1.009,0,0,1,.648.441.967.967,0,0,1,.144.765,13.033,13.033,0,0,1-4.167,7.362,15.845,15.845,0,0,1-8.469,3.294,1.024,1.024,0,0,1-.775-.207,1.064,1.064,0,0,1-.414-.693l-.126-.828a.893.893,0,0,1,.181-.729.96.96,0,0,1,.666-.387,13.68,13.68,0,0,0,6.849-2.61,10.763,10.763,0,0,0,3.464-5.814,1.048,1.048,0,0,1,.459-.639.981.981,0,0,1,.765-.135Z"/><path class="cls-13" d="M152.057,213.737l-.126-.684a.922.922,0,0,1,.18-.747,1.1,1.1,0,0,1,.666-.423,26.088,26.088,0,0,0,6.308-2.007,22.947,22.947,0,0,0,5.356-3.393,1.049,1.049,0,0,1,.737-.252.909.909,0,0,1,.685.342l.45.5a.967.967,0,0,1,.252.747,1.047,1.047,0,0,1-.36.711,24.4,24.4,0,0,1-4.212,2.9.266.266,0,0,0-.144.234v7.74a.953.953,0,0,1-.307.711,1,1,0,0,1-.719.3h-1.1a1.016,1.016,0,0,1-1.009-1.008v-6.264a.108.108,0,0,0-.045-.09.1.1,0,0,0-.1-.018,28.191,28.191,0,0,1-5.328,1.53,1,1,0,0,1-.765-.171A.974.974,0,0,1,152.057,213.737Z"/><path class="cls-13" d="M168.168,216.365a.989.989,0,0,1-.233-1.4q2.159-3.024,2.214-3.1.774-1.116,1.116-1.6t.792-1.053a6.256,6.256,0,0,1,.639-.729,2.884,2.884,0,0,1,.531-.342,1.561,1.561,0,0,1,.585-.2q.243-.018.692-.018a3.366,3.366,0,0,1,1.324.216,3.789,3.789,0,0,1,1.035.72q.54.5,2,2.088,3.492,3.762,5.13,5.436a1.045,1.045,0,0,1,0,1.476l-.72.738a.975.975,0,0,1-.711.306,1,1,0,0,1-.711-.288q-2.556-2.628-5.166-5.544-1.116-1.242-1.513-1.629a1.083,1.083,0,0,0-.666-.387c-.143,0-.327.144-.548.432s-.622.858-1.2,1.71q-1.1,1.656-2.411,3.438a1.023,1.023,0,0,1-.676.414.964.964,0,0,1-.764-.18Zm10.674-10.278a1.028,1.028,0,0,1,1.387.432q.34.594.72,1.368a.942.942,0,0,1,.062.774.956.956,0,0,1-.513.576l-.179.09a.965.965,0,0,1-.783.063,1.022,1.022,0,0,1-.6-.513q-.108-.234-.36-.684t-.361-.666a.974.974,0,0,1-.081-.765.891.891,0,0,1,.5-.584Zm4.536-.288q.5.936.756,1.422a.982.982,0,0,1-.449,1.35l-.234.126a1.058,1.058,0,0,1-1.386-.468l-.756-1.4a.922.922,0,0,1-.072-.756.988.988,0,0,1,.5-.593l.252-.108a1.021,1.021,0,0,1,1.385.431Z"/><path class="cls-13" d="M188.782,208.841a.963.963,0,0,1-.432-1.332l.414-.81a1.017,1.017,0,0,1,.6-.512,1.065,1.065,0,0,1,.8.044q1.854.882,3.8,1.89a.9.9,0,0,1,.5.594.989.989,0,0,1-.081.774l-.468.81a1.039,1.039,0,0,1-1.386.414Q190.654,209.741,188.782,208.841Zm12.78-.882a1.009,1.009,0,0,1,.648.441.959.959,0,0,1,.144.765,13.033,13.033,0,0,1-4.167,7.362,15.841,15.841,0,0,1-8.469,3.294,1.021,1.021,0,0,1-.774-.207,1.06,1.06,0,0,1-.414-.693l-.126-.828a.893.893,0,0,1,.18-.729.96.96,0,0,1,.666-.387,13.68,13.68,0,0,0,6.849-2.61,10.764,10.764,0,0,0,3.465-5.814,1.045,1.045,0,0,1,.459-.639.98.98,0,0,1,.765-.135Z"/><path class="cls-13" d="M208.235,220.505a1.045,1.045,0,0,1-1.027-1.026v-12.96a1.044,1.044,0,0,1,1.027-1.025h1.025a.956.956,0,0,1,.711.305,1,1,0,0,1,.3.72v3.78a.186.186,0,0,0,.162.2q4.23,1.044,8.55,2.556a1.028,1.028,0,0,1,.648,1.314l-.288.81a.992.992,0,0,1-.5.576.969.969,0,0,1-.755.054q-3.69-1.314-7.668-2.34c-.1-.024-.145.018-.145.126v5.886a1,1,0,0,1-.3.72.953.953,0,0,1-.711.306Z"/><path class="cls-13" d="M224.494,208.985a.956.956,0,0,1-.711-.306,1,1,0,0,1-.3-.72v-.27a1,1,0,0,1,.3-.72.956.956,0,0,1,.711-.306h2.61a.21.21,0,0,0,.216-.144c.024-.06.069-.18.135-.359s.117-.318.153-.414a1.179,1.179,0,0,1,.513-.658,1.133,1.133,0,0,1,.8-.152l.864.162a.832.832,0,0,1,.594.4.822.822,0,0,1,.072.711c-.012.036-.034.09-.063.162s-.052.126-.063.162c-.024.084.011.126.108.126h6.12a1.045,1.045,0,0,1,1.026,1.026v.27a1.045,1.045,0,0,1-1.026,1.026h-7.092a.211.211,0,0,0-.216.126q-.432.918-.45.954v.036h.035a4.54,4.54,0,0,1,1.513-.288,3.47,3.47,0,0,1,3.42,1.962.165.165,0,0,0,.216.108q1.1-.234,2.484-.4a1,1,0,0,1,1.116.9l.036.342a1.027,1.027,0,0,1-.225.747.991.991,0,0,1-.675.387q-.972.144-2.16.36a.147.147,0,0,0-.126.2q.108,1.062.108,1.242a.925.925,0,0,1-.289.72.983.983,0,0,1-.719.306h-.865a1,1,0,0,1-.719-.3,1.022,1.022,0,0,1-.324-.711,4.8,4.8,0,0,0-.018-.486.106.106,0,0,0-.054-.09.119.119,0,0,0-.108-.018q-2.268.882-2.268,1.728a1.025,1.025,0,0,0,.72.963,8.088,8.088,0,0,0,2.79.315,28.967,28.967,0,0,0,3.528-.306.961.961,0,0,1,.746.207.925.925,0,0,1,.37.675l.036.432a1.057,1.057,0,0,1-.225.756.98.98,0,0,1-.675.4,32.963,32.963,0,0,1-3.78.216,10.735,10.735,0,0,1-4.914-.828,2.717,2.717,0,0,1-1.494-2.538,3.4,3.4,0,0,1,1.152-2.448,9.283,9.283,0,0,1,3.456-1.944q.144-.072.054-.18a1.61,1.61,0,0,0-1.315-.522,2.709,2.709,0,0,0-1.583.567,10.492,10.492,0,0,0-1.944,2.061,1.141,1.141,0,0,1-.693.45,1.1,1.1,0,0,1-.8-.126l-.522-.288a.871.871,0,0,1-.45-.594.9.9,0,0,1,.144-.738,32.98,32.98,0,0,0,2.466-4.23q.072-.126-.09-.126Z"/><path class="cls-13" d="M106.433,235.181l-.216-.468a1.1,1.1,0,0,1,.487-1.422,26.466,26.466,0,0,0,5.309-3.78,2.483,2.483,0,0,1,1.746-.684h1.62a2.511,2.511,0,0,1,1.764.7,26.473,26.473,0,0,0,5.31,3.78,1.018,1.018,0,0,1,.513.6,1.066,1.066,0,0,1-.045.8l-.215.468a.961.961,0,0,1-.568.513.925.925,0,0,1-.747-.045,27.756,27.756,0,0,1-6.714-4.914.135.135,0,0,0-.216,0,27.769,27.769,0,0,1-6.713,4.914.928.928,0,0,1-.748.045A.956.956,0,0,1,106.433,235.181Zm3.672.63a1.044,1.044,0,0,1,1.026,1.026v5.472q0,.144.162.144h2.142q.162,0,.162-.144v-8.568a1.045,1.045,0,0,1,1.026-1.026h.81a1.045,1.045,0,0,1,1.026,1.026v2.9c0,.1.054.144.163.144h4.229a1.045,1.045,0,0,1,1.026,1.026v.306a.956.956,0,0,1-.306.711,1,1,0,0,1-.72.3h-4.229a.144.144,0,0,0-.163.162v3.024c0,.1.054.144.163.144h5.111a1.045,1.045,0,0,1,1.026,1.026v.378a1.045,1.045,0,0,1-1.026,1.026H107.405a1.045,1.045,0,0,1-1.026-1.026v-.378a1.045,1.045,0,0,1,1.026-1.026h.792a.127.127,0,0,0,.144-.144v-5.472a1.045,1.045,0,0,1,1.027-1.026Z"/><path class="cls-13" d="M126.812,231.545a.958.958,0,0,1-.711-.306,1,1,0,0,1-.3-.72v-.306a1.014,1.014,0,0,1,1.008-1.008H141.1a1.016,1.016,0,0,1,1.009,1.008v.306a1,1,0,0,1-.3.72.955.955,0,0,1-.711.306H135.38a.127.127,0,0,0-.143.144v.846a.127.127,0,0,0,.143.144h2.214a1.047,1.047,0,0,1,1.027,1.026v6.678a1.047,1.047,0,0,1-1.027,1.026h-7.271a1.045,1.045,0,0,1-1.027-1.026v-6.678a1.045,1.045,0,0,1,1.027-1.026h2.214a.127.127,0,0,0,.143-.144v-.846a.127.127,0,0,0-.143-.144Zm.883,1.674a1.044,1.044,0,0,1,1.025,1.026v7.722c0,.1.055.144.162.144h10.153c.107,0,.162-.048.162-.144v-7.722a1.044,1.044,0,0,1,1.025-1.026h.54a1.047,1.047,0,0,1,1.027,1.026v9.774a1.047,1.047,0,0,1-1.027,1.026h-.882a.675.675,0,0,1-.683-.684.1.1,0,0,0-.109-.108H128.829a.1.1,0,0,0-.109.108.676.676,0,0,1-.683.684h-.882a1.045,1.045,0,0,1-1.027-1.026v-9.774a1.045,1.045,0,0,1,1.027-1.026Zm4.985,2.772v-1.152a.127.127,0,0,0-.143-.144h-.775c-.107,0-.162.048-.162.144v1.152a.144.144,0,0,0,.162.162h.775C132.632,236.153,132.68,236.1,132.68,235.991Zm0,3.258v-1.206c0-.108-.048-.162-.143-.162h-.775a.144.144,0,0,0-.162.162v1.206c0,.1.055.144.162.144h.775A.127.127,0,0,0,132.68,239.249Zm2.557-4.41v1.152c0,.108.048.162.143.162h.775a.143.143,0,0,0,.161-.162v-1.152c0-.1-.054-.144-.161-.144h-.775A.127.127,0,0,0,135.237,234.839Zm0,3.2v1.206a.127.127,0,0,0,.143.144h.775c.107,0,.161-.048.161-.144v-1.206a.143.143,0,0,0-.161-.162h-.775C135.285,237.881,135.237,237.935,135.237,238.043Z"/><path class="cls-13" d="M148.5,238.763a1.012,1.012,0,0,1-1.007-1.008v-1.512a1.012,1.012,0,0,1,1.007-1.008h1.512a1.014,1.014,0,0,1,1.008,1.008v1.512a1.014,1.014,0,0,1-1.008,1.008Z"/><path class="cls-13" d="M156.765,236.783l-.234-.522a1.1,1.1,0,0,1-.018-.81,1.056,1.056,0,0,1,.522-.612q.522-.288,1.3-.738.126-.072.018-.18-.378-.378-1.1-1.062a.978.978,0,0,1,0-1.386l.612-.576a.722.722,0,0,1,.5-.2.661.661,0,0,1,.486.2q.072.036.072-.036v-.828a1.045,1.045,0,0,1,1.026-1.026h5.112a1.757,1.757,0,0,1,1.548.846q.252.4.4.576.072.108.2-.018l.54-.7a1.16,1.16,0,0,1,.666-.432,1.047,1.047,0,0,1,.774.126l.306.18a.907.907,0,0,1,.441.63.961.961,0,0,1-.153.756q-.415.558-.972,1.206a.137.137,0,0,0,.036.216c.239.216.42.372.54.468q.144.108.216,0,.324-.4.81-1.044a1.093,1.093,0,0,1,.674-.432,1,1,0,0,1,.784.144l.288.18a.937.937,0,0,1,.45.621.915.915,0,0,1-.145.747q-.34.486-.881,1.116-.108.144.018.2.072.036.342.2t.432.252a1.136,1.136,0,0,1,.522.621,1.082,1.082,0,0,1-.019.8l-.233.522a.864.864,0,0,1-.549.5.906.906,0,0,1-.747-.072,23.631,23.631,0,0,1-3.366-2.376.07.07,0,0,0-.081-.018q-.045.018-.045.054a.96.96,0,0,1-.333.657,1.019,1.019,0,0,1-.693.261h-4.248a1.017,1.017,0,0,1-.693-.261.96.96,0,0,1-.333-.657q0-.036-.045-.054a.07.07,0,0,0-.081.018,23.976,23.976,0,0,1-3.384,2.394.865.865,0,0,1-.738.063A.894.894,0,0,1,156.765,236.783Zm3.6,5.922q.144,0,.108-.162c-.1-.312-.216-.684-.36-1.116a.2.2,0,0,0-.2-.144h-.234a1,1,0,0,1-.72-.3.956.956,0,0,1-.306-.711v-2.718a1.045,1.045,0,0,1,1.026-1.026h10.044a1.044,1.044,0,0,1,1.025,1.026v2.718a.955.955,0,0,1-.305.711,1,1,0,0,1-.72.3h-.252a.2.2,0,0,0-.2.144c-.109.264-.282.648-.522,1.152a.081.081,0,0,0,.009.081.088.088,0,0,0,.081.045h3.024a1,1,0,0,1,.719.3.957.957,0,0,1,.307.711v.252a.957.957,0,0,1-.307.711,1,1,0,0,1-.719.3H157.539a1,1,0,0,1-.72-.3.956.956,0,0,1-.306-.711v-.252a.956.956,0,0,1,.306-.711,1,1,0,0,1,.72-.3Zm-1.026-11.5c-.024,0-.043.018-.054.054s-.006.06.018.072l1.188,1.134a.154.154,0,0,0,.234,0,14.178,14.178,0,0,0,1.188-1.134q.036-.018.018-.072c-.013-.036-.03-.054-.054-.054Zm2.232,7.434v.684q0,.162.144.162h5.976c.1,0,.143-.054.143-.162v-.684c0-.108-.047-.162-.143-.162h-5.976Q161.571,238.475,161.571,238.637Zm3.042-7.11a22.269,22.269,0,0,1-1.692,1.926q-.036.072.054.108h3.456q.036,0,.054-.045t0-.063a18.978,18.978,0,0,1-1.692-1.944Q164.7,231.419,164.613,231.527Zm1.728,9.9c.048-.1.018-.144-.091-.144h-3.113q-.146,0-.108.144c.108.324.221.7.342,1.116a.185.185,0,0,0,.2.162h2a.21.21,0,0,0,.216-.144Q166.035,242.111,166.341,241.427Z"/><path class="cls-13" d="M175.939,233.849l-.126-.72a1.755,1.755,0,0,1,.611-1.656,12.064,12.064,0,0,0,1.567-1.71,1.963,1.963,0,0,1,1.62-.81h.5a2.365,2.365,0,0,1,1.727.738,12.4,12.4,0,0,0,1.242,1.1,1.052,1.052,0,0,1,.423.675,1.03,1.03,0,0,1-.152.783l-.54.81a.56.56,0,0,0-.072.288v.072a1.045,1.045,0,0,1-1.027,1.026h-.557a.128.128,0,0,0-.145.144v.882a.128.128,0,0,0,.145.144h.828a.986.986,0,0,1,.773.378c.025.024.045.03.064.018a.063.063,0,0,0,.027-.054v-.18a1.045,1.045,0,0,1,1.025-1.026H188.5c.109,0,.163-.048.163-.144v-.378c0-.1-.054-.144-.163-.144H184.38a1.008,1.008,0,0,1,0-2.016H188.5a.144.144,0,0,0,.163-.162v-.342a.144.144,0,0,0-.163-.162h-4.3a1.047,1.047,0,0,1-1.027-1.026v-.252a.957.957,0,0,1,.307-.711,1,1,0,0,1,.72-.3h6.3a1,1,0,0,1,.72.3.957.957,0,0,1,.307.711v4.482a.127.127,0,0,0,.143.144.952.952,0,0,1,.972.972v.324a.956.956,0,0,1-.306.711,1,1,0,0,1-.719.3h-2.5a.1.1,0,0,0-.09.054.12.12,0,0,0-.019.108c.193.444.42.906.685,1.386.048.084.113.1.2.036.385-.312.672-.552.864-.72a.986.986,0,0,1,.72-.252.853.853,0,0,1,.666.342l.091.09a1.149,1.149,0,0,1,.252.783.992.992,0,0,1-.343.729q-.684.612-1.044.9a.142.142,0,0,0-.017.216,15.39,15.39,0,0,0,1.242,1.4,1.149,1.149,0,0,1,.342.729,1.1,1.1,0,0,1-.216.765l-.414.522a.847.847,0,0,1-.658.342.764.764,0,0,1-.657-.288,14.644,14.644,0,0,1-1.836-2.9.058.058,0,0,0-.045-.018c-.017,0-.027.012-.027.036v.54q0,.846-.018,1.314a3.839,3.839,0,0,1-.134.891,1.514,1.514,0,0,1-.271.594,1.285,1.285,0,0,1-.512.306,2.687,2.687,0,0,1-.765.162q-.407.027-1.125.027c-.252,0-.481-.006-.685-.018a1.188,1.188,0,0,1-.756-.333,1.06,1.06,0,0,1-.324-.747l-.053-.576q0-.144-.126-.054c-.121.108-.462.366-1.027.774a.9.9,0,0,1-.656.171.976.976,0,0,1-.6-.315.2.2,0,0,0-.233-.09q-2.124.486-4.3.846a.911.911,0,0,1-.747-.189,1,1,0,0,1-.387-.675l-.036-.2a.984.984,0,0,1,.2-.747,1.025,1.025,0,0,1,.666-.405c.683-.108,1.158-.186,1.421-.234a.176.176,0,0,0,.163-.18v-4.212c0-.1-.054-.144-.163-.144h-1.151a.958.958,0,0,1-.712-.306,1,1,0,0,1-.3-.72v-.162a1,1,0,0,1,.3-.72.958.958,0,0,1,.712-.306h1.151c.109,0,.163-.048.163-.144v-.882c0-.1-.054-.144-.163-.144H177.7a.432.432,0,0,1-.451-.45.05.05,0,0,0-.017-.036.022.022,0,0,0-.036,0,1.659,1.659,0,0,1-.145.126.671.671,0,0,0-.126.126.546.546,0,0,1-.594.108A.608.608,0,0,1,175.939,233.849Zm1.512,7.884a.74.74,0,0,1-.621-.135.815.815,0,0,1-.333-.549c-.061-.4-.144-.9-.252-1.512a.769.769,0,0,1,.134-.63.881.881,0,0,1,.549-.36.785.785,0,0,1,.631.126.851.851,0,0,1,.359.558q.163.918.252,1.512a.822.822,0,0,1-.152.63A.889.889,0,0,1,177.451,241.733Zm1.44-9.54c-.049.072-.03.108.054.108h2.322a.063.063,0,0,0,.054-.027c.011-.018.006-.039-.019-.063a13.536,13.536,0,0,1-1.223-1.386q-.018-.036-.09-.036t-.09.036Q179.25,231.761,178.891,232.193Zm2.268,5.634a.128.128,0,0,0-.145.144v3.708a.161.161,0,0,0,.036.1.077.077,0,0,0,.091.027q.179-.036.5-.108t.5-.108a1.471,1.471,0,0,1,.269-.018.518.518,0,0,0,.288-.054q.882-.63,1.1-.792c.1-.072.114-.15.055-.234q-.378-.63-.7-1.116c-.025-.024-.045-.03-.064-.018a.062.062,0,0,0-.026.054c-.025.216-.072.552-.145,1.008a.783.783,0,0,1-.324.522.757.757,0,0,1-.594.144.786.786,0,0,1-.521-.324.754.754,0,0,1-.145-.594c.012-.084.031-.2.055-.351s.045-.285.063-.405.033-.228.044-.324a.765.765,0,0,1,.3-.531.763.763,0,0,1,.982-.027q.089.054.126-.054a.923.923,0,0,1,.414-.648l.09-.054a1.061,1.061,0,0,1,1.439.27q.072.126.316.486t.369.558c.048.084.107.09.179.018a.671.671,0,0,1,.126-.126,1.659,1.659,0,0,0,.145-.126.348.348,0,0,0,.107-.252v-1.386c0-.108-.048-.162-.143-.162h-2.071a.969.969,0,0,1-.773-.36.045.045,0,0,0-.055-.027.043.043,0,0,0-.036.045v.09a1.045,1.045,0,0,1-1.025,1.026Zm4.931,4.374v-.468c0-.024-.014-.042-.045-.054s-.05-.006-.062.018c-.385.384-.792.756-1.225,1.116q-.035.018-.009.072c.019.036.04.054.064.054q.719.036.756.036c.252,0,.4-.036.45-.108A1.7,1.7,0,0,0,186.09,242.2Z"/><text class="cls-14" transform="translate(308.739 336.067) rotate(-50.169)">S</text><text class="cls-14" transform="translate(314.824 328.742) rotate(-40.098)">E</text><text class="cls-14" transform="matrix(0.858, -0.514, 0.514, 0.858, 321.412, 323.171)">L</text><text class="cls-14" transform="translate(328.276 318.984) rotate(-21.697)">E</text><text class="cls-14" transform="matrix(0.979, -0.204, 0.204, 0.979, 336.125, 315.737)">C</text><text class="cls-14" transform="translate(345.688 313.765) rotate(-1.678)">T</text><text class="cls-14" transform="matrix(0.995, 0.097, -0.097, 0.995, 354.367, 313.638)">!</text></svg>