<svg id="レイヤー_1" data-name="レイヤー 1" xmlns="http://www.w3.org/2000/svg" viewBox="0 0 150 120"><defs><style>.cls-1{fill:#fff;}.cls-2{fill:#7d8d96;}.cls-3{fill:#f76b6b;}.cls-4{fill:#3c5868;}.cls-5{fill:#637986;}.cls-6{fill:#fde3ab;}.cls-7{fill:#f6cc02;}.cls-8{fill:#f7f5f1;}</style></defs><rect class="cls-1" x="30" y="15.927" width="89.205" height="104.073"/><rect class="cls-2" x="37.929" y="70.457" width="33.7" height="2.169"/><rect class="cls-2" x="37.929" y="66.119" width="33.7" height="2.169"/><rect class="cls-2" x="37.929" y="61.781" width="33.7" height="2.169"/><rect class="cls-2" x="37.929" y="57.442" width="33.7" height="2.169"/><rect class="cls-2" x="37.929" y="53.104" width="33.7" height="2.169"/><rect class="cls-2" x="37.929" y="48.766" width="33.7" height="2.169"/><rect class="cls-2" x="37.929" y="44.427" width="33.7" height="2.169"/><rect class="cls-2" x="37.929" y="40.089" width="33.7" height="2.169"/><rect class="cls-2" x="37.929" y="110.587" width="33.7" height="2.169"/><rect class="cls-2" x="37.929" y="106.249" width="33.7" height="2.169"/><rect class="cls-2" x="37.929" y="101.91" width="33.7" height="2.169"/><rect class="cls-2" x="37.929" y="97.572" width="33.7" height="2.169"/><rect class="cls-2" x="37.929" y="93.234" width="33.7" height="2.169"/><rect class="cls-2" x="37.929" y="88.895" width="33.7" height="2.169"/><rect class="cls-2" x="37.929" y="84.557" width="33.7" height="2.169"/><rect class="cls-2" x="37.929" y="80.219" width="33.7" height="2.169"/><rect class="cls-2" x="77.576" y="110.587" width="33.7" height="2.169"/><rect class="cls-2" x="77.576" y="106.249" width="33.7" height="2.169"/><rect class="cls-2" x="77.576" y="101.91" width="33.7" height="2.169"/><rect class="cls-2" x="77.576" y="97.572" width="33.7" height="2.169"/><rect class="cls-2" x="77.576" y="93.234" width="33.7" height="2.169"/><rect class="cls-2" x="77.576" y="88.895" width="33.7" height="2.169"/><rect class="cls-2" x="77.576" y="84.557" width="33.7" height="2.169"/><rect class="cls-2" x="77.576" y="80.219" width="33.7" height="2.169"/><rect class="cls-2" x="37.929" y="35.751" width="73.347" height="2.169"/><rect class="cls-2" x="37.929" y="74.796" width="73.347" height="2.169"/><path class="cls-3" d="M88.694,60.307l-2.082,6.9H83.935l6.81-21.929h3.121l6.84,21.929H97.941l-2.141-6.9Zm6.57-2.212L93.3,51.782c-.446-1.431-.743-2.733-1.04-4H92.2c-.3,1.3-.625,2.635-1.011,3.969L89.228,58.1Z"/><path class="cls-4" d="M147.229,38.475q-6.833,6.834-13.666,13.667T119.9,65.809Q113.589,59.5,107.28,53.193l13.667-13.666q6.834-6.834,13.667-13.667c.241-.241.487-.461.734-.668L147.9,37.741C147.69,37.988,147.471,38.234,147.229,38.475Z"/><path class="cls-5" d="M137.418,28.663,123.751,42.33Q116.919,49.164,110.083,56l-2.8-2.8,13.667-13.666q6.834-6.834,13.667-13.667c.241-.241.476-.471.708-.693l2.789,2.788C137.888,28.187,137.658,28.422,137.418,28.663Z"/><path class="cls-5" d="M144.426,35.672,130.759,49.339,117.092,63.005q-1.4-1.4-2.8-2.8,6.834-6.832,13.666-13.667l13.668-13.666c.241-.242.476-.471.708-.694l2.788,2.789C144.9,35.2,144.668,35.431,144.426,35.672Z"/><path class="cls-3" d="M135.348,25.192c4.068-3.405,8.908-2.3,11.881.668s4.073,7.813.668,11.881Z"/><polygon class="cls-2" points="103.076 70.014 104.758 63.286 109.804 68.332 103.076 70.014"/><polygon class="cls-6" points="104.758 63.286 107.28 53.193 119.896 65.809 109.804 68.332 104.758 63.286"/><polygon class="cls-7" points="41.765 0 41.765 28.914 34.09 28.914 36.767 35.697 29.271 28.914 0 28.914 0 0 41.765 0"/><rect class="cls-8" x="7.496" y="6.425" width="27.843" height="2.142"/><rect class="cls-8" x="7.496" y="12.851" width="27.843" height="2.142"/><rect class="cls-8" x="7.496" y="19.276" width="27.843" height="2.142"/></svg>