<svg id="レイヤー_1" data-name="レイヤー 1" xmlns="http://www.w3.org/2000/svg" xmlns:xlink="http://www.w3.org/1999/xlink" viewBox="0 0 300 300"><defs><style>.cls-1,.cls-35{fill:none;}.cls-2{fill:#fff;}.cls-3{fill:#ff801e;}.cls-4{fill:#333;}.cls-5{fill:#e8b778;}.cls-6{fill:#f8ce90;}.cls-7{fill:#c59d62;}.cls-8{fill:#aa68a4;}.cls-9{fill:#fac83b;}.cls-10{fill:#fad469;}.cls-11{fill:#f4c980;}.cls-12{fill:#f7d9a6;}.cls-13{fill:#925075;}.cls-14{fill:#a06584;}.cls-15{fill:#008445;}.cls-16{fill:#009045;}.cls-17{fill:#d23e36;}.cls-18{fill:#f8bf00;}.cls-19{fill:#f29e00;}.cls-20{fill:#56bd47;}.cls-21{fill:#ff5050;}.cls-22{fill:#7d7c2d;}.cls-23{fill:#908f37;}.cls-24{fill:#6d6e2c;}.cls-25{fill:#9b6024;}.cls-26{fill:#b4702d;}.cls-27{fill:#865424;}.cls-28{fill:#cb7b1e;}.cls-29{fill:#d88921;}.cls-30{fill:#b8711f;}.cls-31{fill:#e5bc9a;}.cls-32{fill:#e1af86;}.cls-33{fill:#b1b1b1;}.cls-34{clip-path:url(#clip-path);}.cls-35{stroke:#fff;stroke-linecap:round;stroke-linejoin:round;stroke-width:2.86px;}.cls-36{fill:#f9d39c;}.cls-37{fill:#f7c883;}.cls-38{fill:#f1c4a0;}.cls-39{fill:#fae5c5;}.cls-40{fill:#f0f0f0;}.cls-41{fill:#00a7c0;}.cls-42{fill:#008fb3;}.cls-43{fill:#ffd71e;}</style><clipPath id="clip-path"><path class="cls-1" d="M174.4,152.222c.188-3.646,1.013-13.962,1.68-16.5.847-3.224,1.588-6.342,2.394-9.018a14.359,14.359,0,0,1,3.3-5.557,11.826,11.826,0,0,1,4.795-2.854c2.108-.805,4.617-1.8,7.08-2.794,1.822-.736,4.927-2.093,7.09-3.037.761-.333,1.4-.614,1.837-.8A22.42,22.42,0,0,1,214,113.02a22.424,22.424,0,0,1,11.414-1.361c.431.185,1.076.466,1.836.8,2.164.944,5.269,2.3,7.091,3.037,2.463.995,4.972,1.989,7.08,2.794a11.826,11.826,0,0,1,4.795,2.854,9.957,9.957,0,0,1,2.934,4.637c.805,2.676,1.946,6.543,2.891,9.938.706,2.531,1.492,12.858,1.681,16.5h-14.31l-2,24.966h-45.9l-2.548-24.966Z"/></clipPath></defs><circle class="cls-2" cx="150" cy="150" r="147.5"/><path class="cls-3" d="M150,5A145,145,0,0,1,252.531,252.531,145,145,0,1,1,47.47,47.469,144.051,144.051,0,0,1,150,5m0-5A150,150,0,1,0,300,150,150,150,0,0,0,150,0Z"/><circle class="cls-3" cx="35" cy="35" r="35"/><path class="cls-2" d="M12.877,39.588V30.454c0-6.048,4.053-10.269,9.912-10.269,5.795,0,9.911,4.221,9.911,10.269v9.134c0,6.027-4.116,10.227-9.911,10.227C16.93,49.815,12.877,45.615,12.877,39.588Zm14.028-.252v-8.63c0-3.78-1.891-4.956-4.116-4.956-2.268,0-4.116,1.176-4.116,4.977v8.588c0,3.759,1.911,4.935,4.116,4.935C24.972,44.25,26.905,43.074,26.905,39.336Z"/><path class="cls-2" d="M54.86,38.118a2.186,2.186,0,0,1,2.263,2.5v.252c0,1.6-.8,2.541-2.252,2.541H53.805v3.78a2.361,2.361,0,0,1-2.625,2.625h-.336c-1.7,0-2.625-.84-2.625-2.373V43.389H38.392a2.361,2.361,0,0,1-2.625-2.625v-.882a5.34,5.34,0,0,1,1.008-3.255L47.149,21.865a3.455,3.455,0,0,1,3.15-1.68h.881a2.361,2.361,0,0,1,2.625,2.625V38.118ZM48.219,38.1V28.039L41.122,38.1Z"/><path class="cls-4" d="M68.638,213.737l-.126-.683a.921.921,0,0,1,.179-.747,1.1,1.1,0,0,1,.666-.424,26.052,26.052,0,0,0,6.309-2.007,22.9,22.9,0,0,0,5.355-3.393,1.055,1.055,0,0,1,.738-.252.908.908,0,0,1,.684.343l.451.5a.96.96,0,0,1,.251.747,1.041,1.041,0,0,1-.36.711,24.413,24.413,0,0,1-4.212,2.9.267.267,0,0,0-.143.233v7.741a.959.959,0,0,1-.307.711,1,1,0,0,1-.72.3h-1.1a1.016,1.016,0,0,1-1.009-1.008v-6.264a.109.109,0,0,0-.045-.09.1.1,0,0,0-.1-.018,28.166,28.166,0,0,1-5.328,1.529.989.989,0,0,1-.764-.17A.973.973,0,0,1,68.638,213.737Z"/><path class="cls-4" d="M84.749,216.366a.99.99,0,0,1-.233-1.405q2.158-3.024,2.213-3.095.774-1.116,1.117-1.6t.792-1.054a6.27,6.27,0,0,1,.638-.729,2.953,2.953,0,0,1,.532-.341,1.572,1.572,0,0,1,.585-.2c.162-.011.392-.018.692-.018a3.359,3.359,0,0,1,1.323.217,3.769,3.769,0,0,1,1.035.719q.541.505,2,2.088,3.493,3.763,5.13,5.436a1.043,1.043,0,0,1,0,1.476l-.719.739a.977.977,0,0,1-.711.3,1,1,0,0,1-.711-.287q-2.556-2.628-5.166-5.545-1.116-1.24-1.513-1.629a1.088,1.088,0,0,0-.666-.386q-.216,0-.549.431t-1.2,1.71q-1.1,1.657-2.411,3.438a1.022,1.022,0,0,1-.676.414.963.963,0,0,1-.765-.179Zm10.674-10.278a1.025,1.025,0,0,1,1.387.432q.341.594.719,1.368a.982.982,0,0,1-.45,1.349l-.18.091a.973.973,0,0,1-.783.063,1.025,1.025,0,0,1-.6-.514q-.109-.233-.361-.684c-.168-.3-.288-.522-.36-.666a.967.967,0,0,1-.081-.764.893.893,0,0,1,.495-.585Zm4.536-.288q.5.936.756,1.422a.983.983,0,0,1-.449,1.349l-.235.126a1.013,1.013,0,0,1-.783.046,1.03,1.03,0,0,1-.6-.514l-.755-1.4a.923.923,0,0,1-.073-.756.987.987,0,0,1,.5-.594l.252-.108a1.024,1.024,0,0,1,1.386.432Z"/><path class="cls-4" d="M105.362,208.841a.961.961,0,0,1-.431-1.332l.414-.809a1.016,1.016,0,0,1,.6-.513,1.068,1.068,0,0,1,.8.044q1.852.883,3.8,1.891a.9.9,0,0,1,.5.593.993.993,0,0,1-.081.774l-.469.81a1.036,1.036,0,0,1-1.386.414Q107.234,209.741,105.362,208.841Zm12.781-.882a1.016,1.016,0,0,1,.648.441.969.969,0,0,1,.144.766,13.03,13.03,0,0,1-4.167,7.361,15.837,15.837,0,0,1-8.469,3.294,1.024,1.024,0,0,1-.775-.207,1.061,1.061,0,0,1-.414-.693l-.126-.828a.9.9,0,0,1,.181-.729.962.962,0,0,1,.666-.386,13.68,13.68,0,0,0,6.849-2.61,10.77,10.77,0,0,0,3.465-5.814,1.035,1.035,0,0,1,.459-.639.983.983,0,0,1,.764-.136Z"/><path class="cls-4" d="M124.815,220.505a1.044,1.044,0,0,1-1.026-1.026V206.52a1.045,1.045,0,0,1,1.026-1.026h1.026a.956.956,0,0,1,.711.306,1,1,0,0,1,.3.72V210.3a.185.185,0,0,0,.162.2q4.23,1.043,8.55,2.556a1.029,1.029,0,0,1,.648,1.314l-.288.81a1,1,0,0,1-.5.575.967.967,0,0,1-.756.055q-3.69-1.314-7.668-2.341c-.1-.024-.144.018-.144.126v5.886a1,1,0,0,1-.3.721.959.959,0,0,1-.711.305Z"/><path class="cls-4" d="M140.854,220.523a1.014,1.014,0,0,1-1.009-1.007v-.235a1.016,1.016,0,0,1,1.009-1.008h10.907c.095,0,.144-.053.144-.162v-1.17c0-.108-.049-.162-.144-.162H141.3a1.014,1.014,0,0,1-1.008-1.008v-.089a1.008,1.008,0,0,1,.3-.721.96.96,0,0,1,.711-.306h10.458a.127.127,0,0,0,.144-.143V213.45a.128.128,0,0,0-.144-.144H140.943a.956.956,0,0,1-.711-.306,1,1,0,0,1-.3-.721v-.305a1.014,1.014,0,0,1,1.007-1.009h.936a.108.108,0,0,0,.09-.045.1.1,0,0,0,.018-.1q-.756-1.834-1.53-3.473a.82.82,0,0,1-.018-.729.868.868,0,0,1,.54-.5l.612-.2a1.159,1.159,0,0,1,.828.018,1.047,1.047,0,0,1,.594.557q.684,1.405,1.26,2.809a.955.955,0,0,1-.594,1.277l-1.026.325a.135.135,0,0,0,.018.053h3.114c.1,0,.144-.053.144-.161v-5a1.045,1.045,0,0,1,1.026-1.026h.828a1.045,1.045,0,0,1,1.026,1.026v5c0,.108.047.161.144.161h3.114c.012,0,.018-.008.018-.027s-.006-.026-.018-.026l-1.008-.325a.861.861,0,0,1-.54-.5.837.837,0,0,1,.018-.737q.72-1.55,1.224-2.916a1.089,1.089,0,0,1,.522-.621.988.988,0,0,1,.792-.081l.666.2a.9.9,0,0,1,.6.476.921.921,0,0,1,.045.765,37.594,37.594,0,0,1-1.6,3.654q-.072.144.072.144h.9a1,1,0,0,1,.72.3.955.955,0,0,1,.306.711v8.135a1.044,1.044,0,0,1-1.026,1.026h-1.332a.522.522,0,0,1-.522-.522q0-.09-.072-.09Z"/><path class="cls-4" d="M160.394,221.045a1.045,1.045,0,0,1-1.026-1.025V206.214a.956.956,0,0,1,.306-.711,1,1,0,0,1,.72-.3h11.627a1,1,0,0,1,.721.3.96.96,0,0,1,.306.711V220.02a1.045,1.045,0,0,1-1.027,1.025h-1.007a.8.8,0,0,1-.585-.242.82.82,0,0,1-.243-.6.111.111,0,0,0-.126-.126h-7.705a.111.111,0,0,0-.126.126.82.82,0,0,1-.242.6.8.8,0,0,1-.585.242Zm1.835-13.283V211.2c0,.1.055.143.163.143h7.631c.109,0,.163-.047.163-.143v-3.438c0-.1-.054-.144-.163-.144h-7.631C162.284,207.618,162.229,207.666,162.229,207.762Zm0,6.084v3.743c0,.1.055.144.163.144h7.631c.109,0,.163-.047.163-.144v-3.743a.143.143,0,0,0-.163-.162h-7.631A.143.143,0,0,0,162.229,213.846Z"/><path class="cls-4" d="M178.412,209.129a1.044,1.044,0,0,1-1.026-1.025v-.415a1.045,1.045,0,0,1,1.026-1.025h5.814a.127.127,0,0,0,.144-.144v-.414a1.045,1.045,0,0,1,1.025-1.026h.721a1.045,1.045,0,0,1,1.026,1.026v.414a.127.127,0,0,0,.144.144h3.294a1.044,1.044,0,0,1,1.025,1.025v.415a1.042,1.042,0,0,1-1.025,1.025h-3.294c-.1,0-.144.055-.144.163v.828a.127.127,0,0,0,.144.144H189.9a1.044,1.044,0,0,1,1.027,1.026v.359a1.044,1.044,0,0,1-1.027,1.026h-2.609a.127.127,0,0,0-.144.144v2.25a.267.267,0,0,0,.144.235,22.658,22.658,0,0,1,3.186,2.393.974.974,0,0,1,.341.712.964.964,0,0,1-.269.729l-.324.36a1.033,1.033,0,0,1-.7.333.923.923,0,0,1-.72-.262q-1.044-.916-1.728-1.422c-.072-.047-.12-.023-.144.073a2.96,2.96,0,0,1-1.44,1.854,6.307,6.307,0,0,1-2.97.575,4.739,4.739,0,0,1-3.087-.908,3.133,3.133,0,0,1-1.107-2.566,3.052,3.052,0,0,1,1.053-2.447,4.722,4.722,0,0,1,3.141-.9,8.027,8.027,0,0,1,1.71.2c.1.025.144-.018.144-.126v-1.08a.128.128,0,0,0-.144-.144H179.1a1.044,1.044,0,0,1-1.026-1.026v-.359a1.044,1.044,0,0,1,1.026-1.026h5.13a.127.127,0,0,0,.144-.144v-.828c0-.108-.048-.163-.144-.163Zm4.1,9.055a2.484,2.484,0,0,0,1.431-.3,1.515,1.515,0,0,0,.423-1.179.2.2,0,0,0-.126-.2,4.023,4.023,0,0,0-1.422-.287q-1.71,0-1.71.953Q181.112,218.185,182.516,218.184Z"/><path class="cls-4" d="M196.508,209.166a1.035,1.035,0,0,1-.738-.289.943.943,0,0,1-.307-.719v-.576a1.016,1.016,0,0,1,1.009-1.008q6.478-.036,12.887-.324a.952.952,0,0,1,.72.27.985.985,0,0,1,.324.7l.018.575a1.021,1.021,0,0,1-.261.747,1.105,1.105,0,0,1-.711.37,11.074,11.074,0,0,0-5.48,1.809,4.207,4.207,0,0,0-1.827,3.465,3.557,3.557,0,0,0,1.125,2.78,4.268,4.268,0,0,0,2.978,1.017,9.173,9.173,0,0,0,1.152-.071,1,1,0,0,1,.748.189.93.93,0,0,1,.386.656l.09.631a1.047,1.047,0,0,1-.207.782.984.984,0,0,1-.692.406,12.315,12.315,0,0,1-1.62.089,7.636,7.636,0,0,1-5.175-1.673,5.671,5.671,0,0,1-1.936-4.518,5.6,5.6,0,0,1,.873-2.971,7.512,7.512,0,0,1,2.44-2.412c.011,0,.017-.011.017-.035s-.006-.018-.017-.018Q199.674,209.13,196.508,209.166Zm10.223,2.051a1.011,1.011,0,0,1,.792-.071.984.984,0,0,1,.612.5c.133.241.33.613.594,1.117a.97.97,0,0,1,.037.774.993.993,0,0,1-.523.576,1.011,1.011,0,0,1-.792.035,1.055,1.055,0,0,1-.594-.522q-.09-.162-.576-1.062a.923.923,0,0,1-.072-.755.992.992,0,0,1,.5-.595Zm4.285-.216q.593,1.134.611,1.17a.983.983,0,0,1-.45,1.35l-.054.037a1.058,1.058,0,0,1-1.386-.469q-.09-.178-.288-.558c-.132-.252-.234-.437-.305-.557a.986.986,0,0,1-.082-.774.905.905,0,0,1,.5-.595l.053-.018a1.048,1.048,0,0,1,.792-.081A.964.964,0,0,1,211.016,211Z"/><path class="cls-4" d="M217.179,220.4a1.1,1.1,0,0,1-.792-.2,1.072,1.072,0,0,1-.45-.684,32.166,32.166,0,0,1,0-13.033,1.07,1.07,0,0,1,.45-.683,1.1,1.1,0,0,1,.792-.2l.845.09a.831.831,0,0,1,.631.369.913.913,0,0,1,.144.747,31.625,31.625,0,0,0,0,12.383.912.912,0,0,1-.144.747.835.835,0,0,1-.631.37Zm8.225-.576a7.047,7.047,0,0,1-4.05-1.008A3.143,3.143,0,0,1,219.9,216.1a3.643,3.643,0,0,1,.415-1.521,7.929,7.929,0,0,1,1.133-1.72.934.934,0,0,1,.712-.341,1.137,1.137,0,0,1,.782.252l.415.305a.885.885,0,0,1,.351.666,1.059,1.059,0,0,1-.225.739,2.762,2.762,0,0,0-.738,1.44,1.031,1.031,0,0,0,.63.98,4.834,4.834,0,0,0,2.033.315,17.519,17.519,0,0,0,2.952-.27.993.993,0,0,1,.756.163.945.945,0,0,1,.414.647l.073.522a1.059,1.059,0,0,1-.171.792.963.963,0,0,1-.658.433A17.369,17.369,0,0,1,225.4,219.821Zm2.809-13.05a1.045,1.045,0,0,1,1.025,1.026v.487a1.045,1.045,0,0,1-1.025,1.026h-5.742a1.049,1.049,0,0,1-1.027-1.026V207.8a1.049,1.049,0,0,1,1.027-1.026Z"/><path class="cls-4" d="M80.915,237.737a1.042,1.042,0,0,1-1.025-1.026v-.288a1.045,1.045,0,0,1,1.025-1.026h2.376A.957.957,0,0,1,84,235.7a1,1,0,0,1,.3.719v2.358a.043.043,0,0,0,.027.046.039.039,0,0,0,.045-.01,7.776,7.776,0,0,0,.621-2.232,28.8,28.8,0,0,0,.171-3.618v-2.754a.959.959,0,0,1,.306-.711,1,1,0,0,1,.72-.3h8.623a1,1,0,0,1,.719.3.959.959,0,0,1,.306.711v.162a1.044,1.044,0,0,1-1.025,1.026H87.989a.144.144,0,0,0-.162.162v1.152c0,.085.048.115.144.091a1.549,1.549,0,0,1,.288-.036h5.994a.956.956,0,0,1,.711.306,1,1,0,0,1,.3.719v.144a5.366,5.366,0,0,1-.342,1.98,12.192,12.192,0,0,1-1.656,3.042c-.06.084-.054.151.018.2a12.724,12.724,0,0,0,2,1.079.935.935,0,0,1,.5.54.884.884,0,0,1-.036.739l-.216.378a1.194,1.194,0,0,1-.63.558,1.046,1.046,0,0,1-.828-.018,13.361,13.361,0,0,1-2.7-1.477.192.192,0,0,0-.234.019,16.081,16.081,0,0,1-2.52,1.421,1.138,1.138,0,0,1-.819.055,1.2,1.2,0,0,1-.656-.5l-.307-.469a.786.786,0,0,1-.081-.719.838.838,0,0,1,.5-.523A12.507,12.507,0,0,0,89.2,239.2a.113.113,0,0,0,.018-.2,10.05,10.05,0,0,1-1.332-2,.986.986,0,0,1-.054-.8,1.129,1.129,0,0,1,.523-.621l.431-.235a.873.873,0,0,1,.739-.063,1.117,1.117,0,0,1,.575.513,9.283,9.283,0,0,0,1.009,1.458c.071.073.137.066.2-.018a9.205,9.205,0,0,0,1.188-2.124c.048-.095.018-.144-.09-.144h-4.14a1.533,1.533,0,0,1-.288-.035q-.144-.036-.144.09a11.957,11.957,0,0,1-1.422,5.921.83.83,0,0,1-1.3.163l-.576-.559-.143-.144a.082.082,0,0,0-.055-.018.032.032,0,0,0-.036.036v.595a.527.527,0,0,0,.091.287,2.323,2.323,0,0,0,1.025.891,7.038,7.038,0,0,0,2.07.406q1.44.126,4.32.126h3.546a.937.937,0,0,1,.7.3.922.922,0,0,1,.27.71l-.036.307a1.114,1.114,0,0,1-.342.729,1.024,1.024,0,0,1-.738.3H91.841a35.347,35.347,0,0,1-5.5-.324,6.216,6.216,0,0,1-2.906-1.115.193.193,0,0,0-.235-.019q-.72.612-1.494,1.152a.885.885,0,0,1-.728.144.931.931,0,0,1-.6-.449l-.27-.451a1,1,0,0,1-.117-.773,1.1,1.1,0,0,1,.459-.666q.468-.308,1.027-.738a.3.3,0,0,0,.126-.253v-3.69c0-.095-.055-.144-.163-.144Zm.2-7.956a.979.979,0,0,1,.739-.269,1,1,0,0,1,.719.323q.576.613,1.728,1.873a.95.95,0,0,1,.262.737,1.053,1.053,0,0,1-.333.721l-.307.288a.954.954,0,0,1-.72.27.987.987,0,0,1-.7-.325q-.576-.611-1.782-1.872a.981.981,0,0,1-.279-.719.96.96,0,0,1,.315-.7Z"/><path class="cls-4" d="M99.229,240.257l-.179-.863a1.3,1.3,0,0,1,.1-.837,1.446,1.446,0,0,1,.585-.64,11.008,11.008,0,0,0,4.177-3.941c.048-.073.018-.108-.091-.108h-3.437a1.047,1.047,0,0,1-1.027-1.027v-.449a1.045,1.045,0,0,1,1.027-1.026h1.439c.109,0,.162-.048.162-.144V229.8a1,1,0,0,1,.3-.719.953.953,0,0,1,.711-.307h.612a1.047,1.047,0,0,1,1.026,1.026v1.423q0,.144.162.144h1.151a1.044,1.044,0,0,1,1.027,1.026v.449a4.026,4.026,0,0,1-.45,1.945,15.815,15.815,0,0,1-.865,1.349.146.146,0,0,0,.019.217q1.474,1.511,2.1,2.195a.746.746,0,0,1,.145.2.05.05,0,0,0,.036.018c.012,0,.018-.013.018-.036v-8.659A1.047,1.047,0,0,1,109,229.043h.737a1.047,1.047,0,0,1,1.027,1.026v11.755a2.185,2.185,0,0,0,.044.6c.031.067.135.112.316.136a4.519,4.519,0,0,0,.737.054,4.637,4.637,0,0,0,.721-.054c.252-.024.407-.2.468-.514s.114-1.317.162-3a.881.881,0,0,1,.324-.656.943.943,0,0,1,.72-.226l.612.073a1.1,1.1,0,0,1,.711.368,1.027,1.027,0,0,1,.261.747,25.924,25.924,0,0,1-.316,3.718,2.643,2.643,0,0,1-.638,1.475,2.6,2.6,0,0,1-1.386.459,13.051,13.051,0,0,1-1.639.091q-.882,0-1.637-.055a6.6,6.6,0,0,1-1.188-.134,1.2,1.2,0,0,1-.657-.424,1.674,1.674,0,0,1-.333-.837,11.459,11.459,0,0,1-.072-1.484v-2.484q0-.018-.027-.018a.065.065,0,0,0-.046.018,1.26,1.26,0,0,1-.233.288l-.36.323a.986.986,0,0,1-.748.234,1.065,1.065,0,0,1-.71-.341l-.558-.622q-.4-.44-.63-.692c-.013-.024-.033-.03-.063-.018s-.045.03-.045.054V244.2a1.047,1.047,0,0,1-1.026,1.026h-.738a1.047,1.047,0,0,1-1.026-1.026v-4.321c0-.095-.042-.113-.126-.053q-.63.484-1.3.918a.7.7,0,0,1-.675.045A.739.739,0,0,1,99.229,240.257Z"/><path class="cls-4" d="M119.836,245.118a1.044,1.044,0,0,1-1.025-1.027v-5.94a.957.957,0,0,1,.3-.711,1,1,0,0,1,.72-.3h5.544a1.007,1.007,0,0,1,.721.3.96.96,0,0,1,.305.711v5.94a1.044,1.044,0,0,1-1.026,1.027h-1.062a.524.524,0,0,1-.522-.522.064.064,0,0,0-.071-.073h-1.962a.064.064,0,0,0-.073.073.524.524,0,0,1-.522.522Zm12.96-9.954a1.045,1.045,0,0,1-1.026,1.025h-9.648a1.044,1.044,0,0,1-1.025-1.025v-5.04a1.042,1.042,0,0,1,1.025-1.026h9.648a1.044,1.044,0,0,1,1.026,1.026Zm-11.106,4.319v2.772a.127.127,0,0,0,.144.144h1.8c.108,0,.162-.047.162-.144v-2.772a.143.143,0,0,0-.162-.162h-1.8Q121.69,239.321,121.69,239.483Zm8.172-5.562v-2.412c0-.095-.053-.143-.162-.143h-5.508c-.108,0-.162.048-.162.143v2.412a.143.143,0,0,0,.162.162H129.7A.143.143,0,0,0,129.862,233.921Zm5.22,10.17a1.045,1.045,0,0,1-1.026,1.027h-1.331a.524.524,0,0,1-.523-.522.064.064,0,0,0-.072-.073h-1.962a.064.064,0,0,0-.072.073.524.524,0,0,1-.522.522h-1.062a1.045,1.045,0,0,1-1.026-1.027v-5.94a.958.958,0,0,1,.306-.711,1,1,0,0,1,.72-.3h5.544a1,1,0,0,1,.72.3.958.958,0,0,1,.306.711Zm-2.88-1.836v-2.772c0-.108-.048-.162-.143-.162h-1.8a.143.143,0,0,0-.162.162v2.772c0,.1.054.144.162.144h1.8A.127.127,0,0,0,132.2,242.255Z"/><path class="cls-4" d="M139.15,244.127a.921.921,0,0,1-.576-.513.986.986,0,0,1-.036-.782,75.012,75.012,0,0,0,2.412-8.1q.038-.126-.126-.126h-1.242a1.044,1.044,0,0,1-1.025-1.025v-.414a1.042,1.042,0,0,1,1.025-1.026h1.782a.177.177,0,0,0,.18-.162q.054-.234.433-2.34a1.086,1.086,0,0,1,.414-.7,1.057,1.057,0,0,1,.773-.234l.523.035a.969.969,0,0,1,.683.361.838.838,0,0,1,.2.719q-.108.739-.36,2.179-.035.144.126.144h2.143a7.8,7.8,0,0,1,.918.063c.347.042.6.074.747.1a2.1,2.1,0,0,1,.954.568,2.863,2.863,0,0,1,.26.54,2.32,2.32,0,0,1,.18.693c.012.191.036.51.072.954s.054.84.054,1.188v1.511q0,6.68-3.275,6.679a11.99,11.99,0,0,1-2.9-.469.953.953,0,0,1-.621-.486,1.077,1.077,0,0,1-.1-.81l.143-.5a.938.938,0,0,1,.469-.595,1.019,1.019,0,0,1,.773-.09,7.859,7.859,0,0,0,1.638.325q.252,0,.45-.388a5.237,5.237,0,0,0,.352-1.439,19.369,19.369,0,0,0,.152-2.673,8.914,8.914,0,0,0-.162-2.368c-.107-.221-.492-.333-1.151-.333h-1.6a.181.181,0,0,0-.2.145,72.281,72.281,0,0,1-2.664,8.892,1.026,1.026,0,0,1-.532.585,1,1,0,0,1-.8.044Zm10.008-12.6a.925.925,0,0,1-.072-.756.987.987,0,0,1,.5-.593h.017a1.007,1.007,0,0,1,.792-.073.993.993,0,0,1,.613.5q.2.361.593,1.117a.966.966,0,0,1,.037.774.993.993,0,0,1-.523.576,1.007,1.007,0,0,1-.792.035,1.055,1.055,0,0,1-.594-.522Q149.644,232.427,149.158,231.527Zm2.809,2.538a1.059,1.059,0,0,1,1.313.666q.81,2.341,1.458,4.7a.968.968,0,0,1-.108.774.926.926,0,0,1-.611.449l-.685.162a1.055,1.055,0,0,1-.773-.116,1.034,1.034,0,0,1-.487-.621q-.593-2.034-1.422-4.536a.991.991,0,0,1,.064-.774.953.953,0,0,1,.585-.5Zm.647-2.016q-.09-.179-.288-.557c-.132-.253-.233-.438-.306-.558a.99.99,0,0,1-.081-.774.905.905,0,0,1,.5-.595l.053-.018a1.048,1.048,0,0,1,.792-.081.962.962,0,0,1,.613.5q.593,1.134.611,1.17a.984.984,0,0,1-.449,1.35l-.055.037a1.062,1.062,0,0,1-1.386-.469Z"/><path class="cls-4" d="M157.55,243.947l-.036-.305a1.014,1.014,0,0,1,.27-.739,1.039,1.039,0,0,1,.7-.36q.63-.054,2.124-.2a.176.176,0,0,0,.162-.18v-1.674q0-.144-.162-.144h-1.692a1.045,1.045,0,0,1-1.026-1.027v-.216a1.044,1.044,0,0,1,1.026-1.025h1.692a.144.144,0,0,0,.162-.163v-.2a1.047,1.047,0,0,1,1.026-1.027h.738a1.047,1.047,0,0,1,1.026,1.027v.2a.144.144,0,0,0,.162.163h1.944a.959.959,0,0,1,.711.3,1,1,0,0,1,.3.72v.216a1,1,0,0,1-.3.721.956.956,0,0,1-.711.306h-1.944q-.162,0-.162.144v1.314q0,.162.162.126,1.584-.252,2.376-.4a.823.823,0,0,1,.7.179.8.8,0,0,1,.306.648l.018.235a1.156,1.156,0,0,1-.288.782,1.274,1.274,0,0,1-.72.424q-4.194.792-7.47,1.079a.966.966,0,0,1-.738-.242A1,1,0,0,1,157.55,243.947Zm10.908-2.772a1.044,1.044,0,0,1-1.026-1.026V236.3q0-.052-.054,0a.991.991,0,0,1-.45.469l-.378.2a.94.94,0,0,1-.765.073,1,1,0,0,1-.6-.487,1.689,1.689,0,0,0-.126-.234,1.532,1.532,0,0,1-.126-.233.167.167,0,0,0-.216-.126q-2.97.468-5.94.719a.9.9,0,0,1-.72-.242,1.027,1.027,0,0,1-.342-.694l-.018-.305a.97.97,0,0,1,.261-.721,1.03,1.03,0,0,1,.693-.341.2.2,0,0,0,.2-.144q.306-.81.846-2.431.036-.162-.108-.162h-.846a.992.992,0,0,1-.719-.3.947.947,0,0,1-.307-.711v-.306a1.049,1.049,0,0,1,1.026-1.026h7.02a.953.953,0,0,1,.711.307,1,1,0,0,1,.3.719v.306a1.014,1.014,0,0,1-1.008,1.008h-.63a.077.077,0,0,0-.063.046.081.081,0,0,0-.009.081q1.242,1.764,2.286,3.617l.018.037a.133.133,0,0,1,.018.054.078.078,0,0,0,.054-.018v-4.717a1.047,1.047,0,0,1,1.026-1.026h.486a1.047,1.047,0,0,1,1.026,1.026v9.414a1.044,1.044,0,0,1-1.026,1.026Zm-3.96-9.467a.061.061,0,0,0,.018-.045c0-.018-.012-.028-.036-.028h-1.836q-.126,0-.2.162-.324.936-.792,2.2-.036.126.09.126.252-.018.549-.055t.657-.089c.24-.037.426-.06.558-.073.1-.024.12-.071.072-.144a1.764,1.764,0,0,0-.108-.179,1.759,1.759,0,0,1-.108-.181.9.9,0,0,1-.117-.729.838.838,0,0,1,.459-.566Zm4.788,13.41a1.041,1.041,0,0,1-.729-.325,1.09,1.09,0,0,1-.315-.737l-.018-.414a.926.926,0,0,1,.972-.973c.575.037.96.055,1.152.055.3,0,.477-.034.531-.1a1.383,1.383,0,0,0,.081-.64V230.016a1.045,1.045,0,0,1,1.026-1.027h.54a1.045,1.045,0,0,1,1.026,1.027V241.9q0,.828-.027,1.3a4.542,4.542,0,0,1-.135.883,1.569,1.569,0,0,1-.252.585,1.21,1.21,0,0,1-.5.305,2.487,2.487,0,0,1-.729.162c-.252.019-.606.027-1.062.027C170.336,245.153,169.813,245.142,169.286,245.118Z"/><path class="cls-4" d="M177.226,240.653a10.474,10.474,0,0,0,2.952-4.194q.036-.126-.108-.126h-2.322a.869.869,0,0,1-.648-.278.916.916,0,0,1-.27-.658.924.924,0,0,1,.918-.918h6.012c.095,0,.144-.054.144-.162v-.2a.127.127,0,0,0-.144-.144H179.1a.829.829,0,0,1,0-1.657h4.662c.095,0,.144-.053.144-.161v-.2a.128.128,0,0,0-.144-.144h-5.436a.905.905,0,0,1-.676-.288.953.953,0,0,1-.278-.684.949.949,0,0,1,.954-.953h2.3a.089.089,0,0,0,.081-.045.06.06,0,0,0-.009-.081v-.018a.048.048,0,0,1-.018-.037.672.672,0,0,1-.018-.656.657.657,0,0,1,.522-.387l.666-.09a1.514,1.514,0,0,1,.891.126,1.369,1.369,0,0,1,.639.593,4.076,4.076,0,0,1,.234.451.222.222,0,0,0,.234.144h2.826a.211.211,0,0,0,.216-.144c.024-.048.06-.118.108-.207s.084-.16.107-.207a1.406,1.406,0,0,1,1.441-.792l.738.089a.673.673,0,0,1,.558.37.7.7,0,0,1,.017.674.059.059,0,0,0-.017.036.052.052,0,0,1-.018.037c-.049.1-.018.144.09.144h2.16a.949.949,0,0,1,.953.953.949.949,0,0,1-.278.684.9.9,0,0,1-.675.288H187a.128.128,0,0,0-.145.144v.2c0,.108.048.161.145.161h4.3a.829.829,0,0,1,0,1.657H187a.127.127,0,0,0-.145.144v.2c0,.108.048.162.145.162h5.651a.922.922,0,0,1,.918.918.919.919,0,0,1-.269.658.871.871,0,0,1-.649.278h-9.413a.18.18,0,0,0-.2.145.3.3,0,0,1-.019.089.562.562,0,0,1-.035.091c-.024.108.012.161.108.161h8.046a1.047,1.047,0,0,1,1.026,1.027v6.48a1.049,1.049,0,0,1-1.026,1.026h-1.4a.522.522,0,0,1-.521-.522.064.064,0,0,0-.072-.073h-6.066a.064.064,0,0,0-.072.073.522.522,0,0,1-.523.522h-1.332a1.047,1.047,0,0,1-1.025-1.026v-2.737a.047.047,0,0,0-.09-.018,9.488,9.488,0,0,1-1.314,1.441.832.832,0,0,1-.711.206.841.841,0,0,1-.621-.423l-.4-.648a1.061,1.061,0,0,1-.162-.783A1.2,1.2,0,0,1,177.226,240.653ZM183,238.764v.215a.127.127,0,0,0,.143.145h5.922a.128.128,0,0,0,.145-.145v-.215c0-.109-.048-.162-.145-.162h-5.922C183.052,238.6,183,238.655,183,238.764Zm0,2v.216a.127.127,0,0,0,.143.144h5.922a.128.128,0,0,0,.145-.144v-.216c0-.109-.048-.162-.145-.162h-5.922C183.052,240.6,183,240.653,183,240.762Zm0,1.98v.216c0,.107.048.162.143.162h5.922c.1,0,.145-.055.145-.162v-.216a.128.128,0,0,0-.145-.144h-5.922A.127.127,0,0,0,183,242.742Z"/><path class="cls-4" d="M201.082,239.339a.987.987,0,0,1-.729-.3,1.122,1.122,0,0,1-.333-.729l-.36-6.947a.943.943,0,0,1,.27-.72.922.922,0,0,1,.7-.307h1.62a.927.927,0,0,1,.7.307.958.958,0,0,1,.27.72l-.342,6.947a1.117,1.117,0,0,1-.342.729,1.017,1.017,0,0,1-.738.3Zm.9,1.44a1.045,1.045,0,0,1,1.027,1.027v.648a1.045,1.045,0,0,1-1.027,1.025H200.9a1.045,1.045,0,0,1-1.025-1.025v-.648a1.045,1.045,0,0,1,1.025-1.027Z"/><path class="cls-4" d="M209.908,233a.959.959,0,0,1,.7-.283.968.968,0,0,1,.977.976.959.959,0,0,1-.284.7.935.935,0,0,1-.693.289.987.987,0,0,1-.986-.987A.932.932,0,0,1,209.908,233Zm7.875,4.046a.542.542,0,0,1-.923.383l-2.96-2.959a.079.079,0,0,0-.126,0l-2.959,2.959a.541.541,0,0,1-.765-.766l2.959-2.959a.079.079,0,0,0,0-.126l-2.959-2.949a.541.541,0,0,1,.765-.766l2.959,2.948a.079.079,0,0,0,.126,0l2.96-2.948a.542.542,0,0,1,.766.766l-2.959,2.949a.079.079,0,0,0,0,.126l2.959,2.959A.52.52,0,0,1,217.783,237.05Zm-4.638-7.278a.989.989,0,1,1-.283.693A.941.941,0,0,1,213.145,229.772Zm0,6.47a.974.974,0,0,1,1.385,0,.954.954,0,0,1,.283.7.976.976,0,1,1-1.951,0A.958.958,0,0,1,213.145,236.242ZM216.377,233a.942.942,0,0,1,.693-.283.96.96,0,0,1,.7.283.936.936,0,0,1,.289.693.987.987,0,0,1-.987.987.936.936,0,0,1-.693-.289.958.958,0,0,1-.283-.7A.942.942,0,0,1,216.377,233Z"/><path class="cls-5" d="M62.1,137.606s.743,4.569-6.8,9.879c-1.3.915-9.178,2.567-10.806,2.323-7.944-1.189-10.194-5.981-10.194-5.981-.511-2.284,5.3-5.528,12.976-7.246S61.593,135.322,62.1,137.606Z"/><path class="cls-6" d="M62.1,137.606c.512,2.284-5.3,5.528-12.975,7.246s-14.316,1.259-14.827-1.025,5.3-5.528,12.976-7.246S61.593,135.322,62.1,137.606Z"/><path class="cls-7" d="M60.813,137.727c.432,1.93-4.879,4.762-11.863,6.325s-13,1.264-13.428-.666,4.88-4.762,11.864-6.325S60.381,135.8,60.813,137.727Z"/><path class="cls-8" d="M36.334,144.268s-.623-2.914.692-4.048a2.257,2.257,0,0,1,2.532-.455,3.881,3.881,0,0,1,2.523-2.245c1.814-.406,2.088.317,2.088.317a4.073,4.073,0,0,1,2.821-1.92c2.134-.478,2.581.767,2.581.767a4.126,4.126,0,0,1,2.4-1.545,3.393,3.393,0,0,1,3.062,1.163,2.266,2.266,0,0,1,2.53-1.462,3.4,3.4,0,0,1,3.21,2.951s1,3.336-12.022,6.249C37.6,146.536,36.334,144.268,36.334,144.268Z"/><path class="cls-5" d="M71.937,140.512s1.529,4.369-4.973,10.916c-1.119,1.127-8.589,4.13-10.234,4.175-8.03.217-11.082-4.109-11.082-4.109-.9-2.16,4.252-6.369,11.511-9.4S71.034,138.353,71.937,140.512Z"/><path class="cls-6" d="M71.937,140.512c.9,2.16-4.252,6.369-11.511,9.4s-13.875,3.74-14.778,1.58,4.252-6.369,11.511-9.4S71.034,138.353,71.937,140.512Z"/><path class="cls-7" d="M70.686,140.857c.762,1.825-3.972,5.541-10.576,8.3s-12.574,3.515-13.337,1.69,3.972-5.541,10.576-8.3S69.924,139.032,70.686,140.857Z"/><path class="cls-8" d="M47.725,151.574s-1.122-2.76-.024-4.107a2.256,2.256,0,0,1,2.413-.89,3.88,3.88,0,0,1,2.091-2.652c1.716-.716,2.113-.053,2.113-.053a4.072,4.072,0,0,1,2.441-2.382c2.018-.843,2.676.3,2.676.3a4.131,4.131,0,0,1,2.093-1.941,3.4,3.4,0,0,1,3.218.611s.108-1.586,2.236-1.882a3.4,3.4,0,0,1,3.675,2.345s1.567,3.11-10.745,8.253C49.367,153.586,47.725,151.574,47.725,151.574Z"/><path class="cls-9" d="M173.348,28.249s1.132-2.917,2.334-3.36a5.625,5.625,0,0,1,2.778.78,1.857,1.857,0,0,1,2.2.508,1.427,1.427,0,0,1,2.056.534c.465.067,1.3-1.139,2.468.309a2.074,2.074,0,0,1,2.52.6s.751-1.266,1.969.474c0,0,1.681-1.132,2.348.481,0,0,.684-.8,1.977.1s4.322,1.362,4.352,3.663c.025,1.8-1.625,4.362-3.283,4.36,0,0-1.779.169-2.236-.276a.892.892,0,0,1-1.453-.115,1.216,1.216,0,0,1-1.625-.235,4.481,4.481,0,0,1-2.287-.567s-1.812.4-2.494-.455c0,0-1.666.375-2.433-.541,0,0-2.045.368-2.547-.747,0,0-1.606.289-2.2-.508a2.573,2.573,0,0,1-2.606-.661C173.84,31.4,173.135,28.739,173.348,28.249Z"/><path class="cls-10" d="M174.228,26.916s.53-2.064,1.582-2.321a2.783,2.783,0,0,1,2.281.143,2.887,2.887,0,0,1,2.436.467,1.747,1.747,0,0,1,2.078.441c.449.073,1.162-.6,2.527.514a2.2,2.2,0,0,1,2.263.537s.926-.807,2.395.526a1.512,1.512,0,0,1,2.078.441s.682-.45,2.067.274,3.4,1.617,4.137,3.293-.238,3.1-1.8,3.013a5.705,5.705,0,0,1-2.158-.322s-.5.547-1.392-.162a1.475,1.475,0,0,1-1.576-.259,6.252,6.252,0,0,1-2.262-.538,3.909,3.909,0,0,1-2.436-.466,3.719,3.719,0,0,1-2.4-.526s-1.859.157-2.538-.682a3.536,3.536,0,0,1-2.17-.489,3.4,3.4,0,0,1-2.58-.623C175.273,29.238,174.117,27.261,174.228,26.916Z"/><path class="cls-11" d="M187.823,29.708s2.877-1.23,4.034-.681a5.634,5.634,0,0,1,1.385,2.532,1.857,1.857,0,0,1,1.176,1.929s1.311.2,1.056,1.843c.277.379,1.725.134,1.505,1.98a2.076,2.076,0,0,1,1.332,2.222s1.431-.348,1.038,1.739c0,0,1.984.41,1.3,2.015,0,0,1.052-.071,1.313,1.48s2.05,4.043.426,5.673c-1.273,1.279-4.255,1.888-5.413.7,0,0-1.365-1.153-1.366-1.791,0,0-1.052.071-.934-1.119a1.215,1.215,0,0,1-.968-1.325s-1.158-1.188-1.194-2.033c0,0-1.554-1.014-1.419-2.1,0,0-1.433-.928-1.315-2.118,0,0-1.692-1.2-1.246-2.342,0,0-1.33-.946-1.177-1.929A2.574,2.574,0,0,1,186,34.057C185.914,32.264,187.323,29.9,187.823,29.708Z"/><path class="cls-12" d="M189.391,29.405s1.847-1.063,2.766-.491a2.779,2.779,0,0,1,1.492,1.73,2.887,2.887,0,0,1,1.37,2.068s1.042.234,1.138,1.793c.261.373,1.243.409,1.4,2.167a2.2,2.2,0,0,1,1.2,1.994s1.224.1,1.3,2.08a1.51,1.51,0,0,1,1.138,1.793s.8.173,1.25,1.668,1.223,3.564.539,5.262-2.386,2-3.415.817a5.72,5.72,0,0,1-1.279-1.768s-.74.026-.858-1.108a1.476,1.476,0,0,1-.916-1.308,6.272,6.272,0,0,1-1.2-1.993,3.913,3.913,0,0,1-1.37-2.067,3.721,3.721,0,0,1-1.3-2.08s-1.413-1.22-1.288-2.292a3.542,3.542,0,0,1-1.167-1.893,3.406,3.406,0,0,1-1.359-2.28C188.462,31.777,189.067,29.568,189.391,29.405Z"/><path class="cls-13" d="M168.611,35.309s1.631-2.67,2.893-2.892a5.631,5.631,0,0,1,2.6,1.26,1.857,1.857,0,0,1,2.077.89s1.186-.594,1.928.89c.445.148,1.484-.89,2.374.741a2.076,2.076,0,0,1,2.374,1.039s.963-1.113,1.854.815c0,0,1.854-.816,2.225.89,0,0,.816-.668,1.928.444s4.013,2.107,3.636,4.376c-.3,1.78-2.373,4.005-4,3.709,0,0-1.781-.148-2.151-.667a.893.893,0,0,1-1.409-.371,1.216,1.216,0,0,1-1.558-.519,4.481,4.481,0,0,1-2.151-.964s-1.855.075-2.374-.89c0,0-1.706.075-2.3-.963,0,0-2.077,0-2.374-1.187,0,0-1.632,0-2.077-.89a2.574,2.574,0,0,1-2.448-1.112C168.538,38.5,168.315,35.755,168.611,35.309Z"/><path class="cls-14" d="M169.714,34.154s.888-1.937,1.968-2a2.781,2.781,0,0,1,2.219.545,2.892,2.892,0,0,1,2.315.891s.985-.412,1.967.8c.43.152,1.251-.388,2.4.955a2.2,2.2,0,0,1,2.132.929s1.054-.631,2.264.943a1.511,1.511,0,0,1,1.967.8s.751-.322,1.985.636,3.063,2.2,3.49,3.975-.785,3.013-2.309,2.645a5.735,5.735,0,0,1-2.068-.7s-.587.45-1.341-.406a1.476,1.476,0,0,1-1.505-.535,6.255,6.255,0,0,1-2.131-.929,3.909,3.909,0,0,1-2.314-.891,3.726,3.726,0,0,1-2.265-.942s-1.858-.175-2.377-1.121a3.539,3.539,0,0,1-2.05-.866,3.4,3.4,0,0,1-2.429-1.07C170.331,36.624,169.544,34.475,169.714,34.154Z"/><path class="cls-15" d="M99.721,62.05c.409-.113,6.563-1.837,9.107-3.992a.247.247,0,0,1,.39.283c-.985,2.371-3.287,7.153-6.585,9.372-4.481,3.014-7.628-2.15-6.71-3.2a16.39,16.39,0,0,1,3.755-2.441A.32.32,0,0,1,99.721,62.05Z"/><path class="cls-16" d="M95.671,58.86c.363-.222,5.8-3.574,7.655-6.347a.248.248,0,0,1,.453.165c-.294,2.55-1.189,7.782-3.749,10.823-3.477,4.132-7.924.035-7.333-1.232a16.389,16.389,0,0,1,2.937-3.381A.24.24,0,0,1,95.671,58.86Z"/><path class="cls-17" d="M79.578,59.076c-3.967,6.007-1.486,12.17,5.531,12.268,5.682.08,11.2-4.664,11.692-10.28a6.312,6.312,0,0,0-1.419-5.031c-1.524-2.018-4.621-3.36-8.537-2.487C84,54.18,81.559,56.075,79.578,59.076Z"/><path class="cls-18" d="M99.4,64.08a7.543,7.543,0,0,1,2.88,2.1c.26.2-.2.632.231,1.009-.32-.042,1.566.185,1.566.185a5.666,5.666,0,0,1,1.914,3.932l-.049.849.586.1c.681,1.342.017,4.569-1.595,5.909-3.7,2.946-13.917,3.686-19.1.359-2.867-1.842-5.18-4.438-2.968-9.194.219.034.918.389.976.226a2.488,2.488,0,0,0,.292-1.609,5.533,5.533,0,0,1,3.933-2.711,11.3,11.3,0,0,1,2.181.808c.075-.549-.468-1.609-.093-1.782a7.221,7.221,0,0,1,6.509.629c.038-.229-.146-.541-.069-1a8.926,8.926,0,0,1,2.805.187Z"/><path class="cls-19" d="M86.915,71.076A29.4,29.4,0,0,0,83.346,75.6,9.431,9.431,0,0,1,86.49,70.67Z"/><path class="cls-19" d="M87.339,71.482l-.849-.812c2.754-2.879,8.322-4.34,12.356-4.486a11.852,11.852,0,0,1,3.436,0l.231,1.009a10.124,10.124,0,0,0-3.457.148.558.558,0,0,1-.115.015C95.013,67.487,89.766,68.947,87.339,71.482Z"/><path class="cls-19" d="M87.031,77.964a20.187,20.187,0,0,1,10.9-6.359,20.578,20.578,0,0,1,8.066-.3c-.133.834-.049.849-.049.849-.659-.111-2.949-.032-4.256-.054-3.137-.079-5.728,1.032-8.535,2.409-1.144.561-1.574.985-2.685,1.609C89.379,76.735,88.2,77.334,87.031,77.964Z"/><path class="cls-19" d="M96.6,63.893c.889,1.069,1.787,1.716,2.249,2.291h0c.591.117.853.662,1.323.978a15.916,15.916,0,0,1,1.618,2.589,13.491,13.491,0,0,1,.921,2.35s-1.155-.21-1.271-.563c0-.014-.009-.03-.013-.044-.117-.385-.656-1.421-1.074-2.273a7.7,7.7,0,0,0-1.294-1.88s-1.714-.519-.613-.282a14.7,14.7,0,0,0-1.759-1.7c-.316-.285-.758-.754-.844-.784S96.6,63.893,96.6,63.893Z"/><path class="cls-19" d="M83.844,69.557l.292-1.609a22.156,22.156,0,0,1,2.676,2.417c.437.519.3.556.219,1.053C85.177,70.3,83.844,69.557,83.844,69.557Z"/><path class="cls-19" d="M91.669,79.065a58.656,58.656,0,0,0-5.041-7.7c.152-.322.492-1.277,1.208-.3C89.155,72.878,91.5,77.159,91.669,79.065Z"/><path class="cls-19" d="M93.447,67.776l-1.105.388a8.22,8.22,0,0,0-2.682-2.3c.224-.042.5-1.6.5-1.6C90.67,64.824,93.447,67.776,93.447,67.776Z"/><path class="cls-19" d="M92.342,68.164c.678-.389,2.119-.643,1.85-.256A34.808,34.808,0,0,1,96.638,72.8s-.925.856-1.266.146A33.213,33.213,0,0,0,92.342,68.164Z"/><path class="cls-19" d="M96.638,72.8s1.662,3.817,1.1,6.6a29.876,29.876,0,0,0-2.38-6.166C95.465,72.843,96.638,72.8,96.638,72.8Z"/><path class="cls-19" d="M101.688,72.105c.68,1.558.568,2.69.957,5.677a9.025,9.025,0,0,0,.066-6.163C102.413,71.507,101.688,72.105,101.688,72.105Z"/><path class="cls-20" d="M172.038,49.372H151.617a3.489,3.489,0,0,0-3.478,3.479V69.245a2.729,2.729,0,0,0,2.721,2.722h4.356a2.73,2.73,0,0,0,2.722-2.722,1.569,1.569,0,0,1,.02-.256,2.2,2.2,0,0,1,.482-1.122,1.758,1.758,0,0,1,1.16-.351h12.438a3.489,3.489,0,0,0,3.479-3.479V52.851A3.489,3.489,0,0,0,172.038,49.372Z"/><path class="cls-20" d="M82.383,122.482H79.449a1.981,1.981,0,0,0-1.729,2.152V132.3a1.982,1.982,0,0,0,1.729,2.152h2.934a1.982,1.982,0,0,0,1.729-2.152v-7.662A1.981,1.981,0,0,0,82.383,122.482Z"/><rect class="cls-20" x="107.486" y="115.498" width="17.702" height="10.691" rx="1.77"/><path class="cls-20" d="M168.036,70.21h-4.969a2.539,2.539,0,0,0-2.531,2.532v1.919a1.014,1.014,0,0,1-.277.725,1.319,1.319,0,0,1-.867.282h-7.8a3.462,3.462,0,0,0-3.451,3.452V96.013a1.34,1.34,0,0,1-.411,1.011,1.517,1.517,0,0,1-1.114.41H140.8s-1.16.062-1.6-.381a2.1,2.1,0,0,1-.438-1.385V94.547a3.145,3.145,0,0,0-3.135-3.135h-.811a3.145,3.145,0,0,0-3.135,3.135v1.371a1.767,1.767,0,0,1-1.52,1.516H111.317a3.842,3.842,0,0,0-3.831,3.831v9.665a2.06,2.06,0,0,0,2.061,2.06h14.566a3.889,3.889,0,0,1,3.878,3.878v7.26a2.061,2.061,0,0,0,2.061,2.061h22.736a1.166,1.166,0,0,0,1.166-1.166v-1.19c0-1.184-.324-3.615,2.377-3.615h3.5a3.218,3.218,0,0,1,3.209,3.209v1.531a1.517,1.517,0,0,0,.283.946,1.356,1.356,0,0,0,.875.285h2.534a3.842,3.842,0,0,0,3.831-3.831V72.742A2.539,2.539,0,0,0,168.036,70.21Z"/><rect class="cls-20" x="140.816" y="90.519" width="4.995" height="4.727" rx="1.427"/><path class="cls-20" d="M100.373,100.364H91.108a4.34,4.34,0,0,0-4.442,4.2l-.02,24.175A2.333,2.333,0,0,0,89.034,131h7.673a2.334,2.334,0,0,0,2.388-2.26v-1.927c0-1.6.523-1.879,1.325-1.879h.392c3.147,0,4-1.233,4-4.2V104.567A4.34,4.34,0,0,0,100.373,100.364Z"/><path class="cls-21" d="M78.457,105.315l2.694,1.791a.759.759,0,0,0,1.165-.777L79.628,92.466a.759.759,0,0,0-1.086-.533L65.95,98.258a.759.759,0,0,0,.105,1.4l2.547.831a.761.761,0,0,1,.445,1.05c-4.619,9.936-1.686,18.149,2.508,22.172a.758.758,0,0,0,1.259-.748c-1.74-6.288,3.069-14.784,4.565-17.395A.758.758,0,0,1,78.457,105.315Z"/><path class="cls-21" d="M95.037,112.834a1.5,1.5,0,0,1-1.5-1.389c-.459-5.893,2.758-14.392,13.335-18.954l-1.328-2.341a1.485,1.485,0,0,1,0-1.5,1.5,1.5,0,0,1,1.3-.756,1.542,1.542,0,0,1,.4.053l13.607,3.664a1.5,1.5,0,0,1,.9,2.216l-7.223,12.134a1.5,1.5,0,0,1-2.742-.388l-.818-3.13c-7.833,2.594-12.73,5.812-14.577,9.554a1.486,1.486,0,0,1-1.339.838Z"/><path class="cls-2" d="M106.832,88.635a.776.776,0,0,1,.2.028l13.608,3.663a.759.759,0,0,1,.454,1.121l-7.223,12.134a.744.744,0,0,1-.649.37.751.751,0,0,1-.737-.566l-.819-3.13a.758.758,0,0,0-.732-.568.74.74,0,0,0-.24.039c-2.854.952-12.1,4.09-14.987,9.941a.738.738,0,0,1-.674.426.754.754,0,0,1-.764-.706c-.451-5.794,2.829-13.875,12.89-18.215a.76.76,0,0,0,.367-1.079l-1.347-2.316a.76.76,0,0,1,.649-1.142m0-1.484h0a2.246,2.246,0,0,0-1.939,1.129,2.218,2.218,0,0,0,.007,2.243l.94,1.615c-10.351,4.79-13.513,13.368-13.046,19.364a2.242,2.242,0,0,0,4.247.822c2.086-4.225,8.279-7.161,13.391-8.94l.621,2.376a2.246,2.246,0,0,0,2.173,1.675,2.222,2.222,0,0,0,1.924-1.095l7.223-12.134a2.242,2.242,0,0,0-1.343-3.313L107.422,87.23a2.278,2.278,0,0,0-.59-.079Z"/><path class="cls-21" d="M114.74,79.171a1.524,1.524,0,0,1-1.143-.517,1.482,1.482,0,0,1-.353-1.185c.764-5.861,5.662-13.516,16.951-15.8l-.817-2.564a1.477,1.477,0,0,1,.205-1.347,1.494,1.494,0,0,1,1.9-.463l12.562,6.386a1.5,1.5,0,0,1,.424,2.355L134.9,76.42a1.481,1.481,0,0,1-1.1.485,1.5,1.5,0,0,1-1.5-1.429l-.156-3.231c-8.2.925-13.653,3.067-16.231,6.348a1.486,1.486,0,0,1-1.172.578Z"/><path class="cls-2" d="M130.8,57.869a.763.763,0,0,1,.345.085l12.563,6.386a.758.758,0,0,1,.214,1.19l-9.566,10.387a.743.743,0,0,1-.553.246.757.757,0,0,1-.763-.723l-.157-3.231a.758.758,0,0,0-.755-.723.865.865,0,0,0-.088,0c-2.989.345-12.682,1.513-16.712,6.644a.74.74,0,0,1-.589.294.758.758,0,0,1-.76-.864c.751-5.763,5.624-13,16.363-15.172a.761.761,0,0,0,.581-.981l-.842-2.543a.761.761,0,0,1,.719-1m0-1.484h0a2.256,2.256,0,0,0-1.82.935,2.218,2.218,0,0,0-.308,2.015l.587,1.774c-11.115,2.557-15.974,10.3-16.752,16.264a2.241,2.241,0,0,0,3.988,1.678c2.91-3.706,9.575-5.3,14.944-5.992l.119,2.453a2.243,2.243,0,0,0,2.245,2.135,2.21,2.21,0,0,0,1.644-.725l9.566-10.387a2.242,2.242,0,0,0-.633-3.518l-12.562-6.386a2.26,2.26,0,0,0-1.018-.246Z"/><path class="cls-21" d="M129.838,131.27a15.564,15.564,0,0,1-4.794-.728,1.5,1.5,0,0,1,.126-2.893c4.068-.924,8.338-4.938,12.691-11.929L135,114.173a1.5,1.5,0,0,1,.261-2.756l13.482-4.2a1.52,1.52,0,0,1,.447-.068,1.493,1.493,0,0,1,1.5,1.459l.394,14.087a1.484,1.484,0,0,1-.419,1.085,1.524,1.524,0,0,1-1.086.459,1.488,1.488,0,0,1-1.031-.416l-1.939-1.849c-6.07,8.09-13.111,9.3-16.771,9.3Z"/><path class="cls-2" d="M149.192,107.89a.759.759,0,0,1,.757.738l.394,14.087a.758.758,0,0,1-.763.782.745.745,0,0,1-.519-.212l-1.939-1.849a.74.74,0,0,0-.516-.207.77.77,0,0,0-.618.312c-4.949,6.616-11.068,8.987-16.149,8.987a14.9,14.9,0,0,1-4.567-.692.758.758,0,0,1,.062-1.463c6.363-1.447,11.567-9.707,13.157-12.261a.757.757,0,0,0-.287-1.069l-2.853-1.524a.759.759,0,0,1,.132-1.394l13.482-4.2a.75.75,0,0,1,.227-.035m0-1.484a2.235,2.235,0,0,0-.669.1l-13.482,4.2a2.243,2.243,0,0,0-.39,4.119l2.166,1.158c-2.919,4.557-7.217,9.9-11.811,10.941a2.242,2.242,0,0,0-.19,4.322,16.3,16.3,0,0,0,5.023.764c3.7,0,10.721-1.18,16.846-8.943l1.352,1.29a2.226,2.226,0,0,0,1.543.621,2.273,2.273,0,0,0,1.618-.683,2.225,2.225,0,0,0,.629-1.624l-.4-14.086a2.231,2.231,0,0,0-2.24-2.181Z"/><path class="cls-21" d="M107.764,139.312c-3.008.04-12.77.118-17.423-4.456a.758.758,0,0,0-1.265.737c1.48,5.62,7.236,12.172,18.165,12.96a.761.761,0,0,1,.7.9l-.51,2.63a.758.758,0,0,0,1.172.771l11.645-7.936a.758.758,0,0,0,.061-1.208L109.5,134.627a.759.759,0,0,0-1.245.642l.257,3.224A.757.757,0,0,1,107.764,139.312Z"/><path class="cls-22" d="M137.833,157.38c-.768.219-2.085.768-2.3,1.426s-1.317,1.207-1.646,1.646-1.207,1.207-1.1,1.865a4.763,4.763,0,0,1-.329,1.866,8.131,8.131,0,0,0-.33,1.865c0,.658-.439.658,0,1.865a18.645,18.645,0,0,0,1.207,2.524c.329.658.11.768.878,1.316s.768.878,1.865,1.1a9.476,9.476,0,0,0,2.305.219c.767,0,.877-.329,1.645-.11a4.721,4.721,0,0,0,1.646.329,7.081,7.081,0,0,0,2.194,0c.659-.11.549,0,1.1-.438s.987-1.1,1.536-1.317.439-.768.987-1.1.659-.22,1.207-.988a12.3,12.3,0,0,0,1.1-2.743s.768-.439.33-2.743a10.582,10.582,0,0,0-.549-2.085c-.548-.987-.548-1.1-1.1-1.536a3.626,3.626,0,0,1-1.1-1.646c-.219-.329-1.645-.658-1.974-.768a15.955,15.955,0,0,0-1.975-1.1,11.679,11.679,0,0,0-4.389.11A4.093,4.093,0,0,0,137.833,157.38Z"/><path class="cls-23" d="M144.416,159.9c-.878-.329-2.414-.109-2.414.549s.329,1.316-.22,1.756a5.042,5.042,0,0,1-1.755.658s-1.1-.33-1.207,0-.988.219-.878.768a8.042,8.042,0,0,0,.22.877v1.317l-.988-.439a5.983,5.983,0,0,0-1.426,1.866c-.22.768.11,1.645-.549,1.645a2.8,2.8,0,0,1-1.426-.658s-.988-1.1-.329-1.426.987-.33,1.316-.988a2.941,2.941,0,0,0,.11-1.646,3.373,3.373,0,0,1,0-1.1c.11-.439,0-.658.22-1.1s.439-1.317.877-1.646.769-.768,1.317-.658.988.329,1.646.439a1.68,1.68,0,0,0,1.645-.439c.33-.439-.109-.659.659-.878s1.646-.658,2.195-.439S144.416,159.9,144.416,159.9Z"/><path class="cls-24" d="M150.122,163.963a10.582,10.582,0,0,0-.549-2.085c-.548-.987-.548-1.1-1.1-1.536a3.154,3.154,0,0,1-.408-.39c-.371.064-.8.171-.8.171a2.988,2.988,0,0,0,.329,1.975,22.869,22.869,0,0,1,.549,3.292,23.317,23.317,0,0,0-1.207,2.743c-.11.768-2.524,1.536-2.524,1.536l-1.207.329s-.987-.439-.878.329-.219.768-.658,1.1a2.736,2.736,0,0,1-2.085.22c-.548-.22-.987-.22-1.426-.439s-.878-.878-1.317-.439a1.779,1.779,0,0,1-2.084.11c-.769-.439-.878-.549-.988-.878s-.878-.549-.987-.988a4.979,4.979,0,0,0-.679-1.155l.02.058a18.645,18.645,0,0,0,1.207,2.524c.329.658.11.768.878,1.316s.768.878,1.865,1.1a9.476,9.476,0,0,0,2.305.219c.767,0,.877-.329,1.645-.11a4.721,4.721,0,0,0,1.646.329,7.081,7.081,0,0,0,2.194,0c.659-.11.549,0,1.1-.438s.987-1.1,1.536-1.317.439-.768.987-1.1.659-.22,1.207-.988a12.3,12.3,0,0,0,1.1-2.743S150.56,166.267,150.122,163.963Z"/><path class="cls-24" d="M147.488,167.474c-.329.658-1.426.329-1.426-.219s.22-1.317-.329-1.756-1.152.552-1.1.987c.11.878.659.659.988,1.1a1.114,1.114,0,0,1,.22.877c-.988.988-1.756.659-1.427,1.208s1.536.219,1.975.109.549-.768.878-1.1S147.488,167.474,147.488,167.474Z"/><path class="cls-25" d="M122.032,161.414c-.768.22-2.085.768-2.3,1.427s-1.316,1.206-1.645,1.645-1.207,1.208-1.1,1.866a4.737,4.737,0,0,1-.328,1.865,8.142,8.142,0,0,0-.33,1.865c0,.658-.439.659,0,1.865a18.645,18.645,0,0,0,1.207,2.524c.329.659.11.768.878,1.317s.768.877,1.865,1.1a9.468,9.468,0,0,0,2.3.219c.768,0,.878-.329,1.646-.109a4.744,4.744,0,0,0,1.646.329,7.081,7.081,0,0,0,2.194,0c.659-.11.549,0,1.1-.439s.988-1.1,1.537-1.317.438-.768.987-1.1.658-.22,1.207-.988a12.3,12.3,0,0,0,1.1-2.743s.768-.438.329-2.743a10.563,10.563,0,0,0-.548-2.084c-.549-.988-.549-1.1-1.1-1.536a3.631,3.631,0,0,1-1.1-1.646c-.219-.329-1.645-.659-1.974-.768a15.969,15.969,0,0,0-1.976-1.1,11.7,11.7,0,0,0-4.388.11A4.126,4.126,0,0,0,122.032,161.414Z"/><path class="cls-26" d="M128.615,163.937c-.878-.329-2.414-.109-2.414.549s.329,1.317-.22,1.756a5.02,5.02,0,0,1-1.755.658s-1.1-.329-1.207,0-.988.22-.878.768a8.207,8.207,0,0,0,.219.878v1.316l-.987-.438a5.988,5.988,0,0,0-1.426,1.865c-.22.768.11,1.646-.549,1.646a2.8,2.8,0,0,1-1.426-.659s-.988-1.1-.329-1.426.987-.329,1.316-.988a2.937,2.937,0,0,0,.11-1.645,3.344,3.344,0,0,1,0-1.1c.11-.439,0-.659.22-1.1s.438-1.316.877-1.646.768-.767,1.317-.658.987.329,1.646.439a1.678,1.678,0,0,0,1.645-.439c.33-.439-.11-.658.659-.877s1.646-.659,2.194-.439S128.615,163.937,128.615,163.937Z"/><path class="cls-27" d="M134.32,168a10.563,10.563,0,0,0-.548-2.084c-.549-.988-.549-1.1-1.1-1.536a3.093,3.093,0,0,1-.408-.391c-.371.065-.8.171-.8.171a2.988,2.988,0,0,0,.329,1.975,22.764,22.764,0,0,1,.548,3.292,23.632,23.632,0,0,0-1.207,2.743c-.109.768-2.523,1.536-2.523,1.536l-1.207.329s-.988-.439-.878.33-.219.768-.658,1.1a2.728,2.728,0,0,1-2.085.22c-.548-.22-.987-.22-1.426-.439s-.878-.877-1.317-.439a1.779,1.779,0,0,1-2.085.11c-.768-.439-.877-.548-.987-.878s-.878-.549-.988-.987a4.926,4.926,0,0,0-.678-1.155l.02.057a18.645,18.645,0,0,0,1.207,2.524c.329.659.11.768.878,1.317s.768.877,1.865,1.1a9.468,9.468,0,0,0,2.3.219c.768,0,.878-.329,1.646-.109a4.744,4.744,0,0,0,1.646.329,7.081,7.081,0,0,0,2.194,0c.659-.11.549,0,1.1-.439s.988-1.1,1.537-1.317.438-.768.987-1.1.658-.22,1.207-.988a12.3,12.3,0,0,0,1.1-2.743S134.759,170.3,134.32,168Z"/><path class="cls-27" d="M131.687,171.508c-.329.659-1.426.33-1.426-.219s.219-1.317-.329-1.756-1.152.553-1.1.988c.11.878.659.658.988,1.1a1.113,1.113,0,0,1,.219.878c-.987.987-1.756.659-1.426,1.207s1.536.219,1.975.109.548-.768.878-1.1S131.687,171.508,131.687,171.508Z"/><path class="cls-28" d="M128.24,173.54c-.789.225-2.142.788-2.368,1.465s-1.352,1.24-1.691,1.691-1.24,1.24-1.127,1.917a4.875,4.875,0,0,1-.338,1.917,8.344,8.344,0,0,0-.339,1.916c0,.676-.451.676,0,1.917a19.153,19.153,0,0,0,1.24,2.593c.339.676.113.789.9,1.352s.789.9,1.917,1.128a9.726,9.726,0,0,0,2.367.225c.79,0,.9-.338,1.692-.112a4.873,4.873,0,0,0,1.691.338,7.307,7.307,0,0,0,2.254,0c.677-.113.564,0,1.128-.451s1.015-1.128,1.579-1.353.45-.789,1.014-1.127.677-.226,1.24-1.015a12.657,12.657,0,0,0,1.128-2.819s.789-.451.338-2.818a10.836,10.836,0,0,0-.564-2.142c-.563-1.015-.563-1.128-1.127-1.579a3.729,3.729,0,0,1-1.128-1.691c-.225-.338-1.691-.676-2.029-.789a16.207,16.207,0,0,0-2.03-1.127,11.988,11.988,0,0,0-4.509.112A4.216,4.216,0,0,0,128.24,173.54Z"/><path class="cls-29" d="M135,176.132c-.9-.338-2.48-.112-2.48.564s.338,1.353-.226,1.8a5.161,5.161,0,0,1-1.8.676s-1.127-.338-1.24,0-1.014.226-.9.79a8.263,8.263,0,0,0,.226.9v1.353l-1.015-.451a6.16,6.16,0,0,0-1.465,1.917c-.226.789.112,1.691-.564,1.691a2.875,2.875,0,0,1-1.466-.677s-1.015-1.127-.338-1.465,1.015-.339,1.353-1.015a3.031,3.031,0,0,0,.113-1.691,3.435,3.435,0,0,1,0-1.127c.112-.451,0-.677.225-1.128s.451-1.353.9-1.691.789-.789,1.353-.676,1.015.338,1.691.451a1.727,1.727,0,0,0,1.691-.451c.338-.451-.113-.677.677-.9s1.691-.677,2.254-.451S135,176.132,135,176.132Z"/><path class="cls-30" d="M140.867,180.3a10.836,10.836,0,0,0-.564-2.142c-.563-1.015-.563-1.128-1.127-1.579a3.2,3.2,0,0,1-.419-.4c-.381.066-.821.176-.821.176a3.069,3.069,0,0,0,.338,2.029,23.515,23.515,0,0,1,.564,3.382,24.246,24.246,0,0,0-1.241,2.819c-.112.789-2.593,1.579-2.593,1.579l-1.24.338s-1.015-.451-.9.338-.225.789-.676,1.128a2.816,2.816,0,0,1-2.142.225c-.564-.225-1.015-.226-1.466-.451s-.9-.9-1.353-.451a1.828,1.828,0,0,1-2.142.113c-.789-.451-.9-.564-1.014-.9s-.9-.564-1.015-1.015a5.1,5.1,0,0,0-.7-1.187l.02.06a19.153,19.153,0,0,0,1.24,2.593c.339.676.113.789.9,1.352s.789.9,1.917,1.128a9.726,9.726,0,0,0,2.367.225c.79,0,.9-.338,1.692-.112a4.873,4.873,0,0,0,1.691.338,7.307,7.307,0,0,0,2.254,0c.677-.113.564,0,1.128-.451s1.015-1.128,1.579-1.353.45-.789,1.014-1.127.677-.226,1.24-1.015a12.657,12.657,0,0,0,1.128-2.819S141.318,182.671,140.867,180.3Z"/><path class="cls-30" d="M138.161,183.911c-.338.677-1.465.339-1.465-.225s.225-1.353-.339-1.8-1.183.568-1.127,1.015c.113.9.676.676,1.015,1.127a1.143,1.143,0,0,1,.225.9c-1.014,1.015-1.8.677-1.466,1.241s1.579.224,2.03.112.563-.789.9-1.127S138.161,183.911,138.161,183.911Z"/><path class="cls-31" d="M188.49,186.656s-11.15-8.9-13.13-12.143a9.636,9.636,0,0,1-2.519-8.278l3.882-23.831,1.6-1.959,13.192,2.348-7.589,23.741,4.67,8.173Z"/><path class="cls-31" d="M239.929,186.656s11.15-8.9,13.13-12.143a9.636,9.636,0,0,0,2.519-8.278L251.7,142.4l-1.6-1.959-13.192,2.348,7.589,23.741-4.67,8.173Z"/><path class="cls-32" d="M175.956,147.436c.107-2.273.711-3.412,1.173-7.284s1.172-10.265,2.273-13.781,2.735-5.47,4.333-6.429c1.186-.712,8.56-3.339,11.4-4.476s3.4-1.337,5.434-2.119,3.007-1.468,3.529-2.392.639-3.788.615-5.754a44.633,44.633,0,0,0-.556-5.576L214,99.559l9.839.066a44.445,44.445,0,0,0-.556,5.576c-.024,1.966.094,4.831.615,5.754s1.492,1.611,3.529,2.392,2.592.983,5.434,2.119,10.215,3.764,11.4,4.476c1.6.959,3.232,2.912,4.333,6.429s1.811,9.909,2.273,13.781,1.066,5.011,1.172,7.284Z"/><path class="cls-33" d="M174.4,152.222c.188-3.646,1.013-13.962,1.68-16.5.847-3.224,1.588-6.342,2.394-9.018a14.359,14.359,0,0,1,3.3-5.557,11.826,11.826,0,0,1,4.795-2.854c2.108-.805,4.617-1.8,7.08-2.794,1.822-.736,4.927-2.093,7.09-3.037.761-.333,1.4-.614,1.837-.8A22.42,22.42,0,0,1,214,113.02a22.424,22.424,0,0,1,11.414-1.361c.431.185,1.076.466,1.836.8,2.164.944,5.269,2.3,7.091,3.037,2.463.995,4.972,1.989,7.08,2.794a11.826,11.826,0,0,1,4.795,2.854,9.957,9.957,0,0,1,2.934,4.637c.805,2.676,1.946,6.543,2.891,9.938.706,2.531,1.492,12.858,1.681,16.5h-14.31l-2,24.966h-45.9l-2.548-24.966Z"/><g class="cls-34"><path class="cls-35" d="M214.07,101.256s.336,75.926,1.009,78.617"/><path class="cls-35" d="M201.977,99.71s1.681,77.272,2.354,79.963"/><path class="cls-35" d="M191.5,99.71s1.681,77.272,2.354,79.963"/><path class="cls-35" d="M225.32,104.755c0,72.23.066,72.492.672,74.918"/><path class="cls-35" d="M236.031,104.755s0,72.227.673,74.918"/><line class="cls-35" x1="185.889" y1="116.694" x2="175.691" y2="160.034"/><line class="cls-35" x1="242.18" y1="117.037" x2="251.604" y2="156.34"/></g><polygon class="cls-36" points="240.384 161.638 187.73 161.638 191.791 150.534 236.729 150.534 240.384 161.638"/><rect class="cls-37" x="187.73" y="161.638" width="52.536" height="28.583"/><rect class="cls-2" x="215.57" y="165.333" width="20.516" height="10.931"/><path class="cls-38" d="M186.77,180.848l1.185,1.522c1.353.169,5.013-1.961,5.013-1.961,1.912-.59,2.135.206,2.135.206a1.261,1.261,0,0,1-.513,2.017c2.506-.98,2.516-.09,2.516-.09a2.159,2.159,0,0,1-.646,2.586c1.343-.722,1.746-.388,1.746-.388,1.848,1.689-1,3.529-1,3.529.966-.183.966,1.059.966,1.059a2.773,2.773,0,0,1-1.058,1.564l-2.531,2.071a35,35,0,0,1-6.073-.276c-3.685-2.844-7.5-12.741-7.5-12.741-2.906-7.151,2.166-9.266,2.166-9.266s2.588-1.325,4.62,1.948v8.351"/><path class="cls-38" d="M241.265,180.848l-1.185,1.522c-1.353.169-5.012-1.961-5.012-1.961-1.913-.59-2.136.206-2.136.206a1.262,1.262,0,0,0,.514,2.017c-2.507-.98-2.517-.09-2.517-.09a2.159,2.159,0,0,0,.646,2.586c-1.342-.722-1.746-.388-1.746-.388-1.848,1.689,1,3.529,1,3.529-.966-.183-.966,1.059-.966,1.059a2.772,2.772,0,0,0,1.059,1.564l2.53,2.071a35,35,0,0,0,6.073-.276c3.686-2.844,7.5-12.741,7.5-12.741,2.907-7.151-2.166-9.266-2.166-9.266s-2.588-1.325-4.619,1.948v8.351"/><polygon class="cls-39" points="190.682 153.898 237.6 153.898 238.609 157.093 189.505 157.093 190.682 153.898"/><path id="head" class="cls-38" d="M211.44,107.474a16.6,16.6,0,0,1-4.167-3.042c-1.4-1.3-3.1-2.879-3.6-3.457a4.721,4.721,0,0,1-.982-2.321c-.308-1.267-.6-5.174-.6-5.174-.581.426-1.149.545-1.93-1.089a15.334,15.334,0,0,1-1.314-5.991c.047-1.705.473-3.244,1.326-2.96a3.546,3.546,0,0,1,1.231.64,19.436,19.436,0,0,1-.189-7.128c.615-2.818,1.407-6.266,5.375-8.691,5.342-3.265,9.419-3.3,14.823,0,3.968,2.425,4.759,5.873,5.375,8.691a19.436,19.436,0,0,1-.189,7.128,3.533,3.533,0,0,1,1.231-.64c.852-.284,1.279,1.255,1.326,2.96a15.334,15.334,0,0,1-1.314,5.991c-.781,1.634-1.35,1.515-1.93,1.089,0,0-.3,3.907-.6,5.174a4.721,4.721,0,0,1-.983,2.321c-.5.578-2.2,2.154-3.6,3.457a16.62,16.62,0,0,1-4.167,3.042A14.992,14.992,0,0,1,211.44,107.474Z"/><path class="cls-4" d="M201.85,89.265s-.331-3.6-.616-4.9c-.663-1.349-1.243-1.56-1.362-4.544s-.319-6.325,1.67-9.332a11.921,11.921,0,0,1,7.648-5.635,15.793,15.793,0,0,1,9.472.071c2.25.757,5.234,2.486,5.518,5.162,2.012-.119,2.864,1.775,3.433,2.912s.334,2.017.381,3.319a28.1,28.1,0,0,1-.312,5.791c-.294,1.448-.85,2.043-1.063,3.061s-.427,3.339-.427,3.339l-.26-.024s.047-2.936-.119-5.043a23.377,23.377,0,0,0-1.278-6.749c-.758-1.61-1.184-1.906-1.539-2.107-.142-.083-.155-.166-.024-.474s.379-1.2.71-1.87a5.659,5.659,0,0,0-1.018,1.657c-.757,1.463-5.984,8.274-10.668,8.845a18,18,0,0,0,2.262-2.854,30.088,30.088,0,0,0,1.977-3.066,43.366,43.366,0,0,1-4.9,4.4,61.937,61.937,0,0,1-5.15,3.552c-1.261.71-1.456.977-1.971.763S203,84.263,203,84.263a10.726,10.726,0,0,0-.888,4.759C202.027,89.271,201.85,89.265,201.85,89.265Z"/><path class="cls-40" d="M214,112.631c-.284-.093-.746-.26-1.438-.546a28.782,28.782,0,0,1-7.619-4.209c-.337-.266-.231-.692-.231-1.474-.479.249-.55.711-.852,1.456s-1.83,3.979-1.83,3.979a43.876,43.876,0,0,0,1.386,4.848c.6,1.837,1.405,4.588,1.908,6.056a.281.281,0,0,0,.511.051c.745-1.266,2.1-3.591,2.909-4.846.941-1.456,2.877-4.422,3.374-5.275.526.213,1.439.506,1.882.642.444-.136,1.357-.429,1.883-.642.5.853,2.433,3.819,3.374,5.275.812,1.255,2.164,3.58,2.909,4.846a.281.281,0,0,0,.51-.051c.5-1.468,1.307-4.219,1.909-6.056a43.611,43.611,0,0,0,1.385-4.848s-1.527-3.233-1.829-3.979-.373-1.207-.852-1.456c0,.782.106,1.208-.231,1.474a28.782,28.782,0,0,1-7.619,4.209C214.744,112.371,214.282,112.538,214,112.631Z"/><path class="cls-41" d="M226.829,69.555c-2.851-3.581-9.566-5.8-12.04-6.44a3.575,3.575,0,0,0-1.8,0c-2.474.641-9.157,2.884-12.04,6.44-2.917,3.6-.974,12.786-.507,13.749,0,0,3.433-3.091,13.445-5.843,10.013,2.752,13.6,5.843,13.6,5.843C227.954,82.341,229.694,73.152,226.829,69.555Z"/><path class="cls-42" d="M213.891,76.718c-8.545-.153-12.939,4.411-12.939,4.411a3.5,3.5,0,0,0,2.607,2.914,1.375,1.375,0,0,0,1.167-.19,17.129,17.129,0,0,1,9.165-3.193,18,18,0,0,1,9.213,3.226,1.378,1.378,0,0,0,1.095.208,3.359,3.359,0,0,0,2.631-2.965S222.436,76.565,213.891,76.718Z"/><path class="cls-43" d="M217.881,72.909c0,1.253-1.779,2.268-3.973,2.268s-3.973-1.015-3.973-2.268,1.779-2.268,3.973-2.268S217.881,71.657,217.881,72.909Z"/><path class="cls-4" d="M83.52,256.952a.9.9,0,0,1,.67-.28.957.957,0,1,1,0,1.914.9.9,0,0,1-.67-.28.968.968,0,0,1,0-1.354Zm.077,3.911,3.233-3.223a.083.083,0,0,0,0-.132L83.6,254.285a.465.465,0,0,1-.144-.341.482.482,0,0,1,.825-.34l3.223,3.233a.084.084,0,0,0,.133,0l3.222-3.233a.482.482,0,1,1,.682.681l-3.233,3.223a.082.082,0,0,0,0,.132l3.233,3.223a.482.482,0,1,1-.682.682l-3.222-3.233a.084.084,0,0,0-.133,0l-3.223,3.233a.482.482,0,1,1-.681-.682Zm3.294-7.282a.97.97,0,0,1,1.353,0,.9.9,0,0,1,.28.671.957.957,0,0,1-1.914,0A.905.905,0,0,1,86.891,253.581Zm0,6.749a.957.957,0,0,1,1.633.676.9.9,0,0,1-.28.671.97.97,0,0,1-1.353,0,.9.9,0,0,1-.281-.671A.921.921,0,0,1,86.891,260.33Zm3.377-3.378a.926.926,0,0,1,.676-.28.907.907,0,0,1,.671.28.968.968,0,0,1,0,1.354.907.907,0,0,1-.671.28.957.957,0,0,1-.676-1.634Z"/><path class="cls-4" d="M93.76,257.926l-.023-.121a.576.576,0,0,1,.105-.451.647.647,0,0,1,.4-.264,16.046,16.046,0,0,0,3.9-1.259,13.382,13.382,0,0,0,3.26-2.118.586.586,0,0,1,.441-.165.571.571,0,0,1,.418.2l.088.1a.64.64,0,0,1-.055.9,14.69,14.69,0,0,1-2.651,1.848.145.145,0,0,0-.078.133.1.1,0,0,0,.006.027.078.078,0,0,1,.006.027v4.73a.639.639,0,0,1-.627.627h-.33a.639.639,0,0,1-.627-.627v-4.036c0-.052-.026-.071-.077-.056a17.254,17.254,0,0,1-3.443,1.023.577.577,0,0,1-.462-.11A.617.617,0,0,1,93.76,257.926Z"/><path class="cls-4" d="M102.857,259.763a.551.551,0,0,1-.242-.4.59.59,0,0,1,.121-.451q.309-.417.892-1.221t.638-.869a15.5,15.5,0,0,1,1.435-1.881,1.386,1.386,0,0,1,.974-.319,1.729,1.729,0,0,1,.724.132,2.364,2.364,0,0,1,.606.43q.32.3,1.155,1.209,1.5,1.64,3.223,3.4a.653.653,0,0,1,0,.892l-.209.219a.6.6,0,0,1-.435.187.615.615,0,0,1-.434-.176q-1.386-1.419-3.245-3.454-.726-.8-.974-1.034a.688.688,0,0,0-.411-.231q-.132,0-.347.27t-.765,1.039q-.956,1.365-1.627,2.255a.613.613,0,0,1-.418.248.622.622,0,0,1-.473-.115Zm6.456-6.358a.627.627,0,0,1,.848.264q.208.363.44.836a.583.583,0,0,1,.039.474.589.589,0,0,1-.314.351l-.11.055a.59.59,0,0,1-.479.039.626.626,0,0,1-.368-.314q-.066-.143-.221-.418t-.219-.407a.591.591,0,0,1-.05-.468.544.544,0,0,1,.3-.357Zm1.925-.44a.627.627,0,0,1,.848.264q.307.571.462.869a.6.6,0,0,1-.276.825l-.142.077a.65.65,0,0,1-.848-.286l-.462-.858a.571.571,0,0,1-.044-.461.605.605,0,0,1,.309-.364Z"/><path class="cls-4" d="M114.729,254.923a.589.589,0,0,1-.264-.814l.109-.22a.608.608,0,0,1,.369-.308.672.672,0,0,1,.49.033q1.087.528,2.3,1.188a.592.592,0,0,1,.292.374.605.605,0,0,1-.049.473l-.121.22a.593.593,0,0,1-.374.291.605.605,0,0,1-.473-.049Q115.718,255.408,114.729,254.923Zm7.656-.352a.634.634,0,0,1,.483.748,7.892,7.892,0,0,1-2.535,4.422,9.561,9.561,0,0,1-5.087,2,.6.6,0,0,1-.468-.127.657.657,0,0,1-.248-.423l-.021-.2a.564.564,0,0,1,.109-.456.588.588,0,0,1,.407-.237,8.372,8.372,0,0,0,4.257-1.65,6.742,6.742,0,0,0,2.167-3.641.66.66,0,0,1,.286-.4.6.6,0,0,1,.474-.088Z"/><path class="cls-4" d="M125.857,262.172a.621.621,0,0,1-.616-.616V253.7a.621.621,0,0,1,.616-.616h.3a.608.608,0,0,1,.44.182.581.581,0,0,1,.187.434v2.376c0,.067.026.1.077.11a55.35,55.35,0,0,1,5.325,1.6.625.625,0,0,1,.357.32.6.6,0,0,1,.027.483l-.066.209a.624.624,0,0,1-.781.385q-2.607-.913-4.862-1.485a.046.046,0,0,0-.055.017.091.091,0,0,0-.022.06v3.784a.581.581,0,0,1-.187.434.612.612,0,0,1-.44.182Z"/><path class="cls-4" d="M135.646,262.117a.689.689,0,0,1-.484-.115.638.638,0,0,1-.274-.413,19.422,19.422,0,0,1,0-7.92.631.631,0,0,1,.274-.412.684.684,0,0,1,.484-.116l.209.022a.5.5,0,0,1,.385.232.545.545,0,0,1,.088.45,18.788,18.788,0,0,0,0,7.568.548.548,0,0,1-.088.451.5.5,0,0,1-.385.231Zm4.961-.385a4.359,4.359,0,0,1-2.447-.6,1.842,1.842,0,0,1-.9-1.6,3.075,3.075,0,0,1,.946-1.925.6.6,0,0,1,.45-.2.7.7,0,0,1,.474.16l.054.033a.522.522,0,0,1,.209.407.6.6,0,0,1-.154.44,1.849,1.849,0,0,0-.527,1.035q0,.935,1.891.934a10.569,10.569,0,0,0,1.793-.165.623.623,0,0,1,.715.5v.044a.666.666,0,0,1-.1.485.574.574,0,0,1-.4.263A10.232,10.232,0,0,1,140.607,261.732Zm-1.8-7.81h3.486a.641.641,0,0,1,.628.627v.033a.641.641,0,0,1-.628.627H138.8a.587.587,0,0,1-.435-.187.612.612,0,0,1-.182-.44v-.033a.613.613,0,0,1,.182-.44A.584.584,0,0,1,138.8,253.922Z"/><path class="cls-4" d="M147.734,262.249a3.11,3.11,0,0,1-2.089-.61,2.043,2.043,0,0,1-.705-1.623,1.924,1.924,0,0,1,.721-1.6,3.274,3.274,0,0,1,2.073-.572,6.015,6.015,0,0,1,.892.066.062.062,0,0,0,.065-.017.074.074,0,0,0,.034-.06v-4.389a.611.611,0,0,1,.181-.44.587.587,0,0,1,.435-.187h.22a.637.637,0,0,1,.626.627v1.045c0,.059.034.088.1.088H152.9a.585.585,0,0,1,.435.188.624.624,0,0,1,0,.879.587.587,0,0,1-.435.187h-2.618c-.065,0-.1.029-.1.088v2.365a.129.129,0,0,0,.078.132,17.322,17.322,0,0,1,2.936,1.87.549.549,0,0,1,.232.412.614.614,0,0,1-.143.457l-.077.1a.608.608,0,0,1-.418.225.632.632,0,0,1-.462-.126,22.176,22.176,0,0,0-2.068-1.462.043.043,0,0,0-.055-.006.05.05,0,0,0-.033.049,2.414,2.414,0,0,1-.65,1.744A2.533,2.533,0,0,1,147.734,262.249Zm0-3.135q-1.364,0-1.363.9a.864.864,0,0,0,.329.748,1.762,1.762,0,0,0,1.034.242.91.91,0,0,0,.765-.291,1.67,1.67,0,0,0,.226-1v-.407a.109.109,0,0,0-.1-.11A4.18,4.18,0,0,0,147.734,259.114Z"/><path class="cls-4" d="M156.459,258.762a.618.618,0,0,1-.616-.616v-4.334a.62.62,0,0,1,.616-.616h.186a.614.614,0,0,1,.441.182.586.586,0,0,1,.186.434v1.541a.021.021,0,0,0,.023-.023,3.545,3.545,0,0,1,3.124-1.914,2.64,2.64,0,0,1,2.15.951,4.1,4.1,0,0,1,.786,2.679,4.883,4.883,0,0,1-1.375,3.8,6.759,6.759,0,0,1-4.367,1.358.6.6,0,0,1-.456-.171.665.665,0,0,1-.215-.445l-.01-.077a.575.575,0,0,1,.159-.435.6.6,0,0,1,.424-.192,5.218,5.218,0,0,0,3.322-.979,3.7,3.7,0,0,0,.978-2.86,2.933,2.933,0,0,0-.4-1.678,1.313,1.313,0,0,0-1.145-.566,2.532,2.532,0,0,0-1.88.952,4.5,4.5,0,0,0-1.1,2.392.76.76,0,0,1-.232.44.636.636,0,0,1-.451.176Z"/><path class="cls-4" d="M165.441,260.435a.563.563,0,0,1-.561-.562.56.56,0,0,1,.165-.4.531.531,0,0,1,.4-.171H167c.066,0,.1-.03.1-.088v-.374c0-.059-.034-.088-.1-.088h-1.188a.516.516,0,0,1-.369-.154.519.519,0,0,1,0-.748.516.516,0,0,1,.369-.154h1.21a.069.069,0,0,0,.078-.077.511.511,0,0,1,.131-.341c.036-.037.026-.055-.033-.055h-1.056a.616.616,0,0,1-.44-.181.584.584,0,0,1-.186-.435v-3.157a.6.6,0,0,1,.186-.44.606.606,0,0,1,.44-.187h7.37a.639.639,0,0,1,.627.627v3.157a.585.585,0,0,1-.187.435.615.615,0,0,1-.44.181h-1.056a.039.039,0,0,0-.033.016.039.039,0,0,0,0,.039.512.512,0,0,1,.132.341.068.068,0,0,0,.077.077h1.177a.528.528,0,1,1,0,1.056h-1.155c-.066,0-.1.029-.1.088v.374c0,.058.033.088.1.088h1.562a.531.531,0,0,1,.4.171.556.556,0,0,1,.165.4.563.563,0,0,1-.561.562h-2.244a.032.032,0,0,0-.022.01.013.013,0,0,0,0,.022,20.558,20.558,0,0,1,2.189.946.5.5,0,0,1,.275.352.55.55,0,0,1-.088.451l-.022.033a.618.618,0,0,1-.4.264.708.708,0,0,1-.489-.066,23.374,23.374,0,0,0-2.431-1.133.527.527,0,0,1-.319-.325.5.5,0,0,1,.033-.445l.022-.033a.047.047,0,0,0,0-.049.054.054,0,0,0-.05-.027h-1.672c-.015,0-.027.01-.038.032s-.014.037-.006.044a.615.615,0,0,1,.094.44.513.513,0,0,1-.248.363,11.807,11.807,0,0,1-2.607,1.188.723.723,0,0,1-.522-.017.745.745,0,0,1-.391-.346.467.467,0,0,1-.027-.434.511.511,0,0,1,.324-.3,15.244,15.244,0,0,0,2.277-.923.042.042,0,0,0,.011-.029c0-.011-.007-.015-.022-.015Zm1.551-6.381v.451a.078.078,0,0,0,.088.088h1.936c.066,0,.1-.03.1-.088v-.451c0-.059-.033-.088-.1-.088H167.08A.078.078,0,0,0,166.992,254.054Zm0,2.047a.077.077,0,0,0,.088.087h1.936q.1,0,.1-.087v-.463a.088.088,0,0,0-.1-.1H167.08c-.059,0-.088.033-.088.1Zm4.2,1.121h-2.728a.038.038,0,0,0-.033.016.039.039,0,0,0,0,.039.512.512,0,0,1,.132.341.068.068,0,0,0,.077.077h2.377a.068.068,0,0,0,.076-.077.508.508,0,0,1,.133-.341C171.264,257.24,171.253,257.222,171.194,257.222Zm-.1,1.991v-.374c0-.059-.033-.088-.1-.088h-2.332c-.066,0-.1.029-.1.088v.374c0,.058.033.088.1.088H171C171.062,259.3,171.1,259.271,171.1,259.213Zm-.55-5.159v.451c0,.058.033.088.1.088h1.935a.078.078,0,0,0,.088-.088v-.451a.078.078,0,0,0-.088-.088h-1.935C170.578,253.966,170.545,254,170.545,254.054Zm0,1.584v.463c0,.058.033.087.1.087h1.935a.077.077,0,0,0,.088-.087v-.463c0-.066-.029-.1-.088-.1h-1.935A.088.088,0,0,0,170.545,255.638Z"/><path class="cls-4" d="M176.525,260.676a.522.522,0,0,1-.34-.308.613.613,0,0,1-.012-.472q.835-2.126,1.518-4.412c.015-.058-.007-.088-.066-.088h-.813a.584.584,0,0,1-.435-.187.623.623,0,0,1,0-.88.583.583,0,0,1,.435-.186h1.166a.111.111,0,0,0,.12-.089c.029-.095.066-.239.11-.429s.081-.334.11-.429a.673.673,0,0,1,.286-.4.682.682,0,0,1,.484-.116h.077a.53.53,0,0,1,.391.242.564.564,0,0,1,.082.451c-.074.308-.128.535-.165.682-.015.059.011.089.077.089h1.111a.627.627,0,0,1,0,1.253h-1.452a.114.114,0,0,0-.121.1,49.147,49.147,0,0,1-1.639,4.829.672.672,0,0,1-.336.358.611.611,0,0,1-.489.027Zm8.7-6.391a.57.57,0,0,1,.422.231.621.621,0,0,1,.127.473.58.58,0,0,1-.242.407.621.621,0,0,1-.462.122,11.345,11.345,0,0,0-1.188-.089c-.059,0-.088.033-.088.1v3.333a.176.176,0,0,0,.066.143,12.377,12.377,0,0,1,1.584,1.188.567.567,0,0,1,.209.429.6.6,0,0,1-.165.451l-.033.033a.649.649,0,0,1-.429.209.6.6,0,0,1-.451-.143c-.11-.095-.261-.218-.451-.368s-.3-.237-.33-.259-.073-.022-.088.022a1.866,1.866,0,0,1-.786,1.248,3.073,3.073,0,0,1-1.7.4,2.939,2.939,0,0,1-1.909-.561,1.869,1.869,0,0,1-.687-1.529,1.84,1.84,0,0,1,.677-1.5,2.945,2.945,0,0,1,1.919-.556,3.861,3.861,0,0,1,1.1.187c.051.015.077-.007.077-.066v-3.42a.614.614,0,0,1,.182-.441.547.547,0,0,1,.434-.176C183.954,254.183,184.69,254.227,185.227,254.285Zm-2.828,5.434v-.044a.128.128,0,0,0-.087-.132,2.5,2.5,0,0,0-1.09-.286,1.487,1.487,0,0,0-.908.231.76.76,0,0,0-.3.638.794.794,0,0,0,.319.671,1.443,1.443,0,0,0,.891.242,1.231,1.231,0,0,0,.924-.275A1.587,1.587,0,0,0,182.4,259.719Z"/><path class="cls-4" d="M188.369,258.762a.62.62,0,0,1-.616-.616v-4.334a.621.621,0,0,1,.616-.616h.187a.612.612,0,0,1,.44.182.587.587,0,0,1,.187.434v1.541a.02.02,0,0,0,.022-.023,3.545,3.545,0,0,1,3.124-1.914,2.64,2.64,0,0,1,2.15.951,4.1,4.1,0,0,1,.787,2.679,4.883,4.883,0,0,1-1.375,3.8,6.76,6.76,0,0,1-4.368,1.358.605.605,0,0,1-.456-.171.659.659,0,0,1-.214-.445l-.011-.077a.575.575,0,0,1,.159-.435.6.6,0,0,1,.424-.192,5.218,5.218,0,0,0,3.322-.979,3.7,3.7,0,0,0,.979-2.86,2.932,2.932,0,0,0-.4-1.678,1.312,1.312,0,0,0-1.144-.566,2.532,2.532,0,0,0-1.881.952,4.509,4.509,0,0,0-1.1,2.392.759.759,0,0,1-.231.44.639.639,0,0,1-.452.176Z"/><path class="cls-4" d="M197.769,255.1a.639.639,0,0,1-.627-.627.581.581,0,0,1,.187-.434.61.61,0,0,1,.44-.182h3.64a.088.088,0,0,0,.1-.1v-.341a.607.607,0,0,1,.181-.439.586.586,0,0,1,.435-.188h.153a.585.585,0,0,1,.435.188.608.608,0,0,1,.182.439v.341a.087.087,0,0,0,.1.1h2.1a.608.608,0,0,1,.439.182.582.582,0,0,1,.188.434.641.641,0,0,1-.627.627h-2.1c-.065,0-.1.03-.1.089v.769a.087.087,0,0,0,.1.1h1.716a.6.6,0,0,1,.6.605.6.6,0,0,1-.175.435.577.577,0,0,1-.429.181h-1.716a.088.088,0,0,0-.1.1v1.584a.17.17,0,0,0,.077.144,13.377,13.377,0,0,1,2.055,1.5.565.565,0,0,1,.209.429.6.6,0,0,1-.165.451l-.032.033a.634.634,0,0,1-.435.2.571.571,0,0,1-.445-.16q-.693-.6-1.242-1c-.052-.036-.085-.026-.1.033a1.83,1.83,0,0,1-.8,1.27,3.4,3.4,0,0,1-1.8.391,2.813,2.813,0,0,1-1.831-.544,1.843,1.843,0,0,1-.666-1.513,1.772,1.772,0,0,1,.61-1.4,2.812,2.812,0,0,1,1.887-.534,4.346,4.346,0,0,1,1.2.165c.058.015.088-.007.088-.066v-.979a.088.088,0,0,0-.1-.1h-3.256a.6.6,0,0,1-.6-.6.6.6,0,0,1,.176-.435.571.571,0,0,1,.428-.181h3.256a.088.088,0,0,0,.1-.1V255.2a.088.088,0,0,0-.1-.1Zm2.453,5.907a1.522,1.522,0,0,0,1-.247,1.262,1.262,0,0,0,.286-.93.122.122,0,0,0-.088-.121,2.965,2.965,0,0,0-1.057-.23,1.827,1.827,0,0,0-.928.175.592.592,0,0,0-.282.539.712.712,0,0,0,.282.6A1.265,1.265,0,0,0,200.222,261.006Z"/><path class="cls-4" d="M207.979,254.989a.582.582,0,0,1-.584-.583.583.583,0,0,1,.17-.418.557.557,0,0,1,.414-.176h4.52c.066,0,.1-.029.1-.088v-.495a.635.635,0,0,1,.627-.626h.142a.635.635,0,0,1,.627.626v.484c0,.066.029.1.088.1h2.255a.557.557,0,0,1,.413.176.583.583,0,0,1,.17.418.582.582,0,0,1-.583.583h-2.255c-.059,0-.088.033-.088.1v1.991a.474.474,0,0,0,.033.187,3.832,3.832,0,0,1,.253,1.386,3.342,3.342,0,0,1-.814,2.41,4.684,4.684,0,0,1-2.7,1.143.576.576,0,0,1-.467-.121.7.7,0,0,1-.27-.418v-.044a.558.558,0,0,1,.1-.445.605.605,0,0,1,.4-.248,4.239,4.239,0,0,0,1.694-.533,1.58,1.58,0,0,0,.638-1,.049.049,0,0,1,.006-.022.059.059,0,0,0,0-.022v-.011h-.032a2.212,2.212,0,0,1-1.431.451,2.252,2.252,0,0,1-1.633-.61,2.071,2.071,0,0,1-.633-1.557,2.049,2.049,0,0,1,.644-1.562,2.335,2.335,0,0,1,1.666-.605,2.476,2.476,0,0,1,1.1.253c.007,0,.011,0,.011.006s0,.006.011.006a.011.011,0,0,0,.012-.012v-.627a.088.088,0,0,0-.1-.1Zm4.455,3.35a.973.973,0,0,0,0-1.419,1.257,1.257,0,0,0-1.584,0,.969.969,0,0,0,0,1.419,1.26,1.26,0,0,0,1.584,0Z"/></svg>