<svg id="レイヤー_1" data-name="レイヤー 1" xmlns="http://www.w3.org/2000/svg" xmlns:xlink="http://www.w3.org/1999/xlink" viewBox="0 0 300 300"><defs><style>.cls-1,.cls-10,.cls-9{fill:#fff;}.cls-2{fill:#ff801e;}.cls-3{fill:gray;}.cls-4{fill:#b1b1b1;}.cls-5{fill:#e4e4e4;}.cls-6{fill:#cacaca;}.cls-7{fill:#ffc83b;}.cls-8{fill:url(#linear-gradient);}.cls-10,.cls-11,.cls-9{stroke:#ff801e;stroke-linecap:round;stroke-linejoin:round;}.cls-11,.cls-9{stroke-width:2px;}.cls-11{fill:none;}.cls-12{fill:#333;}</style><linearGradient id="linear-gradient" x1="2337.416" y1="101.739" x2="2363.493" y2="141.831" gradientTransform="matrix(0.975, -0.224, 0.224, 0.975, -2163.386, 498.343)" gradientUnits="userSpaceOnUse"><stop offset="0" stop-color="#fff"/><stop offset="0.461" stop-color="#fcfdfd"/><stop offset="0.738" stop-color="#f4f5f5"/><stop offset="0.966" stop-color="#e6e7e7"/><stop offset="1" stop-color="#e3e4e4"/></linearGradient></defs><circle class="cls-1" cx="150" cy="150" r="147.5"/><path class="cls-2" d="M150,5A145,145,0,0,1,252.531,252.53,145,145,0,0,1,47.469,47.47,144.052,144.052,0,0,1,150,5m0-5A150,150,0,1,0,300,150,150,150,0,0,0,150,0Z"/><circle class="cls-2" cx="35" cy="35" r="35"/><path class="cls-1" d="M13.491,39.588V30.454c0-6.048,4.053-10.269,9.912-10.269,5.8,0,9.912,4.221,9.912,10.269v9.134c0,6.027-4.116,10.227-9.912,10.227C17.544,49.815,13.491,45.615,13.491,39.588Zm14.028-.252v-8.63c0-3.78-1.89-4.956-4.116-4.956-2.268,0-4.116,1.176-4.116,4.977v8.588c0,3.759,1.911,4.935,4.116,4.935C25.587,44.25,27.519,43.074,27.519,39.336Z"/><path class="cls-1" d="M36.665,42.36a2.3,2.3,0,0,1,2.394-3h.4A2.617,2.617,0,0,1,42.1,41.119a4.375,4.375,0,0,0,4.474,3.173c2.289,0,4.137-.966,4.137-3.4s-1.505-3.507-4.284-3.507H45.253a2.189,2.189,0,0,1-2.352-2.5,2.218,2.218,0,0,1,2.352-2.5h1.113c2.328,0,3.906-1.421,3.906-3.528,0-2.436-1.785-3.36-4.074-3.36a4.087,4.087,0,0,0-4.106,3.035,2.476,2.476,0,0,1-2.325,1.732h-.435a2.293,2.293,0,0,1-2.394-2.982c.735-4.368,4.346-7.1,9.323-7.1,5.649,0,9.744,3.024,9.744,7.854,0,3.192-1.491,5.564-4.011,6.552a6.274,6.274,0,0,1,4.515,6.257c0,5.712-4.158,8.967-10.122,8.967C41.348,49.815,37.441,47,36.665,42.36Z"/><rect class="cls-3" x="76.258" y="52" width="147.482" height="101.133" rx="7.962"/><path class="cls-1" d="M85.062,58.5H214.94a2.424,2.424,0,0,1,2.424,2.424v83.292a2.424,2.424,0,0,1-2.424,2.424H85.062a2.425,2.425,0,0,1-2.425-2.425V60.922A2.425,2.425,0,0,1,85.062,58.5Z"/><path class="cls-4" d="M244.683,183.088c0,1.823-2.091,2.971-7.893,2.971H63.209c-5.8,0-7.9-1.148-7.892-2.971l-.29-3.477c5.142,0,183.372-.345,189.906-.155Z"/><path class="cls-5" d="M244.683,178.872c1.426,1.621-2.091,2.971-7.893,2.971H63.209c-5.8,0-9.318-1.35-7.892-2.971l21.136-24.031c.838-.952,4.986-1.708,9.282-1.708H214.264c4.3,0,8.444.756,9.282,1.708Z"/><path class="cls-3" d="M219.943,167.29c.309.423-.807.768-2.494.768H82.551c-1.687,0-2.8-.345-2.494-.768l7.254-9.929c.245-.336,1.651-.607,3.141-.607h119.1c1.49,0,2.9.271,3.142.607Z"/><path class="cls-6" d="M175.048,177.523c.121.51-1.28.926-3.132.926H128.085c-1.852,0-3.254-.416-3.132-.926l1.282-5.377c.108-.453,1.6-.817,3.323-.817h40.885c1.726,0,3.213.364,3.322.817Z"/><rect class="cls-7" x="95.232" y="115.986" width="109.537" height="21.907" rx="10.954"/><path class="cls-8" d="M109.705,80.824l6.212,27.015,54.514-12.532,1.5-2.4-5.315-23.117-2.4-1.5Z"/><line class="cls-8" x1="161.508" y1="86.665" x2="121.301" y2="95.909"/><path class="cls-8" d="M183.966,63.751,168.118,67.4l-1.5,2.4,5.315,23.117,2.4,1.5,15.848-3.644Z"/><path class="cls-8" d="M183.966,63.751,168.118,67.4l-1.5,2.4,5.315,23.117,2.4,1.5,15.848-3.644Z"/><path class="cls-8" d="M119.628,87.019a.377.377,0,0,1-.3-.052.407.407,0,0,1-.175-.257l-.179-.776a.372.372,0,0,1,.048-.3.381.381,0,0,1,.249-.175l5.646-1.3a.386.386,0,0,1,.3.046.392.392,0,0,1,.175.252l.177.774a.4.4,0,0,1-.046.308.377.377,0,0,1-.251.18l-1.8.414a.052.052,0,0,0-.044.068l1.4,6.077a.366.366,0,0,1-.052.3.409.409,0,0,1-.257.176l-1.129.26a.4.4,0,0,1-.307-.047.369.369,0,0,1-.181-.25L121.5,86.647c-.011-.038-.033-.052-.068-.043Z"/><path class="cls-8" d="M129.117,91.7a.39.39,0,0,1-.478-.3l-1.68-7.305a.393.393,0,0,1,.048-.3.4.4,0,0,1,.252-.176l1.283-.3a.392.392,0,0,1,.3.048.384.384,0,0,1,.174.251l1.679,7.3a.387.387,0,0,1-.3.477Z"/><path class="cls-8" d="M136.413,90.14a4.378,4.378,0,0,1-3.344-.409,4.112,4.112,0,0,1-1.859-2.765,4.168,4.168,0,0,1,.429-3.3,4.375,4.375,0,0,1,2.867-1.824,4.9,4.9,0,0,1,2.405.018.421.421,0,0,1,.255.2.459.459,0,0,1,.065.329l-.1.7a.309.309,0,0,1-.161.235.35.35,0,0,1-.289.032,3.3,3.3,0,0,0-1.653-.04,2.489,2.489,0,0,0-1.672,1.119,2.745,2.745,0,0,0-.223,2.091,2.686,2.686,0,0,0,1.14,1.765,2.482,2.482,0,0,0,1.966.293,3.309,3.309,0,0,0,1.471-.756.34.34,0,0,1,.272-.1.31.31,0,0,1,.248.14l.392.587a.452.452,0,0,1,.085.324.408.408,0,0,1-.141.294A4.891,4.891,0,0,1,136.413,90.14Z"/><path class="cls-8" d="M140.75,89.026a.4.4,0,0,1-.308-.046.369.369,0,0,1-.181-.25l-1.68-7.305a.376.376,0,0,1,.054-.3.414.414,0,0,1,.257-.176l1.094-.252a.385.385,0,0,1,.3.048.38.38,0,0,1,.175.251l.706,3.066c0,.008.006.011.014.009s.02-.009.02-.016l1.494-3.641a.739.739,0,0,1,.544-.464l1.395-.321a.19.19,0,0,1,.2.065.18.18,0,0,1,.024.21l-1.8,4.119a.058.058,0,0,0,.022.089l3.615,3.212a.18.18,0,0,1,.065.206.2.2,0,0,1-.158.153L145.21,88a.706.706,0,0,1-.685-.181l-3.132-2.938-.023,0c-.009,0-.01.006-.008.013l.782,3.4a.391.391,0,0,1-.3.476Z"/><path class="cls-8" d="M148.33,87.284a.391.391,0,0,1-.477-.3l-1.68-7.3a.388.388,0,0,1,.048-.3.382.382,0,0,1,.252-.174l4.383-1.007a.386.386,0,0,1,.474.3l.17.731a.409.409,0,0,1-.046.309.378.378,0,0,1-.249.179l-2.833.652a.05.05,0,0,0-.044.067l.353,1.539a.05.05,0,0,0,.068.042l2.612-.6a.382.382,0,0,1,.3.047.39.39,0,0,1,.175.251l.147.642a.407.407,0,0,1-.046.308.368.368,0,0,1-.249.179l-2.612.6a.052.052,0,0,0-.044.069l.429,1.86a.049.049,0,0,0,.068.042l2.833-.651a.37.37,0,0,1,.3.053.407.407,0,0,1,.176.256l.167.73a.386.386,0,0,1-.3.477Z"/><path class="cls-8" d="M153.284,79.281a.379.379,0,0,1-.3-.052.409.409,0,0,1-.175-.257l-.179-.776a.393.393,0,0,1,.048-.3.384.384,0,0,1,.252-.175l5.643-1.3a.389.389,0,0,1,.3.047.379.379,0,0,1,.176.251l.179.775a.406.406,0,0,1-.046.308.374.374,0,0,1-.251.179l-1.8.415a.052.052,0,0,0-.044.068l1.4,6.077a.376.376,0,0,1-.053.3.389.389,0,0,1-.256.176l-1.128.26a.4.4,0,0,1-.31-.047.371.371,0,0,1-.179-.248l-1.4-6.077a.051.051,0,0,0-.068-.043Z"/><path class="cls-8" d="M123.391,100.286a1,1,0,0,1-1.288.3,1.037,1.037,0,0,1-.3-1.309,1.006,1.006,0,0,1,1.288-.3,1.038,1.038,0,0,1,.3,1.309Zm-.545-1a.5.5,0,0,0-.691.158.8.8,0,0,0,.192.837.5.5,0,0,0,.691-.159.65.65,0,0,0,.027-.447A.637.637,0,0,0,122.846,99.283Z"/><path class="cls-8" d="M124.023,100.371a.1.1,0,0,1-.068-.011.079.079,0,0,1-.037-.053l-.363-1.578a.076.076,0,0,1,.011-.064.089.089,0,0,1,.055-.038l.391-.091a1.143,1.143,0,0,1,.649-.007.482.482,0,0,1,.291.365c.093.41-.093.667-.56.775l-.179.041c-.008,0-.01.007-.008.015l.111.49a.078.078,0,0,1-.011.065.081.081,0,0,1-.053.038Zm-.015-1.5.121.528c0,.008.006.01.015.008l.138-.032a.419.419,0,0,0,.251-.135.264.264,0,0,0,.043-.239.231.231,0,0,0-.131-.177.461.461,0,0,0-.288,0l-.14.031C124.008,98.861,124.006,98.867,124.008,98.875Z"/><path class="cls-8" d="M125.553,100.018a.083.083,0,0,1-.1-.064l-.362-1.577a.078.078,0,0,1,.011-.065.084.084,0,0,1,.052-.038l.947-.217a.083.083,0,0,1,.1.064l.037.159a.086.086,0,0,1-.009.065.092.092,0,0,1-.055.04l-.611.14c-.009,0-.011.007-.009.015l.076.332c0,.008.006.011.015.009l.562-.13a.083.083,0,0,1,.066.01.087.087,0,0,1,.037.055l.033.138a.086.086,0,0,1-.065.106l-.563.13c-.008,0-.01.006-.008.014l.092.4c0,.008,0,.011.014.009l.611-.14a.081.081,0,0,1,.1.066l.038.158a.085.085,0,0,1-.009.065.093.093,0,0,1-.055.038Z"/><path class="cls-8" d="M127.008,99.684a.093.093,0,0,1-.066-.009.082.082,0,0,1-.039-.055l-.363-1.577a.078.078,0,0,1,.011-.065.089.089,0,0,1,.055-.038l.227-.052a.142.142,0,0,1,.145.045l.8.861h.005v0l-.226-.984a.078.078,0,0,1,.011-.065.077.077,0,0,1,.055-.037l.224-.053a.1.1,0,0,1,.069.01.086.086,0,0,1,.039.054l.361,1.577a.091.091,0,0,1-.01.065.088.088,0,0,1-.057.038l-.226.052a.141.141,0,0,1-.143-.044l-.805-.862h0l0,0,.225.984a.086.086,0,0,1-.009.065.093.093,0,0,1-.055.038Z"/><path class="cls-8" d="M131.3,98.377a1.247,1.247,0,0,1-1.693.39,2.42,2.42,0,0,1-.512-2.226,1.255,1.255,0,0,1,1.694-.39,1.835,1.835,0,0,1,.534,1.051A1.809,1.809,0,0,1,131.3,98.377Zm-.929-1.737a.373.373,0,0,0-.392-.135.379.379,0,0,0-.3.293,2.624,2.624,0,0,0,.341,1.481.378.378,0,0,0,.4.135.372.372,0,0,0,.293-.292,2.625,2.625,0,0,0-.341-1.482Z"/><path class="cls-8" d="M133.824,97.8a1.251,1.251,0,0,1-1.694.39,2.429,2.429,0,0,1-.512-2.226,1.255,1.255,0,0,1,1.694-.39,2.43,2.43,0,0,1,.512,2.226ZM132.9,96.06a.4.4,0,0,0-.689.158,2.63,2.63,0,0,0,.341,1.482.377.377,0,0,0,.4.134.37.37,0,0,0,.293-.292,2.64,2.64,0,0,0-.34-1.482Z"/><path class="cls-8" d="M134.594,96.4a.131.131,0,0,1-.1-.017.138.138,0,0,1-.062-.088l-.1-.462a.139.139,0,0,1,.014-.108.128.128,0,0,1,.089-.063l.465-.107a.14.14,0,0,1,.167.108l.108.463a.138.138,0,0,1-.018.105.131.131,0,0,1-.088.062Zm.336,1.461a.133.133,0,0,1-.105-.016.138.138,0,0,1-.061-.088l-.106-.466a.136.136,0,0,1,.015-.105.147.147,0,0,1,.088-.062l.465-.107a.139.139,0,0,1,.169.105l.106.466a.138.138,0,0,1-.106.166Z"/><path class="cls-8" d="M138.06,96.825a1.255,1.255,0,0,1-1.7.389,2.442,2.442,0,0,1-.512-2.226,1.255,1.255,0,0,1,1.7-.389,2.443,2.443,0,0,1,.512,2.226Zm-.931-1.739a.392.392,0,0,0-.686.159,1.8,1.8,0,0,0,.06.766,1.818,1.818,0,0,0,.28.715.393.393,0,0,0,.686-.158,1.787,1.787,0,0,0-.058-.766A1.833,1.833,0,0,0,137.129,95.086Z"/><path class="cls-8" d="M140.58,96.245a1.255,1.255,0,0,1-1.7.389,1.807,1.807,0,0,1-.532-1.048,1.828,1.828,0,0,1,.02-1.178,1.259,1.259,0,0,1,1.7-.389,2.43,2.43,0,0,1,.512,2.226Zm-.931-1.738a.369.369,0,0,0-.39-.134.374.374,0,0,0-.3.292,2.613,2.613,0,0,0,.34,1.482.374.374,0,0,0,.393.133.368.368,0,0,0,.293-.291,2.576,2.576,0,0,0-.34-1.482Z"/><path class="cls-8" d="M141.287,96.564a.084.084,0,0,1-.084-.023.09.09,0,0,1-.025-.082l.608-3.023a.2.2,0,0,1,.166-.168l.3-.07a.086.086,0,0,1,.086.024.084.084,0,0,1,.024.081l-.608,3.022a.2.2,0,0,1-.164.17Z"/><path class="cls-8" d="M143.724,95.1a1.2,1.2,0,0,1-.524-.125.474.474,0,0,1-.219-.308.449.449,0,0,1,.087-.4.767.767,0,0,1,.447-.243,1.454,1.454,0,0,1,.513-.03.082.082,0,0,1,.059.034.109.109,0,0,1,.023.068v.159a.058.058,0,0,1-.028.052.071.071,0,0,1-.06.015,1.124,1.124,0,0,0-.417.016.343.343,0,0,0-.178.09.162.162,0,0,0-.034.144c.022.09.1.139.245.146a1.255,1.255,0,0,1,.555.119.521.521,0,0,1,.14.744.818.818,0,0,1-.478.25,1.105,1.105,0,0,1-.539-.007.086.086,0,0,1-.058-.041.1.1,0,0,1-.017-.071l.01-.166a.062.062,0,0,1,.028-.05.063.063,0,0,1,.061-.008.887.887,0,0,0,.46.022.306.306,0,0,0,.177-.094.187.187,0,0,0,.028-.16.166.166,0,0,0-.08-.112A.482.482,0,0,0,143.724,95.1Z"/><path class="cls-8" d="M144.534,94.173a.082.082,0,0,1-.066-.012.081.081,0,0,1-.037-.054l-.038-.168a.081.081,0,0,1,.063-.1l1.22-.28a.084.084,0,0,1,.064.01.089.089,0,0,1,.039.055l.036.167a.088.088,0,0,1-.009.066.076.076,0,0,1-.053.039l-.39.089a.011.011,0,0,0-.009.015l.3,1.312a.1.1,0,0,1-.012.066.088.088,0,0,1-.055.037l-.244.057a.094.094,0,0,1-.068-.011.077.077,0,0,1-.038-.053l-.3-1.312c0-.008-.006-.011-.014-.009Z"/><path class="cls-8" d="M146.4,95.225a.06.06,0,0,1-.054-.015.066.066,0,0,1-.022-.053l.171-1.7a.156.156,0,0,1,.031-.068.105.105,0,0,1,.06-.038l.264-.061a.109.109,0,0,1,.072.008.124.124,0,0,1,.057.049l.9,1.458a.062.062,0,0,1-.039.094l-.262.061a.1.1,0,0,1-.071-.009.112.112,0,0,1-.053-.048l-.142-.267a.014.014,0,0,0-.017-.009l-.531.122c-.006,0-.009.007-.012.015l-.009.3a.1.1,0,0,1-.023.067.141.141,0,0,1-.063.039Zm.393-1.554-.029.739.006,0,0,0,.364-.083.008-.006v-.006l-.348-.651,0,0Z"/><path class="cls-8" d="M148.231,94.805a.084.084,0,0,1-.1-.065l-.362-1.577a.081.081,0,0,1,.063-.1l.442-.1a1.075,1.075,0,0,1,.608-.009.431.431,0,0,1,.263.333.47.47,0,0,1-.026.3.51.51,0,0,1-.2.239l0,0,.006,0a.542.542,0,0,1,.263.235l.247.376a.06.06,0,0,1-.036.092l-.249.057a.113.113,0,0,1-.131-.053l-.227-.363a.281.281,0,0,0-.112-.117.254.254,0,0,0-.157,0l-.107.025c-.008,0-.01.007-.008.015l.125.55a.075.075,0,0,1-.012.065.084.084,0,0,1-.054.038Zm-.012-1.5.107.469a.011.011,0,0,0,.015.008l.123-.027a.4.4,0,0,0,.238-.129.238.238,0,0,0,.045-.213.207.207,0,0,0-.116-.157.446.446,0,0,0-.263,0l-.14.031C148.221,93.3,148.217,93.3,148.219,93.308Z"/><path class="cls-8" d="M149.421,93.05a.087.087,0,0,1-.1-.066l-.039-.168a.078.078,0,0,1,.011-.065.083.083,0,0,1,.053-.038l1.219-.28a.085.085,0,0,1,.066.01.087.087,0,0,1,.037.055l.037.167a.081.081,0,0,1-.062.1l-.391.089a.012.012,0,0,0-.008.015l.3,1.311a.08.08,0,0,1-.012.066.091.091,0,0,1-.055.038l-.243.056a.089.089,0,0,1-.067-.01.084.084,0,0,1-.039-.054l-.3-1.312c0-.008,0-.011-.014-.009Z"/><path class="cls-8" d="M153.95,93.172a1.256,1.256,0,0,1-1.7.389,2.425,2.425,0,0,1-.511-2.226,1.255,1.255,0,0,1,1.7-.389A1.8,1.8,0,0,1,153.969,92,1.82,1.82,0,0,1,153.95,93.172Zm-.932-1.738a.392.392,0,0,0-.686.158,1.842,1.842,0,0,0,.059.766,1.8,1.8,0,0,0,.282.715.393.393,0,0,0,.686-.158,2.586,2.586,0,0,0-.341-1.481Z"/><path class="cls-8" d="M156.47,92.592a1.252,1.252,0,0,1-1.7.389,2.44,2.44,0,0,1-.512-2.226,1.255,1.255,0,0,1,1.7-.389,2.443,2.443,0,0,1,.512,2.226Zm-.932-1.738a.392.392,0,0,0-.686.158,1.822,1.822,0,0,0,.061.767,1.8,1.8,0,0,0,.28.715.393.393,0,0,0,.686-.158,2.587,2.587,0,0,0-.341-1.482Z"/><path class="cls-8" d="M157.238,91.194a.126.126,0,0,1-.1-.016.142.142,0,0,1-.062-.089l-.1-.461a.141.141,0,0,1,.016-.108.135.135,0,0,1,.086-.063l.466-.107a.131.131,0,0,1,.106.019.133.133,0,0,1,.063.09l.106.461a.142.142,0,0,1-.016.107.15.15,0,0,1-.088.061Zm.339,1.463a.144.144,0,0,1-.108-.017.137.137,0,0,1-.059-.088l-.108-.466a.134.134,0,0,1,.1-.167l.467-.106a.132.132,0,0,1,.1.016.135.135,0,0,1,.062.088l.106.465a.129.129,0,0,1-.016.107.138.138,0,0,1-.087.061Z"/><path class="cls-8" d="M160.7,91.618a1.249,1.249,0,0,1-1.694.39,2.429,2.429,0,0,1-.512-2.226,1.255,1.255,0,0,1,1.694-.39,2.43,2.43,0,0,1,.512,2.226Zm-.929-1.737a.395.395,0,0,0-.689.157,2.625,2.625,0,0,0,.341,1.482.38.38,0,0,0,.4.135.37.37,0,0,0,.293-.293,2.634,2.634,0,0,0-.34-1.481Z"/><path class="cls-8" d="M163.224,91.039a1.251,1.251,0,0,1-1.694.39,2.429,2.429,0,0,1-.512-2.226,1.255,1.255,0,0,1,1.694-.39,2.429,2.429,0,0,1,.512,2.226Zm-.929-1.738a.394.394,0,0,0-.688.157,2.613,2.613,0,0,0,.34,1.482.376.376,0,0,0,.4.135.369.369,0,0,0,.293-.292,2.613,2.613,0,0,0-.34-1.482Z"/><path class="cls-9" d="M109.705,80.824l6.212,27.015,54.514-12.532,1.5-2.4-5.315-23.117-2.4-1.5Z"/><line class="cls-10" x1="161.508" y1="86.665" x2="121.301" y2="95.909"/><path class="cls-2" d="M183.966,63.751,168.118,67.4l-1.5,2.4,5.315,23.117,2.4,1.5,15.848-3.644Z"/><path class="cls-11" d="M183.966,63.751,168.118,67.4l-1.5,2.4,5.315,23.117,2.4,1.5,15.848-3.644Z"/><path class="cls-2" d="M119.628,87.019a.377.377,0,0,1-.3-.052.407.407,0,0,1-.175-.257l-.179-.776a.372.372,0,0,1,.048-.3.381.381,0,0,1,.249-.175l5.646-1.3a.386.386,0,0,1,.3.046.392.392,0,0,1,.175.252l.177.774a.4.4,0,0,1-.046.308.377.377,0,0,1-.251.18l-1.8.414a.052.052,0,0,0-.044.068l1.4,6.077a.366.366,0,0,1-.052.3.409.409,0,0,1-.257.176l-1.129.26a.4.4,0,0,1-.307-.047.369.369,0,0,1-.181-.25L121.5,86.647c-.011-.038-.033-.052-.068-.043Z"/><path class="cls-2" d="M129.117,91.7a.39.39,0,0,1-.478-.3l-1.68-7.305a.393.393,0,0,1,.048-.3.4.4,0,0,1,.252-.176l1.283-.3a.392.392,0,0,1,.3.048.384.384,0,0,1,.174.251l1.679,7.3a.387.387,0,0,1-.3.477Z"/><path class="cls-2" d="M136.413,90.14a4.378,4.378,0,0,1-3.344-.409,4.112,4.112,0,0,1-1.859-2.765,4.168,4.168,0,0,1,.429-3.3,4.375,4.375,0,0,1,2.867-1.824,4.9,4.9,0,0,1,2.405.018.421.421,0,0,1,.255.2.459.459,0,0,1,.065.329l-.1.7a.309.309,0,0,1-.161.235.35.35,0,0,1-.289.032,3.3,3.3,0,0,0-1.653-.04,2.489,2.489,0,0,0-1.672,1.119,2.745,2.745,0,0,0-.223,2.091,2.686,2.686,0,0,0,1.14,1.765,2.482,2.482,0,0,0,1.966.293,3.309,3.309,0,0,0,1.471-.756.34.34,0,0,1,.272-.1.31.31,0,0,1,.248.14l.392.587a.452.452,0,0,1,.085.324.408.408,0,0,1-.141.294A4.891,4.891,0,0,1,136.413,90.14Z"/><path class="cls-2" d="M140.75,89.026a.4.4,0,0,1-.308-.046.369.369,0,0,1-.181-.25l-1.68-7.305a.376.376,0,0,1,.054-.3.414.414,0,0,1,.257-.176l1.094-.252a.385.385,0,0,1,.3.048.38.38,0,0,1,.175.251l.706,3.066c0,.008.006.011.014.009s.02-.009.02-.016l1.494-3.641a.739.739,0,0,1,.544-.464l1.395-.321a.19.19,0,0,1,.2.065.18.18,0,0,1,.024.21l-1.8,4.119a.058.058,0,0,0,.022.089l3.615,3.212a.18.18,0,0,1,.065.206.2.2,0,0,1-.158.153L145.21,88a.706.706,0,0,1-.685-.181l-3.132-2.938-.023,0c-.009,0-.01.006-.008.013l.782,3.4a.391.391,0,0,1-.3.476Z"/><path class="cls-2" d="M148.33,87.284a.391.391,0,0,1-.477-.3l-1.68-7.3a.388.388,0,0,1,.048-.3.382.382,0,0,1,.252-.174l4.383-1.007a.386.386,0,0,1,.474.3l.17.731a.409.409,0,0,1-.046.309.378.378,0,0,1-.249.179l-2.833.652a.05.05,0,0,0-.044.067l.353,1.539a.05.05,0,0,0,.068.042l2.612-.6a.382.382,0,0,1,.3.047.39.39,0,0,1,.175.251l.147.642a.407.407,0,0,1-.046.308.368.368,0,0,1-.249.179l-2.612.6a.052.052,0,0,0-.044.069l.429,1.86a.049.049,0,0,0,.068.042l2.833-.651a.37.37,0,0,1,.3.053.407.407,0,0,1,.176.256l.167.73a.386.386,0,0,1-.3.477Z"/><path class="cls-2" d="M153.284,79.281a.379.379,0,0,1-.3-.052.409.409,0,0,1-.175-.257l-.179-.776a.393.393,0,0,1,.048-.3.384.384,0,0,1,.252-.175l5.643-1.3a.389.389,0,0,1,.3.047.379.379,0,0,1,.176.251l.179.775a.406.406,0,0,1-.046.308.374.374,0,0,1-.251.179l-1.8.415a.052.052,0,0,0-.044.068l1.4,6.077a.376.376,0,0,1-.053.3.389.389,0,0,1-.256.176l-1.128.26a.4.4,0,0,1-.31-.047.371.371,0,0,1-.179-.248l-1.4-6.077a.051.051,0,0,0-.068-.043Z"/><path class="cls-2" d="M123.391,100.286a1,1,0,0,1-1.288.3,1.037,1.037,0,0,1-.3-1.309,1.006,1.006,0,0,1,1.288-.3,1.038,1.038,0,0,1,.3,1.309Zm-.545-1a.5.5,0,0,0-.691.158.8.8,0,0,0,.192.837.5.5,0,0,0,.691-.159.65.65,0,0,0,.027-.447A.637.637,0,0,0,122.846,99.283Z"/><path class="cls-2" d="M124.023,100.371a.1.1,0,0,1-.068-.011.079.079,0,0,1-.037-.053l-.363-1.578a.076.076,0,0,1,.011-.064.089.089,0,0,1,.055-.038l.391-.091a1.143,1.143,0,0,1,.649-.007.482.482,0,0,1,.291.365c.093.41-.093.667-.56.775l-.179.041c-.008,0-.01.007-.008.015l.111.49a.078.078,0,0,1-.011.065.081.081,0,0,1-.053.038Zm-.015-1.5.121.528c0,.008.006.01.015.008l.138-.032a.419.419,0,0,0,.251-.135.264.264,0,0,0,.043-.239.231.231,0,0,0-.131-.177.461.461,0,0,0-.288,0l-.14.031C124.008,98.861,124.006,98.867,124.008,98.875Z"/><path class="cls-2" d="M125.553,100.018a.083.083,0,0,1-.1-.064l-.362-1.577a.078.078,0,0,1,.011-.065.084.084,0,0,1,.052-.038l.947-.217a.083.083,0,0,1,.1.064l.037.159a.086.086,0,0,1-.009.065.092.092,0,0,1-.055.04l-.611.14c-.009,0-.011.007-.009.015l.076.332c0,.008.006.011.015.009l.562-.13a.083.083,0,0,1,.066.01.087.087,0,0,1,.037.055l.033.138a.086.086,0,0,1-.065.106l-.563.13c-.008,0-.01.006-.008.014l.092.4c0,.008,0,.011.014.009l.611-.14a.081.081,0,0,1,.1.066l.038.158a.085.085,0,0,1-.009.065.093.093,0,0,1-.055.038Z"/><path class="cls-2" d="M127.008,99.684a.093.093,0,0,1-.066-.009.082.082,0,0,1-.039-.055l-.363-1.577a.078.078,0,0,1,.011-.065.089.089,0,0,1,.055-.038l.227-.052a.142.142,0,0,1,.145.045l.8.861h.005v0l-.226-.984a.078.078,0,0,1,.011-.065.077.077,0,0,1,.055-.037l.224-.053a.1.1,0,0,1,.069.01.086.086,0,0,1,.039.054l.361,1.577a.091.091,0,0,1-.01.065.088.088,0,0,1-.057.038l-.226.052a.141.141,0,0,1-.143-.044l-.805-.862h0l0,0,.225.984a.086.086,0,0,1-.009.065.093.093,0,0,1-.055.038Z"/><path class="cls-2" d="M131.3,98.377a1.247,1.247,0,0,1-1.693.39,2.42,2.42,0,0,1-.512-2.226,1.255,1.255,0,0,1,1.694-.39,1.835,1.835,0,0,1,.534,1.051A1.809,1.809,0,0,1,131.3,98.377Zm-.929-1.737a.373.373,0,0,0-.392-.135.379.379,0,0,0-.3.293,2.624,2.624,0,0,0,.341,1.481.378.378,0,0,0,.4.135.372.372,0,0,0,.293-.292,2.625,2.625,0,0,0-.341-1.482Z"/><path class="cls-2" d="M133.824,97.8a1.251,1.251,0,0,1-1.694.39,2.429,2.429,0,0,1-.512-2.226,1.255,1.255,0,0,1,1.694-.39,2.43,2.43,0,0,1,.512,2.226ZM132.9,96.06a.4.4,0,0,0-.689.158,2.63,2.63,0,0,0,.341,1.482.377.377,0,0,0,.4.134.37.37,0,0,0,.293-.292,2.64,2.64,0,0,0-.34-1.482Z"/><path class="cls-2" d="M134.594,96.4a.131.131,0,0,1-.1-.017.138.138,0,0,1-.062-.088l-.1-.462a.139.139,0,0,1,.014-.108.128.128,0,0,1,.089-.063l.465-.107a.14.14,0,0,1,.167.108l.108.463a.138.138,0,0,1-.018.105.131.131,0,0,1-.088.062Zm.336,1.461a.133.133,0,0,1-.105-.016.138.138,0,0,1-.061-.088l-.106-.466a.136.136,0,0,1,.015-.105.147.147,0,0,1,.088-.062l.465-.107a.139.139,0,0,1,.169.105l.106.466a.138.138,0,0,1-.106.166Z"/><path class="cls-2" d="M138.06,96.825a1.255,1.255,0,0,1-1.7.389,2.442,2.442,0,0,1-.512-2.226,1.255,1.255,0,0,1,1.7-.389,2.443,2.443,0,0,1,.512,2.226Zm-.931-1.739a.392.392,0,0,0-.686.159,1.8,1.8,0,0,0,.06.766,1.818,1.818,0,0,0,.28.715.393.393,0,0,0,.686-.158,1.787,1.787,0,0,0-.058-.766A1.833,1.833,0,0,0,137.129,95.086Z"/><path class="cls-2" d="M140.58,96.245a1.255,1.255,0,0,1-1.7.389,1.807,1.807,0,0,1-.532-1.048,1.828,1.828,0,0,1,.02-1.178,1.259,1.259,0,0,1,1.7-.389,2.43,2.43,0,0,1,.512,2.226Zm-.931-1.738a.369.369,0,0,0-.39-.134.374.374,0,0,0-.3.292,2.613,2.613,0,0,0,.34,1.482.374.374,0,0,0,.393.133.368.368,0,0,0,.293-.291,2.576,2.576,0,0,0-.34-1.482Z"/><path class="cls-2" d="M141.287,96.564a.084.084,0,0,1-.084-.023.09.09,0,0,1-.025-.082l.608-3.023a.2.2,0,0,1,.166-.168l.3-.07a.086.086,0,0,1,.086.024.084.084,0,0,1,.024.081l-.608,3.022a.2.2,0,0,1-.164.17Z"/><path class="cls-2" d="M143.724,95.1a1.2,1.2,0,0,1-.524-.125.474.474,0,0,1-.219-.308.449.449,0,0,1,.087-.4.767.767,0,0,1,.447-.243,1.454,1.454,0,0,1,.513-.03.082.082,0,0,1,.059.034.109.109,0,0,1,.023.068v.159a.058.058,0,0,1-.028.052.071.071,0,0,1-.06.015,1.124,1.124,0,0,0-.417.016.343.343,0,0,0-.178.09.162.162,0,0,0-.034.144c.022.09.1.139.245.146a1.255,1.255,0,0,1,.555.119.521.521,0,0,1,.14.744.818.818,0,0,1-.478.25,1.105,1.105,0,0,1-.539-.007.086.086,0,0,1-.058-.041.1.1,0,0,1-.017-.071l.01-.166a.062.062,0,0,1,.028-.05.063.063,0,0,1,.061-.008.887.887,0,0,0,.46.022.306.306,0,0,0,.177-.094.187.187,0,0,0,.028-.16.166.166,0,0,0-.08-.112A.482.482,0,0,0,143.724,95.1Z"/><path class="cls-2" d="M144.534,94.173a.082.082,0,0,1-.066-.012.081.081,0,0,1-.037-.054l-.038-.168a.081.081,0,0,1,.063-.1l1.22-.28a.084.084,0,0,1,.064.01.089.089,0,0,1,.039.055l.036.167a.088.088,0,0,1-.009.066.076.076,0,0,1-.053.039l-.39.089a.011.011,0,0,0-.009.015l.3,1.312a.1.1,0,0,1-.012.066.088.088,0,0,1-.055.037l-.244.057a.094.094,0,0,1-.068-.011.077.077,0,0,1-.038-.053l-.3-1.312c0-.008-.006-.011-.014-.009Z"/><path class="cls-2" d="M146.4,95.225a.06.06,0,0,1-.054-.015.066.066,0,0,1-.022-.053l.171-1.7a.156.156,0,0,1,.031-.068.105.105,0,0,1,.06-.038l.264-.061a.109.109,0,0,1,.072.008.124.124,0,0,1,.057.049l.9,1.458a.062.062,0,0,1-.039.094l-.262.061a.1.1,0,0,1-.071-.009.112.112,0,0,1-.053-.048l-.142-.267a.014.014,0,0,0-.017-.009l-.531.122c-.006,0-.009.007-.012.015l-.009.3a.1.1,0,0,1-.023.067.141.141,0,0,1-.063.039Zm.393-1.554-.029.739.006,0,0,0,.364-.083.008-.006v-.006l-.348-.651,0,0Z"/><path class="cls-2" d="M148.231,94.805a.084.084,0,0,1-.1-.065l-.362-1.577a.081.081,0,0,1,.063-.1l.442-.1a1.075,1.075,0,0,1,.608-.009.431.431,0,0,1,.263.333.47.47,0,0,1-.026.3.51.51,0,0,1-.2.239l0,0,.006,0a.542.542,0,0,1,.263.235l.247.376a.06.06,0,0,1-.036.092l-.249.057a.113.113,0,0,1-.131-.053l-.227-.363a.281.281,0,0,0-.112-.117.254.254,0,0,0-.157,0l-.107.025c-.008,0-.01.007-.008.015l.125.55a.075.075,0,0,1-.012.065.084.084,0,0,1-.054.038Zm-.012-1.5.107.469a.011.011,0,0,0,.015.008l.123-.027a.4.4,0,0,0,.238-.129.238.238,0,0,0,.045-.213.207.207,0,0,0-.116-.157.446.446,0,0,0-.263,0l-.14.031C148.221,93.3,148.217,93.3,148.219,93.308Z"/><path class="cls-2" d="M149.421,93.05a.087.087,0,0,1-.1-.066l-.039-.168a.078.078,0,0,1,.011-.065.083.083,0,0,1,.053-.038l1.219-.28a.085.085,0,0,1,.066.01.087.087,0,0,1,.037.055l.037.167a.081.081,0,0,1-.062.1l-.391.089a.012.012,0,0,0-.008.015l.3,1.311a.08.08,0,0,1-.012.066.091.091,0,0,1-.055.038l-.243.056a.089.089,0,0,1-.067-.01.084.084,0,0,1-.039-.054l-.3-1.312c0-.008,0-.011-.014-.009Z"/><path class="cls-2" d="M153.95,93.172a1.256,1.256,0,0,1-1.7.389,2.425,2.425,0,0,1-.511-2.226,1.255,1.255,0,0,1,1.7-.389A1.8,1.8,0,0,1,153.969,92,1.82,1.82,0,0,1,153.95,93.172Zm-.932-1.738a.392.392,0,0,0-.686.158,1.842,1.842,0,0,0,.059.766,1.8,1.8,0,0,0,.282.715.393.393,0,0,0,.686-.158,2.586,2.586,0,0,0-.341-1.481Z"/><path class="cls-2" d="M156.47,92.592a1.252,1.252,0,0,1-1.7.389,2.44,2.44,0,0,1-.512-2.226,1.255,1.255,0,0,1,1.7-.389,2.443,2.443,0,0,1,.512,2.226Zm-.932-1.738a.392.392,0,0,0-.686.158,1.822,1.822,0,0,0,.061.767,1.8,1.8,0,0,0,.28.715.393.393,0,0,0,.686-.158,2.587,2.587,0,0,0-.341-1.482Z"/><path class="cls-2" d="M157.238,91.194a.126.126,0,0,1-.1-.016.142.142,0,0,1-.062-.089l-.1-.461a.141.141,0,0,1,.016-.108.135.135,0,0,1,.086-.063l.466-.107a.131.131,0,0,1,.106.019.133.133,0,0,1,.063.09l.106.461a.142.142,0,0,1-.016.107.15.15,0,0,1-.088.061Zm.339,1.463a.144.144,0,0,1-.108-.017.137.137,0,0,1-.059-.088l-.108-.466a.134.134,0,0,1,.1-.167l.467-.106a.132.132,0,0,1,.1.016.135.135,0,0,1,.062.088l.106.465a.129.129,0,0,1-.016.107.138.138,0,0,1-.087.061Z"/><path class="cls-2" d="M160.7,91.618a1.249,1.249,0,0,1-1.694.39,2.429,2.429,0,0,1-.512-2.226,1.255,1.255,0,0,1,1.694-.39,2.43,2.43,0,0,1,.512,2.226Zm-.929-1.737a.395.395,0,0,0-.689.157,2.625,2.625,0,0,0,.341,1.482.38.38,0,0,0,.4.135.37.37,0,0,0,.293-.293,2.634,2.634,0,0,0-.34-1.481Z"/><path class="cls-2" d="M163.224,91.039a1.251,1.251,0,0,1-1.694.39,2.429,2.429,0,0,1-.512-2.226,1.255,1.255,0,0,1,1.694-.39,2.429,2.429,0,0,1,.512,2.226Zm-.929-1.738a.394.394,0,0,0-.688.157,2.613,2.613,0,0,0,.34,1.482.376.376,0,0,0,.4.135.369.369,0,0,0,.293-.292,2.613,2.613,0,0,0-.34-1.482Z"/><path class="cls-1" d="M134.679,131.877V122a.956.956,0,0,1,1.063-1.063h2.594c2.364,0,3.972,1.063,3.972,3.274v.171a2.519,2.519,0,0,1-1.5,2.525,2.59,2.59,0,0,1,1.616,2.595v.144c0,2.22-1.6,3.291-3.964,3.291h-2.713A.956.956,0,0,1,134.679,131.877Zm3.785-5.86c.816,0,1.5-.314,1.5-1.284v-.272c0-1.046-.782-1.267-1.718-1.267h-1.233v2.823Zm-.094,4.695c.9,0,1.718-.246,1.718-1.327v-.264c0-1-.757-1.284-1.633-1.284h-1.437v2.875Z"/><path class="cls-1" d="M145.736,128.8V122a.956.956,0,0,1,1.063-1.063h.213A.956.956,0,0,1,148.075,122v6.872a1.673,1.673,0,1,0,3.334,0V122a.956.956,0,0,1,1.063-1.063h.221A.956.956,0,0,1,153.756,122v6.8a4.012,4.012,0,1,1-8.02,0Z"/><path class="cls-1" d="M160,131.877v-3.214l-2.85-6.49c-.306-.74,0-1.233.757-1.233h.273a1.184,1.184,0,0,1,1.224.834l1.769,4.243,1.812-4.243a1.184,1.184,0,0,1,1.224-.834h.179c.8,0,1.131.5.817,1.233l-2.858,6.49v3.214a.956.956,0,0,1-1.063,1.063h-.221A.956.956,0,0,1,160,131.877Z"/><path class="cls-12" d="M86.938,214.313a1,1,0,0,1-.721-.3.958.958,0,0,1-.3-.711v-.577a1.044,1.044,0,0,1,1.026-1.026H92.7c.107,0,.162-.048.162-.143v-2.2c0-.095-.055-.143-.162-.143q-1.134.072-3.8.107a1.038,1.038,0,0,1-.738-.288.946.946,0,0,1-.306-.72v-.576a.973.973,0,0,1,.306-.728,1.018,1.018,0,0,1,.738-.3,47.48,47.48,0,0,0,5.435-.287,23.289,23.289,0,0,0,4.014-.846.977.977,0,0,1,.766.062,1.026,1.026,0,0,1,.512.585l.2.594a.986.986,0,0,1-.045.792.958.958,0,0,1-.585.5,19.521,19.521,0,0,1-3.2.775.169.169,0,0,0-.145.179v2.485a.127.127,0,0,0,.145.143h4.553a1.047,1.047,0,0,1,1.027,1.026v.577a.96.96,0,0,1-.307.711,1,1,0,0,1-.72.3H95.866q-.145,0-.18.18a7.112,7.112,0,0,1-1.647,3.943,7.353,7.353,0,0,1-3.807,1.979,1.037,1.037,0,0,1-.811-.117,1.164,1.164,0,0,1-.521-.656l-.2-.595a.848.848,0,0,1,.081-.729.973.973,0,0,1,.6-.459,5.019,5.019,0,0,0,2.3-1.178,4.065,4.065,0,0,0,1.008-2.224.089.089,0,0,0-.036-.1.174.174,0,0,0-.109-.045Z"/><path class="cls-12" d="M119.461,207.563a1.045,1.045,0,0,1,1.027,1.026v.576a.958.958,0,0,1-.306.711,1,1,0,0,1-.721.3H116.8c-.107,0-.162.049-.162.144a11.665,11.665,0,0,1-1.61,6.579,8.135,8.135,0,0,1-5,3.177,1.027,1.027,0,0,1-.8-.108,1.144,1.144,0,0,1-.514-.648l-.2-.593a.885.885,0,0,1,.071-.739.951.951,0,0,1,.595-.45,5.456,5.456,0,0,0,3.42-2.267,9.6,9.6,0,0,0,1.044-4.951.128.128,0,0,0-.145-.144h-3.851a.21.21,0,0,0-.216.144,14.125,14.125,0,0,1-1.782,3.1,1.061,1.061,0,0,1-.711.405,1.124,1.124,0,0,1-.8-.171l-.576-.36a.879.879,0,0,1-.414-.621.974.974,0,0,1,.162-.747,14.256,14.256,0,0,0,2.357-5.777,1.221,1.221,0,0,1,.414-.7,1.078,1.078,0,0,1,.756-.251l.792.054a1.015,1.015,0,0,1,.694.351.81.81,0,0,1,.207.711q-.054.431-.2,1.115c-.023.1.012.144.109.144Z"/><path class="cls-12" d="M125.668,213.665q-.432-1.8-.719-2.844a.957.957,0,0,1,.1-.756.91.91,0,0,1,.621-.45l.361-.09a1.094,1.094,0,0,1,1.277.756q.486,1.764.775,2.844a.912.912,0,0,1-.118.756.968.968,0,0,1-.638.45l-.433.108a1.007,1.007,0,0,1-.773-.134A.97.97,0,0,1,125.668,213.665Zm11.106-3.563q-.18,4.878-2.124,7.164t-6.245,2.9a1.018,1.018,0,0,1-.792-.188,1.109,1.109,0,0,1-.45-.694l-.073-.342a.95.95,0,0,1,.154-.729.924.924,0,0,1,.638-.4q3.4-.542,4.8-2.242t1.558-5.588a1.006,1.006,0,0,1,.314-.7.925.925,0,0,1,.711-.27l.5.036a1.141,1.141,0,0,1,.721.342A.924.924,0,0,1,136.774,210.1Zm-5.958,3.977a1.021,1.021,0,0,1-.774-.126.99.99,0,0,1-.467-.612q-.019-.106-.775-2.934a.992.992,0,0,1,.109-.783.927.927,0,0,1,.611-.459l.414-.09a1.093,1.093,0,0,1,.792.126.992.992,0,0,1,.486.63q.5,1.854.775,2.935a.946.946,0,0,1-.117.764.962.962,0,0,1-.64.459Z"/><path class="cls-12" d="M143.483,220.505a1.044,1.044,0,0,1-1.026-1.026V206.52a1.044,1.044,0,0,1,1.026-1.026h1.025a.953.953,0,0,1,.711.306,1,1,0,0,1,.3.72V210.3a.185.185,0,0,0,.162.2q4.231,1.044,8.55,2.557a1.026,1.026,0,0,1,.648,1.313l-.288.811a.99.99,0,0,1-.5.575.97.97,0,0,1-.755.055q-3.69-1.314-7.668-2.341c-.1-.024-.145.018-.145.126v5.886a1,1,0,0,1-.3.72.953.953,0,0,1-.711.306Z"/><path class="cls-12" d="M159.742,208.985a.955.955,0,0,1-.711-.305,1,1,0,0,1-.3-.721v-.27a1,1,0,0,1,.3-.719.957.957,0,0,1,.711-.307h2.61a.21.21,0,0,0,.216-.143q.036-.092.135-.36c.066-.181.117-.318.153-.414a1.178,1.178,0,0,1,.513-.657,1.128,1.128,0,0,1,.8-.153l.864.162a.831.831,0,0,1,.594.4.822.822,0,0,1,.072.711c-.012.035-.033.09-.063.161s-.052.126-.063.162c-.024.084.011.126.108.126h6.12a1.047,1.047,0,0,1,1.026,1.026v.27a1.044,1.044,0,0,1-1.026,1.026H164.71a.211.211,0,0,0-.216.126c-.287.613-.438.93-.45.954v.037h.036a4.512,4.512,0,0,1,1.512-.289,3.472,3.472,0,0,1,3.42,1.962.165.165,0,0,0,.216.108q1.1-.232,2.484-.4a.948.948,0,0,1,.747.216.957.957,0,0,1,.369.685l.036.341a1.03,1.03,0,0,1-.225.748.994.994,0,0,1-.675.386q-.972.144-2.16.361a.146.146,0,0,0-.126.2c.072.709.108,1.122.108,1.242a.926.926,0,0,1-.288.72.983.983,0,0,1-.72.306h-.864a1,1,0,0,1-.72-.3,1.025,1.025,0,0,1-.324-.711,4.821,4.821,0,0,0-.018-.487.107.107,0,0,0-.054-.09.119.119,0,0,0-.108-.018q-2.268.883-2.268,1.728a1.025,1.025,0,0,0,.72.963,8.092,8.092,0,0,0,2.79.315,28.951,28.951,0,0,0,3.528-.306.964.964,0,0,1,.747.207.929.929,0,0,1,.369.675l.036.433a1.056,1.056,0,0,1-.225.755.98.98,0,0,1-.675.4,32.964,32.964,0,0,1-3.78.217,10.748,10.748,0,0,1-4.914-.828,2.718,2.718,0,0,1-1.494-2.538,3.4,3.4,0,0,1,1.152-2.449,9.283,9.283,0,0,1,3.456-1.944c.1-.048.114-.107.054-.18a1.612,1.612,0,0,0-1.314-.522,2.71,2.71,0,0,0-1.584.567,10.5,10.5,0,0,0-1.944,2.062,1.141,1.141,0,0,1-.693.449,1.1,1.1,0,0,1-.8-.126l-.522-.288a.869.869,0,0,1-.45-.594.9.9,0,0,1,.144-.738,32.912,32.912,0,0,0,2.466-4.23q.072-.126-.09-.126Z"/><path class="cls-12" d="M177.168,220.739a1.106,1.106,0,0,1-.476-.666,1.126,1.126,0,0,1,.081-.828,19.346,19.346,0,0,0,.9-2.376c.036-.059.019-.09-.053-.09a.637.637,0,0,1-.451-.189.6.6,0,0,1-.2-.441V206.124a.955.955,0,0,1,.307-.711,1,1,0,0,1,.72-.3h3.276a1.014,1.014,0,0,1,1.008,1.008v4.193c0,.037.017.037.053,0a.835.835,0,0,1,.829-.54h1.061a.142.142,0,0,0,.162-.162v-.143a.142.142,0,0,0-.162-.162h-.647a.678.678,0,0,1-.685-.685.694.694,0,0,1,.2-.5.647.647,0,0,1,.487-.207h.647c.109,0,.162-.048.162-.144v-.162a.143.143,0,0,0-.162-.162h-.7a.9.9,0,1,1,0-1.8h.738a.111.111,0,0,0,.126-.126.768.768,0,0,1,.775-.773h1.116a.765.765,0,0,1,.773.773.111.111,0,0,0,.126.126h1.657c.072,0,.107-.041.107-.126a.734.734,0,0,1,.234-.549.782.782,0,0,1,.558-.224H190.9a.765.765,0,0,1,.773.773.111.111,0,0,0,.126.126h.685a.9.9,0,1,1,0,1.8h-.649a.143.143,0,0,0-.162.162v.162q0,.144.162.144h.594a.643.643,0,0,1,.486.207.7.7,0,0,1,.2.5.68.68,0,0,1-.685.685h-.594a.143.143,0,0,0-.162.162v.143a.143.143,0,0,0,.162.162h.936a.922.922,0,0,1,.918.918.854.854,0,0,1-.27.639.894.894,0,0,1-.648.262h-3.4a.143.143,0,0,0-.163.161v.144a.144.144,0,0,0,.163.162h2.664a1,1,0,0,1,.719.3.958.958,0,0,1,.306.711v3.042a.1.1,0,0,0,.108.109.707.707,0,0,1,.7.7v.684a.707.707,0,0,1-.7.7c-.072,0-.108.029-.108.089q0,1.062-.054,1.566a1.385,1.385,0,0,1-.333.81,1.068,1.068,0,0,1-.647.36,9.5,9.5,0,0,1-1.216.054q-.161,0-1.241-.036a1.052,1.052,0,0,1-.738-.333,1.174,1.174,0,0,1-.342-.747l-.019-.017a.886.886,0,0,1,.262-.685.822.822,0,0,1,.692-.252c.168.012.342.019.523.019.2,0,.329-.036.378-.109a1.341,1.341,0,0,0,.071-.576.127.127,0,0,0-.144-.143h-4.715a.143.143,0,0,0-.163.162V220.2a1.045,1.045,0,0,1-1.026,1.027h-.54a1.045,1.045,0,0,1-1.025-1.027v-1.782a.1.1,0,0,0-.109-.107.671.671,0,0,1-.5-.207.7.7,0,0,1-.2-.5v-.684a.691.691,0,0,1,.2-.494.664.664,0,0,1,.5-.207.1.1,0,0,0,.109-.109v-3.042a.957.957,0,0,1,.305-.711,1,1,0,0,1,.72-.3H186.4a.143.143,0,0,0,.161-.162v-.144a.142.142,0,0,0-.161-.161h-3.24a.837.837,0,0,1-.829-.54c-.036-.036-.053-.036-.053,0v4.715a1.014,1.014,0,0,1-1.008,1.008c-.1,0-.12.048-.072.144q.665,1.368,1.08,2.431a1.059,1.059,0,0,1,0,.809,1.122,1.122,0,0,1-.559.612l-.071.054a.882.882,0,0,1-.738.036.864.864,0,0,1-.523-.522q-.592-1.492-.846-2.052a.051.051,0,0,0-.062-.026.084.084,0,0,0-.064.045,23.074,23.074,0,0,1-.792,2.177.813.813,0,0,1-.548.487.846.846,0,0,1-.73-.126Zm1.081-3.96c-.025,0-.037.009-.037.028a.06.06,0,0,0,.019.045l1.241.593a.271.271,0,0,0,.271,0l1.044-.593a.066.066,0,0,0,.017-.045c0-.019-.012-.028-.036-.028h-2.519Zm1.026-9.36v.936a.127.127,0,0,0,.143.144h.5a.128.128,0,0,0,.145-.144v-.936a.128.128,0,0,0-.145-.144h-.5A.127.127,0,0,0,179.275,207.419Zm0,3.1v.918c0,.107.048.162.143.162h.5c.1,0,.145-.055.145-.162v-.918c0-.109-.049-.162-.145-.162h-.5C179.323,210.354,179.275,210.407,179.275,210.516Zm0,3.095v.918a.127.127,0,0,0,.143.144h.5a.128.128,0,0,0,.145-.144v-.918c0-.108-.049-.162-.145-.162h-.5C179.323,213.449,179.275,213.5,179.275,213.611Zm7.47.18c0-.1-.055-.144-.162-.144h-1.044c-.109,0-.163.048-.163.144v.307c0,.095.054.143.163.143h1.044c.107,0,.162-.048.162-.143Zm0,2.286v-.306c0-.095-.055-.144-.162-.144h-1.044c-.109,0-.163.049-.163.144v.306c0,.1.054.145.163.145h1.044C186.69,216.222,186.745,216.174,186.745,216.077Zm.305-8.46v.162q0,.144.162.144H188.8a.127.127,0,0,0,.144-.144v-.162q0-.162-.144-.162h-1.584A.143.143,0,0,0,187.05,207.617Zm0,1.855v.143a.143.143,0,0,0,.162.162H188.8c.1,0,.144-.053.144-.162v-.143c0-.109-.048-.162-.144-.162h-1.584A.143.143,0,0,0,187.05,209.472Zm1.981,4.319v.307c0,.095.053.143.162.143h1.061a.127.127,0,0,0,.144-.143v-.307a.127.127,0,0,0-.144-.144h-1.061C189.084,213.647,189.031,213.7,189.031,213.791Zm0,1.98v.306c0,.1.053.145.162.145h1.061a.128.128,0,0,0,.144-.145v-.306a.128.128,0,0,0-.144-.144h-1.061C189.084,215.627,189.031,215.676,189.031,215.771Z"/><path class="cls-12" d="M197.059,220.361l-.414-.576a.931.931,0,0,1-.152-.738.891.891,0,0,1,.44-.611,16.059,16.059,0,0,0,5-4.807,10.19,10.19,0,0,0,1.81-5.58V208a.144.144,0,0,0-.162-.162h-3.565a1,1,0,0,1-.719-.3.951.951,0,0,1-.306-.711v-.45a1.044,1.044,0,0,1,1.025-1.025h5.634a1.042,1.042,0,0,1,1.026,1.025v.468q0,7.688,5.491,11.556a1.015,1.015,0,0,1,.414.648.961.961,0,0,1-.162.738l-.414.576a1.042,1.042,0,0,1-.685.442,1.053,1.053,0,0,1-.792-.154,13.072,13.072,0,0,1-3.06-3.078,17.628,17.628,0,0,1-2.25-4.23.062.062,0,0,0-.062-.035.065.065,0,0,0-.064.035,18.143,18.143,0,0,1-2.8,4.2,16.294,16.294,0,0,1-3.753,3.159,1.047,1.047,0,0,1-.792.117A1.177,1.177,0,0,1,197.059,220.361Z"/></svg>