<svg id="レイヤー_1" data-name="レイヤー 1" xmlns="http://www.w3.org/2000/svg" viewBox="0 0 150 120"><defs><style>.cls-1{fill:#48c3ec;}.cls-2,.cls-4,.cls-9{fill:#fff;}.cls-2{opacity:0.2;}.cls-3{fill:#345;}.cls-5{fill:#858f99;}.cls-6{fill:#5c6977;}.cls-7{fill:#0dd98a;}.cls-8{fill:#eb5055;}.cls-9{opacity:0.1;}</style></defs><rect class="cls-1" x="68.662" y="9.569" width="81.338" height="43.061"/><polygon class="cls-2" points="110.329 30.701 68.662 52.631 68.662 9.569 150 9.569 110.329 30.701"/><rect class="cls-3" x="68.662" y="52.631" width="81.338" height="9.569"/><rect class="cls-3" x="68.662" width="81.338" height="9.569"/><polygon class="cls-4" points="102.154 43.05 102.154 18.189 123.685 30.619 102.154 43.05"/><rect class="cls-5" x="140.431" y="2.392" width="4.785" height="4.785"/><rect class="cls-5" x="132.058" y="2.392" width="4.785" height="4.785"/><rect class="cls-5" x="123.685" y="2.392" width="4.785" height="4.785"/><rect class="cls-5" x="115.312" y="2.392" width="4.785" height="4.785"/><rect class="cls-5" x="106.939" y="2.392" width="4.785" height="4.785"/><rect class="cls-5" x="98.566" y="2.392" width="4.785" height="4.785"/><rect class="cls-5" x="90.193" y="2.392" width="4.785" height="4.785"/><rect class="cls-5" x="81.819" y="2.392" width="4.785" height="4.785"/><rect class="cls-5" x="73.446" y="2.392" width="4.785" height="4.785"/><rect class="cls-5" x="140.431" y="55.023" width="4.785" height="4.785"/><rect class="cls-5" x="132.058" y="55.023" width="4.785" height="4.785"/><rect class="cls-5" x="123.685" y="55.023" width="4.785" height="4.785"/><rect class="cls-5" x="115.312" y="55.023" width="4.785" height="4.785"/><rect class="cls-5" x="106.939" y="55.023" width="4.785" height="4.785"/><rect class="cls-5" x="98.566" y="55.023" width="4.785" height="4.785"/><rect class="cls-5" x="90.193" y="55.023" width="4.785" height="4.785"/><rect class="cls-5" x="81.819" y="55.023" width="4.785" height="4.785"/><rect class="cls-5" x="73.446" y="55.023" width="4.785" height="4.785"/><rect class="cls-3" y="61.351" width="78.675" height="58.649" rx="5.722"/><rect class="cls-6" x="78.675" y="78.517" width="4.291" height="22.887"/><polygon class="cls-3" points="101.562 65.643 101.562 112.848 82.966 101.404 82.966 78.517 101.562 65.643"/><rect class="cls-4" x="101.562" y="61.351" width="4.291" height="54.357"/><rect class="cls-6" x="10.013" y="74.225" width="58.649" height="27.179" rx="5.722"/><circle class="cls-7" cx="51.973" cy="81.139" r="1.908"/><circle class="cls-8" cx="59.125" cy="81.139" r="1.908"/><path class="cls-9" d="M101.562,65.643V89.96H0V67.073a5.721,5.721,0,0,1,5.722-5.722H72.953a5.72,5.72,0,0,1,5.722,5.722V78.517h4.291Z"/><circle class="cls-3" cx="23.126" cy="43.708" r="20.264"/><circle class="cls-6" cx="23.126" cy="43.708" r="8.82"/><circle class="cls-3" cx="60.318" cy="46.569" r="17.403"/><circle class="cls-6" cx="60.318" cy="46.569" r="5.959"/></svg>